<svg xmlns="http://www.w3.org/2000/svg" width="62.5" height="50" viewBox="0 0 62.5 50">
  <path id="Icon_awesome-shipping-fast" data-name="Icon awesome-shipping-fast" d="M60.937,34.375H59.375V23.818A4.688,4.688,0,0,0,58,20.508l-9.756-9.756a4.688,4.688,0,0,0-3.311-1.377H40.625V4.688A4.689,4.689,0,0,0,35.938,0h-25A4.689,4.689,0,0,0,6.25,4.688V9.375H.781A.784.784,0,0,0,0,10.156v1.563a.784.784,0,0,0,.781.781H27.344a.784.784,0,0,1,.781.781v1.563a.784.784,0,0,1-.781.781H3.906a.784.784,0,0,0-.781.781v1.563a.784.784,0,0,0,.781.781H24.219a.784.784,0,0,1,.781.781v1.563a.784.784,0,0,1-.781.781H.781A.784.784,0,0,0,0,22.656v1.563A.784.784,0,0,0,.781,25H21.094a.784.784,0,0,1,.781.781v1.563a.784.784,0,0,1-.781.781H6.25v12.5a9.375,9.375,0,1,0,18.75,0H37.5a9.375,9.375,0,1,0,18.75,0h4.688A1.567,1.567,0,0,0,62.5,39.063V35.938A1.567,1.567,0,0,0,60.937,34.375ZM15.625,45.313a4.688,4.688,0,1,1,4.688-4.687A4.689,4.689,0,0,1,15.625,45.313Zm31.25,0a4.688,4.688,0,1,1,4.687-4.687A4.689,4.689,0,0,1,46.875,45.313ZM54.687,25H40.625V14.062h4.307l9.756,9.756Z" fill="#d86b00"/>
</svg>
