<svg xmlns="http://www.w3.org/2000/svg" width="66.68" height="40" viewBox="0 0 66.68 40">
  <path id="Icon_awesome-motorcycle" data-name="Icon awesome-motorcycle" d="M53.427,17.833a13.18,13.18,0,0,0-4.417.719l-3.427-5.719h8.583a2.494,2.494,0,0,0,2.5-2.5V7a2.494,2.494,0,0,0-2.5-2.5H49.448a2.5,2.5,0,0,0-1.854.823L43.688,9.667,41.313,5.708A2.517,2.517,0,0,0,39.167,4.5H30.834a1.672,1.672,0,0,0-1.667,1.667V7.833A1.672,1.672,0,0,0,30.834,9.5H37.75l2,3.333H23.74C21.9,10.427,19.063,8.667,13.334,8.667H7.553A2.536,2.536,0,0,0,5,11.219a2.5,2.5,0,0,0,2.5,2.448h5.833a5.516,5.516,0,0,1,4.979,2.583l-1.177,2.135A13.333,13.333,0,1,0,26.251,34.5h8.771a2.5,2.5,0,0,0,2.5-2.615,15.779,15.779,0,0,1,5.854-13.021l1.3,2.167a13.336,13.336,0,1,0,8.75-3.2ZM13.334,39.5a8.333,8.333,0,0,1,0-16.666,7.75,7.75,0,0,1,1.3.1l-4.323,7.854A2.5,2.5,0,0,0,12.5,34.5H20.97A8.356,8.356,0,0,1,13.334,39.5Zm48.322-7.875A8.334,8.334,0,0,1,45,31.166a8.265,8.265,0,0,1,2.3-5.739l5.146,8.583a1.673,1.673,0,0,0,2.292.573l1.427-.854a1.673,1.673,0,0,0,.573-2.292L51.677,23.01a7.978,7.978,0,0,1,1.656-.167,8.332,8.332,0,0,1,8.323,8.781Z" transform="translate(0.002 -4.5)" fill="#4caf50"/>
</svg>
