<svg xmlns="http://www.w3.org/2000/svg" width="72" height="54.711" viewBox="0 0 72 54.711">
  <g id="Group_1361" data-name="Group 1361" transform="translate(-21.354 -70.293)">
    <path id="Path_1" data-name="Path 1" d="M257.77,70.293h.266a8.958,8.958,0,0,1-.885,6.232,8.1,8.1,0,0,1-4,3.089q-16.911,8.522-33.8,17.088c-1.07-1.832-1.908-3.79-2.941-5.644,3.962-2.135,8.047-4.041,12.058-6.087C238.229,80.066,248.024,75.231,257.77,70.293Z" transform="translate(-164.857)" fill="#dfa800"/>
    <path id="Path_2" data-name="Path 2" d="M21.855,151.4a19.015,19.015,0,0,1,5.2-1.854c5.027-.617,9.764,1.842,13.8,4.569,3.8,3.251,5.944,7.895,8.273,12.211,1.975,3.93,3.846,7.909,5.9,11.8a20.5,20.5,0,0,0,3.359,5.158,4.13,4.13,0,0,0,3.777,1.247c.979,2.054,2.014,4.083,3.05,6.109-.034.051-.106.152-.14.2-4.031-.1-8.374-.883-11.473-3.662-2.108-1.93-2.835-4.771-4.213-7.179q-3.933-7.71-7.877-15.415c-.366-.723-.728-1.449-1.1-2.169-2.442-4.338-6.141-8.2-10.9-9.926a21.16,21.16,0,0,0-5.393-1.055,11.036,11.036,0,0,0,0,1.456,12.989,12.989,0,0,1,5.782,1.837,22.126,22.126,0,0,1,7.423,8.377c2.654,4.749,4.481,9.892,6.753,14.823,1.837,4.009,4.048,8.067,7.705,10.7A19.206,19.206,0,0,1,38.6,179.249q-1.575-3.3-3.241-6.554c-.255-.482-.5-.969-.743-1.456-1.446-2.85-2.937-5.678-4.314-8.561a21.327,21.327,0,0,0-8.544-9.916A.742.742,0,0,1,21.855,151.4Z" transform="translate(0 -66.901)" fill="#dfa800"/>
    <path id="Path_3" data-name="Path 3" d="M266.526,160.067c2.09-1.028,4.171-2.078,6.254-3.121a8.072,8.072,0,0,1-.932,6.527,7.745,7.745,0,0,1-2.6,2.258c-2.818,1.335-5.571,2.806-8.367,4.178-5.339,2.7-10.666,5.426-16.015,8.106-.944-1.9-1.97-3.773-2.853-5.7C250.166,168.2,258.363,164.162,266.526,160.067Z" transform="translate(-186.5 -73.237)" fill="#dfa800"/>
    <path id="Path_4" data-name="Path 4" d="M275.892,253.136c4.877-2.423,9.717-4.914,14.6-7.326.28,2.174.352,4.592-1,6.456-1.122,1.817-3.19,2.6-4.983,3.573-3.4,1.891-6.862,3.692-10.256,5.6-1.062-1.945-2.021-3.947-3.136-5.863C272.678,254.705,274.316,253.983,275.892,253.136Z" transform="translate(-211.094 -148.343)" fill="#dfa800"/>
    <path id="Path_5" data-name="Path 5" d="M306.79,341.523a17.013,17.013,0,0,1,2.469-1.276c1.616,3.254,3.3,6.471,4.946,9.71.512,1.08,1.109,2.12,1.606,3.207-1.008-.179-2.041-.057-3.052-.219-1.166-.222-2.363-.069-3.529-.3a33.506,33.506,0,0,1-3.711-.325c-1.286-2.627-2.636-5.224-4-7.813C303.285,343.528,305.039,342.527,306.79,341.523Z" transform="translate(-236.793 -228.16)" fill="#dfa800"/>
  </g>
</svg>
