<svg xmlns="http://www.w3.org/2000/svg" width="111" height="72" viewBox="0 0 111 72">
    <g fill="none" fill-rule="evenodd" stroke="#9199A0" stroke-linecap="round" stroke-linejoin="round">
        <path d="M104.5 35.5L70 23v-2.5a3 3 0 0 0-6 0v43a3 3 0 0 0 6 0V61l34.5-13M60.5 59.5l-8.411 3.059M60 51.086L50 52.5M56 43h-7.5M60.5 26.5l-8.411-3.059M60 34.914L50 33.5M70 22.5v39"/>
        <path d="M84 56v7a3.5 3.5 0 0 0 7 0v-9.5"/>
        <path d="M87.5 70.5A7.5 7.5 0 0 0 95 63V52M87.5 70.5A7.5 7.5 0 0 1 80 63v-5.5M64.077 37.156C61.45 37.74 59.5 39.912 59.5 42.5c0 2.57 1.924 4.73 4.524 5.332M107 33a2.5 2.5 0 0 1 2.5 2.5v13a2.5 2.5 0 1 1-5 0v-13A2.5 2.5 0 0 1 107 33zM41.952 30.067A17.969 17.969 0 0 0 43 24H25V6C15.059 6 7 14.059 7 24c0 .677.037 1.345.11 2.003M19.981 41.29c1.593.462 3.277.709 5.019.709"/>
        <path d="M46 21c0-9.941-8.059-18-18-18v18h18zM32.98 50a2 2 0 0 0 2 2H43a2 2 0 0 0 2-2V36.565a2 2 0 0 0-.586-1.414l-4.01-4.01a2 2 0 0 0-2.829 0l-4.01 4.01a2 2 0 0 0-.586 1.414V50zM45.5 70.5H7M10 68.5V55a1 1 0 0 1 1-1h3a1 1 0 0 1 1 1v13.5M19 68.5V57a1 1 0 0 1 1-1h3a1 1 0 0 1 1 1v11.5M28 68.5V38a1 1 0 0 1 1-1h2M33 54v14.5M37 68.5v-14m5 0v14M6.5 40.5l11-11M15.5 41a2.5 2.5 0 1 0 0-5 2.5 2.5 0 0 0 0 5zM8.5 34a2.5 2.5 0 1 0 0-5 2.5 2.5 0 0 0 0 5z"/>
        <path d="M39 39a2 2 0 1 0 0-4 2 2 0 0 0 0 4z"/>
    </g>
</svg>
