<?xml version="1.0" encoding="utf-8"?>
<!-- Generator: Adobe Illustrator 24.2.3, SVG Export Plug-In . SVG Version: 6.00 Build 0)  -->
<svg version="1.1" id="Layer_1" xmlns="http://www.w3.org/2000/svg" xmlns:xlink="http://www.w3.org/1999/xlink" x="0px" y="0px"
	 viewBox="0 0 476 370" style="enable-background:new 0 0 476 370;" xml:space="preserve">
<style type="text/css">
	.st0{fill-rule:evenodd;clip-rule:evenodd;fill:#BBBFBC;}
	.st1{fill-rule:evenodd;clip-rule:evenodd;fill:#C1C600;}
	.st2{fill-rule:evenodd;clip-rule:evenodd;fill:#D0D11B;}
	.st3{fill-rule:evenodd;clip-rule:evenodd;fill:#91531F;}
	.st4{fill-rule:evenodd;clip-rule:evenodd;fill:#AB6A30;}
	.st5{fill-rule:evenodd;clip-rule:evenodd;fill:#9AB650;}
	.st6{fill-rule:evenodd;clip-rule:evenodd;fill:#79913C;}
	.st7{fill-rule:evenodd;clip-rule:evenodd;fill:#C4D44F;}
	.st8{fill-rule:evenodd;clip-rule:evenodd;fill:#D2AD7D;}
	.st9{fill-rule:evenodd;clip-rule:evenodd;fill:#C49455;}
	.st10{fill-rule:evenodd;clip-rule:evenodd;fill:#CBA16A;}
	.st11{fill-rule:evenodd;clip-rule:evenodd;fill:#2A2A2A;}
	.st12{fill-rule:evenodd;clip-rule:evenodd;fill:#3E3E3E;}
	.st13{fill-rule:evenodd;clip-rule:evenodd;fill:#FFFFFF;fill-opacity:0.3;}
	.st14{fill-rule:evenodd;clip-rule:evenodd;fill:#FFFFFF;}
	.st15{fill-rule:evenodd;clip-rule:evenodd;fill:#D2D2D2;}
	.st16{fill-rule:evenodd;clip-rule:evenodd;fill:#BEBEBE;}
	.st17{fill-rule:evenodd;clip-rule:evenodd;fill:#CCCCCC;}
	.st18{fill-rule:evenodd;clip-rule:evenodd;fill:#333333;}
	.st19{fill-rule:evenodd;clip-rule:evenodd;fill:#9B9B9B;}
	.st20{fill-rule:evenodd;clip-rule:evenodd;fill:#EF5662;}
	.st21{filter:url(#Adobe_OpacityMaskFilter);}
	.st22{mask:url(#h02pv6onlc_1_);fill-rule:evenodd;clip-rule:evenodd;fill:#AD3C44;}
	.st23{fill-rule:evenodd;clip-rule:evenodd;fill:#C8C8C8;}
	.st24{fill-rule:evenodd;clip-rule:evenodd;fill:#F2F2F2;}
	.st25{filter:url(#Adobe_OpacityMaskFilter_1_);}
	.st26{mask:url(#o31dz5pjhe_1_);fill-rule:evenodd;clip-rule:evenodd;fill:#AD3C44;}
	.st27{fill-rule:evenodd;clip-rule:evenodd;fill:#E6E6E6;}
	.st28{fill-rule:evenodd;clip-rule:evenodd;fill:#EB2C3B;}
	.st29{fill-rule:evenodd;clip-rule:evenodd;fill:#ED404E;}
	.st30{fill-rule:evenodd;clip-rule:evenodd;fill:url(#SVGID_1_);}
	.st31{fill-rule:evenodd;clip-rule:evenodd;fill:url(#SVGID_2_);}
	.st32{fill-rule:evenodd;clip-rule:evenodd;fill:#161616;}
	.st33{fill-rule:evenodd;clip-rule:evenodd;fill:#2D3540;fill-opacity:0.13;}
	.st34{fill-rule:evenodd;clip-rule:evenodd;fill:#ACACAC;}
	.st35{fill-rule:evenodd;clip-rule:evenodd;fill:#E4E5E6;}
	.st36{fill-rule:evenodd;clip-rule:evenodd;fill:#A5A5A5;}
	.st37{fill-rule:evenodd;clip-rule:evenodd;fill:#F4EFDA;}
	.st38{fill-rule:evenodd;clip-rule:evenodd;fill:#F3B454;}
	.st39{fill-rule:evenodd;clip-rule:evenodd;fill:#B7D4E4;}
	.st40{fill-rule:evenodd;clip-rule:evenodd;fill:#707070;}
	.st41{fill-rule:evenodd;clip-rule:evenodd;fill:#2D3540;}
	.st42{fill-rule:evenodd;clip-rule:evenodd;fill:#434A54;}
	.st43{fill-rule:evenodd;clip-rule:evenodd;fill:#77787B;}
	.st44{fill-rule:evenodd;clip-rule:evenodd;fill:#828386;}
	.st45{fill-rule:evenodd;clip-rule:evenodd;fill:#B2B2B2;}
</style>
<g>
	<g>
		<g>
			<g>
				<g>
					<g>
						<path class="st0" d="M181.3,352.2l-13.2,6.6l13.2,6.6l13.2-6.6L181.3,352.2L181.3,352.2z M246.7,356.4l-5.3,2.7l5.3,2.7
							l5.3-2.7L246.7,356.4L246.7,356.4z M130.1,353.3l-5.3,2.7l5.3,2.7l5.3-2.7L130.1,353.3L130.1,353.3z M318.4,350.2l-5.3,2.7
							l5.3,2.7l5.3-2.7L318.4,350.2L318.4,350.2z M85.5,341.2l-5.3,2.7l5.3,2.7l5.3-2.7L85.5,341.2z M356.3,329.9l-13.2,6.6
							l13.2,6.6l13.2-6.6L356.3,329.9L356.3,329.9z M272.4,332.5l-4.8,2.4l4.8,2.4l4.8-2.4L272.4,332.5z M311.1,313.6l-13.2,6.6
							l13.2,6.6l13.2-6.6L311.1,313.6z M428.7,305.9l-4.8,2.4l4.8,2.4l4.8-2.4L428.7,305.9L428.7,305.9z M381.5,302.1l-4.8,2.4
							l4.8,2.4l4.8-2.4L381.5,302.1L381.5,302.1z M91.4,290.9l-5.3,2.7l5.3,2.7l5.3-2.7L91.4,290.9L91.4,290.9z M410,284.7l-4.8,2.4
							l4.8,2.4l4.8-2.4L410,284.7L410,284.7z M460.3,265l-13.2,6.6l13.2,6.6l13.2-6.6L460.3,265z M373.5,267.9l-4.8,2.4l4.8,2.4
							l4.8-2.4L373.5,267.9z M320.6,239l-4.8,2.4l4.8,2.4l4.8-2.4L320.6,239L320.6,239z M455.8,233.8l-5.3,2.7l5.3,2.7l5.3-2.7
							L455.8,233.8z M34.2,217.8l-5.3,2.7l5.3,2.7l5.3-2.7C39.5,220.5,34.2,217.8,34.2,217.8z M456,216.6l-4.8,2.4l4.8,2.4l4.8-2.4
							L456,216.6L456,216.6z M469.1,175.3l-4.8,2.4l4.8,2.4l4.8-2.4L469.1,175.3z M433.8,164.4l-13.2,6.6l13.2,6.6L447,171
							L433.8,164.4z M402.1,145.8l-5.3,2.7l5.3,2.7l5.3-2.7L402.1,145.8z"/>
						<path class="st1" d="M171.4,334.1l-6.6,3.3l6.6,3.3l6.6-3.3L171.4,334.1z M237.2,332.9l-6.6,3.3l6.6,3.3l6.6-3.3L237.2,332.9
							L237.2,332.9z M207.1,324.9l-6.6,3.3l6.6,3.3l6.6-3.3L207.1,324.9z M143.4,322l-6.6,3.3l6.6,3.3l6.6-3.3L143.4,322z
							 M370.6,208.5l27.4-13.7l0.3,0.1l17.2-8.6l19.7,9.9l-17.2,8.6l23.8,11.9L393.3,241l9.4,4.7l-15.4,7.7l17.9,9l-32.9,16.5
							l-17.4-8.7l-26.1,13.1l10.5,5.2l-32.9,16.5l-32.9-16.5l24.1-12.1l-42.6,21.3L227.7,284l-18.6,9.3l10.6,5.3l-47.8,23.9
							L139,306.2l41.6-20.8L170,280l24.8-12.4l-51.4-25.7l3.8-1.9l-7-2.4l-6.4-4.1l-44.8,22.5l-45.5-22.8l43.6-21.9L72.6,204
							l-9.7,4.9L30,192.4l32.9-16.5l6.5,3.3l13.2-6.6l-24.5-12.3L91,143.8l45.2,22.6l17.4-8.7l1.5,0.8l57.9-29L370.6,208.5
							L370.6,208.5z M239,306.8l-13.2,6.6L239,320l13.2-6.6L239,306.8L239,306.8z M276.4,310.4l-6.6,3.3l6.6,3.3l6.6-3.3
							L276.4,310.4z M336.3,301l-6.6,3.3l6.6,3.3l6.6-3.3L336.3,301L336.3,301z M363.1,283.6l-6.6,3.3l6.6,3.3l6.6-3.3L363.1,283.6z
							 M421.6,264.8l-6.6,3.3l6.6,3.3l6.6-3.3L421.6,264.8L421.6,264.8z M56.9,251l-13.2,6.6l13.2,6.6l13.2-6.6L56.9,251L56.9,251z
							 M426.5,242.6l-13.2,6.6l13.2,6.6l13.2-6.6L426.5,242.6z M430.4,225.7l-6.6,3.3l6.6,3.3l6.6-3.3L430.4,225.7z M8.8,216.6
							l-6.6,3.3l6.6,3.3l6.6-3.3L8.8,216.6z M450.1,195.7l-6.6,3.3l6.6,3.3l6.6-3.3L450.1,195.7z M374.6,156l-6.6,3.3l6.6,3.3
							l6.6-3.3L374.6,156z"/>
						<path class="st2" d="M172.3,295.4l-19.7,9.9l19.7,9.9l19.7-9.9L172.3,295.4L172.3,295.4z M197.8,292.4l-9.9,4.9l9.9,4.9
							l9.9-4.9L197.8,292.4z M306.9,289.6l-9.9,4.9l9.9,4.9l9.9-4.9L306.9,289.6L306.9,289.6z M205.5,260l-19.7,9.9l19.7,9.9
							l19.7-9.9L205.5,260z M371.7,252.3l-19.7,9.9l19.7,9.9l19.7-9.9L371.7,252.3L371.7,252.3z M218.3,239.3l-13.2,6.6l13.2,6.6
							l13.2-6.6L218.3,239.3z M382,239.7l-9.9,4.9l9.9,4.9l9.9-4.9L382,239.7z M320.6,234.7l-9.9,4.9l9.9,4.9l9.9-4.9L320.6,234.7z
							 M350,234l-9.9,4.9l9.9,4.9l9.9-4.9L350,234z M97.6,233l-9.9,4.9l9.9,4.9l9.9-4.9L97.6,233z M72.8,229.9l-9.9,4.9l9.9,4.9
							l9.9-4.9L72.8,229.9z M132.8,226l-9.9,4.9l9.9,4.9l9.9-4.9L132.8,226z M410.7,206.7l-19.7,9.9l19.7,9.9l19.7-9.9L410.7,206.7z
							 M113.4,204.5l-19.7,9.9l19.7,9.9l19.7-9.9L113.4,204.5L113.4,204.5z M63.2,181.6l-19.7,9.9l19.7,9.9l19.7-9.9
							C82.9,191.5,63.2,181.6,63.2,181.6z M93.6,150.5l-19.7,9.9l19.7,9.9l19.7-9.9C113.3,160.4,93.6,150.5,93.6,150.5z"/>
					</g>
					<g>
						<g>
							<g>
								<path class="st3" d="M63.5,154.3l-3.9,1.9v38.2l3.9-1.9V154.3z"/>
								<path class="st4" d="M59.7,156.3l-3.9-1.9v38.2l3.9,1.9V156.3z"/>
							</g>
							<g>
								<path class="st5" d="M83.3,140.8l-23.6,11.8v24.2L83.3,165V140.8z"/>
								<path class="st6" d="M59.7,152.6L36,140.8V165l23.6,11.8V152.6z"/>
								<path class="st7" d="M59.7,128.9L36,140.8l23.6,11.8l23.6-11.8L59.7,128.9z"/>
							</g>
							<g>
								<path class="st5" d="M75.5,123.3l-15.9,8v17.4l15.9-8V123.3z"/>
								<path class="st6" d="M59.7,131.2l-15.9-8v17.5l15.9,8V131.2z"/>
								<path class="st7" d="M59.7,115.3l-15.9,8l15.9,8l15.9-8L59.7,115.3z"/>
							</g>
							<g>
								<path class="st5" d="M70.3,108.4l-10.6,5.3v13.9l10.6-5.3V108.4z"/>
								<path class="st6" d="M59.7,113.7l-10.1-5.1v13.9l10.1,5.1V113.7z"/>
								<path class="st7" d="M60.2,103.3l-10.6,5.3l10.1,5.1l10.6-5.3L60.2,103.3z"/>
							</g>
						</g>
						<g>
							<path class="st8" d="M392.3,159.9l-30.5,15.3l23.5,11.8l30.5-15.3L392.3,159.9z"/>
							<path class="st9" d="M385.4,186.9l-23.5-11.8v23l23.5,11.8V186.9z"/>
							<path class="st10" d="M415.9,171.7l-30.5,15.3v23l30.5-15.3V171.7z"/>
							<path class="st11" d="M415.9,171.7l-7.5,3.8v23l7.5-3.8V171.7z"/>
							<path class="st12" d="M392.3,159.9l-7.5,3.8l23.6,11.8l7.5-3.8L392.3,159.9z"/>
							<path class="st13" d="M401,164.3l-30.4,15.2l6.1,3.1l30.5-15.3L401,164.3z"/>
							<path class="st13" d="M376.7,182.6l-6.1-3.1v23l6.1,3.1V182.6z"/>
							<path class="st14" d="M390.9,167.8l-13.3,6.7l9.2,4.6l13.3-6.7L390.9,167.8z"/>
						</g>
						<g>
							<path class="st15" d="M372.2,140.9l-108.9,54.5v72.7l108.9-54.5V140.9z"/>
							<path class="st16" d="M263.3,195.5L97.4,112.4v72.7l165.9,83.1V195.5z"/>
							<g>
								<path class="st17" d="M190.7,231.8l49.8,24.9v-1l-49.8-25V231.8z"/>
								<path class="st18" d="M240.5,204.3l-47.8-24v51.4l47.8,24V204.3z"/>
								<path class="st19" d="M192.7,175.5l-2,1v55.3l2-1V175.5z"/>
								<path class="st20" d="M240.5,204.9l-48.8-24.4v28.2l48.8,24.4V204.9z"/>
								
									<g transform="translate(-1060 -366) translate(960) translate(100 366) translate(0 .58) translate(35.208) translate(57.276) translate(95.323 174.238) translate(1.786 4.632)">
									<defs>
										<filter id="Adobe_OpacityMaskFilter" filterUnits="userSpaceOnUse" x="2.1" y="0.6" width="48.8" height="51.4">
											<feColorMatrix  type="matrix" values="1 0 0 0 0  0 1 0 0 0  0 0 1 0 0  0 0 0 1 0"/>
										</filter>
									</defs>
									<mask maskUnits="userSpaceOnUse" x="2.1" y="0.6" width="48.8" height="51.4" id="h02pv6onlc_1_">
										<g class="st21">
											<path id="p8g1jg7vqb_1_" class="st14" d="M50.9,25.5L2.1,1v28.2l48.8,24.4V25.5z"/>
										</g>
									</mask>
									<path class="st22" d="M50.9,51.4L2.1,27v0.6L50.9,52V51.4L50.9,51.4z M50.9,47L2.1,22.6v0.6l48.8,24.4
										C50.9,47.6,50.9,47,50.9,47z M50.9,42.6L2.1,18.2v0.6l48.8,24.5V42.6L50.9,42.6z M50.9,38.2L2.1,13.8v0.6l48.8,24.5V38.2
										L50.9,38.2z M50.9,33.8L2.1,9.4v0.6l48.8,24.5V33.8z M50.9,29.5L2.1,5v0.6L50.9,30C50.9,30,50.9,29.5,50.9,29.5z
										 M50.9,25.1L2.1,0.6v0.6l48.8,24.5C50.9,25.6,50.9,25.1,50.9,25.1z"/>
								</g>
								<g>
									<path class="st15" d="M242.5,200l-3.5,1.8v4l3.5-1.8V200z"/>
									<path class="st23" d="M189.6,181l49.5,24.8v-4l-49.5-24.8V181z"/>
									<path class="st24" d="M189.7,177l49.3,24.7l3.5-1.8l-49.3-24.7L189.7,177z"/>
								</g>
							</g>
							<g>
								<path class="st17" d="M116.5,194.6l49.8,24.9v-1l-49.8-25V194.6z"/>
								<path class="st19" d="M118.5,138.3l-2,1v55.3l2-1V138.3z"/>
								<path class="st20" d="M166.3,167.7l-48.8-24.5v50.8l48.8,24.4V167.7z"/>
								
									<g transform="translate(-1060 -366) translate(960) translate(100 366) translate(0 .58) translate(35.208) translate(57.276) translate(21.335 137.18) translate(1.786 4.632)">
									<defs>
										<filter id="Adobe_OpacityMaskFilter_1_" filterUnits="userSpaceOnUse" x="1.9" y="0.5" width="48.8" height="73.3">
											<feColorMatrix  type="matrix" values="1 0 0 0 0  0 1 0 0 0  0 0 1 0 0  0 0 0 1 0"/>
										</filter>
									</defs>
									<mask maskUnits="userSpaceOnUse" x="1.9" y="0.5" width="48.8" height="73.3" id="o31dz5pjhe_1_">
										<g class="st25">
											<path id="th3u2ilhbd_1_" class="st14" d="M50.7,25.3L1.9,0.9v50.8l48.8,24.4V25.3z"/>
										</g>
									</mask>
									<path class="st26" d="M50.7,73.2L1.9,48.8v0.6l48.8,24.5V73.2L50.7,73.2z M50.7,68.9L1.9,44.4V45l48.8,24.5
										C50.7,69.4,50.7,68.9,50.7,68.9z M50.7,64.5L1.9,40v0.6L50.7,65V64.5z M50.7,60.1L1.9,35.6v0.6l48.8,24.5V60.1z M50.7,55.7
										L1.9,31.2v0.6l48.8,24.5C50.7,56.2,50.7,55.7,50.7,55.7z M50.7,51.3L1.9,26.8v0.6l48.8,24.5C50.7,51.8,50.7,51.3,50.7,51.3
										z M50.7,46.9L1.9,22.4V23l48.8,24.5C50.7,47.5,50.7,46.9,50.7,46.9z M50.7,42.5L1.9,18.1v0.6l48.8,24.5
										C50.7,43.1,50.7,42.5,50.7,42.5z M50.7,38.1L1.9,13.7v0.6l48.8,24.5C50.7,38.7,50.7,38.1,50.7,38.1z M50.7,33.7L1.9,9.3
										v0.6l48.8,24.5V33.7L50.7,33.7z M50.7,29.3L1.9,4.9v0.6l48.8,24.5V29.3L50.7,29.3z M50.7,24.9L1.9,0.5V1l48.8,24.5V24.9
										L50.7,24.9z"/>
								</g>
								<g>
									<path class="st15" d="M168.3,162.8l-3.5,1.8v4l3.5-1.8V162.8z"/>
									<path class="st23" d="M115.4,143.8l49.5,24.8v-4l-49.5-24.8V143.8z"/>
									<path class="st24" d="M115.5,139.8l49.3,24.7l3.5-1.8L119,138.1L115.5,139.8z"/>
								</g>
							</g>
							<g>
								<path class="st24" d="M206.3,56.9L94.1,113.1l169.2,84.8l112.2-56.2L206.3,56.9z"/>
								<path class="st23" d="M263.3,197.9L94.1,113.1v7.1L263.3,205V197.9z M354.9,134.1l-149.7-75v7.1l149.7,75V134.1z"/>
								<path class="st27" d="M205.2,59.1l-92.7,46.4v7.1l92.7-46.4V59.1z"/>
								<path class="st28" d="M262.6,184.8l-158.5-79.4v7.1l158.5,79.4V184.8z"/>
								<path class="st20" d="M205.2,54.8l-101.1,50.6l158.5,79.4l101.1-50.6L205.2,54.8z M205.2,59.1l-92.7,46.4l150,75.1
									l92.7-46.4L205.2,59.1z"/>
								<path class="st27" d="M375.5,141.7l-112.2,56.2v7.1l112.2-56.2V141.7z"/>
								<path class="st29" d="M364.2,133.9l-101.6,50.9v7.1L364.2,141V133.9z"/>
							</g>
							<path class="st15" d="M290.2,53.4l-73.3,36.7v55.3l73.3-36.7V53.4z"/>
							<g>
								
									<linearGradient id="SVGID_1_" gradientUnits="userSpaceOnUse" x1="-55.7632" y1="600.6906" x2="-55.7632" y2="599.6906" gradientTransform="matrix(21.558 0 0 -45.392 1473.287 27332.8867)">
									<stop  offset="0" style="stop-color:#91CBE3"/>
									<stop  offset="1" style="stop-color:#589CC3"/>
								</linearGradient>
								<path class="st30" d="M281.9,66.3l-21.6,10.8v34.6l21.6-10.8V66.3z"/>
								<path class="st16" d="M282.3,68.5l-2.3-1.2v32.5l2.3,1.2V68.5z"/>
								<path class="st24" d="M280,99.8l-17.6,8.8l2.3,1.2l17.6-8.8L280,99.8z"/>
								<path class="st16" d="M262.7,78.3l-2.3-1.2v34.7l2.3,1.2V78.3z"/>
								<path class="st27" d="M284.2,102.2L262.7,113V78.3l21.6-10.8V102.2z M264.6,79.5v30.3l17.6-8.8V70.7
									C276.4,73.6,270.5,76.6,264.6,79.5L264.6,79.5z"/>
								<path class="st24" d="M281.9,66.3l-21.6,10.8l2.3,1.2l21.6-10.8L281.9,66.3z"/>
							</g>
							<g>
								
									<linearGradient id="SVGID_2_" gradientUnits="userSpaceOnUse" x1="-55.7632" y1="600.6912" x2="-55.7632" y2="599.6912" gradientTransform="matrix(21.558 0 0 -45.397 1440.0259 27352.5742)">
									<stop  offset="0" style="stop-color:#91CBE3"/>
									<stop  offset="1" style="stop-color:#589CC3"/>
								</linearGradient>
								<path class="st31" d="M248.7,83l-21.6,10.8v34.6l21.6-10.8V83z"/>
								<path class="st16" d="M249,85.2l-2.3-1.2v32.5l2.3,1.2V85.2z"/>
								<path class="st24" d="M246.7,116.5l-17.6,8.8l2.3,1.2l17.6-8.8L246.7,116.5z"/>
								<path class="st16" d="M229.4,94.9l-2.3-1.2v34.7l2.3,1.2V94.9z"/>
								<path class="st27" d="M251,118.9l-21.6,10.8V94.9L251,84.2V118.9z M231.4,96.2v30.3l17.6-8.8V87.3
									C243.1,90.3,237.2,93.2,231.4,96.2L231.4,96.2z"/>
								<path class="st24" d="M248.7,83l-21.6,10.8l2.3,1.1L251,84.2L248.7,83z"/>
							</g>
							<path class="st16" d="M216.9,90.2l-85-42.6v55.3l85,42.6V90.2z"/>
							<g>
								<path class="st24" d="M204.5,4.2l-75.1,37.6l87.5,43.8L292,48L204.5,4.2z"/>
								<path class="st23" d="M216.9,85.6l-87.5-43.8v5.9l87.5,43.8V85.6z M278.6,41.9L204.5,4.8v5.9l74.1,37.1V41.9z"/>
								<path class="st27" d="M204.5,4.8l-61.8,30.9v5.9l61.8-30.9V4.8z"/>
								<path class="st28" d="M216.9,76.4l-81.2-40.7v5.9l81.2,40.7V76.4z"/>
								<path class="st20" d="M204.5,1.3l-68.8,34.5l81.2,40.7l68.8-34.5L204.5,1.3L204.5,1.3z M204.5,4.8l-61.8,31l74.1,37.1
									l61.8-31C278.6,41.9,204.5,4.8,204.5,4.8z"/>
								<path class="st27" d="M292,48l-75.1,37.6v5.9L292,53.9V48z"/>
								<path class="st29" d="M285.7,41.9l-68.8,34.5v5.9l68.8-34.5V41.9z"/>
							</g>
						</g>
						<g>
							<path class="st8" d="M86.8,177l-26.6,13.3l27.1,13.6l26.6-13.3L86.8,177z"/>
							<path class="st9" d="M87.2,203.9l-27.1-13.6v20.1L87.2,224V203.9z"/>
							<path class="st10" d="M113.9,190.6l-26.6,13.3V224l26.6-13.3V190.6z"/>
							<path class="st11" d="M113.9,190.6l-6.5,3.3v20.1l6.5-3.3V190.6z"/>
							<path class="st12" d="M86.8,177l-6.5,3.3l27.1,13.6l6.5-3.3L86.8,177z"/>
							<path class="st13" d="M97.6,182.4L71,195.8l5.4,2.7l26.6-13.3L97.6,182.4z M76.4,198.5l-5.4-2.7v20.1l5.4,2.7V198.5z"/>
							<path class="st14" d="M86.7,186.6l-11.7,5.8l8.1,4l11.6-5.8L86.7,186.6z"/>
						</g>
						<g>
							<path class="st8" d="M63.2,204.3l-22,11l19.6,9.8l22-11L63.2,204.3z"/>
							<path class="st9" d="M60.8,225.1l-19.6-9.8v9.2l19.6,9.8V225.1z"/>
							<path class="st10" d="M82.9,214.1l-22,11v9.2l22-11V214.1z"/>
							<path class="st11" d="M82.9,214.1l-5.1,2.5v9.2l5.1-2.5V214.1z"/>
							<path class="st12" d="M63.2,204.3l-5.1,2.5l19.6,9.8l5.1-2.5L63.2,204.3z"/>
							<path class="st13" d="M70.4,207.9l-22,11l5.4,2.7l22-11L70.4,207.9z M53.7,221.6l-5.4-2.7v9.2l5.4,2.7V221.6z"/>
							<path class="st14" d="M61.2,211.1L49.5,217l8,4l11.7-5.8L61.2,211.1z"/>
						</g>
						<g>
							<path class="st8" d="M64.6,195.9l-18,9l12,6l18-9L64.6,195.9z"/>
							<path class="st9" d="M58.6,210.9l-12-6v9.2l12,6V210.9z"/>
							<path class="st10" d="M76.6,201.9l-18,9v9.2l18-9V201.9z"/>
							<path class="st11" d="M76.6,201.9l-4.1,2.1v9.2l4.1-2.1V201.9z"/>
							<path class="st12" d="M64.6,195.9l-4.1,2.1l12,6l4.1-2.1L64.6,195.9z"/>
							<path class="st13" d="M68.8,198l-18,9l3.7,1.8l18-9L68.8,198z M54.4,208.8l-3.7-1.8v9.2l3.7,1.8V208.8z"/>
							<path class="st14" d="M61.4,200.1l-10.1,5l6.7,3.4l10.1-5L61.4,200.1z"/>
						</g>
						<g>
							<path class="st8" d="M326.3,243.7l-28.9,14.5l19.2,9.6l28.9-14.5L326.3,243.7z"/>
							<path class="st9" d="M316.7,267.8l-19.2-9.6V273l19.2,9.6V267.8z"/>
							<path class="st10" d="M345.6,253.3l-28.9,14.5v14.8l28.9-14.5V253.3z"/>
							<path class="st11" d="M345.6,253.3l-6.6,3.3v14.8l6.6-3.3V253.3z"/>
							<path class="st12" d="M326.3,243.7l-6.6,3.3l19.2,9.6l6.6-3.3L326.3,243.7z"/>
							<path class="st13" d="M333,247l-28.9,14.5l5.9,3l28.9-14.5L333,247z M310,264.5l-5.9-3v14.8l5.9,3V264.5z"/>
							<path class="st14" d="M321.3,250.5l-16.2,8.1l10.8,5.4l16.2-8.1L321.3,250.5z"/>
						</g>
						<g>
							<path class="st8" d="M241.3,251.7l-32.1,16.1l22,11l32.1-16.1L241.3,251.7z"/>
							<path class="st9" d="M231.2,278.8l-22-11v20.5l22,11V278.8z"/>
							<path class="st11" d="M263.3,262.7l-32.1,16.1v20.5l32.1-16.1V262.7z"/>
							<path class="st12" d="M224.9,275.6l6.3,3.2l32.1-16.1l-6.3-3.2L224.9,275.6z"/>
							<path class="st32" d="M231.2,278.8l-6.3-3.2v20.5l6.3,3.2V278.8z"/>
							<path class="st13" d="M222.7,261l22,11l5.2-2.6l-22-11L222.7,261z"/>
							<path class="st13" d="M249.8,269.4l-5.2,2.6v20.5l5.2-2.6V269.4z"/>
							<path class="st14" d="M223.6,262.8l11.2,5.6l7.8-3.9l-11.2-5.6L223.6,262.8z"/>
						</g>
						<g>
							<path class="st8" d="M368,195.1l-11.5,5.7l22,11l11.5-5.7L368,195.1z"/>
							<path class="st9" d="M378.5,211.9l-22-11v20.5l22,11V211.9z"/>
							<path class="st11" d="M389.9,206.2l-11.4,5.7v20.5l11.4-5.7V206.2z"/>
							<path class="st12" d="M372.2,208.7l6.3,3.2l11.5-5.7l-6.3-3.2L372.2,208.7z"/>
							<path class="st32" d="M378.5,211.9l-6.3-3.2v20.5l6.3,3.2V211.9z"/>
							<path class="st13" d="M360.4,198.9l22,11l3.6-1.8l-22-11L360.4,198.9z"/>
							<path class="st13" d="M386,208.1l-3.6,1.8v20.5l3.6-1.8V208.1z"/>
							<path class="st14" d="M361.6,201l10.4,5.2l7-3.5l-10.4-5.2L361.6,201z"/>
						</g>
						<g>
							<path class="st8" d="M283.8,239.8l-25.7,12.9l22,11l25.7-12.9L283.8,239.8z"/>
							<path class="st9" d="M280.1,263.7l-22-11v37.2l22,11V263.7z"/>
							<path class="st10" d="M305.7,250.8l-25.7,12.9v37.2l25.7-12.9V250.8z"/>
							<path class="st11" d="M305.7,250.8l-6.3,3.2v37.2l6.3-3.2V250.8z"/>
							<path class="st12" d="M283.8,239.8l-6.3,3.2l22,11l6.3-3.2L283.8,239.8z"/>
							<path class="st13" d="M292.2,244l-25.7,12.9l5.2,2.6l25.7-12.9L292.2,244z M271.7,259.5l-5.2-2.6v37.2l5.2,2.6V259.5z"/>
							<path class="st14" d="M279.8,248.9l-11.2,5.6l7.8,3.9l11.2-5.6L279.8,248.9z"/>
						</g>
						<g>
							<path class="st8" d="M356.5,215.3l-18,9l12,6l18-9L356.5,215.3z"/>
							<path class="st9" d="M350.5,230.3l-12-6v9.2l12,6V230.3z"/>
							<path class="st10" d="M368.5,221.3l-18,9v9.2l18-9V221.3z"/>
							<path class="st11" d="M368.5,221.3l-4.1,2.1v9.2l4.1-2.1V221.3z"/>
							<path class="st12" d="M356.5,215.3l-4.1,2.1l12,6l4.1-2.1L356.5,215.3z"/>
							<path class="st13" d="M360.7,217.4l-18,9l3.7,1.8l18-9L360.7,217.4z M346.4,228.3l-3.7-1.8v9.2l3.7,1.8V228.3z"/>
							<path class="st14" d="M353.4,219.5l-10.1,5l6.7,3.4l10.1-5L353.4,219.5z"/>
						</g>
						<g>
							<path class="st33" d="M165.6,263.1c-1.2-0.6-2.9-0.7-3.8-0.2l-98.9,49.6c-0.9,0.5-0.7,1.3,0.4,1.9l37.9,19
								c1.2,0.6,2.9,0.7,3.8,0.2l98.9-49.6c0.9-0.5,0.7-1.3-0.4-1.9L165.6,263.1L165.6,263.1z"/>
							<path class="st34" d="M121.8,269.4l-32.2-16.1v46.1l32.2,16.1V269.4z"/>
							<g>
								<path class="st35" d="M64.5,265.9l32.2,16.1l-5.3,48.7l-32.2-16.1l0.7-6.9v-12.3l1.7-3.5L64.5,265.9z"/>
								<path class="st36" d="M82.7,308.9l-13.4-6.7v0.4l13.4,6.7L82.7,308.9z M82.7,310l-13.4-6.7v0.4l13.4,6.7L82.7,310z
									 M82.7,311l-13.4-6.7v0.4l13.4,6.7L82.7,311z M82.7,312.1l-13.4-6.7v0.4l13.4,6.7L82.7,312.1z M82.7,313.1l-13.4-6.7v0.4
									l13.4,6.7L82.7,313.1z M82.7,314.2l-13.4-6.7v0.4l13.4,6.7L82.7,314.2z M82.7,315.2l-13.4-6.7v0.4l13.4,6.7L82.7,315.2z"/>
								<path class="st16" d="M91.3,322.1l-32.4-16.4v8l32.4,16.2L91.3,322.1z"/>
								<g>
									<path class="st36" d="M89.4,323l-7.3-3.7l-0.3,0.2l0.3,3.4l7,3.8l0.3-0.2V323z"/>
									<path class="st37" d="M89.1,323.2l-7.3-3.7v3.6l7.3,3.7L89.1,323.2z"/>
									<path class="st38" d="M89.1,323.2l-1.1-0.6v3.6l1.1,0.6V323.2z"/>
								</g>
								<g>
									<path class="st36" d="M68.4,312.5l-7.3-3.7l-0.3,0.2l0.3,3.4l7,3.8l0.3-0.2V312.5z"/>
									<path class="st37" d="M68,312.7l-7.3-3.7v3.6l7.3,3.6L68,312.7z"/>
									<path class="st38" d="M61.8,309.5l-1.1-0.5v3.6l1.1,0.6V309.5z"/>
								</g>
								<path class="st39" d="M95.1,283.2l-29.4-14.7L63,292.6l29.4,14.7L95.1,283.2z"/>
								<path class="st24" d="M88.4,253.9l-24,12l32.2,16.1l24-12L88.4,253.9z"/>
								<path class="st40" d="M120.7,316l-3.8,1.9l-7.8-2.3l9.6-3.5L120.7,316z"/>
								<g>
									<path class="st41" d="M105.9,316.5c2.2-1.1,6.8-1.3,8.3-0.9c1.4,0.4,0.1,1.6,0.1,3.6c0,4.2-3.4,9.2-7.5,11.3
										c-1.2,0.6,0.5,1.8-0.5,1.8c-1.3,0.1-2.7-0.1-3.9-0.7c-1.5-0.7-2.6-2-3-3.8c-0.1-0.3-0.1-0.7-0.1-1.1
										C99.3,322.6,101.8,318.6,105.9,316.5z"/>
									<path class="st42" d="M109.9,316.4c4.1-2.1,7.5-0.4,7.5,3.8c0,4.2-3.4,9.2-7.5,11.3c-4.1,2.1-7.5,0.4-7.5-3.8
										S105.7,318.5,109.9,316.4z"/>
									<path class="st43" d="M109.9,319.5c2.4-1.2,4.4-0.2,4.4,2.2c0,2.4-2,5.4-4.4,6.7c-2.4,1.2-4.4,0.2-4.4-2.2
										C105.5,323.7,107.4,320.7,109.9,319.5z"/>
									<path class="st44" d="M110.1,319.4c2.3-1.1,4.2-0.2,4.2,2.1c0,2.3-1.9,5.1-4.2,6.3c-2.3,1.1-4.2,0.2-4.2-2.1
										C105.9,323.4,107.8,320.5,110.1,319.4z"/>
								</g>
								<path class="st24" d="M99.9,326.5l-8.5,4.3l0.5-18.5l2.1-4.2l2.8-26l24-12v46l-3.1,1.6c-1.3-2.7-4.8-3.3-8.8-1.3
									C104.6,318.3,101.2,322.4,99.9,326.5z"/>
								<path class="st39" d="M119.1,294.8l-23.6,11.8l2.6-23l21-10.5V294.8z"/>
								<path class="st36" d="M60,305.9l31.3,15.7v0.5l-32.4-16.4l0.3-0.2l0.3,0.2l-0.3-0.2l0.9-0.4C60.1,305.1,60,305.9,60,305.9z
									 M99.9,317.9l-8.6,4.2v-0.4l8.1-3.9L99.9,317.9z"/>
								<path class="st16" d="M99.9,325.6l-8.6,4.3v-7.9l8.6-4.2V325.6z"/>
							</g>
							<path class="st24" d="M171.2,212.3l-81.7,40.9l32.2,16.2l81.7-40.9L171.2,212.3z"/>
							<path class="st40" d="M194.3,279.1l-4.2,2.1l-7.8-2.3l9.6-3.5L194.3,279.1z"/>
							<g>
								<path class="st41" d="M179.2,279.8c2.2-1.1,6.8-1.3,8.3-0.9c1.4,0.4,0.1,1.6,0.1,3.6c0,4.1-3.4,9.2-7.5,11.3
									c-1.2,0.6,0.5,1.8-0.5,1.8c-1.3,0.1-2.7-0.1-3.9-0.7c-1.5-0.7-2.6-2-3-3.8c-0.1-0.3-0.1-0.7-0.1-1.1
									C172.5,285.9,175,281.9,179.2,279.8L179.2,279.8z"/>
								<path class="st42" d="M183.1,279.7c4.1-2.1,7.5-0.4,7.5,3.8c0,4.1-3.4,9.2-7.5,11.3c-4.1,2.1-7.5,0.4-7.5-3.8
									C175.6,286.8,179,281.8,183.1,279.7z"/>
								<path class="st43" d="M183.1,282.8c2.4-1.2,4.4-0.2,4.4,2.2c0,2.4-2,5.4-4.4,6.6c-2.4,1.2-4.4,0.2-4.4-2.2
									C178.7,287,180.7,284,183.1,282.8z"/>
								<path class="st44" d="M183.3,282.7c2.3-1.1,4.2-0.2,4.2,2.1c0,2.3-1.9,5.1-4.2,6.3c-2.3,1.1-4.2,0.2-4.2-2.1
									C179.2,286.7,181,283.9,183.3,282.7z"/>
							</g>
							<path class="st15" d="M203.5,228.5l-81.6,40.9v39.7l81.6-40.9V228.5z"/>
							<path class="st16" d="M174.1,289.3l-52.3,26.2v-7.1l81.6-40.9v7.1l-12.7,6.4c-1.3-2.7-4.5-3.4-8.3-1.5
								C178.6,281.4,175.4,285.3,174.1,289.3L174.1,289.3z"/>
							<path class="st45" d="M203.5,267.4l-81.6,40.9v0.3l81.6-40.9V267.4z"/>
						</g>
					</g>
				</g>
			</g>
		</g>
	</g>
</g>
</svg>
