<svg xmlns="http://www.w3.org/2000/svg" width="24" height="18.352" viewBox="0 0 24 18.352">
  <g id="cardboard-box" transform="translate(0 -60.25)">
    <path id="Path_86" data-name="Path 86" d="M23.3,60.25H.7a.7.7,0,0,0-.7.7v4.236a.7.7,0,0,0,.7.7h.709V77.9a.7.7,0,0,0,.7.7h19.77a.7.7,0,0,0,.7-.7V65.893H23.3a.7.7,0,0,0,.7-.7V60.953A.7.7,0,0,0,23.3,60.25ZM21.182,77.2H2.818v-11.3H21.182Zm1.412-12.709H1.406v-2.83H22.594Z" fill="#8c8f95"/>
    <path id="Path_87" data-name="Path 87" d="M182.865,215.105h2.824a2.115,2.115,0,0,0,0-4.23h-2.824a2.115,2.115,0,0,0,0,4.23Zm0-2.824h2.824a.709.709,0,0,1,0,1.418h-2.824a.709.709,0,0,1,0-1.418Z" transform="translate(-172.277 -143.564)" fill="#8c8f95"/>
  </g>
</svg>
