<svg xmlns="http://www.w3.org/2000/svg" width="21.5" height="17.5" viewBox="0 0 21.5 17.5">
  <g id="Iconly_Light_Ticket" data-name="Iconly/Light/Ticket" transform="translate(-1.25 -3.25)">
    <g id="Ticket">
      <g id="Group">
        <path id="Stroke_1" data-name="Stroke 1" d="M13.85,4.25V6.67" fill="none" stroke="#fff" stroke-linecap="round" stroke-linejoin="round" stroke-width="1.5"/>
        <path id="Stroke_3" data-name="Stroke 3" d="M13.85,17.76v2.024" fill="none" stroke="#fff" stroke-linecap="round" stroke-linejoin="round" stroke-width="1.5"/>
        <path id="Stroke_6" data-name="Stroke 6" d="M13.85,14.325V9.5" fill="none" stroke="#fff" stroke-linecap="round" stroke-linejoin="round" stroke-width="1.5"/>
      </g>
      <path id="Stroke_7" data-name="Stroke 7" d="M18.7,20A3.277,3.277,0,0,0,22,16.743V14.151a2.15,2.15,0,1,1,0-4.3V7.257A3.277,3.277,0,0,0,18.7,4H5.3A3.277,3.277,0,0,0,2,7.257V9.935A2.09,2.09,0,0,1,4.177,12,2.159,2.159,0,0,1,2,14.151v2.592A3.277,3.277,0,0,0,5.3,20Z" fill="none" stroke="#fff" stroke-linecap="round" stroke-linejoin="round" stroke-width="1.5" fill-rule="evenodd"/>
    </g>
  </g>
</svg>
