<svg xmlns="http://www.w3.org/2000/svg" viewBox="0 0 132.28 30"><defs><style>.cls-1{fill:#ee384e;}</style></defs><g id="Layer_2" data-name="Layer 2"><g id="Layer_1-2" data-name="Layer 1"><path class="cls-1" d="M85.53,6.09H81.21a6.56,6.56,0,0,0-6.53,6.54v4.28A6.54,6.54,0,0,0,79,23.06a6.41,6.41,0,0,0,1.81.38h5.14a6.54,6.54,0,0,0,6.12-6.52v-4.3a6.56,6.56,0,0,0-6.53-6.53Zm2.1,10.82A2.12,2.12,0,0,1,85.51,19H81.23a2.09,2.09,0,0,1-1.5-.62,2.15,2.15,0,0,1-.62-1.49V12.63a2.15,2.15,0,0,1,.62-1.49,2.09,2.09,0,0,1,1.5-.62h4.28a2.12,2.12,0,0,1,2.12,2.11Z"/><path class="cls-1" d="M111.25,6.09h-2.59a.9.9,0,0,0-.76.41.82.82,0,0,0-.16.51v9.9a2.19,2.19,0,0,1-.1.63,2.14,2.14,0,0,1-.26.55,2.51,2.51,0,0,1-.26.31,2.07,2.07,0,0,1-1.5.62H99.23V7a.94.94,0,0,0-.84-.92H95.72a.86.86,0,0,0-.28,0l-.24.12-.07,0-.06.06a.92.92,0,0,0-.28.65V22.53a.93.93,0,0,0,.93.92h2.5a.92.92,0,0,0,.92-.92v-.85l1.06,1.41a.93.93,0,0,0,.74.36h5l.23,0h.07l.23,0h0l.25,0a4.36,4.36,0,0,0,.52-.11l.26-.07.25-.08.35-.13.29-.12.09,0,.3-.16.32-.19.31-.21a2.32,2.32,0,0,0,.3-.22l.29-.24.26-.25a6,6,0,0,0,.42-.46,6.13,6.13,0,0,0,.38-.51,6.63,6.63,0,0,0,1.12-3.65V7A.92.92,0,0,0,111.25,6.09Z"/><path class="cls-1" d="M70.82,9a4.62,4.62,0,0,0-.37-.5c-.14-.16-.28-.32-.42-.46l-.27-.26-.28-.24-.3-.22-.31-.21-.32-.18-.31-.16-.09,0-.29-.13-.35-.13-.25-.08L67,6.29a4.36,4.36,0,0,0-.52-.11l-.25,0h0l-.22,0H60.71a.9.9,0,0,0-.73.36L58.92,7.86V7A.93.93,0,0,0,58,6.09h-2.5a.92.92,0,0,0-.92.92V22.53a.9.9,0,0,0,.27.65l.07.06.07.06a.66.66,0,0,0,.24.11.8.8,0,0,0,.27,0h2.68a.92.92,0,0,0,.83-.92v-12h6.4a2.07,2.07,0,0,1,1.49.62,2.11,2.11,0,0,1,.53.86,2.18,2.18,0,0,1,.09.63v9.9a.92.92,0,0,0,.93.92H71a.92.92,0,0,0,.92-.92V12.62A6.35,6.35,0,0,0,70.82,9Z"/><rect class="cls-1" x="20.11" y="6.07" width="4.43" height="17.38" rx="0.92"/><rect class="cls-1" x="20.11" width="4.43" height="3.99" rx="0.92"/><rect class="cls-1" x="47.4" y="6.07" width="4.43" height="17.38" rx="0.92"/><rect class="cls-1" x="47.4" width="4.43" height="3.99" rx="0.92"/><path class="cls-1" d="M16.45,0H13.87a.93.93,0,0,0-.93.92V6.09H6.55A6.56,6.56,0,0,0,0,12.63v4.28a6.56,6.56,0,0,0,1.92,4.63,6.47,6.47,0,0,0,4.63,1.91h4.6a.9.9,0,0,0,.73-.36l1.06-1.41v.85a.93.93,0,0,0,.93.92h2.58a.93.93,0,0,0,.93-.92V.92A.93.93,0,0,0,16.45,0ZM6.55,19a2.07,2.07,0,0,1-1.5-.62,2.11,2.11,0,0,1-.62-1.49V12.63a2.11,2.11,0,0,1,.62-1.49,2.07,2.07,0,0,1,1.5-.62h6.39V19Z"/><path class="cls-1" d="M43.74,6.09H41.12a.93.93,0,0,0-.93.92v.85l-1.06-1.4a.88.88,0,0,0-.73-.37H33.83a6.56,6.56,0,0,0-6.55,6.54v4.28a6.54,6.54,0,0,0,6.55,6.54h6.4a2.07,2.07,0,0,1-.62,1.5,2.11,2.11,0,0,1-1.49.62H32.24a.66.66,0,0,0-.53,1.06l2.26,3a.94.94,0,0,0,.74.37h3.41a6.56,6.56,0,0,0,6.54-6.55V7A.92.92,0,0,0,43.74,6.09ZM33.83,19a2.12,2.12,0,0,1-2.11-2.11V12.63a2.12,2.12,0,0,1,2.11-2.11h6.4V19Z"/><path class="cls-1" d="M131.36,6.09h-9.91a6.54,6.54,0,0,0-6.54,6.54v4.28a6.52,6.52,0,0,0,6.54,6.54h4.69a.9.9,0,0,0,.73-.36l1.06-1.41v.85a.93.93,0,0,0,.93.92h2.5a.92.92,0,0,0,.92-.92V7A.92.92,0,0,0,131.36,6.09ZM121.45,19a2.12,2.12,0,0,1-2.11-2.11V12.63a2.12,2.12,0,0,1,2.11-2.11h6.4V19Z"/></g></g></svg>