<svg xmlns="http://www.w3.org/2000/svg" width="94" height="70" viewBox="0 0 94 70">
    <g fill="none" fill-rule="nonzero">
        <circle cx="57.648" cy="13.711" r="11.586" fill="#F9F9F9"/>
        <path fill="#F9F9F9" d="M59.913 25.296h-4.53c-10.327 0-18.7 8.372-18.7 18.7v6.679h41.93v-6.68c0-10.327-8.372-18.699-18.7-18.699z"/>
        <circle cx="22.933" cy="13.711" r="11.586" fill="#F9F9F9"/>
        <path fill="#55C6D9" d="M25.198 25.296h-4.53c-10.328 0-18.7 8.372-18.7 18.7v6.679h41.93v-6.68c0-10.327-8.372-18.699-18.7-18.699z"/>
        <circle cx="78.613" cy="54.633" r="13.241" fill="#F05562"/>
        <g fill="#434A54">
            <path d="M80.086 39.498c-1.608-7.214-6.994-13.018-13.967-15.218 3.096-2.486 5.083-6.3 5.083-10.57 0-7.473-6.08-13.554-13.554-13.554S44.094 6.237 44.094 13.71c0 4.272 1.988 8.085 5.085 10.571a20.709 20.709 0 0 0-8.887 5.612 20.711 20.711 0 0 0-8.888-5.613c3.096-2.486 5.083-6.299 5.083-10.57 0-7.473-6.08-13.554-13.554-13.554S9.38 6.237 9.38 13.71c0 4.27 1.987 8.084 5.083 10.57C6.09 26.922 0 34.76 0 43.996v6.679c0 1.087.881 1.968 1.968 1.968h61.57a15.256 15.256 0 0 0-.134 1.991c0 8.387 6.822 15.21 15.209 15.21 8.386 0 15.21-6.823 15.21-15.21-.001-7.89-6.04-14.393-13.737-15.136zM48.03 13.71c0-5.303 4.314-9.617 9.617-9.617 5.303 0 9.617 4.314 9.617 9.617 0 5.303-4.314 9.618-9.617 9.618-5.303 0-9.617-4.315-9.617-9.618zm-34.715 0c0-5.303 4.314-9.617 9.617-9.617 5.303 0 9.617 4.314 9.617 9.617 0 5.303-4.314 9.618-9.617 9.618-5.303 0-9.617-4.315-9.617-9.618zm-9.38 30.286c0-9.226 7.506-16.732 16.732-16.732h4.53c8.067 0 14.818 5.739 16.387 13.348l.344 3.937v4.157H3.937v-4.71zm41.93 0c0-4.012-1.15-7.759-3.135-10.932 3.07-3.55 7.602-5.8 12.652-5.8h4.53c7.72 0 14.23 5.258 16.15 12.379-5.17.876-9.461 4.367-11.456 9.063h-18.74v-4.71zm32.747 21.91c-6.216 0-11.273-5.056-11.273-11.272 0-6.215 5.057-11.272 11.273-11.272 6.215 0 11.272 5.056 11.272 11.272s-5.057 11.273-11.272 11.273z"/>
            <path d="M82.474 52.666h-1.893v-1.894a1.968 1.968 0 0 0-3.937 0v1.893h-1.893a1.968 1.968 0 0 0 0 3.937h1.893v1.894a1.968 1.968 0 0 0 3.937 0v-1.894h1.893a1.968 1.968 0 0 0 0-3.936z"/>
        </g>
        <path fill="#434A54" d="M22 42.724a1.698 1.698 0 0 1 .133-.658 1.702 1.702 0 0 1 .372-.56 1.761 1.761 0 0 1 .56-.375 1.743 1.743 0 0 1 .659-.131 1.695 1.695 0 0 1 .659.131 1.708 1.708 0 0 1 .932.933 1.7 1.7 0 0 1 0 1.319 1.713 1.713 0 0 1-1.255 1.03 1.698 1.698 0 0 1-1.293-.256 1.65 1.65 0 0 1-.476-.476 1.702 1.702 0 0 1-.257-.62 1.698 1.698 0 0 1-.034-.337zM2 42.724C2 41.772 2.548 41 3.225 41h14.08c.677 0 1.225.772 1.225 1.724s-.548 1.724-1.225 1.724H3.225c-.677 0-1.225-.772-1.225-1.724z"/>
    </g>
</svg>
