<svg width="24" height="25" viewBox="0 0 24 25" fill="none" xmlns="http://www.w3.org/2000/svg">
<path d="M12.8571 20.4394C12.3857 20.4394 12 20.1523 12 19.8015V7.36297C12 7.01214 12.3857 6.7251 12.8571 6.7251C13.3286 6.7251 13.7143 7.01214 13.7143 7.36297V19.8015C13.7143 20.1555 13.3286 20.4394 12.8571 20.4394Z" fill="#0FABC6"/>
<path d="M16.2856 20.4394C15.8142 20.4394 15.4285 20.1523 15.4285 19.8015V7.36297C15.4285 7.01214 15.8142 6.7251 16.2856 6.7251C16.757 6.7251 17.1428 7.01214 17.1428 7.36297V19.8015C17.1428 20.1555 16.757 20.4394 16.2856 20.4394Z" fill="#0FABC6"/>
<path d="M1.71436 5.86792V11.7118V12.8842V18.7251C1.71436 18.7251 13.3436 12.6955 23.3031 13.5133C23.6752 13.5438 24.0001 13.2545 24.0001 12.8812V11.7087C24.0001 11.337 23.6766 11.049 23.3061 11.0796C13.346 11.9015 1.71436 5.86792 1.71436 5.86792Z" fill="#F9A825"/>
<path d="M18.108 18.7251H7.60611C5.77136 18.7251 4.28564 17.191 4.28564 15.2965C4.28564 13.402 5.77136 11.8679 7.60611 11.8679H18.108C19.9428 11.8679 21.4285 13.402 21.4285 15.2965C21.4285 17.191 19.9428 18.7251 18.108 18.7251Z" stroke="#F9A825" stroke-width="2" stroke-miterlimit="10"/>
<path d="M0.857143 20.4393C0.382857 20.4393 0 20.0196 0 19.4997V5.09312C0 4.57323 0.382857 4.15356 0.857143 4.15356C1.33143 4.15356 1.71429 4.57323 1.71429 5.09312V19.4997C1.71429 20.0196 1.33143 20.4393 0.857143 20.4393Z" fill="#0FABC6"/>
</svg>
