<svg width="24" height="24" viewBox="0 0 24 24" fill="none" xmlns="http://www.w3.org/2000/svg">
<path d="M17 2.5C17 3.32843 16.3284 4 15.5 4C14.6716 4 14 3.32843 14 2.5C14 1.67157 14.6716 1 15.5 1C16.3284 1 17 1.67157 17 2.5Z" fill="#FB008F"/>
<path d="M23 8.5C23 9.32843 22.3284 10 21.5 10C20.6716 10 20 9.32843 20 8.5C20 7.67157 20.6716 7 21.5 7C22.3284 7 23 7.67157 23 8.5Z" fill="#FB008F"/>
<path d="M16.2071 9.20712L22.7071 2.70712L21.2929 1.29291L14.7929 7.79291L16.2071 9.20712Z" fill="#FB008F"/>
<path fill-rule="evenodd" clip-rule="evenodd" d="M6.79289 3.29289C7.18342 2.90237 7.81658 2.90237 8.20711 3.29289L20.7071 15.7929C21.0976 16.1834 21.0976 16.8166 20.7071 17.2071C20.3166 17.5976 19.6834 17.5976 19.2929 17.2071L18.7404 16.6546L16.9111 17.3079C16.9693 17.5706 17 17.8436 17 18.124C17 20.304 15.1689 22 13 22C11.4983 22 10.1585 21.187 9.47635 19.9632L6.81122 20.915C7.09384 21.3059 7.05913 21.8551 6.70711 22.2071C6.31658 22.5976 5.68342 22.5976 5.29289 22.2071L1.79289 18.7071C1.40237 18.3166 1.40237 17.6834 1.79289 17.2929C2.14492 16.9409 2.6941 16.9062 3.085 17.1888L7.34541 5.25963L6.79289 4.70711C6.40237 4.31658 6.40237 3.68342 6.79289 3.29289ZM11.4176 19.2698C11.7768 19.708 12.3403 20 13 20C14.1448 20 15 19.1207 15 18.124C15 18.0797 14.9984 18.0358 14.9951 17.9922L11.4176 19.2698ZM5.25963 19.3454L4.65459 18.7404L8.91026 6.82448L17.1755 15.0897C13.2513 16.4912 9.25061 17.9201 5.25963 19.3454Z" fill="#FB008F"/>
</svg>
