<svg xmlns="http://www.w3.org/2000/svg" width="70" height="21" viewBox="0 0 70 21">
    <g fill="none" fill-rule="nonzero">
        <g fill="#55C6D9" transform="translate(4 4)">
            <circle cx="6.276" cy="6.236" r="6.179"/>
            <circle cx="30.977" cy="6.236" r="6.179"/>
            <circle cx="55.678" cy="6.236" r="6.179"/>
        </g>
        <g fill="#434A54">
            <path d="M10.299.16C4.62.16 0 4.782 0 10.46c0 5.678 4.62 10.299 10.299 10.299 5.678 0 10.299-4.62 10.299-10.3 0-5.678-4.62-10.298-10.3-10.298zm0 16.48a6.186 6.186 0 0 1-6.18-6.18 6.186 6.186 0 0 1 6.18-6.18 6.186 6.186 0 0 1 6.18 6.18 6.186 6.186 0 0 1-6.18 6.18zM35 .16c-5.678 0-10.299 4.621-10.299 10.3 0 5.678 4.62 10.299 10.299 10.299 5.678 0 10.299-4.62 10.299-10.3C45.299 4.782 40.679.162 35 .162zm0 16.48a6.186 6.186 0 0 1-6.18-6.18A6.186 6.186 0 0 1 35 4.28a6.186 6.186 0 0 1 6.18 6.18A6.186 6.186 0 0 1 35 16.64zM59.701.16c-5.678 0-10.299 4.621-10.299 10.3 0 5.678 4.62 10.299 10.3 10.299 5.678 0 10.298-4.62 10.298-10.3C70 4.782 65.38.162 59.701.162zm0 16.48a6.186 6.186 0 0 1-6.18-6.18 6.186 6.186 0 0 1 6.18-6.18 6.186 6.186 0 0 1 6.18 6.18 6.186 6.186 0 0 1-6.18 6.18z"/>
        </g>
    </g>
</svg>
