<svg width="24" height="24" viewBox="0 0 24 24" fill="none" xmlns="http://www.w3.org/2000/svg">
<path d="M16.317 8C14.384 8 12.817 6.433 12.817 4.5C12.817 3.94772 13.2647 3.5 13.817 3.5C14.3693 3.5 14.817 3.94772 14.817 4.5C14.817 5.32843 15.4886 6 16.317 6C17.1454 6 17.817 5.32843 17.817 4.5C17.817 3.67157 17.1454 3 16.317 3C15.7647 3 15.317 2.55228 15.317 2C15.317 1.44772 15.7647 1 16.317 1C18.25 1 19.817 2.567 19.817 4.5C19.817 6.433 18.25 8 16.317 8Z" fill="white"/>
<path d="M11 11.5C11 12.3284 10.3284 13 9.49999 13C8.67157 13 7.99999 12.3284 7.99999 11.5C7.99999 10.6716 8.67157 10 9.49999 10C10.3284 10 11 10.6716 11 11.5Z" fill="white"/>
<path d="M16 11.5C16 12.3284 15.3284 13 14.5 13C13.6716 13 13 12.3284 13 11.5C13 10.6716 13.6716 10 14.5 10C15.3284 10 16 10.6716 16 11.5Z" fill="white"/>
<path d="M7.69337 16.5415C8.58655 18.0524 10.2116 19 12 19C13.7946 19 15.4244 18.0458 16.3154 16.5266C16.5948 16.0502 16.4351 15.4375 15.9587 15.1581C15.4823 14.8787 14.8696 15.0384 14.5902 15.5148C14.0546 16.428 13.0776 17 12 17C10.9261 17 9.95194 16.432 9.41504 15.5237C9.13398 15.0483 8.52074 14.8907 8.04531 15.1718C7.56989 15.4529 7.41232 16.0661 7.69337 16.5415Z" fill="white"/>
<path d="M11.1414 6.99008C11.6882 6.91197 12.0681 6.40544 11.9899 5.85871C11.9118 5.31197 11.4053 4.93207 10.8586 5.01018C7.13596 5.54198 3.93627 8.56117 3.17319 12.2607C1.89805 12.7835 1 14.0362 1 15.5001C1 17.4331 2.567 19.0001 4.5 19.0001L4.51568 19.0001C6.12895 21.4104 8.87827 23.0001 12 23.0001C15.1217 23.0001 17.871 21.4104 19.4843 19.0001L19.5 19.0001C21.433 19.0001 23 17.4331 23 15.5001C23 14.0383 22.1045 12.7871 20.8323 12.2629C20.5937 11.0434 20.1089 9.91205 19.4323 8.92331C19.1205 8.46751 18.4981 8.35084 18.0423 8.66272C17.5865 8.97459 17.4699 9.59692 17.7818 10.0527C18.4014 10.9583 18.8132 12.0158 18.95 13.1581C19.0023 13.5949 19.3339 13.9462 19.7669 14.0236C20.4679 14.1489 21 14.7634 21 15.5001C21 16.3286 20.3284 17.0001 19.5 17.0001C19.388 17.0001 19.28 16.988 19.1767 16.9654C18.7486 16.8717 18.3094 17.0676 18.0931 17.4488C16.8887 19.5716 14.6105 21.0001 12 21.0001C9.38947 21.0001 7.11131 19.5716 5.90687 17.4488C5.69061 17.0676 5.25136 16.8717 4.82325 16.9654C4.72004 16.988 4.61201 17.0001 4.5 17.0001C3.67157 17.0001 3 16.3286 3 15.5001C3 14.7634 3.53208 14.1489 4.23309 14.0236C4.6642 13.9466 4.995 13.598 5.04938 13.1634C5.43546 10.0782 8.08132 7.42723 11.1414 6.99008Z" fill="white"/>
</svg>
