<svg width="24" height="24" viewBox="0 0 24 24" fill="none" xmlns="http://www.w3.org/2000/svg">
<path d="M16.5 1C15.9477 1 15.5 1.44772 15.5 2C15.5 2.55228 15.9477 3 16.5 3C17.3284 3 18 3.67157 18 4.5C18 5.32843 17.3284 6 16.5 6C15.6716 6 15 5.32843 15 4.5C15 3.94772 14.5523 3.5 14 3.5C13.4477 3.5 13 3.94772 13 4.5C13 6.433 14.567 8 16.5 8C18.433 8 20 6.433 20 4.5C20 2.567 18.433 1 16.5 1Z" fill="white"/>
<path fill-rule="evenodd" clip-rule="evenodd" d="M18.9467 8.27738C18.2424 8.7345 17.4022 9 16.5 9C14.1837 9 12.2762 7.25 12.0275 5.00004L12 5C7.62368 5 3.97692 8.12356 3.1675 12.2629C1.89538 12.7871 1 14.0382 1 15.5C1 17.433 2.567 19 4.5 19L4.51553 19C5.96931 21.1718 8.34335 22.6756 11.0798 22.9535C11.3824 22.9843 11.6893 23 12 23C12.3749 23 12.7444 22.9771 13.1073 22.9326C15.7647 22.6065 18.0639 21.1222 19.4845 19L19.5 19C21.433 19 23 17.433 23 15.5C23 14.0382 22.1046 12.7871 20.8325 12.2629C20.5404 10.7691 19.8788 9.40755 18.9467 8.27738ZM11 11.5C11 12.3284 10.3284 13 9.5 13C8.67157 13 8 12.3284 8 11.5C8 10.6716 8.67157 10 9.5 10C10.3284 10 11 10.6716 11 11.5ZM14.5 13C15.3284 13 16 12.3284 16 11.5C16 10.6716 15.3284 10 14.5 10C13.6716 10 13 10.6716 13 11.5C13 12.3284 13.6716 13 14.5 13ZM7.69337 16.5415C8.58655 18.0524 10.2116 19 12 19C13.7945 19 15.4244 18.0458 16.3154 16.5266C16.5948 16.0502 16.4351 15.4375 15.9587 15.1581C15.4823 14.8787 14.8696 15.0384 14.5902 15.5148C14.0546 16.428 13.0776 17 12 17C10.9261 17 9.95194 16.432 9.41504 15.5237C9.13398 15.0483 8.52074 14.8907 8.04531 15.1718C7.56989 15.4529 7.41232 16.0661 7.69337 16.5415Z" fill="white"/>
</svg>
