<svg xmlns="http://www.w3.org/2000/svg" width="70" height="70" viewBox="0 0 70 70">
    <g fill="none" fill-rule="nonzero">
        <path fill="#F9F9F9" d="M53.071 30.153c-9.932-3.187-13.514-5.104-13.525-15.57 0-.493-4.508.485-4.473 0H13.125a1.458 1.458 0 0 0-1.43 1.75l5.235 21.378a1.458 1.458 0 0 0 1.622 1.167l39.47.47a1.458 1.458 0 0 0 1.221-1.094l4.81-11.288c-3.454 3.073-7.15 4.417-10.982 3.187z"/>
        <g transform="translate(0 5.742)">
            <circle cx="53.958" cy="56.966" r="7.292" fill="#F9F9F9"/>
            <circle cx="24.792" cy="56.966" r="7.292" fill="#F9F9F9"/>
            <path fill="#455A64" d="M26.13 46.758h33.662a1.458 1.458 0 0 0 0-2.917H26.13a7.312 7.312 0 0 1-7.151-5.862L11.638 1.258A1.458 1.458 0 0 0 10.207.09h-8.75a1.458 1.458 0 1 0 0 2.917h7.554L16.12 38.55a10.235 10.235 0 0 0 10.01 8.208z"/>
        </g>
        <circle cx="53.958" cy="16.042" r="16.042" fill="#F05562"/>
        <g fill="#FAFAFA">
            <path d="M59.792 23.333c-.387.001-.759-.152-1.033-.426L47.093 11.241a1.458 1.458 0 0 1 2.062-2.062L60.82 20.845a1.458 1.458 0 0 1-1.03 2.488z"/>
            <path d="M48.125 23.333a1.458 1.458 0 0 1-1.032-2.49L58.759 9.175a1.459 1.459 0 1 1 2.062 2.062L49.155 22.905a1.459 1.459 0 0 1-1.03.428z"/>
        </g>
        <path fill="#434A54" d="M53.958 70a7.292 7.292 0 1 1 0-14.583 7.292 7.292 0 0 1 0 14.583zm0-11.667a4.375 4.375 0 1 0 0 8.75 4.375 4.375 0 0 0 0-8.75zM24.792 70a7.292 7.292 0 1 1 0-14.583 7.292 7.292 0 0 1 0 14.583zm0-11.667a4.375 4.375 0 1 0 0 8.75 4.375 4.375 0 0 0 0-8.75zM59.792 52.5H26.13a10.235 10.235 0 0 1-10.01-8.205L9.012 8.75H1.458a1.458 1.458 0 0 1 0-2.917h8.75c.694 0 1.29.488 1.43 1.167l7.344 36.72a7.31 7.31 0 0 0 7.148 5.863h33.662a1.458 1.458 0 0 1 0 2.917z"/>
        <path fill="#434A54" d="M58.104 40.15H18.047a1.458 1.458 0 0 1 0-2.917h40.057c2.207 0 4.07-8.478 4.343-10.668a1.458 1.458 0 1 1 2.893.361c-.455 3.65-3.558 13.224-7.236 13.224zM39.01 17.5H13.125a1.458 1.458 0 0 1 0-2.917H39.01a1.458 1.458 0 0 1 0 2.917z"/>
        <path fill="#434A54" d="M53.958 32.083c-8.86 0-16.041-7.182-16.041-16.041C37.917 7.182 45.099 0 53.958 0 62.818 0 70 7.182 70 16.042c-.011 8.855-7.187 16.03-16.042 16.041zm0-29.166c-7.248 0-13.125 5.876-13.125 13.125 0 7.248 5.877 13.125 13.125 13.125 7.25 0 13.125-5.877 13.125-13.125 0-7.25-5.876-13.125-13.125-13.125zM36 30.724a1.698 1.698 0 0 1 .133-.658 1.702 1.702 0 0 1 .372-.56 1.761 1.761 0 0 1 .56-.375 1.743 1.743 0 0 1 .659-.131 1.695 1.695 0 0 1 .659.131 1.708 1.708 0 0 1 .932.933 1.7 1.7 0 0 1 0 1.319 1.713 1.713 0 0 1-1.255 1.03 1.698 1.698 0 0 1-1.293-.256 1.65 1.65 0 0 1-.476-.476 1.702 1.702 0 0 1-.257-.62 1.698 1.698 0 0 1-.034-.337zM15 30.724c0-.952.772-1.724 1.724-1.724H30.81a1.724 1.724 0 0 1 0 3.448H16.724A1.724 1.724 0 0 1 15 30.724z"/>
    </g>
</svg>
