<svg xmlns="http://www.w3.org/2000/svg" width="18" height="18" viewBox="0 0 18 18">
    <g fill="none" fill-rule="evenodd">
        <path fill="#FF6691" d="M2.754 10.422c.1.21.312.344.544.344H10.7V3.365a.603.603 0 0 0-.344-.544L7.813 1.613a.469.469 0 0 0-.67.423V7.21H1.97a.469.469 0 0 0-.423.67l1.208 2.542z"/>
        <path fill="#D2004C" d="M15.105 7.586a.603.603 0 0 0-.544-.344H7.16v7.401c0 .233.134.444.344.544l2.542 1.209a.469.469 0 0 0 .67-.424v-5.174h5.174a.469.469 0 0 0 .424-.67l-1.209-2.542z"/>
    </g>
</svg>
