<svg xmlns="http://www.w3.org/2000/svg" width="326" height="412" viewBox="0 0 326 412">
    <g fill="none" fill-rule="evenodd" opacity=".5">
        <path fill="#FFF" d="M27.79 236.145c1.199 4.24 4.86 7.32 9.241 7.78l99.901 10.5 107.156 11.263 11.262-107.155 10.5-99.902a10.773 10.773 0 0 0-5.69-10.655l-87.751-46.27c-4.047-2.133-8.967.495-9.445 5.044l-14.77 140.52L7.674 132.5c-4.55-.478-8.141 3.79-6.896 8.19l27.012 95.455z"/>
        <path fill="#87D3E1" fill-opacity=".5" d="M364.492 176.815c-1.2-4.24-4.86-7.32-9.241-7.78l-99.902-10.5-107.155-11.263-11.263 107.155-10.5 99.9a10.774 10.774 0 0 0 5.691 10.657l87.751 46.268c4.046 2.135 8.967-.493 9.445-5.042l14.769-140.52 140.522 14.77c4.549.477 8.141-3.79 6.897-8.19l-27.014-95.455z"/>
    </g>
</svg>
