<svg xmlns="http://www.w3.org/2000/svg" width="335" height="335" viewBox="0 0 335 335">
    <path fill="#A63489" d="M195.597 195.694c-12.092 12.106-21.538 26.263-28.095 41.598-6.561-15.335-16.007-29.492-28.099-41.598-12.125-12.145-26.324-21.625-41.695-28.194 15.37-6.57 29.57-16.054 41.695-28.194 12.092-12.1 21.538-26.272 28.1-41.598 6.556 15.326 16.002 29.497 28.094 41.598 12.125 12.14 26.324 21.625 41.695 28.194-15.37 6.57-29.57 16.05-41.695 28.194m100.042-57.41h-2.461l-.014.066c-.354-.01-.709-.042-1.072-.014-25.732 1.93-51.245-7.4-69.663-25.826-18.417-18.413-27.74-43.936-25.815-69.673.023-.34-.01-.672-.019-1.012h.014v-2.462c0-6.322-5.123-11.446-11.444-11.446h-35.512c-6.32 0-11.449 5.124-11.449 11.446v2.462l.154.033c-.009.321-.042.648-.018.979 1.93 25.737-7.398 51.26-25.816 69.673-18.413 18.426-43.93 27.756-69.662 25.826-.35-.024-.686.004-1.03.014l-.015-.066h-2.456c-6.321 0-11.444 5.125-11.444 11.452v35.52c0 6.317 5.123 11.446 11.444 11.446h1.561c.634.074 1.282.098 1.94.046 25.731-1.925 51.249 7.404 69.662 25.822 18.418 18.421 27.746 43.94 25.816 69.672-.024.313.014.602.018.905l-.154.028v2.462c0 6.318 5.128 11.446 11.45 11.446h35.511c6.321 0 11.444-5.128 11.444-11.446v-2.462h-.01c.005-.308.038-.61.015-.933-1.925-25.732 7.398-51.25 25.815-69.672 18.418-18.418 43.931-27.747 69.663-25.822.657.052 1.305.028 1.944-.046h1.603c6.317 0 11.444-5.13 11.444-11.447v-35.52c0-6.326-5.127-11.45-11.444-11.45" opacity=".05"/>
</svg>
