<?xml version="1.0" encoding="utf-8"?>
<!-- Generator: Adobe Illustrator 24.2.3, SVG Export Plug-In . SVG Version: 6.00 Build 0)  -->
<svg version="1.1" id="Layer_1" xmlns="http://www.w3.org/2000/svg" xmlns:xlink="http://www.w3.org/1999/xlink" x="0px" y="0px"
	 viewBox="0 0 24 24" style="enable-background:new 0 0 24 24;" xml:space="preserve">
<style type="text/css">
	.st0{fill:#EF394E;}
</style>
<path class="st0" d="M14.8,2H9.2C5.2,2,2,5.2,2,9.2v5.7C2,18.8,5.2,22,9.2,22h5.7c3.9,0,7.2-3.2,7.2-7.2V9.2C22,5.2,18.8,2,14.8,2z
	 M6.5,6.9c2.7-2.8,7-3.1,9.9-0.7c-3-1.2-5.8-1-8.3,1.1C6,9,5.6,11.9,7.3,14c1.7,2.1,4.7,2.4,6.8,0.7c1.1-0.9,1.3-2,0.6-2.9
	c-0.6-0.9-1.8-1.1-2.9-0.5c-0.4,0.2-0.9,0.7-1.3,0.1c-0.4-0.7,0.2-1,0.7-1.2c1.4-0.9,3.4-0.6,4.5,0.8c1.1,1.4,0.9,3.2-0.4,4.5
	c-2.3,2.3-6.2,2.3-8.5,0C4.3,13,4.2,9.3,6.5,6.9z M15.3,18.6c-2.7,1.3-5.4,1-7.8-0.8c3,1.1,5.9,1,8.4-1.1c1.4-1.2,2.1-2.7,1.7-4.6
	c-0.4-1.9-1.6-3.2-3.4-3.7C12.6,7.9,11,8.3,9.7,9.5c-0.8,0.8-1,1.8-0.4,2.7C9.9,13,11,13.3,12,12.8c0.1-0.1,0.2-0.1,0.3-0.2
	c0.4-0.3,0.8-0.5,1.1,0c0.3,0.5,0,0.8-0.4,1.1c-1.4,1.1-3.4,0.9-4.6-0.5c-1.2-1.4-1.1-3.4,0.3-4.7C11.4,6,15.9,6.4,18,9.5
	C20.2,12.7,19,16.8,15.3,18.6z"/>
</svg>
