<svg width="24" height="24" viewBox="0 0 24 24" fill="none" xmlns="http://www.w3.org/2000/svg">
<path d="M14.9999 18V16H8.99994V18H14.9999Z" fill="white"/>
<path fill-rule="evenodd" clip-rule="evenodd" d="M17.9999 4C17.9999 2.89543 17.1045 2 15.9999 2H12.9999C11.8954 2 10.9999 2.89543 10.9999 4L10.9998 5.5352C10.0825 6.0659 9.39543 6.95047 9.12574 8.00155C9.08393 8.00052 9.042 8 8.99994 8L8.78305 8.00462C6.12225 8.11818 3.99994 10.3112 3.99994 13H2.99994C2.39139 13 1.92393 13.539 2.00999 14.1414L3.00999 21.1414C3.08037 21.6341 3.50229 22 3.99994 22H19.9999C20.4976 22 20.9195 21.6341 20.9899 21.1414L21.9899 14.1414C22.076 13.539 21.6085 13 20.9999 13H19.9999V9L19.9933 8.76792C19.9142 7.38552 19.1332 6.19114 18.0011 5.53577L17.9999 4ZM4.86724 20L4.15295 15H19.8469L19.1326 20H4.86724ZM15.9999 7H12.9999C12.0861 7 11.3154 7.61291 11.0765 8.45009C12.7355 9.20907 13.907 10.8473 13.9947 12.7682L13.9999 13H17.9999V9C17.9999 7.94564 17.1841 7.08183 16.1492 7.00549L15.9999 7ZM6.00504 12.8237C6.09628 11.2489 7.40226 10 8.99994 10C10.6568 10 11.9999 11.3431 11.9999 13H5.99994L6.00504 12.8237ZM15.9999 4H12.9999V5H15.9999V4Z" fill="white"/>
</svg>
