<svg xmlns="http://www.w3.org/2000/svg" width="333" height="412" viewBox="0 0 333 412">
    <g fill="none" fill-rule="evenodd" opacity=".3">
        <path fill="#E8BACC" d="M-31.467 236.127c1.199 4.24 4.86 7.32 9.241 7.78l99.901 10.501 107.156 11.262 11.262-107.155 10.5-99.901a10.773 10.773 0 0 0-5.69-10.656l-87.751-46.27c-4.046-2.133-8.967.495-9.445 5.044l-14.77 140.52-140.521-14.77c-4.549-.477-8.141 3.791-6.896 8.19l27.013 95.455z"/>
        <path fill="#FFF" d="M305.235 176.797c-1.199-4.24-4.86-7.32-9.241-7.78l-99.901-10.5-107.156-11.263L77.674 254.41l-10.5 99.9a10.774 10.774 0 0 0 5.691 10.657l87.751 46.267c4.046 2.136 8.967-.493 9.445-5.041l14.77-140.52 140.521 14.769c4.549.478 8.141-3.79 6.897-8.19l-27.014-95.455z"/>
    </g>
</svg>
