<svg xmlns="http://www.w3.org/2000/svg" width="140" height="36" viewBox="0 0 140 36">
    <g fill="#FFF" fill-rule="nonzero">
        <path d="M65.139 31H70v5h-4.861v-5zm-6.806 5h4.861v-5h-4.86v5zM87.5 36h4.861v-5H87.5v5zm15.556 0h4.86v-5h-4.86v5zm6.805 0h4.861v-5h-4.86v5zm24.403-32h-10.792v5h9.334c1.36 0 2.333 1.4 2.333 2.7v7.8c0 1.3-.972 2.6-2.333 2.6h-9.334v5h10.792c3.5 0 5.736-2.6 5.736-6.2V10.6c0-3.5-2.333-6.6-5.736-6.6zm-19.542 15.4c0 1.3-1.653 2.6-2.916 2.6H97.223V10.5c0-3.5-2.82-6.5-6.32-6.5H83.417l-3.695 5h9.82c1.264 0 2.82 1.6 2.82 2.9V22H77.485c-1.264 0-2.625-1.2-2.625-2.6V9H70v10.4c0 1.3-1.361 2.6-2.625 2.6H52.5v5h60.666c3.5 0 6.417-2.6 6.417-6.2V9h-4.86v10.4zM22.361 0v20.8c0 3.6-2.139 6.2-5.639 6.2H0v-5h15.361c1.264 0 2.139-1.2 2.139-2.6V0h4.861zM39.57 10.4L47.931 0h-6.417l-8.167 10.4 9.14 11.6h-8.654c-1.264 0-2.82-1.3-2.82-2.6V0h-4.86v20.8c0 3.6 3.014 6.2 6.416 6.2h16.042v-4.9L39.57 10.4zM4.861 0H0v18h4.861V0z"/>
    </g>
</svg>
