<svg xmlns="http://www.w3.org/2000/svg" width="36" height="36" viewBox="0 0 36 36">
    <path fill="#9B9B9B" fill-rule="nonzero" d="M17 22a4 4 0 0 1-4-4v-1.265c-.67 1.23-1 2.285-1 3.154C12 23.267 14.69 26 18 26s6-2.733 6-6.111c0-2.055-1.819-5.078-5.5-8.948-.01.533.121 1.066.394 1.612.264.527 1.201 2.152 1.375 2.5.493.985.731 1.87.731 2.947a4 4 0 0 1-4 4zm1.48-6.053c-.138-.277-1.075-1.902-1.374-2.5-.808-1.615-.808-3.28 0-4.894a1 1 0 0 1 1.6-.262C23.548 13.108 26 16.92 26 19.889 26 24.365 22.422 28 18 28c-4.422 0-8-3.635-8-8.111 0-1.983 1.087-4.318 3.213-7.06.584-.753 1.79-.34 1.79.614L15 18a2 2 0 0 0 4 0c0-.744-.158-1.33-.52-2.053z"/>
</svg>
