<svg xmlns="http://www.w3.org/2000/svg" width="71" height="70" viewBox="0 0 71 70">
    <g fill="none" fill-rule="nonzero">
        <path fill="#55C6D9" d="M67.271 17.026H4.248a2.196 2.196 0 0 0-2.196 2.196v8.934c0 1.213.983 2.196 2.196 2.196h63.023a2.196 2.196 0 0 0 2.197-2.196v-8.934a2.196 2.196 0 0 0-2.197-2.196z"/>
        <path fill="#F9F9F9" d="M63.98 30.352H7.54v35.431c0 1.213.983 2.197 2.196 2.197h52.048a2.196 2.196 0 0 0 2.196-2.197v-35.43z"/>
        <g fill="#F05562">
            <path d="M30.249 17.735h10.974v50.954H30.249zM24.189 2.986l4.45 2.512a13.956 13.956 0 0 1 7.097 12.154v.082H21.152a8.149 8.149 0 0 1-8.149-8.148s.002-.352.005-.445c.188-5.573 6.325-8.895 11.18-6.155zM47.284 2.986l-4.451 2.512a13.956 13.956 0 0 0-7.097 12.154v.082h14.585c4.5 0 8.148-3.648 8.148-8.148 0 0-.001-.352-.004-.445-.189-5.573-6.325-8.895-11.181-6.155z"/>
        </g>
        <g>
            <path fill="#434A54" d="M66.787 15.82h-9.786a9.678 9.678 0 0 0 2.576-6.58s-.002-.388-.006-.498c-.106-3.13-1.813-5.922-4.566-7.469-2.81-1.577-6.156-1.577-8.953.002l-4.45 2.512a15.529 15.529 0 0 0-6.326 6.732 15.528 15.528 0 0 0-6.326-6.732l-4.451-2.512c-2.796-1.579-6.143-1.58-8.952-.002-2.754 1.546-4.461 4.338-4.567 7.469-.003.11-.005.497-.005.497 0 2.537.978 4.849 2.576 6.581H3.764A3.768 3.768 0 0 0 0 19.584v8.934a3.768 3.768 0 0 0 3.764 3.764h1.723v33.863a3.768 3.768 0 0 0 3.764 3.764H61.3a3.768 3.768 0 0 0 3.764-3.764V32.282h1.723a3.768 3.768 0 0 0 3.764-3.764v-8.934a3.768 3.768 0 0 0-3.764-3.764zM43.143 6.517l4.45-2.512a5.944 5.944 0 0 1 5.876.002c1.79 1.005 2.9 2.815 2.968 4.84.003.076.004.392.004.392a6.588 6.588 0 0 1-6.581 6.581H36.933a12.41 12.41 0 0 1 6.21-9.303zM31.356 66.774V18.956h7.839v47.818h-7.839zM14.11 9.239s.001-.316.004-.391c.068-2.026 1.178-3.836 2.968-4.84a6.003 6.003 0 0 1 2.944-.778c1.008 0 2.015.258 2.931.776l4.451 2.511a12.409 12.409 0 0 1 6.21 9.303H20.69a6.588 6.588 0 0 1-6.58-6.58zM3.136 28.52v-8.935a.63.63 0 0 1 .628-.628h24.457v10.19H3.764a.63.63 0 0 1-.628-.628zm5.487 37.626V32.282h19.598v34.492H9.25a.629.629 0 0 1-.628-.629zm52.677.629H42.33v-4.587h7.975a1.568 1.568 0 0 0 0-3.136H42.33V32.282h19.598v33.863a.63.63 0 0 1-.628.629zm5.487-37.627H42.33V18.956h24.457a.63.63 0 0 1 .629.628v8.934a.63.63 0 0 1-.629.629z"/>
            <path fill="#231F20" d="M56.752 62.187h.157a1.568 1.568 0 0 0 0-3.136h-.157a1.568 1.568 0 0 0 0 3.136z"/>
        </g>
    </g>
</svg>
