<svg xmlns="http://www.w3.org/2000/svg" width="30" height="29" viewBox="0 0 30 29">
    <path fill="#FF6F7E" fill-rule="evenodd" d="M0 11.99a2.36 2.36 0 0 0 1.946 2.305v11.313c0 1.73 1.424 3.134 3.177 3.134h19.754c1.753 0 3.177-1.404 3.177-3.134V14.295A2.36 2.36 0 0 0 30 11.99V8.4c0-1.298-1.066-2.35-2.38-2.35h-3.735a3.616 3.616 0 0 0 .253-3.794A3.706 3.706 0 0 0 20.841.292c-3.124 0-4.926 2.498-5.84 4.362C14.088 2.788 12.285.29 9.156.29 4.978.292 4.6 5.45 6.12 6.05H2.383C1.07 6.055.005 7.106.003 8.403L0 11.99zM1.589 8.4a.79.79 0 0 1 .794-.782H14.21v5.154H2.383a.79.79 0 0 1-.794-.783V8.4zM4 26.717a1.557 1.557 0 0 1-.465-1.109v-11.27h10.674v12.837H5.123c-.42 0-.825-.164-1.123-.458zm20.877.458h-9.081V14.338h10.67v11.27a1.58 1.58 0 0 1-1.59 1.567zm3.534-15.19a.79.79 0 0 1-.794.784H15.796V7.618h11.82a.79.79 0 0 1 .795.782v3.585zm-7.57-10.128a2.133 2.133 0 0 1 1.926 1.018 2.077 2.077 0 0 1 0 2.157 2.133 2.133 0 0 1-1.926 1.019h-4.73c.608-1.505 2.065-4.194 4.73-4.194zM9.16 1.84c2.645 0 4.115 2.694 4.725 4.194H9.159c-1.172-.001-2.122-.937-2.126-2.095 0-1.158.952-2.097 2.126-2.1z"/>
</svg>
