<svg width="24" height="24" viewBox="0 0 24 24" fill="none" xmlns="http://www.w3.org/2000/svg">
<path d="M8.79289 11.7929C9.18342 11.4024 9.81658 11.4024 10.2071 11.7929L12 13.5858L16.7929 8.79289C17.1834 8.40237 17.8166 8.40237 18.2071 8.79289C18.5976 9.18342 18.5976 9.81658 18.2071 10.2071L12.7071 15.7071C12.3166 16.0976 11.6834 16.0976 11.2929 15.7071L8.79289 13.2071C8.40237 12.8166 8.40237 12.1834 8.79289 11.7929Z" fill="white"/>
<path fill-rule="evenodd" clip-rule="evenodd" d="M16.05 3.25C19.3274 3.25 22 5.81828 22 9.00676C22 10.3416 21.5279 11.6079 20.6797 12.6234C20.0495 13.3777 17.4176 16.1279 12.7159 20.9482C12.3226 21.3514 11.6742 21.3505 11.2821 20.9462C6.64298 16.1623 4.03504 13.4403 3.41284 12.7314C2.50739 11.6997 2 10.3905 2 9.00676C2 5.81828 4.67262 3.25 7.95 3.25C9.48069 3.25 10.9166 3.81418 12 4.78869C13.0834 3.81418 14.5193 3.25 16.05 3.25ZM19.1447 11.3412C19.6965 10.6807 20 9.86649 20 9.00676C20 6.94106 18.2402 5.25 16.05 5.25C14.7385 5.25 13.5403 5.86097 12.8066 6.86221C12.4071 7.40742 11.5929 7.40742 11.1934 6.86221C10.4597 5.86097 9.26147 5.25 7.95 5.25C5.75976 5.25 4 6.94106 4 9.00676C4 9.89806 4.32643 10.7404 4.916 11.4121C5.47324 12.047 7.8481 14.5286 12.002 18.8153C16.1957 14.5107 18.5958 11.9982 19.1447 11.3412Z" fill="white"/>
</svg>
