<svg xmlns="http://www.w3.org/2000/svg" width="15" height="15" viewBox="0 0 15 15">
    <g fill="none" fill-rule="nonzero">
        <circle cx="7.609" cy="7.348" r="5.609" fill="#FFF" stroke="#979797"/>
        <path fill="#1E88E5" d="M13.993 3.75l-1.74-1.005-1.004-1.74h-2.01L7.5 0l-1.74 1.005h-2.01l-1.004 1.74-1.74 1.005v2.009L0 7.499l1.005 1.74v2.01l1.74 1.004 1.005 1.74h2.01l1.74 1.005 1.74-1.005h2.009l1.004-1.74 1.74-1.005V9.24l1.005-1.74-1.004-1.74v-2.01zm-7.17 6.818a.7.7 0 0 1-.508.206.7.7 0 0 1-.508-.206L3.614 8.375a.704.704 0 0 1 0-.995l.58-.58a.704.704 0 0 1 .996 0l1.125 1.124 3.493-3.493a.704.704 0 0 1 .995 0l.58.58a.704.704 0 0 1 0 .996l-4.56 4.561z"/>
    </g>
</svg>
