<svg width="24" height="24" viewBox="0 0 24 24" fill="none" xmlns="http://www.w3.org/2000/svg">
<path fill-rule="evenodd" clip-rule="evenodd" d="M12 4.7892C10.9347 3.83133 9.50886 3.25 7.95 3.25C4.70181 3.25 2 5.79023 2 9.00676C2 10.4307 2.53525 11.7315 3.41284 12.7314C3.88676 13.2714 5.86943 15.3401 7.7026 17.2427C8.62594 18.201 9.52078 19.1268 10.1847 19.813C10.5167 20.1561 10.791 20.4394 10.9823 20.6368L11.2818 20.9458C11.4698 21.1397 11.7285 21.2496 11.9985 21.25C12.2686 21.2504 12.5273 21.1416 12.7159 20.9482L13.0192 20.637C13.2127 20.4383 13.4901 20.1533 13.8258 19.8079C14.4972 19.1171 15.4019 18.1846 16.3353 17.218C18.1812 15.3062 20.1961 13.2022 20.6797 12.6234C21.5023 11.6386 22 10.3796 22 9.00676C22 5.79023 19.2982 3.25 16.05 3.25C14.4911 3.25 13.0653 3.83133 12 4.7892ZM18.2071 11.2071C18.5976 10.8166 18.5976 10.1834 18.2071 9.79289C17.8166 9.40237 17.1834 9.40237 16.7929 9.79289L12 14.5858L10.2071 12.7929C9.81658 12.4024 9.18342 12.4024 8.79289 12.7929C8.40237 13.1834 8.40237 13.8166 8.79289 14.2071L11.2929 16.7071C11.6834 17.0976 12.3166 17.0976 12.7071 16.7071L18.2071 11.2071Z" fill="white"/>
</svg>
