<?xml version="1.0" encoding="UTF-8"?>
<svg width="17px" height="19px" viewBox="0 0 17 19" version="1.1" xmlns="http://www.w3.org/2000/svg" xmlns:xlink="http://www.w3.org/1999/xlink">
    <!-- Generator: Sketch 50.2 (55047) - http://www.bohemiancoding.com/sketch -->
    <title>Group 32</title>
    <desc>Created with Sketch.</desc>
    <defs></defs>
    <g id="Page-1" stroke="none" stroke-width="1" fill="none" fill-rule="evenodd" stroke-linecap="round" stroke-linejoin="round">
        <g id="1" transform="translate(-418.000000, -629.000000)" stroke="#404040">
            <g id="Group-4">
                <g id="Group-2" transform="translate(81.000000, 204.000000)">
                    <g id="Group-7" transform="translate(47.000000, 426.000000)">
                        <g id="Group-32" transform="translate(291.000000, 0.000000)">
                            <path d="M0.000123582544,9.14545455 C0.00247442034,8.51376931 0.538349225,8.00224402 1.20010381,8 L13.8127531,8 C14.1317655,8.00323154 14.4362981,8.1275921 14.6590544,8.34560007 C14.8818107,8.56360804 15.004452,8.85731556 14.9998764,9.16181818 L14.9998764,15.8381818 C15.004452,16.1426844 14.8818107,16.436392 14.6590544,16.6543999 C14.4362981,16.8724079 14.1317655,16.9967685 13.8127531,17 L1.18724688,17 C0.868234539,16.9967685 0.563701903,16.8724079 0.340945583,16.6543999 C0.118189263,16.436392 -0.0044519555,16.1426844 0.000123582544,15.8381818 L0.000123582544,9.14545455 Z" id="Shape"></path>
                            <path d="M11,8 L11,4.12796698 C11,1.84815377 9.209139,7.33274237e-16 7,0 C4.790861,1.46654847e-15 3,1.84815377 3,4.12796698 L3,8" id="Shape"></path>
                        </g>
                    </g>
                </g>
            </g>
        </g>
    </g>
</svg>