<svg xmlns="http://www.w3.org/2000/svg" width="89" height="70" viewBox="0 0 89 70">
    <g fill="none" fill-rule="nonzero">
        <path fill="#F9F9F9" d="M8.354 29.11V60.24h11.509a7.902 7.902 0 1 1 15.805 0h22.77V17.005c0-5.348-4.335-9.683-9.682-9.683h-20.64"/>
        <path fill="#55C6D9" d="M79.01 60.24h7.542V45.177a5.924 5.924 0 0 0-5.924-5.923h-22.19V60.24h-.526 5.294"/>
        <path fill="#F9F9F9" d="M58.438 39.253h21.065l-3.085-9.756a8.655 8.655 0 0 0-8.253-6.045h-9.727v15.8z"/>
        <g fill="#F9F9F9" transform="translate(19.828 52.241)">
            <circle cx="7.938" cy="8" r="7.902"/>
            <circle cx="51.281" cy="8" r="7.902"/>
        </g>
        <path fill="#434A54" d="M36 45.724a1.698 1.698 0 0 1 .133-.658 1.702 1.702 0 0 1 .372-.56 1.761 1.761 0 0 1 .56-.375 1.743 1.743 0 0 1 .659-.131 1.695 1.695 0 0 1 .659.131 1.708 1.708 0 0 1 .932.933 1.7 1.7 0 0 1 0 1.319 1.713 1.713 0 0 1-1.255 1.03 1.698 1.698 0 0 1-1.293-.256 1.65 1.65 0 0 1-.476-.476 1.702 1.702 0 0 1-.257-.62 1.698 1.698 0 0 1-.034-.337zM8 45.724C8 44.772 8.772 44 9.724 44H30.81a1.724 1.724 0 0 1 0 3.448H9.724A1.724 1.724 0 0 1 8 45.724z"/>
        <circle cx="16.597" cy="16.729" r="14.872" fill="#F05562"/>
        <path fill="#434A54" d="M80.767 37.53l-2.705-8.553a10.34 10.34 0 0 0-9.896-7.25h-8.004v-4.722c0-6.29-5.117-11.407-11.406-11.407h-19.86C25.857 2.243 21.468.133 16.596.133 7.445.133 0 7.578 0 16.729c0 5.414 2.606 10.23 6.63 13.262v30.25c0 .952.772 1.724 1.724 1.724h9.94c.814 4.488 4.752 7.902 9.471 7.902 4.72 0 8.657-3.414 9.472-7.902h24.399c.815 4.488 4.752 7.902 9.472 7.902s8.657-3.414 9.472-7.902h5.972c.952 0 1.724-.772 1.724-1.724V45.176c0-4.17-3.356-7.572-7.51-7.646zM68.166 25.176a6.905 6.905 0 0 1 6.608 4.84l2.376 7.512H60.162V25.176h8.004zM3.448 16.729c0-7.25 5.898-13.148 13.148-13.148s13.148 5.898 13.148 13.148-5.898 13.147-13.148 13.147S3.448 23.978 3.448 16.73zm6.63 15.262a16.503 16.503 0 0 0 6.518 1.334c9.15 0 16.596-7.445 16.596-16.596 0-2.77-.682-5.384-1.888-7.682h17.452c4.388 0 7.958 3.57 7.958 7.958v41.512H37.237c-.815-4.488-4.752-7.903-9.472-7.903s-8.657 3.415-9.472 7.903h-8.215V31.99zm17.687 34.428a6.185 6.185 0 0 1-6.178-6.178 6.185 6.185 0 0 1 6.178-6.178 6.185 6.185 0 0 1 6.178 6.178 6.185 6.185 0 0 1-6.178 6.178zm43.343 0a6.185 6.185 0 0 1-6.179-6.178 6.185 6.185 0 0 1 6.179-6.178 6.185 6.185 0 0 1 6.178 6.178 6.185 6.185 0 0 1-6.178 6.178zm13.72-7.902H80.58c-.815-4.489-4.752-7.903-9.472-7.903s-8.657 3.414-9.472 7.903h-1.474v-17.54h20.466c2.316 0 4.2 1.884 4.2 4.2v13.34z"/>
        <path fill="#FFF" d="M12.495 10.147c1.88 0 3.776 1.183 3.776 3.355 0 3.517-5.007 4.667-5.007 6.142v.146h4.246c.405 0 .761.502.761 1.086 0 .583-.356 1.118-.761 1.118H9.74c-.453 0-1.102-.308-1.102-.778v-1.572c0-2.544 5.105-4.003 5.105-6.06 0-.52-.324-1.152-1.231-1.152-.649 0-1.216.325-1.216 1.216 0 .47-.502.924-1.329.924-.648 0-1.134-.292-1.134-1.313 0-1.977 1.815-3.112 3.662-3.112zM20.923 19.498H17.13c-.47 0-.843-.307-.843-.875 0-.13.033-.308.13-.486l3.743-7.341c.243-.47.648-.648 1.054-.648.437 0 1.264.372 1.264.956a.793.793 0 0 1-.081.308l-2.869 5.753h1.394V16.03c0-.534.632-.761 1.264-.761s1.264.227 1.264.761v1.135h.697c.518 0 .778.583.778 1.167 0 .583-.39 1.166-.778 1.166h-.697v1.718c0 .519-.632.778-1.264.778s-1.264-.259-1.264-.778v-1.718z"/>
    </g>
</svg>
