<svg xmlns="http://www.w3.org/2000/svg" width="92" height="42" viewBox="0 0 92 42">
    <path fill="#72C240" fill-rule="evenodd" d="M34 0c-3.29 0-6 2.71-6 6v30c0 3.29 2.71 6 6 6h52c3.29 0 6-2.71 6-6V6c0-3.29-2.71-6-6-6H34zm0 4h52c1.143 0 2 .857 2 2v30c0 1.143-.857 2-2 2H34c-1.143 0-2-.857-2-2V6c0-1.143.857-2 2-2zM2 7a2 2 0 1 0 0 4h20a2 2 0 1 0 0-4H2zm37.906.969a2 2 0 0 0-1.281 3.468l9.844 9.25-9.875 9.876a2 2 0 1 0 2.812 2.843l9.969-9.968 4.031 3.812c2.556 2.409 6.57 2.403 9.125 0l4.063-3.844 10 10a2 2 0 1 0 2.812-2.843l-9.875-9.875 9.844-9.25a2 2 0 1 0-2.75-2.907L61.812 24.344c-.801.753-2.858.752-3.656 0L41.375 8.53a2 2 0 0 0-1.469-.562zM6 19a2 2 0 1 0 0 4h16a2 2 0 1 0 0-4H6zm4 12a2 2 0 1 0 0 4h12a2 2 0 1 0 0-4H10z"/>
</svg>
