<svg xmlns="http://www.w3.org/2000/svg" width="37" height="39" viewBox="0 0 37 39">
    <path fill="#FB3449" fill-rule="evenodd" d="M36.234 13.848a3.002 3.002 0 0 0-1.583-1.788l-3.616-1.68-.484-3.958a2.99 2.99 0 0 0-3.543-2.57l-3.895.758-2.731-2.92a2.99 2.99 0 0 0-4.376 0l-2.735 2.92-3.912-.763a2.99 2.99 0 0 0-3.542 2.575l-.484 3.957-3.617 1.681A2.99 2.99 0 0 0 .38 16.222l1.936 3.486-1.936 3.485a2.99 2.99 0 0 0 1.354 4.162l3.616 1.681.484 3.957a2.99 2.99 0 0 0 3.543 2.571l3.895-.758 2.719 2.92a2.99 2.99 0 0 0 4.375 0l2.748-2.92 3.911.763a2.99 2.99 0 0 0 3.543-2.576l.484-3.957 3.617-1.68a2.99 2.99 0 0 0 1.353-4.163l-1.952-3.485 1.936-3.486a3.002 3.002 0 0 0 .23-2.374zm-2.021 1.382l-2.21 3.982c-.173.31-.173.686 0 .996l2.21 3.982a.939.939 0 0 1-.41 1.308l-4.13 1.923a1.025 1.025 0 0 0-.586.82l-.554 4.51a.939.939 0 0 1-1.115.82l-4.486-.885a1.03 1.03 0 0 0-.947.307l-3.104 3.334a.964.964 0 0 1-1.378 0L14.4 32.993a1.025 1.025 0 0 0-.75-.328 1.054 1.054 0 0 0-.197 0l-4.47.894a.939.939 0 0 1-1.115-.82l-.554-4.51a1.025 1.025 0 0 0-.586-.82L2.61 25.498a.939.939 0 0 1-.41-1.308l2.21-3.982c.172-.31.172-.687 0-.996L2.2 15.23a.939.939 0 0 1 .41-1.308l4.1-1.927c.326-.152.549-.463.587-.82l.553-4.51a.939.939 0 0 1 1.116-.821l4.473.873a1.03 1.03 0 0 0 .948-.307l3.104-3.334a.964.964 0 0 1 1.378 0l3.104 3.334c.241.258.6.375.947.307l4.473-.873a.939.939 0 0 1 1.116.82l.553 4.51c.039.358.261.669.587.82l4.125 1.924a.939.939 0 0 1 .41 1.308l.029.004zm-10.908-.513l-8.594 11.228a1.025 1.025 0 0 1-1.64-1.23l8.602-11.244a1.025 1.025 0 1 1 1.64 1.23l-.008.016zm-.693 5.118a3.28 3.28 0 0 0-3.256 3.256v.676a3.256 3.256 0 1 0 6.512 0v-.676a3.28 3.28 0 0 0-3.256-3.256zm1.206 3.936a1.206 1.206 0 1 1-2.411 0v-.68a1.206 1.206 0 0 1 2.41 0v.68zm-6.79-7.446v-.677a3.256 3.256 0 1 0-6.512 0v.677a3.256 3.256 0 0 0 6.511 0zm-4.462 0v-.677a1.206 1.206 0 1 1 2.411 0v.677a1.206 1.206 0 0 1-2.41 0z"/>
</svg>
