<svg width="150" height="22" viewBox="0 0 150 22" fill="none" xmlns="http://www.w3.org/2000/svg">
<rect width="150" height="21" transform="translate(0 0.125)" fill="white"/>
<path d="M129.45 3.125C129.318 3.125 129.193 3.18661 129.112 3.29194L126.377 6.84241C126.322 6.91342 126.372 7.01689 126.461 7.01689H126.89C127.022 7.01689 127.147 6.95528 127.228 6.84995L129.963 3.29948C130.018 3.22847 129.968 3.125 129.879 3.125H129.45Z" fill="#FB008F"/>
<path d="M142.522 6.2334C142.548 6.46711 142.745 6.64927 142.984 6.64927H146.247L146.297 6.64653C146.53 6.62117 146.711 6.42299 146.711 6.18258V5.09991L146.708 5.04905C146.683 4.81521 146.486 4.63322 146.247 4.63322L144.75 4.63332L144.75 4.02412L144.747 3.97327C144.722 3.73942 144.525 3.55743 144.285 3.55743H142.984L142.934 3.56017C142.701 3.5855 142.52 3.78354 142.52 4.02412L142.52 6.18258L142.522 6.2334Z" fill="#FB008F"/>
<path d="M20.2785 15.6813C20.2785 17.47 18.7265 19.0638 16.9548 19.1233L16.8524 19.125H13.4211C11.5293 19.125 10.0504 17.6747 10.0012 15.7905L10 15.6813V11.8072C10 11.5747 10.1544 11.4028 10.376 11.3795L10.4283 11.3767H11.7131C11.9445 11.3767 12.1154 11.532 12.1387 11.7547L12.1414 11.8072L12.1369 15.6739C12.1369 16.3662 12.6719 16.931 13.3465 16.9705L13.422 16.9727H16.8524C17.4152 16.9727 18.0872 16.3175 18.1345 15.7446L18.1372 15.6813H16.4241C16.1924 15.6813 16.0217 15.5264 15.9985 15.3035L15.9958 15.2509V13.9338C15.9958 13.7011 16.15 13.5294 16.3717 13.5061L16.4241 13.5034H22.4038C23.1135 13.5034 23.6889 12.9226 23.6889 12.2061V9.61149C23.6889 9.37266 23.8806 9.17905 24.1172 9.17905H25.4023C25.6388 9.17905 25.8306 9.37266 25.8306 9.61149V12.2061C25.8306 12.6648 25.7422 13.1028 25.5815 13.5034H27.1095C27.8192 13.5034 28.3946 12.9226 28.3946 12.2061V9.61149C28.3946 9.37266 28.5863 9.17905 28.8229 9.17905H30.108C30.3446 9.17905 30.5363 9.37266 30.5363 9.61149V12.2061C30.5363 12.6648 30.4479 13.1028 30.2872 13.5034H30.5425C31.2523 13.5034 31.8276 12.9226 31.8276 12.2061V9.61149C31.8276 9.37266 32.0194 9.17905 32.256 9.17905H33.541C33.7776 9.17905 33.9694 9.37266 33.9694 9.61149V12.2061C33.9694 14.1167 32.4351 15.6655 30.5425 15.6655H30.1306C29.9901 15.6655 29.8584 15.5959 29.7784 15.4793L29.3368 14.8353C28.7378 15.3529 27.9598 15.6655 27.1095 15.6655H25.4125C25.272 15.6655 25.1404 15.5959 25.0603 15.4793L24.6233 14.842C24.0254 15.3556 23.2504 15.6655 22.4038 15.6655H20.2754L20.2785 15.6813Z" fill="#FB008F"/>
<path d="M27.5966 6.64927C27.3572 6.64927 27.1601 6.46711 27.1349 6.2334L27.1322 6.18258L27.1323 4.02412C27.1323 3.78354 27.3134 3.5855 27.5461 3.56017L27.5967 3.55743H28.8978C29.1374 3.55743 29.3344 3.73942 29.3596 3.97327L29.3624 4.02412L29.3628 4.63332L30.8591 4.63322C31.0985 4.63322 31.2956 4.81521 31.3208 5.04905L31.3235 5.09991V6.18258C31.3235 6.42299 31.1424 6.62117 30.9097 6.64653L30.8591 6.64927H27.5966Z" fill="#FB008F"/>
<path d="M111.246 7.39476C111.223 7.1719 111.053 7.01689 110.821 7.01689H107.395L107.342 7.0196C107.121 7.04294 106.966 7.21457 106.966 7.44735V8.73873L106.969 8.79133C106.992 9.01425 107.163 9.16918 107.395 9.16918H110.821L110.873 9.16647C111.095 9.14315 111.249 8.97158 111.249 8.73873V7.44735L111.246 7.39476Z" fill="#FB008F"/>
<path d="M76.5527 16.9095C76.7844 16.9095 76.9551 17.0645 76.9783 17.2874L76.981 17.34V18.6314C76.981 18.8642 76.8268 19.0358 76.605 19.0591L76.5527 19.0618H73.1265C72.8948 19.0618 72.7242 18.9069 72.701 18.684L72.6982 18.6314V17.34C72.6982 17.1072 72.8524 16.9356 73.0742 16.9122L73.1265 16.9095H76.5527Z" fill="#FB008F"/>
<path d="M70.5538 5.2326C70.5306 5.00974 70.3598 4.85473 70.1282 4.85473H68.843L68.7907 4.85744C68.5689 4.88077 68.4147 5.05241 68.4147 5.28519V6.57656L68.4174 6.62917C68.4406 6.85209 68.6114 7.00702 68.843 7.00702H70.1282L70.1805 7.00431C70.4023 6.98099 70.5565 6.80942 70.5565 6.57656V5.28519L70.5538 5.2326Z" fill="#FB008F"/>
<path d="M93.0446 4.85473C93.2762 4.85473 93.447 5.00974 93.4702 5.2326L93.4729 5.28519V6.57656C93.4729 6.80942 93.3187 6.98099 93.097 7.00431L93.0446 7.00702H91.5457C91.3141 7.00702 91.1433 6.85209 91.1201 6.62917L91.1174 6.57656V5.28519C91.1174 5.05241 91.2716 4.88077 91.4934 4.85744L91.5457 4.85473H93.0446Z" fill="#FB008F"/>
<path d="M47.9041 3.9353C47.8809 3.71244 47.7101 3.55743 47.4786 3.55743H45.9796L45.9273 3.56014C45.7056 3.58348 45.5513 3.75511 45.5513 3.98789V5.27927L45.554 5.33187C45.5772 5.55479 45.748 5.70972 45.9796 5.70972H47.4786L47.5309 5.70701C47.7526 5.68369 47.9068 5.51212 47.9068 5.27927V3.98789L47.9041 3.9353Z" fill="#FB008F"/>
<path d="M123.458 3.55743C123.689 3.55743 123.86 3.71244 123.883 3.9353L123.886 3.98789V5.27927C123.886 5.51212 123.732 5.68369 123.51 5.70701L123.458 5.70972H121.959C121.727 5.70972 121.556 5.55479 121.533 5.33187L121.53 5.27927V3.98789C121.53 3.75511 121.685 3.58348 121.906 3.56014L121.959 3.55743H123.458Z" fill="#FB008F"/>
<path d="M82.4217 3.29194C82.5029 3.18661 82.6277 3.125 82.7599 3.125H83.1881C83.2772 3.125 83.3274 3.22847 83.2726 3.29948L80.5372 6.84995C80.4561 6.95528 80.3313 7.01689 80.1991 7.01689H79.7709C79.6817 7.01689 79.6316 6.91342 79.6863 6.84241L82.4217 3.29194Z" fill="#FB008F"/>
<path fill-rule="evenodd" clip-rule="evenodd" d="M125.993 13.5034H132.237C133.463 13.5034 134.379 12.5788 134.379 11.3412V10.9088C134.379 9.67121 133.463 8.74662 132.237 8.74662H127.312C126.927 8.74662 126.853 8.39789 127.098 8.09797L130.705 3.44702C130.872 3.24309 131.12 3.125 131.382 3.125H133.028C133.359 3.125 133.54 3.51419 133.329 3.7717L131.167 6.58446H132.237C134.693 6.58446 136.52 8.42907 136.52 10.9088V11.3412C136.52 12.1417 136.33 12.876 135.989 13.5034H138.22C138.929 13.5034 139.505 12.9226 139.505 12.2061V9.61149C139.505 9.37266 139.697 9.17905 139.933 9.17905H141.218C141.455 9.17905 141.647 9.37266 141.647 9.61149V12.2061C141.647 12.6648 141.558 13.1028 141.398 13.5034H142.925C143.635 13.5034 144.211 12.9226 144.211 12.2061V9.61149C144.211 9.37266 144.402 9.17905 144.639 9.17905H145.924C146.161 9.17905 146.352 9.37266 146.352 9.61149V12.2061C146.352 12.6648 146.264 13.1028 146.103 13.5034H146.358C147.068 13.5034 147.644 12.9226 147.644 12.2061V9.61149C147.644 9.37266 147.835 9.17905 148.072 9.17905H149.357C149.594 9.17905 149.785 9.37266 149.785 9.61149V12.2061C149.785 14.1167 148.251 15.6655 146.358 15.6655H145.947C145.806 15.6655 145.674 15.5959 145.594 15.4793L145.153 14.8353C144.554 15.3529 143.776 15.6655 142.925 15.6655H141.229C141.088 15.6655 140.956 15.5959 140.876 15.4793L140.439 14.842C139.841 15.3556 139.066 15.6655 138.22 15.6655H135.66C135.519 15.6655 135.388 15.5959 135.308 15.4793L134.856 14.8204C134.143 15.3561 133.243 15.6655 132.237 15.6655H116.384C116.243 15.6655 116.112 15.5959 116.032 15.4793L115.595 14.8419C114.997 15.3556 114.222 15.6655 113.375 15.6655H104.825C102.932 15.6655 101.398 14.1167 101.398 12.2061V9.61149C101.398 9.37266 101.59 9.17905 101.826 9.17905H103.111C103.348 9.17905 103.54 9.37266 103.54 9.61149V12.2061C103.54 12.9226 104.115 13.5034 104.825 13.5034H113.375C114.085 13.5034 114.66 12.9226 114.66 12.2061V9.61149C114.66 9.37266 114.852 9.17905 115.089 9.17905H116.374C116.61 9.17905 116.802 9.37266 116.802 9.61149V12.2061C116.802 12.6648 116.714 13.1028 116.553 13.5034H119.638C119.477 13.1028 119.389 12.6648 119.389 12.2061V10.9088C119.389 8.99818 120.923 7.44932 122.816 7.44932C124.708 7.44932 126.242 8.99818 126.242 10.9088V12.2061C126.242 12.6648 126.154 13.1028 125.993 13.5034ZM124.101 10.9088V12.2061C124.101 12.9226 123.525 13.5034 122.816 13.5034C122.106 13.5034 121.53 12.9226 121.53 12.2061V10.9088C121.53 10.1923 122.106 9.61149 122.816 9.61149C123.525 9.61149 124.101 10.1923 124.101 10.9088Z" fill="#FB008F"/>
<path fill-rule="evenodd" clip-rule="evenodd" d="M50.0141 13.5034C50.1748 13.1028 50.2632 12.6648 50.2632 12.2061V10.9088C50.2632 8.99818 48.729 7.44932 46.8364 7.44932C44.9438 7.44932 43.4096 8.99818 43.4096 10.9088V12.2061C43.4096 12.6648 43.498 13.1028 43.6587 13.5034H42.5529C41.8432 13.5034 41.2678 12.9226 41.2678 12.2061V9.61149L41.2678 9.60978V4.85473C41.2678 4.6159 41.076 4.4223 40.8395 4.4223H39.5544C39.3178 4.4223 39.126 4.6159 39.126 4.85473V11.7736L39.126 11.7754V12.2061C39.126 14.1167 40.6603 15.6655 42.5529 15.6655H52.3885C53.2351 15.6655 54.0101 15.3556 54.608 14.842L55.045 15.4793C55.1251 15.5959 55.2567 15.6655 55.3972 15.6655H57.0942C57.9445 15.6655 58.7225 15.3529 59.3215 14.8352L59.7631 15.4793C59.8432 15.5959 59.9748 15.6655 60.1153 15.6655H60.5272C62.4198 15.6655 63.9541 14.1167 63.9541 12.2061V9.61149C63.9541 9.37266 63.7623 9.17905 63.5257 9.17905H62.2407C62.0041 9.17905 61.8123 9.37266 61.8123 9.61149V12.2061C61.8123 12.9226 61.237 13.5034 60.5272 13.5034H60.2719C60.4326 13.1028 60.521 12.6648 60.521 12.2061V9.61149C60.521 9.37266 60.3293 9.17905 60.0927 9.17905H58.8076C58.5711 9.17905 58.3793 9.37266 58.3793 9.61149V12.2061C58.3793 12.9226 57.8039 13.5034 57.0942 13.5034H55.5662C55.7269 13.1028 55.8153 12.6648 55.8153 12.2061V9.61149C55.8153 9.37266 55.6235 9.17905 55.387 9.17905H54.1019C53.8653 9.17905 53.6736 9.37266 53.6736 9.61149V12.2061C53.6736 12.9226 53.0982 13.5034 52.3885 13.5034H50.0141ZM48.1215 12.2061V10.9088C48.1215 10.1923 47.5461 9.61149 46.8364 9.61149C46.1267 9.61149 45.5513 10.1923 45.5513 10.9088V12.2061C45.5513 12.9226 46.1267 13.5034 46.8364 13.5034C47.5461 13.5034 48.1215 12.9226 48.1215 12.2061Z" fill="#FB008F"/>
<path d="M89.2988 13.5034C89.6392 12.876 89.8296 12.1417 89.8296 11.3412V10.9088C89.8296 8.42907 88.0027 6.58446 85.5469 6.58446H84.4762L86.6387 3.7717C86.8497 3.51419 86.6683 3.125 86.3373 3.125H84.692C84.43 3.125 84.1815 3.24309 84.0145 3.44702L80.4077 8.09797C80.1621 8.39789 80.2364 8.74662 80.6218 8.74662H85.5469C86.7726 8.74662 87.6883 9.67121 87.6883 10.9088V11.3412C87.6883 12.5788 86.7726 13.5034 85.5469 13.5034H78.4296C78.5903 13.1028 78.6787 12.6648 78.6787 12.2061V9.61149C78.6787 9.37266 78.4869 9.17905 78.2504 9.17905H76.9653C76.7287 9.17905 76.5369 9.37266 76.5369 9.61149V12.2061C76.5369 12.9226 75.9616 13.5034 75.2519 13.5034H70.5843V9.61149C70.5843 9.37266 70.3925 9.17905 70.1559 9.17905H68.8709C68.6343 9.17905 68.4425 9.37266 68.4425 9.61149V14.8007C68.4425 16.0383 67.5274 16.9628 66.3017 16.9628H64.4872C64.1018 16.9628 64.0275 17.3116 64.2731 17.6115L65.1896 18.7933C65.352 19.0027 65.6007 19.125 65.8641 19.125H66.3017C68.7575 19.125 70.5844 17.2804 70.5844 14.8007L70.5843 14.7932L71.0548 15.4793C71.1348 15.5959 71.2664 15.6655 71.407 15.6655H75.2519C76.1111 15.6655 76.8965 15.3463 77.498 14.8189L78.1546 15.6655H85.5469C86.8216 15.6655 87.9269 15.1685 88.6952 14.3437L89.474 15.4793C89.554 15.5959 89.6856 15.6655 89.8261 15.6655H92.8144C94.7069 15.6655 96.2412 14.1167 96.2412 12.2061V9.61149C96.2412 9.37266 96.0494 9.17905 95.8128 9.17905H94.5278C94.2912 9.17905 94.0994 9.37266 94.0994 9.61149V12.2061C94.0994 12.9226 93.5241 13.5034 92.8144 13.5034H89.2988Z" fill="#FB008F"/>
<path d="M31.5297 17.6115L32.4461 18.7933C32.6085 19.0027 32.8573 19.125 33.1207 19.125H33.5583C36.014 19.125 37.841 17.2804 37.841 14.8007V9.61149C37.841 9.37266 37.6492 9.17905 37.4126 9.17905H36.1276C35.891 9.17905 35.6992 9.37266 35.6992 9.61149V14.8007C35.6992 16.0383 34.7839 16.9628 33.5583 16.9628H31.7438C31.3583 16.9628 31.2841 17.3116 31.5297 17.6115Z" fill="#FB008F"/>
<path d="M97.5427 4.85473C97.5427 4.6159 97.7345 4.4223 97.9711 4.4223H99.2561C99.4927 4.4223 99.6845 4.6159 99.6845 4.85473V15.2331C99.6845 15.4719 99.4927 15.6655 99.2561 15.6655H97.9711C97.7345 15.6655 97.5427 15.4719 97.5427 15.2331V4.85473Z" fill="#FB008F"/>
</svg>
