<svg xmlns="http://www.w3.org/2000/svg" width="1657" height="157" viewBox="0 0 1657 157">
    <defs>
        <linearGradient id="prefix__a" x1="50%" x2="50%" y1="28.069%" y2="83.545%">
            <stop offset="0%" stop-color="#0CABBE"/>
            <stop offset="100%" stop-color="#4DD4E3" stop-opacity="0"/>
        </linearGradient>
    </defs>
    <path fill="url(#prefix__a)" d="M1394.608 174.84c82.075-11.25 184.843-11.097 268.103.903 32.377 4.667 62.66 10.665 96.893 18.814 24.133 5.747 47.039 11.934 67.239 18.124 11.942 3.659 22.315 7.195 31.03 10.595 29.357 9.095 52.901 19.224 68.654 29.619l-3.728.21c-9.373-6.185-21.524-12.275-36.026-18.107 7.422 3.33 13.825 6.636 19.118 9.884l-3.888.236c-3.836-2.353-8.26-4.739-13.238-7.142l-2.374.158c-4.1-2.3-8.947-4.658-14.504-7.063l-1.105.079c-2.43-1.262-5.134-2.549-8.11-3.858-4.01-1.565-8.302-3.146-12.866-4.742-3.027-1.016-6.12-2.024-9.276-3.022-32.307-9.09-70.569-16.92-112.513-22.615-102.505-13.915-228.8-10.524-310.772 8.042l-1.04.236c-9.76 2.223-18.027 4.282-30.209 7.515l-4.979 1.328-18.222 4.915c-44.536 11.949-69.022 17.165-107.969 21.825-62.715 7.508-144.358 8.366-207.104 1.849-37.457-3.89-63.133-8.993-107.881-20.086l-16.506-4.082-3.466-.841c-80.117-19.196-188.03-27.224-290.12-18.399-26.333 2.276-48.685 4.897-80.37 9.234l-6.253.86-6.122.852c-.19.028-8.616 1.21-16.013 2.247l-.346.048-15.406 2.137c-68.407 9.31-115.073 12.757-182.893 11.642C218.838 224.53 123.47 211.895 75 194.05c-6.465-1.714-12.447-3.496-17.914-5.34-10.49-2.72-19.726-5.632-27.596-8.72-6.559-1.917-12.542-3.929-17.929-6.034l3.998-.382c4.585 1.793 9.609 3.516 15.058 5.169l.412-.037c.502.206 1.01.412 1.523.616 4.237 1.25 8.72 2.459 13.445 3.627l.505-.044c.288.128.58.255.873.381 26.53 6.453 60.495 11.644 100.847 15.545 36.55 3.535 79.08 5.535 127.15 6.107 67.973.81 114.275-2.587 185.448-11.664l30.127-3.877c12.323-1.575 22.173-2.793 31.75-3.907l4.408-.507 3.895-.44c15.688-1.745 30.74-3.203 46.107-4.433 29.672-2.387 59.94-3.454 90.378-3.269 74.604.454 147.375 8.42 203.969 21.228l22.817 5.218c39.677 9.008 63.245 13.286 95.674 16.5l3.71.36c7.639.721 15.577 1.335 23.764 1.838 55.898 3.431 121.571 1.566 173.465-4.82 15.884-1.954 30.74-4.307 45.302-7.116 16.046-3.097 28.874-6.046 48.679-11.113l7.774-2.004 15.333-4.001c16.057-4.182 26.209-6.717 36.811-9.108l3.56-.793 3.414-.746c13.143-2.843 27.5-5.334 42.851-7.444zm307.296 14.292c-84.14-11.719-186.324-11.566-266.708-.059-15.104 2.163-29.22 4.707-42.12 7.6-9.809 2.199-18.037 4.214-29.709 7.275l-6.738 1.78-16.368 4.39c-25.09 6.728-39.497 10.31-56.496 13.754l-3.778.755-2.524.493c-14.874 2.886-30.165 5.3-46.601 7.294-53.819 6.534-122.3 8.225-180.473 4.324-8.552-.573-16.836-1.265-24.802-2.072-37.295-3.781-62.682-8.739-107.794-19.706l-11.99-2.913-7.13-1.71c-55.7-13.12-127.122-21.232-199.968-21.634-30-.164-59.932.97-89.385 3.47-15.353 1.301-30.393 2.845-46.01 4.688-13.922 1.646-27.093 3.364-46.008 5.953l-28.583 3.909c-70.062 9.415-117.003 12.924-185.575 11.895-45.89-.69-89.737-3.253-128.728-7.513-31.585-3.471-59.569-7.88-82.83-13.037 50.74 15.294 137.579 25.88 231.09 27.42 68.727 1.13 115.34-2.498 186.484-12.354l31.72-4.436c35.26-4.884 58.963-7.72 87.281-10.167 104.971-9.075 215.82-.658 297.174 19.203l1.049.256 20.975 5.186c41.708 10.254 66.622 15.09 102.203 18.786 61.49 6.387 141.654 5.544 203.218-1.826 36.501-4.367 60.215-9.251 100.503-19.929l6.388-1.704 15.317-4.135c12.851-3.456 21.493-5.7 30.112-7.762l1.725-.41 3.337-.782 4.127-.946c83.26-18.858 211.8-22.308 315.962-8.168 27.377 3.717 53.184 8.331 76.808 13.605-3.568-.933-7.188-1.852-10.856-2.757-29.839-7.352-61.126-13.395-94.299-18.016zm-20.93-5.918c-82.911-11.658-184.342-11.657-264.79-.471-15.08 2.098-29.191 4.575-42.114 7.4-11.15 2.435-20.366 4.667-34.614 8.356l-5.143 1.338-19.649 5.154c-21.587 5.623-35.038 8.844-50.726 11.972l-2.97.586-2.577.499c-14.807 2.843-30.012 5.228-46.328 7.207-53.401 6.476-121.159 8.26-178.832 4.584-8.467-.54-16.686-1.195-24.588-1.965-34.585-3.364-58.756-7.71-98.633-16.906l-4.497-1.042-12.296-2.881-8.81-2.052c-55.912-12.922-127.89-20.937-201.39-21.36-29.9-.172-59.688.909-88.957 3.31-15.273 1.25-30.244 2.732-45.8 4.5-9.545 1.09-18.74 2.213-29.729 3.622l-5.654.73-10.121 1.324-31.639 4.156c-68.29 8.755-114.735 12.035-182.005 11.136-47.205-.63-90.789-2.909-128.797-6.799-31.088-3.182-58.589-7.195-81.72-11.945 25.662 6.78 58.984 12.484 97.832 16.753 38.466 4.203 81.735 6.733 127.032 7.413 68.47 1.028 114.975-2.541 186.118-12.186l30.792-4.215c12.649-1.719 22.753-3.043 32.61-4.254l4.215-.512 3.99-.476c15.766-1.86 30.966-3.421 46.496-4.738 30.005-2.547 60.536-3.703 91.14-3.536 75.08.415 148.42 8.846 205.106 22.422l.975.233 20.496 4.968c40.593 9.791 64.956 14.51 98.459 18.055l3.626.376c7.785.788 15.882 1.464 24.244 2.024 56.984 3.822 124.178 2.163 176.967-4.246 16.16-1.962 31.216-4.338 45.882-7.183 17.05-3.306 30.258-6.412 51.52-12.018l7.402-1.965 16.872-4.527c14.09-3.764 23.252-6.109 32.85-8.349l1.202-.28 2.334-.536 3.231-.73c13.097-2.937 27.434-5.52 42.782-7.719 81.809-11.711 185.939-11.867 271.52.052 22.641 3.155 44.39 6.96 65.388 11.381l-2.41-.562c-28.638-6.636-56.749-11.945-86.292-16.098zm-20.93-6.782c-81.703-11.775-182.351-11.924-262.852-.89-15.076 2.072-29.185 4.52-42.109 7.317-10.821 2.34-19.915 4.512-33.302 7.941l-8.595 2.22-11.569 3.021c-26.7 6.972-41.365 10.517-59.641 14.104l-2.638.514c-14.782 2.852-29.886 5.243-46.058 7.232-52.986 6.521-120.028 8.426-177.213 4.916-8.395-.517-16.536-1.146-24.374-1.886-33.8-3.202-57.451-7.32-96.276-16.048l-6.743-1.528-15.769-3.615-7.027-1.591c-55.514-12.349-126.26-19.997-198.533-20.436-29.805-.181-59.44.863-88.527 3.203-15.182 1.215-30.063 2.657-45.586 4.383-10.843 1.214-21.24 2.47-34.41 4.138l-5.422.69-24.262 3.125-12.429 1.582c-68.26 8.549-114.603 11.773-181.611 10.974-48.638-.579-91.75-2.606-128.873-6.196-35.402-3.423-65.981-7.829-91.03-13.197 1.464.541 2.972 1.077 4.523 1.608 1.593.417 3.216.83 4.869 1.238l2.559-.204c1.262.588 2.576 1.172 3.938 1.751 24.834 5.7 55.642 10.443 91.23 14.086 37.462 3.834 80.465 6.083 127.092 6.705 68.227.912 114.63-2.544 185.789-11.833l30.375-4.003c11.683-1.529 21.17-2.73 30.295-3.823l6.283-.742 3.943-.455c15.713-1.786 30.849-3.284 46.302-4.548 29.834-2.448 60.235-3.551 90.751-3.376 74.845.431 147.9 8.567 204.537 21.655l3.06.71 18.03 4.22c42.246 9.833 66.603 14.32 101.793 17.745 7.712.75 15.736 1.391 24.004 1.917 56.444 3.598 122.883 1.85 175.225-4.499 16.035-1.945 30.996-4.292 45.59-7.093 17.018-3.267 30.313-6.353 51.875-11.93l5.735-1.492 17.907-4.7c14.607-3.814 24.064-6.172 34.167-8.456l2.44-.547 3.365-.742c13.13-2.87 27.477-5.388 42.817-7.523 81.942-11.393 185.391-11.395 269.797.474 32.94 4.63 64.05 10.67 96.014 18.35l-.023-.006c-7.61-1.968-15.407-3.904-23.337-5.793-34.019-8.098-64.063-14.049-96.096-18.667zm-274.16-8.826c82.188-11.105 184.261-10.795 266.398 1.334 31.809 4.698 60.693 10.533 97.783 19.284 24.582 5.802 48.367 11.999 69.603 18.098 22.498 6.46 39.238 12.253 50.182 17.51l-4.315.335c-10.808-5.191-27.396-10.932-49.727-17.344-21.156-6.076-44.854-12.25-69.342-18.03-36.882-8.702-65.547-14.493-97.01-19.14-80.518-11.89-180.37-12.193-260.903-1.311-15.055 2.04-29.165 4.46-42.102 7.233-11.463 2.451-21.09 4.743-35.63 8.455l-5.24 1.345-19.416 5.03c-22.634 5.832-36.335 9.077-52.884 12.342l-2.639.517-3.163.605c-13.728 2.595-27.73 4.796-42.62 6.654-52.574 6.566-118.9 8.591-175.59 5.25-8.338-.492-16.413-1.096-24.161-1.81-33.719-3.102-57.139-7.098-96.343-15.729l-6.685-1.482-17.353-3.89-4.897-1.081c-55.403-12.058-125.818-19.535-197.808-19.998-29.728-.189-59.212.82-88.098 3.096-15.113 1.183-29.935 2.587-45.364 4.265-9.807 1.076-19.254 2.184-30.779 3.6l-8.34 1.033-33.494 4.2c-70.052 8.642-116.7 11.923-184.51 11.212-50.383-.528-92.746-2.294-128.955-5.586C82.028 188.106 36.234 180.02 6.317 168.88l4.128-.413c29.428 10.958 74.453 18.908 134.018 24.325 35.61 3.237 77.399 4.98 127.227 5.501 67.708.71 113.909-2.625 185.09-11.485l27.512-3.457c13.26-1.659 23.616-2.914 33.65-4.056l4.288-.484 4.04-.448c15.601-1.696 30.599-3.117 45.9-4.315 29.49-2.324 59.626-3.355 90.005-3.162 74.377.48 146.872 8.276 203.397 20.797l2.667.592 19.531 4.374c40.032 8.897 63.362 13.048 95.645 16.157l3.694.348c7.54.694 15.4 1.282 23.52 1.76 55.347 3.263 120.257 1.28 171.706-5.144 15.741-1.964 30.492-4.323 45.011-7.139 16.579-3.216 29.82-6.288 51.155-11.75l5.845-1.504 14.449-3.749c16.641-4.304 27.106-6.889 38.263-9.361l3.618-.793 2.322-.5c13.168-2.822 27.54-5.288 42.887-7.367zm-8.71-6.359c82.283-10.784 183.631-10.32 264.67 1.745 27.919 4.157 52.116 8.903 86.117 16.585l5.048 1.145 7.497 1.719c24.866 5.729 49.501 11.83 71.969 17.79 23.992 6.362 41.186 11.761 52.25 16.58l-4.423.378c-10.902-4.748-27.93-10.095-51.738-16.409-22.404-5.942-46.971-12.027-71.765-17.74-37.257-8.581-62.53-13.791-90.27-18.141l-3.8-.588-3.838-.58c-79.374-11.817-178.436-12.27-258.997-1.711-15.038 1.979-29.147 4.334-42.095 7.035-11.986 2.496-22.067 4.848-37.534 8.719l-5.365 1.348-20.466 5.185c-20.735 5.21-33.905 8.259-49.378 11.29l-3.129.607c-14.67 2.817-29.588 5.188-45.507 7.172-52.146 6.506-117.748 8.62-173.938 5.5-8.264-.46-16.26-1.027-23.946-1.701-34.125-2.998-57.49-6.88-98.182-15.54l-4.594-.983-13.545-2.923-8.443-1.802c-55.3-11.58-125.367-18.766-197.07-19.245-29.61-.196-58.952.76-87.683 2.94-15.256 1.15-30.13 2.503-45.16 4.084-9.872 1.037-19.361 2.103-30.99 3.472l-8.423 1-32.912 3.955c-70.006 8.28-116.384 11.438-183.753 10.839-52.557-.468-93.748-1.94-129.01-4.89C77.519 182.956 32.03 175.487 1.085 164.66l4.235-.451c30.399 10.636 75.058 17.969 135.376 23.016 34.643 2.899 75.288 4.35 127.308 4.814 67.288.598 113.226-2.613 184.394-11.105l32.102-3.86c12.763-1.52 22.846-2.673 32.982-3.758l4.064-.43c15.204-1.6 30.261-2.969 45.71-4.134 29.346-2.226 59.346-3.204 89.613-3.003 74.137.494 146.343 8 202.816 20.043l19.64 4.228c43.151 9.264 66.612 13.265 101.214 16.304 7.468.655 15.243 1.207 23.282 1.654 54.813 3.043 118.976.976 169.976-5.386 15.62-1.948 30.28-4.277 44.72-7.05 16.097-3.091 29.138-6.06 49.774-11.225l4.092-1.028 20.374-5.162c16.029-4.036 26.38-6.5 37.88-8.946l3.614-.76c13.192-2.753 27.578-5.154 42.924-7.174zm1.637-7.233c82.376-10.634 183.004-10.011 262.97 2.179 30.634 4.67 53.184 9.329 99.544 19.92l7.451 1.71c22.392 5.168 45.066 10.619 66.87 16.05 25.675 6.398 43.153 11.454 54.31 15.916l-4.528.422c-9.602-3.84-24.052-8.152-44.582-13.423l-4.493-1.145-4.681-1.174c-24.186-6.026-49.443-12.073-74.189-17.73-46.14-10.54-68.538-15.169-98.818-19.784l-2.353-.354c-77.853-11.584-174.936-12.078-254.702-1.78-15.001 1.944-29.107 4.271-42.087 6.95-11.237 2.314-20.88 4.523-34.612 7.91l-7.232 1.797-21.22 5.342c-21.269 5.323-34.571 8.4-50.229 11.473l-2.64.514c-14.637 2.826-29.46 5.204-45.236 7.199-51.73 6.55-116.614 8.786-172.312 5.838-8.18-.435-16.112-.977-23.732-1.625-33.407-2.84-56.275-6.508-95.987-14.728l-4.57-.95-18.899-3.976-4.742-.984c-55.209-11.291-124.948-18.309-196.37-18.81-29.53-.206-58.724.715-87.258 2.832-15.237 1.121-30.063 2.435-44.951 3.964-9.788 1.004-19.199 2.035-30.748 3.36l-8.368.967-32.601 3.813c-70.019 8.065-116.26 11.16-183.34 10.658-55.414-.414-94.793-1.61-129.068-4.275-62.172-4.834-107.28-11.81-139.205-22.493l4.356-.486c31.324 10.483 75.542 17.321 136.728 22.079 33.63 2.615 72.497 3.795 127.383 4.205 67.005.5 112.808-2.646 184.015-10.92l34.22-4.002c9.596-1.108 17.68-2.012 25.539-2.85l4.698-.496 4.03-.417c15.067-1.547 30.082-2.878 45.515-4.013 29.166-2.165 59.034-3.107 89.236-2.897 73.893.52 145.81 7.854 202.232 19.607l1.592.332 17.452 3.672c43.545 9.132 66.697 12.992 101.136 15.92 7.394.628 15.095 1.154 23.04 1.576 54.266 2.873 117.668.688 168.222-5.714 15.472-1.956 30.032-4.292 44.437-7.073 15.182-2.93 27.72-5.76 46.74-10.473l5.909-1.472 17.605-4.436c18.77-4.715 30.11-7.406 43.106-10.122l2.458-.51c13.237-2.731 27.634-5.107 42.96-7.093zm-3.544-6.235c82.456-10.48 182.352-9.694 261.274 2.619 23.16 3.613 42.858 7.49 72.012 13.976l9.043 2.026 24.007 5.448c10.51 2.39 21.06 4.813 32.387 7.436l14.012 3.253 25.632 5.988c27.584 6.462 45.126 11.134 56.366 15.24l-4.615.47c-11.034-4.03-28.405-8.656-55.78-15.069l-18.059-4.223c-12.523-2.922-23.824-5.543-34.64-8.031l-12.304-2.821-28.662-6.514c-32.377-7.322-53.112-11.595-76.053-15.338l-3.294-.531-3.333-.526c-77.142-12.035-174.55-12.802-255.119-2.562-14.978 1.912-29.084 4.21-42.08 6.863-12.301 2.505-22.791 4.91-38.51 8.787l-5.66 1.404-16.607 4.16c-21.394 5.345-34.796 8.488-49.696 11.483l-2.813.56-2.707.53c-14.583 2.83-29.31 5.216-44.957 7.225-51.309 6.596-115.478 8.953-170.68 6.177-8.088-.408-15.945-.922-23.52-1.543-33.918-2.785-56.726-6.403-98.195-14.82l-4.599-.938-10.944-2.251-9.924-2.02c-55.116-10.997-124.521-17.84-195.656-18.365-29.436-.214-58.482.67-86.833 2.723-15.196 1.09-29.976 2.366-44.736 3.843-10.45 1.046-20.466 2.12-33.19 3.547l-5.628.634-32.245 3.667c-70.061 7.85-116.165 10.88-182.956 10.477-59.326-.357-95.852-1.268-129.126-3.652C83.658 172.579 39.04 166.1 6.145 155.553l4.472-.52c32.235 10.335 75.898 16.676 138.08 21.133 29.914 2.143 62.742 3.077 113.368 3.49l7.015.053 7.088.046c66.728.404 112.396-2.678 183.68-10.735l28.729-3.272c11.069-1.252 20.054-2.24 28.65-3.14l6.399-.662 3.996-.403c14.945-1.495 29.918-2.788 45.312-3.892 28.999-2.1 58.735-3.005 88.857-2.786 73.654.543 145.289 7.705 201.664 19.165l20.717 4.247c42.465 8.658 65.096 12.295 98.78 15.061 7.338.601 14.954 1.1 22.797 1.496 53.718 2.7 116.366.4 166.47-6.041 15.34-1.97 29.8-4.312 44.148-7.097 14.642-2.842 26.899-5.599 45.131-10.084l7.907-1.959 11.096-2.78c19.73-4.952 31.795-7.858 44.308-10.528l1.212-.258 2.52-.529 3.73-.768c13.264-2.708 27.677-5.056 42.996-7.011zm6.836-6.35c82.516-10.157 181.655-9.22 259.54 3.016 21.445 3.369 39.989 6.992 66.978 12.907l7.133 1.573 22.542 5.032 59.715 13.223 32.154 7.023c25.062 5.512 40.024 9.2 50.216 12.531l-4.66.532c-9.683-3.166-23.912-6.695-47.458-11.897l-6.264-1.375-14.805-3.219-68.335-15.1-27.17-6.06c-27.653-6.131-46.358-9.92-66.541-13.246l-3.58-.583-3.341-.53c-76.06-11.949-172.65-12.862-253.21-2.947-14.954 1.851-29.055 4.084-42.07 6.668-14.327 2.839-26.315 5.574-46.474 10.492l-21.286 5.208c-18.81 4.56-31.281 7.367-45.514 10.147l-2.778.538c-14.523 2.789-29.16 5.145-44.686 7.137-50.894 6.534-114.324 8.975-169.021 6.417-8.012-.377-15.802-.857-23.304-1.44-33.155-2.58-55.468-5.93-95.824-13.753l-6.898-1.346-10.844-2.138-9.569-1.868c-55.015-10.528-124.085-17.09-194.942-17.63-29.355-.22-58.253.613-86.421 2.571-15.113 1.037-29.824 2.254-44.529 3.663-9.618.923-18.869 1.867-30.26 3.083l-8.26.887-24.239 2.64-11.315 1.217c-68.06 7.218-113.569 10.03-178.9 9.735-63.966-.288-95.674-.877-127.227-2.854l-1.931-.123c-64.392-4.148-108.42-10.034-142.267-20.281l4.563-.562c33.113 10.025 76.118 15.774 139.417 19.852 27.01 1.741 53.868 2.431 101.735 2.776l12.69.081 13.147.066c66.466.3 112.007-2.668 183.38-10.379l33.323-3.62c9.47-1.017 17.428-1.846 25.156-2.615l4.619-.456 3.962-.383c14.893-1.427 29.802-2.66 45.113-3.71 28.821-2.004 58.413-2.858 88.455-2.633 73.406.56 144.746 7.435 201.066 18.42l22.405 4.402c41.372 8.059 63.496 11.427 96.415 13.99 7.258.562 14.801 1.027 22.561 1.392 53.183 2.488 115.076.106 164.748-6.272 15.215-1.951 29.582-4.264 43.865-7.007 14.144-2.716 26.126-5.36 43.67-9.58l6.066-1.467 21.253-5.201c16.09-3.916 26.974-6.43 38.359-8.781l2.744-.562 3.899-.782c13.299-2.64 27.72-4.924 43.034-6.82zm1.638-6.235c82.585-9.997 180.973-8.892 257.841 3.462 18.56 2.982 34.95 6.166 57.278 11.024l7.13 1.564 9.017 2.005 25.672 5.746 15.95 3.503c20.766 4.542 39.18 8.49 55.776 11.945l5.465 1.134 18.432 3.787c23.668 4.891 36.734 7.818 46.324 10.493l1.612.457 1.338.39-4.692.592c-8.699-2.572-20.178-5.244-41.355-9.672l-9.134-1.895-14.168-2.908c-19.466-4.008-41.467-8.714-66.963-14.299l-9.726-2.136-6.293-1.393-27.043-6.055c-26.873-5.977-44.897-9.625-64.858-12.907l-3.346-.543c-74.99-12.053-170.731-13.128-251.274-3.378-14.94 1.82-29.04 4.025-42.062 6.582-12.65 2.477-23.57 4.898-39.587 8.73l-5.758 1.386-16.203 3.944c-21.179 5.155-34.472 8.214-48.96 11.109l-2.821.559-2.781.54c-14.508 2.801-29.037 5.163-44.406 7.162-50.47 6.58-113.184 9.142-167.382 6.76-7.899-.349-15.615-.802-23.092-1.359-32.637-2.44-55.038-5.694-94.527-13.133l-4.634-.877-14.34-2.748-9.074-1.724c-54.921-10.236-123.666-16.628-194.255-17.19-29.12-.23-57.881.57-85.993 2.46-15.28 1.027-29.984 2.206-44.328 3.544-8.877.829-17.437 1.674-27.704 2.731l-8.053.836-33.97 3.578c-70.19 7.29-115.996 10.143-182.205 9.937l-17.906-.056c-52.849-.187-78.365-.572-103.905-1.887l-2.948-.156-4.444-.25c-65.704-3.824-109.016-9.219-143.802-19.337l4.669-.599c33.98 9.885 76.2 15.143 140.75 18.9l1.477.085c25.075 1.426 48.31 1.895 96.503 2.115l14.92.058 18.181.053c62.147.093 106.294-2.634 172.51-9.45l7.18-.745 30.337-3.2c9.693-1.012 17.757-1.833 25.477-2.586l4.601-.444 5.894-.557c14.536-1.356 29.438-2.55 44.923-3.592 28.785-1.935 58.25-2.754 88.066-2.52 73.165.584 144.213 7.285 200.477 17.976l20.833 3.986c41.912 7.97 64.335 11.318 97.309 13.783 7.223.537 14.683.976 22.32 1.313 52.636 2.313 113.776-.185 163.002-6.602 15.054-1.958 29.311-4.276 43.577-7.03 14.706-2.838 27.151-5.608 46.229-10.2l4.045-.978 16.377-3.988c19.023-4.622 31.11-7.405 44.077-10.03l2.698-.542 2.653-.524c13.32-2.616 27.755-4.873 43.072-6.739zm6.824-6.235c82.628-9.834 180.257-8.56 256.138 3.91 21.424 3.52 39.917 7.315 69.197 13.91l25.326 5.705 5.197 1.152 6.875 1.506c29.504 6.43 56.574 12.048 80.144 16.586l14.147 2.73c26.045 5.043 36.341 7.163 45.058 9.362l1.18.3 2.105.55-4.687.66c-10.769-2.86-21.393-5.012-61.895-12.81l-5.746-1.114c-18.2-3.552-38.318-7.701-59.91-12.335l-7.68-1.655-10.612-2.31c-1.323-.289-2.654-.581-4.014-.881l-6.365-1.415-30.395-6.843c-23.637-5.27-40.1-8.618-58.066-11.645l-3.615-.601c-73.952-12.153-168.834-13.39-249.333-3.81-14.904 1.785-29 3.96-42.06 6.495-13.361 2.585-24.883 5.13-42.17 9.254l-5.765 1.382-15.068 3.648c-20.445 4.944-33.458 7.928-47.475 10.743l-2.82.562-2.86.56c-14.459 2.805-28.894 5.175-44.132 7.188-50.06 6.623-112.05 9.309-165.736 7.105-7.846-.325-15.495-.75-22.885-1.276-32.775-2.346-55.506-5.582-95.619-12.954l-4.707-.869-12.638-2.357-9.053-1.672c-54.832-9.941-123.258-16.16-193.569-16.746-29.032-.238-57.644.524-85.574 2.35-15.335 1.001-29.989 2.14-44.115 3.42-8.07.732-15.876 1.476-24.98 2.379l-10.52 1.055-37.223 3.789c-68.204 6.799-113.41 9.484-178.17 9.376l-32.779-.03c-49.754-.065-71.476-.394-96.454-1.687l-3.13-.164c-65.351-3.47-107.058-8.377-142.22-18.217l4.77-.636c34.835 9.75 76.144 14.52 142.082 17.936l1.49.077c21.316 1.075 40.853 1.436 79.522 1.544l11.304.024 38.856.037c64.109.008 109.038-2.85 179.43-9.995l29.845-3.047c9.64-.975 17.645-1.765 25.304-2.49l4.564-.427 5.846-.536c14.323-1.299 29.18-2.453 44.72-3.469 28.616-1.87 57.941-2.651 87.68-2.407 72.913.607 143.673 7.132 199.885 17.524l21.4 3.98c41.079 7.586 63.595 10.838 96.062 13.162 7.125.507 14.509.918 22.085 1.231 52.076 2.138 112.46-.478 161.253-6.933 14.92-1.971 29.083-4.296 43.297-7.054 13.699-2.66 25.495-5.264 42.792-9.386l5.979-1.432 19.06-4.611c19.338-4.656 31.638-7.437 45.365-10.142l2.967-.58c13.37-2.594 27.817-4.823 43.115-6.656zm12.022-6.338c82.645-9.51 179.49-8.088 254.397 4.292 20.346 3.363 38.002 6.97 65.781 13.18l25.2 5.632c4.648 1.027 8.816 1.935 12.939 2.817l3.566.76c29.661 6.312 57.79 11.885 82.462 16.29l35.915 6.396 5.347.976c9.003 1.661 15.755 2.993 21.051 4.17l2.183.497-4.605.738c-4.747-1.103-10.865-2.344-19.118-3.89l-3.67-.683-4.179-.765-39.983-7.128c-23.078-4.16-48.996-9.293-76.269-15.066l-7.144-1.52c-3.454-.739-6.938-1.495-10.703-2.324l-5.891-1.303-26.266-5.874c-23.455-5.207-39.551-8.484-57.094-11.453l-3.416-.571c-72.938-12.056-166.98-13.436-247.43-4.179-14.862 1.722-28.958 3.833-42.047 6.3-13.04 2.453-24.405 4.887-40.784 8.689l-7.94 1.857-15.684 3.713c-19.105 4.518-31.641 7.344-44.716 9.961l-4.23.836-2.865.555c-14.409 2.768-28.744 5.107-43.847 7.099-49.647 6.56-110.894 9.324-164.07 7.333-7.763-.292-15.335-.684-22.668-1.174-31.615-2.124-54.168-5.127-91.965-11.716l-7.12-1.25-11.19-1.995-11.218-1.983c-54.748-9.483-122.832-15.428-192.866-16.028-28.933-.242-57.404.472-85.168 2.203-15.37.958-29.954 2.038-43.913 3.246-8.654.749-16.999 1.51-27.016 2.46l-7.857.75-33.436 3.243c-70.393 6.738-115.887 9.409-181.518 9.395l-10.482.006-28.79.064c-47.235.1-66.775-.097-89.977-1.13l-3.154-.143c-66.876-3.057-107.66-7.418-143.745-16.991l4.84-.68c34.573 9.171 73.457 13.415 137.253 16.406l6.152.281c18.644.83 35.022 1.108 66.466 1.123h6.21l10.68-.012 32.652-.072 15.401-.01c61.492-.08 105.319-2.63 171.536-8.91l7.594-.726 29.662-2.88c9.332-.897 17.112-1.627 24.547-2.298l4.43-.396 6.104-.535c14.158-1.225 28.945-2.32 44.522-3.292 28.451-1.773 57.633-2.505 87.27-2.257 72.657.623 143.108 6.867 199.279 16.79l17.356 3.088c43.15 7.672 66.25 10.928 99.425 13.157 7.06.472 14.36.85 21.847 1.131 51.545 1.93 111.178-.761 159.549-7.153 14.782-1.949 28.84-4.243 43.002-6.964 15.243-2.926 28.2-5.79 49.392-10.79l17.72-4.194c18.353-4.32 30.544-7.026 43.506-9.554l2.896-.559 2.747-.521c13.416-2.53 27.882-4.696 43.155-6.465zm6.82-6.233c82.667-9.342 178.732-7.749 252.697 4.744 16.528 2.792 31.228 5.74 51.567 10.242l4.616 1.027 6.824 1.533 23.43 5.293c4.17.933 7.96 1.77 11.599 2.561l3.597.778 6.631 1.411c30.098 6.359 59.198 11.96 84.872 16.28l1.975.331 41.907 6.93c7.999 1.344 13.941 2.389 18.724 3.305l2.128.414 1.756.353-4.492.82c-6.061-1.24-14.197-2.673-27.292-4.846l-27.826-4.587-13.939-2.328c-26.125-4.45-55.549-10.16-85.864-16.607l-1.584-.337c-6.874-1.47-13.89-3.021-22.69-5.006l-22.192-5.017c-22.349-5.012-37.736-8.187-54.452-11.077l-3.363-.575c-71.947-12.152-165.115-13.697-245.499-4.613-14.84 1.689-28.93 3.77-42.03 6.211-14.297 2.656-26.673 5.312-45.463 9.678l-6.046 1.411-18.35 4.317c-15.526 3.632-26.582 6.103-37.743 8.368l-1.457.295-2.926.583-4.287.838c-14.364 2.774-28.604 5.121-43.57 7.124-49.237 6.605-109.763 9.492-162.424 7.681-7.73-.268-15.226-.632-22.454-1.093-34.321-2.19-58.299-5.49-102.655-13.16l-9.22-1.594-9.067-1.552c-54.662-9.186-122.427-14.96-192.186-15.58-28.83-.254-57.162.422-84.752 2.089-15.37.928-29.894 1.966-43.702 3.123-7.669.642-15.09 1.292-23.682 2.074l-10.962 1.008-32.957 3.083c-70.508 6.515-115.837 9.116-181.178 9.195l-4.56.008c-2.365.005-4.718.012-7.151.02l-10.39.048-32.08.19c-33.24.176-50.107.103-67.087-.416l-4.257-.139-3.738-.136c-70.475-2.676-110.878-6.554-148.457-16.17l4.932-.718c36.506 9.341 75.596 13.092 144.718 15.718l1.322.049c19.318.712 35.959.82 74.514.608l22.595-.137c4.427-.026 8.32-.048 11.921-.065l8.543-.033 12.622-.026c63.565-.169 108.217-2.84 178.917-9.43l34.1-3.187c6.912-.637 12.991-1.185 18.834-1.696l4.965-.43 6.057-.513c14.012-1.173 28.74-2.227 44.316-3.167 28.29-1.709 57.34-2.402 86.88-2.142 72.4.645 142.558 6.712 198.678 16.334l20.413 3.518c40.72 6.979 63.66 10.049 95.693 12.093 6.946.444 14.16.794 21.602 1.052 50.986 1.753 109.872-1.056 157.813-7.487 14.646-1.96 28.608-4.26 42.725-6.988 12.764-2.463 23.976-4.887 40.034-8.606l6.002-1.398 18.342-4.315c18.408-4.316 30.84-7.081 43.54-9.575l1.413-.276 2.84-.547 4.182-.788c13.442-2.505 27.917-4.643 43.189-6.38zm12.01-6.234c82.685-9.169 177.965-7.402 250.989 5.201 18.717 3.231 35.01 6.653 60.644 12.506l23.12 5.281c5.4 1.22 10.199 2.287 14.808 3.288l3.913.843 3.174.675c31.778 6.722 63.047 12.603 90.665 16.983 9.358 1.485 50.296 7.656 64.652 9.982l2.597.428 1.198.206-4.312.906c-8.15-1.448-57.572-8.889-68.179-10.572l-3-.48c-27.126-4.365-57.5-10.103-88.325-16.624l-1.598-.338c-7.986-1.699-16.034-3.489-26.374-5.846l-19.492-4.46c-22.637-5.152-37.86-8.356-54.407-11.28l-3.33-.581c-70.96-12.247-163.248-13.958-243.558-5.053-14.841 1.662-28.927 3.713-42.029 6.124-14.068 2.58-26.366 5.183-44.386 9.327l-4.102.947-22.883 5.345c-16.17 3.76-27.424 6.254-39.141 8.602l-2.942.585-2.869.56c-14.343 2.785-28.473 5.136-43.292 7.149-48.812 6.65-108.61 9.661-160.76 8.033-7.609-.24-15.037-.576-22.247-1.008-31.204-1.886-54.144-4.746-91.575-10.875l-4.967-.818-13.006-2.173-10.836-1.798c-54.583-8.886-122.025-14.485-191.514-15.131-28.743-.262-56.926.377-84.341 1.977-15.324.894-29.775 1.89-43.492 3-8.482.686-16.659 1.381-26.501 2.25l-10.472.933-18.26 1.648-15.52 1.39c-68.422 6.037-113.112 8.476-176.965 8.644l-4.025.013c-6.843.026-13.498.069-21.424.139l-5.489.05-26.954.276c-37.45.37-52.346.336-71.382-.26l-6.12-.196c-68.46-2.267-106.491-5.756-143.908-14.998l5.02-.758c37.34 9.224 75.117 12.52 146.028 14.738l3.699.11c16.88.472 31.98.475 66.658.132l22.229-.23c9.413-.093 16.89-.156 24.015-.197l6.36-.031 8.741-.03c60.95-.245 104.487-2.663 170.913-8.524l7.768-.692 23.258-2.1c11.824-1.064 21.071-1.877 29.842-2.614l6.022-.501 4.006-.327c13.923-1.125 28.58-2.137 44.11-3.042 28.122-1.641 57.03-2.297 86.487-2.03 72.147.672 142.003 6.56 198.078 15.874l2.128.353 16.537 2.763c41.31 6.879 64.608 9.919 96.747 11.86 6.918.415 14.06.738 21.374.97 50.433 1.574 108.566-1.354 156.069-7.826 14.497-1.969 28.35-4.274 42.445-7.01 12.336-2.393 23.273-4.754 38.791-8.328l5.795-1.342 22.902-5.35c17.798-4.123 30.101-6.797 43.096-9.274l3.014-.568 2.85-.528c13.457-2.477 27.944-4.586 43.235-6.298zm12.025-5.323c82.667-8.847 177.13-6.936 249.243 5.568 18.076 3.136 33.82 6.437 58.625 12.076l23.118 5.254c8.572 1.926 15.71 3.483 22.842 4.97l1.947.405 3.456.712c31.1 6.377 61.992 11.907 89.519 15.956l2.098.306c16.973 2.462 51.683 7.135 64.054 8.833l4.218.588-4.007 1.002c-3.94-.587-51.47-6.946-70.337-9.722l-3.106-.461c-28.08-4.204-59.352-9.865-90.689-16.35-6.55-1.355-12.986-2.743-20.39-4.39l-4.567-1.021-6.295-1.422-21.239-4.834c-20.715-4.678-34.972-7.657-50.414-10.396l-3.214-.564c-70.016-12.14-161.443-13.99-241.673-5.404-14.804 1.599-28.89 3.587-42.01 5.933-14.82 2.638-27.76 5.321-47.101 9.684l-4.246.96-23.456 5.36c-14.435 3.273-24.874 5.533-35.618 7.662l-3.081.605-2.87.555c-14.278 2.74-28.318 5.062-43.01 7.056-48.4 6.586-107.45 9.67-159.079 8.25-7.542-.21-14.898-.513-22.02-.91-33.385-1.866-57.648-4.894-100.219-11.657l-10.93-1.738-8.734-1.376c-54.496-8.437-121.603-13.769-190.807-14.427-28.657-.27-56.707.322-83.954 1.832-15.378.851-29.753 1.79-43.293 2.828-11.237.862-21.921 1.736-36.784 2.997l-29.253 2.492c-70.846 5.964-115.82 8.38-180.6 8.64l-1.966.009c-10.071.046-19.515.137-31.578.297l-8.81.122-18.088.267c-35.618.518-49.377.588-66.367.213l-5.486-.13c-72.345-1.794-109.636-4.76-148.556-13.902l5.065-.804c37.108 8.716 72.478 11.612 141.35 13.375l5.986.148c16.423.395 28.93.378 60.46-.062l22.502-.33c13.469-.196 23.609-.322 33.347-.398l1.495-.011 6.554-.041 7.544-.035c58.195-.311 100.471-2.45 162.569-7.526l8.038-.664 7.94-.668 30.328-2.583c7.91-.667 14.666-1.224 21.123-1.74l4.8-.38 5.967-.463c13.747-1.054 28.326-2.005 43.905-2.868 27.952-1.549 56.72-2.155 86.082-1.88 71.872.684 141.417 6.296 197.44 15.15l1.121.177 18.3 2.905c38.664 6.11 61.734 9.002 91.418 10.788l3.911.227c6.827.38 13.887.671 21.129.872 49.902 1.372 107.29-1.624 154.377-8.031 14.37-1.951 28.131-4.226 42.161-6.919 11.285-2.165 21.435-4.305 35.223-7.397l7.91-1.788 19.53-4.466c20.27-4.617 33.696-7.49 47.913-10.124l3.062-.56 2.907-.523c13.49-2.413 27.996-4.46 43.27-6.11zm12.007-7.217c82.476-8.692 176.258-6.595 247.531 6.026 15.34 2.716 28.94 5.541 48.255 9.924l4.39 1 22.82 5.256c8.928 2.045 16.324 3.697 23.399 5.21l5.264 1.113 3.28.68c32.81 6.754 65.848 12.548 95.282 16.629 13.764 1.908 27.23 3.626 42.332 5.44 2.374.286 9.035 1.073 15.546 1.844l14.373 1.716-3.649 1.096c-3.285-.408-16.86-2.01-24.841-2.955l-10.01-1.2c-13.227-1.61-25.334-3.17-37.687-4.883-29.827-4.135-63.18-9.985-96.267-16.795l-1.893-.392c-6.302-1.307-12.544-2.66-19.596-4.239l-6.588-1.487-6.233-1.425-20.671-4.764c-20.145-4.608-33.97-7.54-48.949-10.25l-3.118-.557c-69.133-12.243-159.78-14.27-239.737-5.843-14.697 1.548-28.764 3.506-41.99 5.84-14.598 2.563-27.439 5.188-46.027 9.336l-8.34 1.875-16.027 3.646c-15.04 3.416-25.731 5.764-36.134 7.878l-1.355.275-4.244.846-4.293.837c-14.25 2.75-28.188 5.076-42.732 7.08-47.985 6.628-106.308 9.834-157.423 8.6-7.462-.184-14.749-.46-21.802-.825-32.897-1.72-57.3-4.63-98.89-10.995l-12.662-1.942-7.779-1.182c-54.424-8.131-121.215-13.287-190.148-13.97-28.546-.278-56.454.276-83.534 1.718-15.493.825-29.766 1.719-43.091 2.702-6.744.498-13.285 1-20.678 1.584l-13.29 1.066-31.17 2.543c-71.098 5.741-115.901 8.083-180.434 8.435l-4.715.03c-10.163.073-19.972.202-32.04.415l-9.515.174-22.72.446c-27.155.523-39.533.67-52.425.54l-3.652-.043-4.182-.065c-35.153-.603-54.396-1.173-74.7-2.492l-3.597-.24c-28.16-1.938-52.482-5.171-74.88-10.259l5.142-.844c21.628 4.913 44.957 8.014 72.004 9.875 18.005 1.239 34.508 1.848 61.974 2.393l5.843.112 8.812.157c13.48.232 23.54.204 45.982-.19l7.12-.129 28.977-.564c16.825-.32 29.095-.5 42.014-.591l7.944-.05c57.946-.387 100.065-2.463 162.277-7.343l8.232-.652 7.971-.644 24.56-2.007c9.412-.766 17.136-1.382 24.388-1.942l6.432-.49 5.916-.442c13.535-.999 28.012-1.905 43.707-2.741 27.79-1.48 56.418-2.049 85.67-1.764 71.61.71 140.854 6.14 196.836 14.68l22.735 3.476c37.822 5.72 60.916 8.387 91.323 9.977 6.749.35 13.738.614 20.891.79 49.348 1.192 105.993-1.922 152.654-8.367 14.222-1.96 27.883-4.24 41.885-6.941 10.772-2.078 20.54-4.132 33.647-7.054l6.138-1.377 23.97-5.442c19.479-4.396 32.765-7.203 46.79-9.77l3.13-.566 2.967-.526c13.614-2.403 28.123-4.421 43.305-6.02zm6.83-6.228c82.445-8.515 175.424-6.238 245.832 6.49 14.328 2.591 27.084 5.268 44.762 9.315l6.326 1.458 26.355 6.141c8.998 2.073 16.539 3.755 23.915 5.318l3.68.773 3.225.666c33.371 6.836 67.272 12.632 97.589 16.592 14.453 1.887 28.77 3.567 43.514 5.148 5.68.61 11.225 1.183 17.24 1.79l13.333 1.328-3.19 1.19-17.824-1.784c-4.402-.45-8.626-.89-12.929-1.352-14.913-1.6-29.4-3.3-44.032-5.21-30.785-4.02-65.055-9.88-98.75-16.783l-1.633-.336c-10.86-2.241-21.384-4.593-35.607-7.904l-20.2-4.715c-18.13-4.202-30.966-6.989-44.305-9.508l-3.09-.578-3.123-.57c-68.227-12.335-157.98-14.533-237.816-6.287-14.657 1.513-28.723 3.44-41.977 5.747-15.421 2.672-28.96 5.43-48.989 9.89l-6.433 1.44-18.436 4.168c-16.61 3.743-27.759 6.15-39.622 8.484l-2.985.583-3.266.627c-13.044 2.48-25.867 4.614-39.18 6.477-47.577 6.673-105.174 10.004-155.754 8.955-7.349-.155-14.563-.402-21.591-.74-29.49-1.43-52.425-3.864-86.972-8.8l-5.271-.76-5.33-.778-12.919-1.907-8.296-1.214c-54.336-7.827-120.813-12.808-189.48-13.515-28.5-.286-56.258.23-83.13 1.605-15.533.794-29.721 1.644-42.89 2.576-6.776.48-13.337.961-20.79 1.526l-10.565.809-32.924 2.567c-71.365 5.513-115.95 7.779-180.211 8.221l-2.247.017c-13.922.109-26.86.333-44.075.737l-6.665.16-25.146.623c-22.91.552-33.191.712-44.597.66l-3.591-.024-5.676-.055c-35.37-.368-52.674-.753-72.38-1.88l-3.22-.19c-28.581-1.725-53.364-4.83-76.407-9.896l5.214-.884c22.201 4.881 45.896 7.849 73.265 9.501 17.65 1.066 32.62 1.507 60.15 1.855l8.36.098 8.146.086c13.912.142 23.106.042 49.308-.587l25.725-.637c21.825-.535 36.792-.807 53.588-.923l3.632-.027c62.588-.505 106.636-2.833 178.379-8.42l26.315-2.054c7.325-.568 13.612-1.048 19.508-1.487l8.63-.634 5.885-.42c13.38-.947 27.771-1.81 43.502-2.613 27.585-1.413 56.065-1.941 85.272-1.648 71.35.735 140.291 5.983 196.21 14.208l20.967 3.087c38.402 5.613 61.864 8.235 92.411 9.717 6.715.323 13.619.56 20.651.707 48.785 1.012 104.69-2.221 150.933-8.706 14.102-1.975 27.674-4.263 41.604-6.965 12.42-2.409 23.551-4.788 40.374-8.57l22.422-5.065c19.812-4.444 33.398-7.29 47.72-9.88l3.198-.572 3.028-.53c13.658-2.377 28.183-4.367 43.346-5.932zm12.036-6.31c82.386-8.192 174.528-5.776 244.07 6.844 13.979 2.537 26.403 5.143 43.696 9.092l6.19 1.422 23.647 5.496c13.94 3.212 24.452 5.514 35.6 7.749l3.288.655c32.9 6.519 66.421 11.973 96.602 15.623 27.21 3.29 52.185 5.621 75.877 7.401l-2.586 1.284c-24.083-1.81-49.451-4.179-77.076-7.518-31.733-3.837-66.917-9.607-101.242-16.49-12.354-2.476-23.9-5.027-40.024-8.766l-21.564-5.013c-16.576-3.818-28.575-6.407-40.994-8.763l-3.252-.61-3.046-.558c-67.333-12.22-156.208-14.55-235.92-6.623-14.621 1.453-28.68 3.318-41.972 5.56-15.232 2.56-28.693 5.217-48.027 9.407l-6.426 1.4-22.883 5.056c-14.322 3.15-24.463 5.294-34.936 7.343l-1.464.285-2.765.534c-14.17 2.716-27.903 5.016-42.168 7.008-47.16 6.606-104.006 10.003-154.061 9.158-7.334-.127-14.467-.341-21.37-.642-31.903-1.4-56.486-4.01-96.2-9.516l-22.086-3.069c-54.275-7.39-120.408-12.11-188.785-12.827-28.378-.294-56.012.175-82.742 1.463-15.645.753-29.712 1.544-42.689 2.408-6.728.448-13.24.898-20.652 1.425l-10.513.755-32.267 2.358c-71.618 5.189-115.99 7.34-179.968 7.865l-2.402.02c-14.882.139-28.704.424-46.787.93l-6.992.201-22.942.685c-23.742.7-33.046.903-43.94.924h-4.33l-18.136-.062c-29.483-.138-44.947-.462-63.7-1.46-28.31-1.508-53.074-4.417-76.32-9.289l5.245-.933c22.34 4.682 45.944 7.455 72.972 8.894 17.34.923 31.909 1.25 58.673 1.395l8.41.038 7.967.026 8.282.015c8.653-.01 16.106-.133 30.815-.537l7.999-.227 27.965-.831c22.887-.67 38.927-1.018 56.918-1.165l3.69-.032c57.353-.535 99.086-2.448 161.504-6.847l8.448-.602 8.351-.605 23-1.684c12.03-.877 21.21-1.53 30.178-2.14l6.207-.419 3.988-.26c12.067-.778 25.047-1.496 39.3-2.182 27.437-1.322 55.78-1.803 84.852-1.502 71.061.745 139.673 5.723 195.563 13.497l21.719 3.02c37.45 5.158 60.951 7.608 90.98 8.927 6.588.287 13.41.492 20.425.614 48.254.814 103.417-2.483 149.247-8.902 13.947-1.948 27.405-4.201 41.327-6.87 9.854-1.889 18.92-3.76 30.878-6.355l7.97-1.742 24.979-5.514c19.069-4.167 32.51-6.9 46.641-9.38l3.276-.57 3.095-.525c13.712-2.313 28.249-4.24 43.393-5.746zm6.834-7.223c82.343-8.01 173.667-5.415 242.36 7.31 13.666 2.531 25.785 5.116 42.736 9.042l6.07 1.415 23.114 5.445c12.095 2.825 21.693 4.973 31.247 6.954l3.586.736 3.247.654c34.514 6.891 70.13 12.59 102.183 16.238 28.82 3.278 56.994 5.582 77.624 6.671l-1.931 1.364c-21.258-1.122-50.032-3.476-79.411-6.817-32.682-3.72-68.79-9.497-103.729-16.473-13.225-2.64-25.412-5.354-42.656-9.409L1758.714 97c-18.499-4.348-31.16-7.15-44.354-9.697l-2.943-.562-2.977-.557c-66.448-12.31-154.418-14.81-233.993-7.068-14.61 1.423-28.672 3.258-41.953 5.468-18.795 3.113-34.99 6.399-62.19 12.38l-12.922 2.845c-16.404 3.604-27.252 5.901-38.68 8.131l-2.757.535c-14.096 2.718-27.738 5.024-41.88 7.031-46.741 6.65-102.856 10.17-152.38 9.515-7.206-.1-14.264-.284-21.156-.556-28.275-1.13-51.065-3.246-83.615-7.407l-5.678-.734-5.58-.734-22.876-3.047c-54.224-7.082-120.033-11.627-188.123-12.368-28.309-.302-55.793.13-82.346 1.348-15.83.73-29.742 1.473-42.488 2.283-6.563.417-12.913.834-20.12 1.32l-8.526.582-33.86 2.35c-71.957 4.956-116.088 7.026-179.812 7.641l-2.54.026c-15.844.174-30.534.532-49.528 1.164l-6.891.234-25.925.92c-19.595.686-27.666.915-36.427 1.01l-3.833.032-12.828.061c-32.766.141-49.259.019-67.838-.758l-1.14-.049-3.203-.143c-28.352-1.313-53.325-4.09-76.967-8.893l5.308-.974c22.667 4.605 46.39 7.243 73.367 8.492 16.955.785 31.162 1.005 56.96.955l5.509-.014 10.655-.042 10.689-.054c7.659-.058 13.875-.19 26.633-.61l5.604-.19 32.173-1.136c23.783-.826 40.78-1.26 59.857-1.443l7.455-.08c60.177-.71 103.565-2.852 174.595-7.781l22.095-1.537c6.967-.483 12.962-.893 18.506-1.266l9.995-.661 7.748-.5c12.956-.822 27.06-1.576 43.08-2.314 27.263-1.252 55.452-1.694 84.451-1.385 70.773.77 139.064 5.564 194.926 13.02l25.282 3.361c34.937 4.558 57.983 6.787 86.73 7.936 6.567.259 13.31.436 20.191.53 47.698.631 102.124-2.783 147.53-9.243 13.827-1.962 27.197-4.222 41.047-6.893 8.947-1.724 17.265-3.432 27.873-5.716l9.432-2.048 18.985-4.175c23.089-5.064 38.278-8.174 54.367-10.958l3.127-.535 3.164-.53c13.718-2.283 28.275-4.182 43.43-5.659zm6.84-7.221c82.273-7.827 172.773-5.05 240.645 7.779 13.372 2.527 25.208 5.093 41.843 9.003l5.96 1.409 20.462 4.89c17.062 4.055 29.267 6.783 42.6 9.433l3.195.63c34.108 6.693 69.358 12.152 101.278 15.567 30.226 3.235 60.046 5.344 79.33 5.94l-1.188 1.433c-20.198-.624-50.833-2.792-81.785-6.104-33.632-3.599-70.648-9.38-106.22-16.455-14.081-2.799-26.872-5.672-45.208-10.044l-16.282-3.896c-18.173-4.332-30.547-7.115-43.45-9.653h-.001l-2.879-.56-2.912-.556c-65.591-12.397-152.652-15.07-232.067-7.515-14.57 1.386-28.623 3.188-41.935 5.373-17.085 2.788-32.091 5.736-54.698 10.618l-4.473.97-19.57 4.281c-11.232 2.45-19.759 4.265-27.857 5.906l-4.525.908-5.467 1.072c-14.068 2.725-27.605 5.037-41.598 7.053-46.331 6.694-101.707 10.339-150.7 9.873-7.124-.07-14.117-.226-20.94-.468-30.896-1.11-55.579-3.44-93.384-8.214l-23.83-3.033C938.182 99.5 872.68 95.132 804.858 94.368c-28.243-.313-55.582.079-81.94 1.232-15.9.694-29.686 1.392-42.294 2.153l-1.823.11c-9.706.59-19.144 1.191-31.958 2.03l-27.665 1.82c-72.397 4.725-116.276 6.714-179.773 7.42l-2.669.03c-20.373.257-38.882.849-65.584 1.962l-20.386.845c-18.722.768-25.459.997-33.342 1.13l-3.487.051-20.23.243c-29.233.328-44.924.28-62.782-.38l-3.605-.141c-27.976-1.142-52.862-3.786-76.607-8.466l5.368-1.016c22.71 4.477 46.27 6.98 72.794 8.062 17.442.712 31.98.822 58.91.551l8.18-.089 17.306-.21c7.303-.097 12.32-.222 24.159-.682l8.781-.35 30.229-1.249c24.57-.992 42.443-1.518 62.535-1.74l3.739-.044c61.943-.747 105.44-2.79 178.42-7.588l26.17-1.721c6.732-.44 12.545-.813 18.03-1.158l9.192-.57 7.085-.427c11.933-.7 24.905-1.348 39.649-1.992 27.063-1.183 55.104-1.585 84.032-1.265 70.498.794 138.483 5.403 194.288 12.535l19.627 2.501 6.668.836c33.91 4.206 56.882 6.29 85.038 7.301 6.489.23 13.157.379 19.951.446 47.146.448 100.83-3.085 145.825-9.586 13.681-1.972 26.95-4.237 40.773-6.915 9.43-1.827 18.184-3.636 29.9-6.165l5.786-1.254 23.611-5.16c22.575-4.894 37.715-7.915 54.302-10.688l3.455-.57c13.765-2.26 28.335-4.129 43.474-5.568zm6.84-7.222c82.203-7.637 171.873-4.676 238.931 8.256 15.592 3.007 29.016 6.048 50.903 11.354l17.845 4.324c17.028 4.088 29.367 6.856 42.976 9.55 35.707 7.072 73.008 12.764 106.763 16.155 31.49 3.166 62.446 5.028 81.013 5.208l-.387 1.486c-19.785-.192-51.78-2.116-84.184-5.374-34.56-3.472-72.486-9.259-108.723-16.436-14.915-2.953-28.272-5.98-47.66-10.668l-17.647-4.28c-18.07-4.356-30.208-7.098-43.394-9.692l-2.95-.575-1.95-.371c-64.518-12.17-149.736-14.886-228.195-7.596-14.539 1.351-28.583 3.121-41.92 5.277-17.51 2.816-32.895 5.814-56.065 10.79l-4.585.988-26.919 5.847c-7.598 1.633-13.923 2.961-20.015 4.195l-4.953.992-4.09.803c-14.031 2.733-27.459 5.05-41.304 7.076-45.937 6.74-100.573 10.509-149.019 10.235-7.038-.042-13.96-.168-20.724-.38-30.383-.962-55.075-3.143-91.933-7.563l-1.054-.127-23.759-2.881c-54.09-6.455-119.246-10.642-186.761-11.43-28.15-.322-55.357.031-81.55 1.115-16.09.666-29.688 1.316-42.088 2.025l-2.273.13c-4.534.261-9.018.525-13.838.814l-12.974.788-35.787 2.213c-70.219 4.291-113.301 6.134-175.252 6.911l-2.785.037c-21.26.304-40.516 1.005-67.845 2.31l-30.15 1.428c-9.626.443-14.41.63-19.087.755l-2.491.062-25.487.508c-28.676.547-44.312.61-62.2.056l-3.281-.108c-27.892-.963-52.903-3.482-76.938-8.082l5.425-1.057c22.928 4.388 46.522 6.764 72.87 7.674 16.627.575 30.65.603 55.056.187l8.219-.149 24.259-.482c4.814-.104 8.594-.223 16.166-.555l6.038-.272 33.32-1.578c27.035-1.271 46.431-1.943 68.411-2.219l7.413-.1c54.832-.785 95.523-2.503 157.44-6.224l8.78-.533 8.685-.535 22.218-1.378c8.466-.523 15.44-.946 21.985-1.334l6.442-.378 8.404-.481c9.843-.548 20.441-1.062 32.392-1.578l7.338-.31c26.898-1.113 54.798-1.475 83.625-1.145 70.208.82 137.865 5.24 193.636 12.045l18.342 2.228 9.104 1.086c32.838 3.856 55.677 5.786 83.204 6.66 6.423.2 13.013.32 19.716.36 46.583.263 99.527-3.389 144.13-9.933 13.535-1.981 26.698-4.252 40.489-6.939l1.557-.304c8.284-1.623 16.22-3.266 26.51-5.475l6.052-1.305 21.605-4.7c23.027-4.982 38.551-8.096 54.99-10.864l3.303-.55 3.144-.51c13.809-2.233 28.389-4.07 43.517-5.477zm1.689-7.287c82.102-7.317 170.91-4.225 237.165 8.584 15.3 2.958 28.432 5.93 50.016 11.145l17.316 4.181c15.161 3.628 26.69 6.231 38.556 8.63l3.403.68 3.297.647c36.29 7.038 74.432 12.626 109.043 15.834 32.695 3.03 64.58 4.596 82.709 4.398l.446 1.523c-19.223.21-51.397-1.347-84.46-4.353l-2.112-.193c-35.51-3.29-74.346-8.981-111.223-16.133l-1.68-.328c-13.99-2.74-26.737-5.585-44.258-9.779l-24.862-5.995c-13.756-3.285-23.958-5.591-34.304-7.697l-1.553-.314-3.125-.623-2.798-.546c-63.919-12.357-149.174-15.326-228.267-8.276-14.511 1.293-28.558 3.002-41.905 5.091-17.943 2.792-33.708 5.785-57.436 10.766l-4.695.99-23.601 5.02c-10.288 2.174-18.125 3.787-25.91 5.315l-5.02.976-3.223.615c-12.845 2.431-25.158 4.516-37.798 6.361-45.522 6.668-99.406 10.493-147.305 10.416-6.962-.014-13.813-.109-20.494-.286-30.064-.807-54.922-2.817-91.005-6.851l-2.413-.27-22.93-2.603c-54.308-6.028-118.966-9.957-185.986-10.752-28.09-.328-55.163-.02-81.176.978-16.32.626-29.698 1.214-41.897 1.86l-4.11.219c-7.652.41-15.305.834-24.894 1.377l-39.168 2.231c-65.018 3.642-106.496 5.336-162.701 6.206l-10.914.16c-22.149.345-42.116 1.148-70.056 2.631l-16.759.901-9.573.502-5.385.269c-9.365.455-17.145.764-24.474.958l-20.974.575c-29.523.785-45.277.93-64.47.397-27.836-.774-52.995-3.13-77.335-7.578l5.429-1.108c23.157 4.232 46.814 6.448 73.032 7.176 16.517.459 30.536.388 54.374-.196l8.015-.205 22.784-.626c5.817-.168 12.04-.415 19.266-.756l4.972-.242c4.074-.203 8.309-.425 14.115-.737l8.803-.474 13.02-.689c25.992-1.335 45.445-2.057 67.435-2.36l3.792-.054c61.565-.896 104.584-2.73 178.731-6.97l21.146-1.209c5.284-.3 9.976-.566 14.34-.81l10.377-.571 9.094-.488c10.632-.563 22.108-1.081 35.554-1.616l6.892-.269c26.7-1.024 54.448-1.34 83.195-1.005 69.73.828 136.91 4.983 192.962 11.348l16.928 1.927 8 .896c33.609 3.714 57.064 5.566 85.045 6.318 6.34.167 12.86.258 19.486.271 46.049.074 98.264-3.633 142.463-10.106 13.388-1.955 26.435-4.19 40.215-6.841 9.91-1.906 19.108-3.79 32.492-6.625l21.806-4.64c22.816-4.826 38.452-7.896 54.707-10.582l1.656-.272 3.386-.546 3.225-.508c13.837-2.166 28.44-3.942 43.56-5.29zm1.667-8.22c81.997-7.113 169.96-3.843 235.44 9.042 14.088 2.773 26.268 5.54 45.29 10.168l22.769 5.557c17.84 4.303 30.792 7.184 45.393 9.998 36.885 7.115 75.864 12.688 111.322 15.76 33.81 2.932 66.514 4.222 84.392 3.674l1.268 1.542c-19.66.603-53.85-.747-88.97-3.791-36.452-3.159-76.197-8.841-113.725-16.08-16.56-3.192-30.965-6.453-52.4-11.683l-20.048-4.896c-15.45-3.736-26.289-6.194-37.987-8.544l-3.074-.611-1.9-.37c-62.905-12.112-146.348-15.118-224.456-8.343-14.492 1.258-28.523 2.93-41.89 4.986-17.885 2.734-33.65 5.68-56.866 10.5l-6.957 1.454-23.589 4.984c-7.419 1.559-13.51 2.816-19.256 3.969l-4.644.923-5.385 1.05c-13.96 2.694-27.177 4.976-40.73 6.982-45.12 6.7-98.258 10.641-145.61 10.758-6.935.013-13.7-.053-20.267-.198-29.54-.661-54.37-2.51-89.47-6.197l-3.913-.413-22.444-2.408c-54.292-5.702-118.619-9.444-185.348-10.262-28.011-.338-54.947-.07-80.782.857-12.186.438-22.48.843-31.831 1.263l-5.013.23-4.861.235c-4.38.217-8.639.431-13.148.663l-11.488.597-37.969 2.015c-68.372 3.598-110.177 5.257-167.693 6.213l-10.474.167c-22.931.395-43.52 1.314-71.944 3l.04-.002c-.068.005-14.85.895-23.466 1.403l-.291.017-6.826.392c-9.059.503-16.54.854-23.604 1.095l-22.75.807c-27.005.934-42.626 1.22-60.251.912l-3.556-.07c-27.829-.6-53.174-2.838-77.843-7.21l5.467-1.15c23.409 4.149 47.156 6.245 73.274 6.809 16.98.366 31.43.172 56.154-.647l5.46-.185 24.497-.87c6.847-.249 14.271-.613 23.384-1.13l1.189-.068 30.323-1.805c28.285-1.652 49.166-2.539 72.988-2.9l7.521-.12c59.437-.988 101.92-2.734 175.323-6.643l17.321-.923c6.356-.338 11.84-.627 16.875-.89l12.216-.626 9.715-.483c8.08-.39 16.69-.759 26.515-1.138l6.737-.254 6.53-.239c26.516-.951 54.114-1.226 82.77-.88 69.418.85 136.25 4.808 192.297 10.83l13.076 1.41 5.127.548 7.648.804c32.638 3.385 56.003 5.081 83.444 5.695 6.224.138 12.657.2 19.251.188 45.49-.112 96.972-3.93 140.776-10.435 13.253-1.962 26.213-4.2 39.94-6.849l4.47-.87c5.739-1.127 11.514-2.3 18.39-3.73l7.992-1.673 21.81-4.61c25.92-5.446 42.8-8.69 61.496-11.616l3.225-.498c13.875-2.134 28.482-3.875 43.604-5.187zm-3.501-8.224c81.89-6.895 168.991-3.451 233.705 9.49 13.858 2.772 25.796 5.518 44.593 10.141l22.194 5.474c18.733 4.565 32.17 7.57 47.52 10.508l3.045.579c36.595 6.9 75.245 12.23 110.558 15.084 34.895 2.819 68.364 3.828 86.09 2.943l2.071 1.547c-19.757.986-54.944-.074-91.356-3.016-37.386-3.02-78.046-8.686-116.236-16.002-14.374-2.752-27.048-5.548-43.708-9.567l-4.44-1.077-6.51-1.596-19.359-4.778c-15.256-3.73-25.891-6.173-37.392-8.519l-3.024-.61-1.876-.372c-62.119-12.158-144.65-15.324-222.567-8.764-14.444 1.217-28.472 2.852-41.874 4.873-21.221 3.18-39.51 6.67-70.103 13.083l-17.016 3.572c-10.013 2.093-17.497 3.623-24.864 5.072l-4.744.924-3.212.616c-12.79 2.435-24.88 4.513-37.232 6.363-44.711 6.721-97.109 10.772-143.906 11.084-6.805.04-13.497.004-20.036-.108-28.999-.516-53.754-2.196-87.886-5.54l-6.407-.634-21.098-2.127c-54.286-5.364-118.249-8.912-184.624-9.75-27.99-.346-54.773-.118-80.406.737-17.032.57-29.756 1.051-41.51 1.591l-2.7.125c-3.585.165-7.135.332-10.866.51l-11.952.575-31.294 1.535c-71.936 3.522-113.914 5.131-172.546 6.174l-7.42.128c-24.888.413-46.596 1.458-76.641 3.43l-18.635 1.238-10.826.702c-8.778.549-15.98.94-22.794 1.224l-24.179 1.054c-28.258 1.205-44.283 1.583-63.46 1.288-27.845-.43-53.393-2.548-78.398-6.843l5.501-1.194c23.664 4.065 47.513 6.042 73.555 6.444 17.497.27 32.449-.059 58.14-1.134l5.473-.233 5.62-.246 17.79-.775c5.401-.238 11.171-.55 17.933-.965l4.662-.29 30.59-2.02c28.776-1.858 50.305-2.863 74.96-3.272 56.862-.944 96.917-2.349 160.546-5.384l13.675-.659 26.86-1.32c8.541-.418 15.466-.753 21.909-1.059l12.58-.588 4.532-.203c6.73-.295 13.867-.576 21.976-.87l6.272-.223 9.236-.315c26.303-.877 53.732-1.11 82.352-.757 69.073.873 135.551 4.627 191.615 10.297l15.644 1.582c2.942.296 5.548.554 8.08.802l3.192.31c31.633 3.054 54.842 4.585 81.696 5.063 6.195.107 12.557.141 19.02.103 44.934-.3 95.69-4.224 139.096-10.748 13.087-1.96 25.91-4.189 39.669-6.847 6.911-1.335 13.485-2.656 21.71-4.356l5.983-1.243 23.367-4.898c26.651-5.554 43.975-8.846 63.207-11.797l3.23-.49c13.927-2.1 28.551-3.804 43.65-5.076zm-8.679-8.224c81.764-6.667 168.005-3.054 231.966 9.925 11.755 2.385 22.078 4.738 36.604 8.297l7.319 1.806 17.3 4.314c19.118 4.741 32.767 7.896 47.37 10.795l3.264.641 3.311.636c38.105 7.239 78.754 12.754 115.876 15.542 35.946 2.698 70.143 3.423 87.817 2.214l2.828 1.541c-19.909 1.362-56.05.596-93.714-2.231-38.315-2.877-79.882-8.517-118.745-15.9-15.797-3-29.463-6.047-48.15-10.622l-4.405-1.084-24.748-6.156c-12.985-3.195-22.534-5.418-32.423-7.5l-2.98-.622-2.658-.544c-61.552-12.49-144.046-15.946-222.538-9.545-14.424 1.175-28.447 2.77-41.862 4.75-21.816 3.2-40.562 6.735-72.081 13.283l-13.209 2.75c-11.502 2.39-19.54 4.03-27.485 5.585l-7.18 1.389c-12.732 2.428-24.728 4.502-36.954 6.353-44.312 6.732-95.96 10.886-142.185 11.392-6.76.069-13.37.064-19.825-.017-28.441-.371-53.09-1.876-86.23-4.881l-1.627-.148-6.92-.64-20.184-1.902c-54.284-5.016-117.873-8.363-183.905-9.22-27.931-.356-54.574-.169-80.023.614-12.655.39-22.568.719-31.44 1.056l-4.028.156-5.847.24-3.762.16-11.421.494-48.99 2.19c-63.13 2.805-102.589 4.233-153.182 5.275l-7.487.15-13.757.259c-24.422.496-46.135 1.657-75.403 3.762-2.406.173-15.88 1.163-22.996 1.676l-7.738.544c-7.491.511-13.769.892-19.75 1.188l-1.32.065-21.618 1.124c-29.271 1.505-45.89 2.04-65.69 1.856-27.89-.259-53.668-2.258-79.03-6.477l5.528-1.239c23.936 3.982 47.912 5.842 73.91 6.083 17.503.162 32.613-.278 57.833-1.536l5.366-.272 15.073-.79 9.574-.486c5.215-.27 10.78-.612 17.339-1.06l4.526-.314 29.587-2.147c29.295-2.074 51.463-3.203 76.968-3.662l10.733-.2c51.382-1 90.023-2.335 150.638-4.995l9.03-.399 47.212-2.112 18.975-.817c6.203-.256 12.665-.498 20.05-.75l8.734-.29 11.05-.347c26.105-.802 53.376-.994 81.919-.63 68.735.892 134.847 4.437 190.93 9.744l14.407 1.362 7.086.658 6.45.585c30.657 2.734 53.7 4.099 79.99 4.441 6.106.077 12.382.082 18.8.016 44.372-.486 94.398-4.509 137.42-11.045 12.955-1.962 25.682-4.185 39.392-6.837 4.952-.956 9.73-1.904 15.146-3.002l7.674-1.57 28.432-5.899c26.38-5.43 43.784-8.68 63.12-11.584l3.241-.481c13.96-2.063 28.602-3.727 43.702-4.958zm-8.68-9.223c81.633-6.43 167.003-2.654 230.226 10.346 11.03 2.268 20.749 4.493 34.059 7.767l5.658 1.401 24.452 6.131c17.788 4.413 30.95 7.432 45.096 10.222l3.417.666 3.347.636c38.7 7.287 80.184 12.763 118.153 15.404 36.967 2.571 71.884 3.013 89.568 1.488l3.531 1.527c-20.078 1.73-57.158 1.262-96.033-1.442-39.264-2.731-81.744-8.338-121.263-15.78-18.946-3.564-34.715-7.185-59.05-13.291l-16.269-4.09c-17.196-4.293-28.224-6.872-40.978-9.494l-1.867-.38c-60.59-12.193-141.295-15.666-218.776-9.562-14.393 1.133-28.406 2.685-41.833 4.623-19.704 2.824-36.91 5.924-62.794 11.159L1358.907 41l-24.085 4.954c-6.932 1.418-12.512 2.54-17.952 3.608l-4.89.951-3.198.614c-12.72 2.422-24.598 4.484-36.668 6.33-43.921 6.737-94.816 10.987-140.468 11.687-6.687.099-13.23.124-19.594.073-27.878-.228-52.378-1.552-84.522-4.227l-5-.419-25.136-2.192c-54.31-4.66-117.47-7.8-183.066-8.674-27.922-.364-54.414-.217-79.65.49-18.242.513-29.85.876-41.13 1.312l-15.884.623-46.614 1.89c-64.635 2.608-103.663 3.933-154.33 5.015l-7.321.153-10.37.206c-26.358.51-49.143 1.803-79.92 4.212-3.717.292-20.705 1.652-25.216 2.002l-4.517.345c-7.273.548-13.325.96-19.105 1.29l-1.402.081-4.474.263-18.429 1.114c-28.63 1.702-45.455 2.362-65.29 2.297-27.953-.09-53.97-1.972-79.693-6.112l5.545-1.285c24.21 3.898 48.324 5.64 74.294 5.726 19.906.065 36.92-.658 68.235-2.563l12.792-.775 7.817-.457c3.74-.224 7.667-.486 12.052-.803l4.546-.336 4.403-.337 28.653-2.268c29.756-2.293 52.524-3.548 78.845-4.058l10.307-.205c50.32-1.03 87.934-2.242 147.413-4.606l13.42-.538 41.466-1.683 21.08-.83c9.827-.38 19.852-.704 34.09-1.114l7.49-.213c25.874-.726 52.974-.875 81.486-.504 68.346.91 134.071 4.242 190.228 9.182 9.272.816 14.13 1.243 17.875 1.565l11.143.935c29.68 2.423 52.522 3.617 78.252 3.827 6.014.048 12.217.025 18.558-.069 43.815-.672 93.113-4.788 135.76-11.33 12.794-1.956 25.404-4.168 39.124-6.816 7.453-1.44 14.504-2.851 24.293-4.857l24.682-5.076c27.52-5.612 45.488-8.925 65.568-11.872l3.19-.463c13.991-2.02 28.644-3.642 43.735-4.83zm-19.026-9.22c81.484-6.188 165.97-2.253 228.475 10.757l2.721.57c9.8 2.075 18.837 4.181 30.92 7.177l7.261 1.815 20.022 5.061c21.164 5.31 35.843 8.676 52.58 11.867l3.377.637c39.319 7.329 81.63 12.759 120.422 15.25 37.98 2.44 73.613 2.599 91.364.765l4.176 1.506c-20.262 2.094-58.265 1.924-98.333-.65-40.188-2.58-83.576-8.149-123.776-15.641-16.743-3.12-30.934-6.276-50.292-11.064l-4.39-1.091-6.483-1.63-12.05-3.052c-16.67-4.214-27.5-6.825-38.89-9.275l-2.542-.543-2.576-.54c-60.056-12.5-140.695-16.256-218.746-10.33-14.364 1.091-28.373 2.6-41.822 4.495-19.864 2.777-37.185 5.836-62.969 10.977l-9.188 1.847-26.547 5.4c-3.5.705-6.643 1.334-9.647 1.927l-3.552.698-4.904.952c-13.944 2.686-26.655 4.922-39.572 6.915-43.528 6.736-93.669 11.077-138.733 11.967-6.58.127-13.048.183-19.374.165-27.3-.088-51.614-1.23-82.768-3.584l-5.102-.39-4.348-.34-22.062-1.778c-54.347-4.305-117.106-7.24-182.309-8.129-27.895-.373-54.24-.267-79.283.368-14.088.356-23.674.613-32.183.879l-5.872.19-12.42.433-67.867 2.454c-60.714 2.168-97.726 3.276-149.18 4.366l-6.797.142c-27.047.56-50.311 1.978-81.4 4.61-2.885.244-11.257.968-17.573 1.512l-11.22.952c-7.068.583-12.906 1.023-18.496 1.386l-1.48.097-4.74.316-16.406 1.13c-29.775 2.033-47.305 2.873-67.876 2.927-28.034.074-54.31-1.69-80.41-5.753l5.557-1.33c24.498 3.814 48.767 5.443 74.732 5.374 19.955-.053 37.208-.907 67.846-3.022l15.304-1.051 6.265-.414c5.96-.4 12.392-.903 20.553-1.592 3.47-.293 17.097-1.474 22.855-1.967l5.043-.425c30.126-2.508 53.43-3.889 80.503-4.449 53.184-1.1 89.938-2.17 149.76-4.292l17.753-.636 45.808-1.664 23.833-.837c4.38-.144 8.88-.28 13.999-.425l9.475-.258 13.484-.347c25.657-.651 52.588-.76 81.05-.378 67.963.925 133.296 4.042 189.514 8.61 10.546.857 16.103 1.305 21.154 1.698l9.095.69c28.655 2.117 51.234 3.137 76.346 3.219 5.974.016 12.106-.036 18.346-.157 43.249-.854 91.821-5.06 134.094-11.601 12.642-1.95 25.12-4.146 38.85-6.79l1.5-.29c3.489-.676 6.94-1.354 10.726-2.11l8.768-1.763 23.535-4.79c28.273-5.725 46.718-9.13 66.67-12.067l3.438-.5 3.217-.455c14.033-1.977 28.703-3.556 43.787-4.702zm-19.03-10.218c81.331-5.94 164.931-1.85 226.725 11.157 10.698 2.252 20.07 4.437 33.061 7.68l5.53 1.388 21.172 5.382c23.447 5.92 39.047 9.468 57.976 12.957l2.79.51c39.14 7.1 81.2 12.287 119.907 14.573 38.973 2.303 75.325 2.183 93.18.045l4.764 1.484c-20.448 2.448-59.36 2.577-100.59.14-41.127-2.429-85.427-7.953-126.296-15.49-20.512-3.78-37.094-7.605-63.285-14.266l-13.283-3.384c-14.226-3.61-24.052-6-33.924-8.185l-3.875-.846-3.791-.808C1590 2.643 1510.29-1.256 1432.469 4.427c-14.345 1.049-28.343 2.511-41.8 4.36-20.654 2.814-38.527 5.927-65.564 11.264l-9.106 1.812-19.58 3.944c-4.7.945-8.675 1.739-12.345 2.463l-6.626 1.297-6.583 1.265c-12.804 2.431-24.483 4.472-36.307 6.31-43.136 6.729-92.52 11.156-137.002 12.238-6.51.154-12.9.24-19.14.253-30.963.058-52.969-.93-94.806-3.939l-8.64-.629-5.832-.431c-55.521-4.135-119.557-6.995-186.184-7.924-27.91-.38-54.09-.316-78.918.244-14.18.32-22.935.525-30.454.728l-6.886.194-20.143.627-73.681 2.355c-44.802 1.404-80.093 2.398-120.12 3.333l-11.578.266-10.12.226c-27.715.61-51.433 2.156-82.792 5.008l-25.81 2.388c-7.852.71-14.071 1.23-20.02 1.664l-2.684.197-4.36.328-16.716 1.287c-29.184 2.226-46.963 3.2-67.621 3.373-28.128.236-54.67-1.411-81.15-5.396l5.559-1.378c24.79 3.731 49.222 5.247 75.198 5.03 20.02-.168 37.514-1.157 67.521-3.47l15.44-1.188 7.189-.533c4.72-.353 9.739-.772 15.774-1.313l4.182-.378 27.062-2.499c30.516-2.731 54.358-4.242 82.204-4.855 56.232-1.236 99.515-2.464 163.98-4.53l47.515-1.525 24.94-.776c9.17-.268 18.502-.491 36.523-.897l4.782-.101c23.987-.479 49.154-.514 75.828-.15 67.55.941 132.458 3.84 188.794 8.036 50.583 3.765 73.076 4.944 105.928 4.882 5.894-.013 11.95-.093 18.119-.24 42.69-1.038 90.54-5.328 132.442-11.864 12.468-1.938 24.807-4.113 38.583-6.757 3.497-.672 6.894-1.334 10.626-2.072l8.671-1.727 25.02-5.034c29.845-5.96 48.87-9.374 70.41-12.383l3.251-.448c14.06-1.931 28.74-3.465 43.827-4.568z" transform="translate(-174.684 -54)"/>
</svg>
