<svg xmlns="http://www.w3.org/2000/svg" xmlns:xlink="http://www.w3.org/1999/xlink" width="1146" height="650" viewBox="0 0 1146 650">
    <defs>
        <path id="prefix__a" d="M0 0H1145.238V650H0z"/>
        <path id="prefix__c" d="M60.697 3.045C61.017.594 63.712-.76 65.869.449L87.63 12.63c1.688.945 2.631 2.823 2.38 4.74l-3.592 27.482 27.487 3.59c1.918.251 3.49 1.644 3.97 3.518l1.334 5.211 15.734 1.738 3.118-28.213c.203-1.83 2.19-2.876 3.813-2.01l16.38 8.747c.356.19.67.436.932.722l.365-8.294c.048-1.11 1.202-1.819 2.214-1.36l10.207 4.611c.792.357 1.287 1.161 1.248 2.03l-.547 12.435 12.438.546c.868.039 1.626.601 1.913 1.421l3.7 10.57c.366 1.048-.442 2.136-1.551 2.087l-17.11-.752-.068 1.553 6.348.701c1.367.152 2.515 1.082 2.95 2.374l.058.187 4.622 16.666-1.265-13.67c-.223-2.4 1.99-4.28 4.3-3.718l.173.047 23.911 7.086c1.855.55 3.19 2.173 3.368 4.099l2.16 23.332 3.622-.75-7.736-37.33c-.501-2.42 1.601-4.58 4.035-4.148l6.759 1.203.128-2.911-9.608-.423c-.672-.03-1.257-.464-1.478-1.098l-2.858-8.166c-.284-.81.34-1.65 1.197-1.612l13.218.581.582-13.215c.037-.857.929-1.405 1.71-1.052l7.887 3.563c.61.276.993.898.964 1.568l-.423 9.607 9.61.423c.67.03 1.255.464 1.477 1.097l2.858 8.167c.283.81-.34 1.65-1.198 1.611l-13.218-.58-.191 4.337 7.138 1.271c1.832.326 3.295 1.693 3.754 3.481l.05.217.879 4.243 22.96 2.536 3.119-28.213c.202-1.83 2.189-2.876 3.812-2.01l16.38 8.747c1.27.679 2 2.062 1.842 3.494l-2.266 20.51 20.514 2.266c1.432.159 2.624 1.172 3.008 2.56l4.962 17.891c.024.089.044.177.059.265l3.11.138.581-13.216c.038-.857.93-1.404 1.711-1.051l7.886 3.562c.611.277.994.898.964 1.569l-.422 9.607 9.609.421c.67.03 1.256.465 1.477 1.099l2.859 8.166c.283.81-.341 1.65-1.199 1.612l-13.217-.581-.581 13.215c-.038.857-.93 1.405-1.712 1.052l-7.885-3.563c-.612-.277-.994-.898-.964-1.568l.422-9.607-9.609-.422c-.057-.003-.114-.008-.17-.017v22.66c.932-1.025 2.451-1.475 3.89-.9l5.766 2.306h18.063c1.861 0 3.541 1.089 4.306 2.77l.088.204 9.263 23.151c.918 2.295-.773 4.792-3.245 4.792h-8.11v5.906l19.618-2.165-3.116-28.213c-.202-1.83 1.508-3.285 3.282-2.793l17.894 4.961c1.389.385 2.402 1.576 2.56 3.008l2.266 20.51 20.514-2.265c1.433-.158 2.816.571 3.494 1.842l8.748 16.377c.867 1.624-.18 3.61-2.01 3.811l-3.331.368 18.977 11.608c1.586.97 2.451 2.776 2.227 4.609l-.032.22-4.65 27.32 27.327 4.65c1.907.325 3.424 1.778 3.832 3.67l-.003-.01 9.54 2.317 3.123-12.854c.202-.834 1.183-1.2 1.882-.702l7.049 5.018c.547.39.802 1.072.643 1.725l-2.269 9.344 9.346 2.27c.652.158 1.143.698 1.238 1.362l1.227 8.565c.122.85-.653 1.553-1.486 1.35l-12.858-3.121-3.122 12.854c-.202.833-1.182 1.199-1.881.701l-7.05-5.018c-.122-.087-.23-.189-.322-.302l.189.877c.52 2.416-1.565 4.594-4.003 4.18l-37.59-6.396-3.148 18.495c1.427.728 2.41 2.144 2.561 3.778l2.557 27.596 27.601-2.556c1.927-.178 3.768.835 4.65 2.556l11.358 22.2c1.126 2.2-.327 4.842-2.79 5.07l-37.968 3.515 1.256 13.559h6.307c1.86 0 3.54 1.09 4.306 2.77l.087.204 8.509 21.266.13.027c.26-.515.797-.885 1.446-.873l17.322.3.302-17.317c.019-1.123 1.166-1.871 2.202-1.437l10.446 4.39c.81.34 1.332 1.14 1.317 2.019l-.219 12.59 12.592.218c.879.016 1.66.564 1.972 1.386l4.025 10.59c.399 1.05-.388 2.17-1.512 2.151l-17.321-.3-.301 17.317c-.02 1.123-1.167 1.871-2.203 1.436l-10.446-4.39c-.81-.34-1.332-1.139-1.317-2.018l.219-12.59-10.981-.191 5.095 12.734c.895 2.239-.692 4.67-3.066 4.787l-.18.005h-38.13v38.123c0 2.472-2.497 4.161-4.792 3.244l-8.585-3.433c-.199 1.345-1.452 2.392-2.92 2.196l-13.943-1.857 2.32.976c.313.13.527.42.565.75l.007.125-.095 5.457 5.458.095c.382.006.72.244.855.6l1.745 4.59c.172.456-.168.942-.656.934l-7.508-.131-.13 7.507c-.009.487-.506.811-.956.622l-4.527-1.902c-.352-.148-.578-.495-.571-.876l.095-5.457-5.458-.095c-.381-.006-.72-.244-.855-.6l-1.745-4.59c-.173-.456.168-.942.655-.933l7.509.13.13-7.507c0-.039.005-.077.011-.114l-11.048-1.472-3.75 28.137c-.096.727-.474 1.323-.994 1.72l8.93 2.476c1.389.385 2.402 1.576 2.56 3.008l2.266 20.51 20.514-2.265c1.433-.158 2.816.572 3.494 1.842l8.748 16.377c.867 1.623-.18 3.61-2.01 3.811l-3.331.368 18.977 11.608c1.586.97 2.451 2.776 2.227 4.608l-.032.22-4.65 27.321 27.327 4.65c1.907.325 3.424 1.777 3.832 3.669l-.003-.009 9.54 2.316 3.123-12.854c.202-.833 1.183-1.199 1.882-.701l7.049 5.018c.547.39.802 1.073.643 1.724l-2.269 9.345 9.346 2.27c.652.158 1.143.698 1.238 1.362l1.227 8.564c.122.85-.653 1.553-1.486 1.35l-12.858-3.12-3.122 12.853c-.202.834-1.182 1.2-1.881.702l-7.05-5.018c-.122-.087-.23-.189-.321-.301l.188.876c.52 2.416-1.565 4.594-4.003 4.179l-37.59-6.395-3.148 18.495c1.427.728 2.41 2.144 2.561 3.778l2.557 27.596 27.601-2.556c1.927-.178 3.768.834 4.65 2.556l11.358 22.199c1.126 2.2-.327 4.843-2.79 5.07l-37.968 3.516 3.517 37.96c.228 2.462-2.103 4.376-4.473 3.673l-23.912-7.086c-1.855-.55-3.188-2.173-3.366-4.1l-2.557-27.596-27.602 2.556c-1.926.178-3.767-.834-4.649-2.556L360.091 663v22.412c0 2.411-2.377 4.079-4.624 3.307l-.168-.063-23.156-9.26c-1.797-.719-2.975-2.458-2.975-4.393v-27.714h-22.65c.725.969 1.068 2.201.905 3.45l-3.593 27.48 27.487 3.592c1.918.25 3.49 1.644 3.97 3.518l6.184 24.156c.614 2.395-1.387 4.65-3.838 4.33l-37.81-4.94-4.94 37.802c-.32 2.451-3.016 3.804-5.173 2.596l-21.76-12.182c-1.689-.945-2.632-2.823-2.38-4.74l3.59-27.482-27.485-3.59c-1.919-.25-3.491-1.644-3.97-3.519l-2.406-9.394-9.634-.167-.198 11.42c-.013.74-.77 1.233-1.453.946l-6.888-2.894c-.534-.225-.878-.752-.867-1.331l.144-8.301-6.911-.122 7.24 18.097c.896 2.24-.69 4.67-3.065 4.788l-.18.004h-38.13v38.123c0 2.472-2.497 4.162-4.792 3.244l-23.157-9.26c-1.796-.719-2.974-2.458-2.974-4.393v-27.714h-25.675l2.682 18.317c.3 2.055-1.51 3.774-3.52 3.41l-.173-.036-20.957-5.022c-1.626-.389-2.85-1.73-3.093-3.383l-3.468-23.696-23.7 3.468c-1.655.241-3.29-.548-4.13-1.993l-10.815-18.636c-1.073-1.848.06-4.194 2.174-4.503l2.339-.343-11.494-4.597c-1.727-.69-2.883-2.326-2.97-4.17l-.005-.223v-27.713H13.91c-1.935 0-3.674-1.178-4.393-2.975L.253 615.56c-.918-2.295.774-4.791 3.246-4.791h38.13v-38.123c0-2.472 2.498-4.162 4.793-3.245l23.156 9.261c1.797.718 2.975 2.458 2.975 4.393l-.001 3.604 11.8 1.542.939-7.177c-.114-.049-.227-.104-.339-.167l-21.76-12.182c-1.688-.945-2.63-2.822-2.38-4.74l3.592-27.481-27.486-3.592c-1.919-.25-3.491-1.643-3.971-3.518l-6.184-24.156c-.613-2.394 1.387-4.65 3.838-4.33l37.81 4.94 4.941-37.802c.119-.907.562-1.664 1.184-2.196l-3.81-14.885-20.19-11.302c-1.623-.908-2.556-2.68-2.403-4.52l.024-.22 3.592-27.48-27.487-3.592c-1.918-.25-3.49-1.644-3.97-3.518l-6.184-24.156c-.613-2.395 1.386-4.651 3.838-4.331l37.81 4.94 2.368-18.124-6.54-11.267c-1.041-1.795-.002-4.06 1.996-4.471l.18-.032 2.34-.342-11.496-4.597c-1.727-.691-2.883-2.326-2.97-4.17l-.005-.223v-27.714H13.91c-1.935 0-3.674-1.177-4.393-2.974L.253 279.67c-.918-2.294.774-4.791 3.246-4.791h38.13v-38.123c0-2.472 2.498-4.162 4.793-3.245l23.156 9.261c1.797.719 2.975 2.458 2.975 4.393l-.001 3.604 11.8 1.543.939-7.178c-.114-.049-.227-.104-.339-.167l-21.76-12.182c-1.688-.945-2.63-2.823-2.38-4.74l3.592-27.48-27.486-3.592c-1.919-.25-3.491-1.644-3.971-3.518l-6.184-24.156c-.613-2.395 1.387-4.651 3.838-4.331l37.81 4.94 4.941-37.802c.119-.907.562-1.664 1.184-2.196l-3.81-14.885-20.19-11.301c-1.623-.909-2.556-2.68-2.403-4.52l.024-.22 3.592-27.482-27.487-3.59c-1.918-.251-3.49-1.644-3.97-3.519l-6.184-24.156c-.613-2.395 1.386-4.651 3.838-4.331l37.81 4.94zm528.975 632.141c-.347-2.447 1.887-4.471 4.29-3.884l24.227 5.917c1.88.459 3.29 2.016 3.562 3.93l3.893 27.44 27.445-3.892c1.915-.271 3.804.65 4.767 2.327l12.423 21.622c1.232 2.143-.091 4.852-2.54 5.2l-37.752 5.353 5.355 37.746c.348 2.448-1.888 4.471-4.29 3.885l-24.227-5.917c-1.88-.46-3.29-2.017-3.562-3.931l-3.893-27.44-27.445 3.892c-1.916.272-3.804-.65-4.768-2.327l-12.422-21.622c-1.232-2.143.09-4.852 2.54-5.2l37.752-5.353zM831.4 668.251c.02-1.123 1.167-1.87 2.203-1.436l10.445 4.39c.81.34 1.332 1.14 1.317 2.018l-.218 12.59 12.591.219c.879.015 1.66.564 1.973 1.386l4.024 10.59c.4 1.05-.388 2.17-1.512 2.15l-17.322-.3-.3 17.318c-.02 1.123-1.168 1.87-2.203 1.436l-10.446-4.39c-.81-.34-1.332-1.14-1.317-2.018l.219-12.59-12.592-.219c-.879-.015-1.66-.564-1.973-1.386l-4.024-10.59c-.4-1.05.389-2.17 1.512-2.15l17.322.3zm-463.692 27.752c.01-.486.506-.81.955-.621l4.528 1.902c.351.147.577.494.57.875l-.094 5.458 5.458.094c.381.007.72.245.855.6l1.744 4.591c.173.456-.168.941-.655.933l-7.508-.13-.13 7.506c-.009.487-.507.811-.956.623l-4.528-1.904c-.35-.147-.577-.493-.57-.874l.094-5.457-5.458-.095c-.38-.007-.72-.245-.855-.601l-1.744-4.59c-.173-.455.168-.941.655-.933l7.509.13zm360.613-60.424c.019-1.123 1.167-1.87 2.202-1.436l10.446 4.39c.81.34 1.332 1.14 1.317 2.019l-.219 12.589 12.593.219c.878.015 1.66.564 1.972 1.385l4.024 10.59c.4 1.05-.388 2.171-1.512 2.152l-17.321-.301-.301 17.318c-.02 1.122-1.167 1.871-2.203 1.436l-10.446-4.39c-.81-.34-1.332-1.14-1.317-2.019l.22-12.59-12.593-.218c-.88-.016-1.66-.564-1.972-1.385l-4.025-10.59c-.399-1.05.388-2.171 1.511-2.152l17.323.301zm-226.635-60.61c0-2.472 2.497-4.163 4.792-3.245l23.157 9.26c1.796.72 2.975 2.459 2.975 4.393v27.715h27.719c1.934 0 3.675 1.177 4.393 2.973l9.263 23.152c.918 2.294-.773 4.792-3.245 4.792h-38.13v38.123c0 2.471-2.498 4.162-4.793 3.244l-23.157-9.261c-1.796-.718-2.974-2.458-2.974-4.393V644.01h-27.72c-1.935 0-3.674-1.178-4.394-2.975l-9.262-23.15c-.918-2.296.773-4.792 3.245-4.792h38.131zm486.834 69.417c.015-.857.892-1.429 1.683-1.096l7.978 3.352c.619.26 1.017.87 1.005 1.542l-.168 9.614 9.618.167c.671.013 1.267.431 1.506 1.059l3.074 8.088c.304.802-.297 1.658-1.155 1.643l-13.228-.23-.23 13.226c-.016.857-.892 1.429-1.683 1.097l-7.977-3.353c-.62-.26-1.018-.87-1.006-1.542l.167-9.615-9.617-.167c-.671-.012-1.267-.43-1.506-1.058l-3.074-8.088c-.305-.802.297-1.658 1.154-1.642l13.23.23zm-769.1 13.727h-9.726l-6.063 1.256v20.553c.177.02.35.051.52.09l-.005-.014c-.264-.692.255-1.432.997-1.419l11.42.199.2-11.42c.012-.74.769-1.234 1.452-.947l3.204 1.347-1.999-9.645zm-134.494 6.046l-12.374 1.145v10.678l13.81-2.02-1.436-9.803zm59.507-5.511l-18.81 1.743.715 7.722 10.164-1.487c1.582-.23 3.147.481 4.014 1.809l.114.185 3.803 6.553v-16.525zm110.033-9.81l-5.166 1.07 4.513 21.776 19.355 2.53 1.243-9.521-18.031-9.531c-1.417-.749-2.26-2.252-2.172-3.838l.017-.207.241-2.279zm611.28.6c.008-.487.505-.811.954-.623l4.528 1.903c.351.148.577.494.57.875l-.095 5.457 5.46.095c.38.007.719.245.854.6l1.745 4.591c.173.456-.169.941-.656.933l-7.508-.13-.13 7.506c-.01.487-.507.812-.956.622l-4.528-1.902c-.351-.148-.577-.494-.57-.875l.095-5.457-5.459-.095c-.38-.007-.72-.245-.855-.601l-1.744-4.59c-.173-.455.168-.941.655-.933l7.508.13zm372.384-2.988c.009-.487.506-.811.955-.622l4.528 1.902c.351.148.577.495.57.875l-.094 5.458 5.458.094c.381.007.72.246.855.601l1.745 4.59c.173.456-.169.941-.656.933l-7.508-.13-.13 7.506c-.009.487-.507.812-.956.623l-4.528-1.903c-.351-.148-.577-.494-.57-.875l.095-5.457-5.459-.095c-.38-.007-.72-.244-.855-.6l-1.745-4.591c-.172-.455.17-.94.656-.933l7.508.13zm-319.497-59.466c-.257-1.823 1.409-3.329 3.196-2.89l18.035 4.426c1.4.343 2.448 1.503 2.649 2.93l2.876 20.434 20.437-2.876c1.427-.2 2.832.487 3.548 1.737l9.233 16.109c.914 1.597-.072 3.613-1.895 3.87l-28.114 3.955 3.956 28.108c.256 1.823-1.41 3.328-3.197 2.89l-18.035-4.426c-1.398-.344-2.448-1.504-2.649-2.93l-2.876-20.434-20.437 2.875c-1.427.201-2.832-.487-3.548-1.736l-9.232-16.11c-.915-1.597.072-3.612 1.894-3.869l28.115-3.955zm129.032 54.253c.008-.487.506-.81.954-.622l4.528 1.903c.352.147.578.494.57.874l-.094 5.458 5.459.094c.38.007.719.246.855.601l1.744 4.591c.173.455-.168.94-.656.932l-7.508-.13-.13 7.506c-.008.487-.506.812-.955.623l-4.528-1.903c-.352-.148-.578-.494-.57-.875l.094-5.457-5.458-.095c-.38-.007-.72-.244-.855-.6l-1.745-4.591c-.173-.455.169-.941.656-.932l7.508.13zm-252.387-9.388c.012-.679.706-1.13 1.331-.868l6.311 2.653c.49.205.805.688.795 1.219l-.131 7.605 7.607.133c.53.01 1.003.34 1.191.837l2.432 6.398c.24.634-.235 1.311-.914 1.3l-10.464-.183-.182 10.463c-.012.679-.705 1.13-1.33.868l-6.311-2.652c-.49-.206-.805-.689-.796-1.22l.132-7.606-7.607-.132c-.53-.01-1.003-.34-1.192-.837l-2.432-6.398c-.24-.634.236-1.311.914-1.3l10.465.182zm-139.909-70.68c.194-2.016 2.361-3.198 4.16-2.27l18.15 9.358c1.41.726 2.233 2.235 2.082 3.812l-2.167 22.59 22.594 2.166c1.578.15 2.904 1.248 3.349 2.768l5.74 19.594c.568 1.942-1.005 3.845-3.02 3.652l-31.08-2.98-2.98 31.074c-.193 2.014-2.361 3.197-4.16 2.27l-18.151-9.359c-1.408-.725-2.232-2.236-2.081-3.812l2.167-22.59-22.595-2.166c-1.577-.151-2.903-1.247-3.348-2.767l-5.74-19.594c-.569-1.943 1.004-3.846 3.02-3.653l31.08 2.98zm-257.939 86.12h-37.338l-.001 4.003 37.39-3.462-.051-.541zm-112.942-17.043l4.355 6.578c.036.054.07.109.103.164l6.671 3.734-3.883-9.706-7.246-.77zm541.425-93.806c-.687-2.228 1.095-4.445 3.419-4.255l23.446 1.921c1.818.15 3.363 1.39 3.9 3.134l7.694 24.983 24.989-7.694c1.744-.536 3.639.043 4.785 1.462l14.778 18.299c1.465 1.814.635 4.534-1.595 5.22l-34.372 10.583 10.585 34.365c.686 2.228-1.096 4.445-3.42 4.255l-23.445-1.921c-1.819-.15-3.364-1.391-3.9-3.135l-7.695-24.982-24.988 7.693c-1.744.537-3.64-.042-4.786-1.461l-14.777-18.299c-1.466-1.815-.635-4.534 1.594-5.22l34.372-10.583zm-432.64 85.577l2.363 5.905-.438-4.725-1.837-1.124-.088-.056zm-180.527 3.89l-1.462-7.055-7.653 1.585v6.76l2.893-.001 6.222-1.288zm135.97-184.99l1.227 3.505c.283.81-.341 1.65-1.199 1.611l-4.461-.196.763 8.24c.222 2.4-1.99 4.28-4.3 3.719l-.173-.047-5.516-1.636-.111 2.555c-.036.816-.847 1.352-1.6 1.096l-.112-.045-7.885-3.563c-.612-.276-.994-.897-.964-1.567l.07-1.617-7.794-2.31c-.608-.18-1.16-.475-1.633-.859v18.806h27.72c1.935 0 3.675 1.177 4.393 2.973l9.263 23.152c.918 2.294-.773 4.792-3.245 4.792h-38.13v38.123c0 2.471-2.499 4.161-4.794 3.244l-6.912-2.765-.4 9.092 9.61.422c.67.03 1.256.464 1.477 1.098l2.858 8.166c.284.81-.34 1.65-1.198 1.612l-13.217-.581-.581 13.216c-.038.856-.93 1.404-1.712 1.05l-7.885-3.562c-.612-.276-.994-.898-.965-1.568l.423-9.607-9.61-.422c-.586-.026-1.107-.362-1.377-.87l-9.238-.982c.194.244.366.509.512.794l8.448 16.511 6.055 3.2c1.417.749 2.26 2.251 2.172 3.838l-.017.208-.047.43 1.213.51c.51.215.853.696.895 1.24l.004.138-.149 8.588 8.59.15c.599.01 1.132.384 1.345.945l2.746 7.224c.272.716-.265 1.48-1.031 1.467l-11.817-.205-.066 3.774 19.606 2.082c1.593.17 2.935 1.252 3.442 2.758l.062.199 2.065 7.329h13.632l.001-31.229c-.243.62-.974.957-1.629.661l-7.886-3.563c-.611-.277-.993-.897-.963-1.568l.421-9.607-9.608-.422c-.671-.03-1.256-.464-1.478-1.098l-2.858-8.167c-.283-.81.34-1.649 1.198-1.611l13.218.581.581-13.215c.037-.857.93-1.405 1.71-1.052l7.887 3.563c.611.276.993.898.964 1.568l-.422 9.607 9.609.422c.67.03 1.255.465 1.477 1.098l2.858 8.166c.283.81-.34 1.65-1.198 1.612l-13.218-.58-.22 5.001c.818-1.455 2.64-2.218 4.349-1.534l23.156 9.26c1.796.72 2.975 2.458 2.975 4.393v27.714h27.719c1.259 0 2.435.498 3.3 1.34.01-.155.029-.312.055-.468l4.65-27.321-27.326-4.65c-1.907-.324-3.426-1.777-3.832-3.668l-5.247-24.377c-.52-2.417 1.566-4.594 4.003-4.18l37.59 6.396 6.397-37.583.03-.155-17.351 1.915 3.116 28.213c.202 1.83-1.508 3.284-3.282 2.793l-17.894-4.961c-1.388-.385-2.402-1.577-2.56-3.008l-2.265-20.51-20.515 2.264c-1.432.159-2.816-.571-3.495-1.842l-8.747-16.377c-.867-1.623.18-3.609 2.01-3.811l28.219-3.116-3.116-28.213c-.202-1.83 1.508-3.285 3.282-2.793l2.616.725-12.693-7.147c-1.196-.673-1.886-1.974-1.785-3.33l.021-.204 2.725-20.454-7.001-.933zM309.15 580.389c.01-.486.507-.81.955-.622l4.528 1.903c.351.147.577.494.57.875l-.094 5.457 5.458.095c.382.006.72.245.855.6l1.745 4.591c.173.455-.169.94-.655.933l-7.509-.13-.13 7.506c-.009.487-.506.811-.956.622l-4.528-1.903c-.35-.147-.577-.493-.57-.875l.095-5.457-5.459-.094c-.38-.008-.72-.245-.855-.601l-1.744-4.591c-.173-.455.168-.94.655-.932l7.509.13zm-47.908 4.657l-16.395 1.519c-.42.835-1.208 1.415-2.098 1.598l1.009 10.892 15.818 1.68 1.666-15.689zm751.65-40.378c.02-1.123 1.167-1.87 2.203-1.436l10.446 4.39c.81.34 1.331 1.14 1.316 2.018l-.218 12.59 12.592.218c.878.016 1.66.565 1.972 1.386l4.025 10.59c.399 1.05-.389 2.171-1.512 2.151l-17.322-.3-.3 17.318c-.02 1.122-1.168 1.87-2.204 1.436l-10.446-4.39c-.81-.34-1.331-1.14-1.316-2.019l.219-12.59-12.593-.218c-.879-.016-1.66-.564-1.972-1.385l-4.024-10.59c-.4-1.05.388-2.171 1.51-2.152l17.323.3zm-547.738 39.92l2.239 10.405 2.262-9.311-4.501-1.094zm-345.79-18.315l-.972.089-3.378 25.846 6.835.892-2.485-26.827zm1014.638-4.1c.012-.68.705-1.131 1.331-.868l6.311 2.652c.49.206.805.688.795 1.219l-.132 7.606 7.607.132c.531.01 1.004.34 1.192.838l2.431 6.397c.241.635-.234 1.312-.913 1.3l-10.465-.182-.182 10.462c-.012.679-.704 1.13-1.33.868l-6.311-2.652c-.49-.205-.805-.689-.795-1.22l.131-7.605-7.607-.133c-.53-.009-1.003-.34-1.191-.837l-2.432-6.397c-.24-.635.235-1.312.914-1.3l10.465.182zm-394.5-41.322c.17-1.535 1.836-2.413 3.2-1.686l13.745 7.34c1.066.57 1.678 1.73 1.546 2.932l-1.902 17.213 17.215 1.901c1.202.132 2.201.983 2.524 2.148l4.164 15.014c.413 1.489-.809 2.922-2.344 2.753l-23.681-2.616-2.617 23.677c-.17 1.535-1.837 2.413-3.199 1.685l-13.746-7.34c-1.066-.569-1.679-1.73-1.545-2.931l1.901-17.212-17.215-1.902c-1.202-.132-2.201-.983-2.525-2.149l-4.163-15.013c-.413-1.489.809-2.923 2.344-2.753l23.681 2.615zm-569.766 49.534l2.188 10.56 3.288.144-5.476-10.704zm419.145-27.165c.014-.765.796-1.276 1.503-.979l7.126 2.994c.553.233.909.778.898 1.377l-.149 8.589 8.59.149c.6.01 1.132.385 1.346.946l2.745 7.224c.272.716-.264 1.48-1.031 1.467l-11.817-.205-.205 11.814c-.013.766-.796 1.277-1.503.98l-7.126-2.995c-.553-.232-.909-.778-.898-1.377l.15-8.588-8.59-.15c-.6-.01-1.133-.384-1.346-.945l-2.746-7.224c-.272-.716.265-1.481 1.031-1.468l11.817.206zm-68.651-64.615c-.313-2.144 1.639-3.927 3.747-3.421l21.26 5.1c1.65.396 2.893 1.756 3.137 3.435l3.512 24.041 24.047-3.511c1.678-.245 3.337.556 4.188 2.024l10.969 18.91c1.087 1.875-.063 4.255-2.208 4.569l-33.079 4.829 4.83 33.071c.314 2.145-1.638 3.927-3.746 3.421l-21.261-5.1c-1.65-.396-2.892-1.755-3.137-3.434l-3.511-24.042-24.047 3.51c-1.68.246-3.337-.555-4.188-2.022l-10.969-18.911c-1.088-1.875.063-4.255 2.208-4.568l33.078-4.829zm-60.06 48.559c.038-.857.93-1.405 1.711-1.052l7.886 3.563c.612.276.994.898.964 1.568l-.422 9.607 9.61.422c.67.03 1.255.465 1.477 1.098l2.857 8.167c.284.81-.34 1.649-1.197 1.611l-13.218-.58-.582 13.215c-.037.857-.929 1.405-1.71 1.051l-7.887-3.563c-.61-.276-.993-.897-.963-1.567l.422-9.608-9.61-.422c-.67-.03-1.255-.464-1.477-1.098l-2.858-8.166c-.283-.81.34-1.65 1.198-1.612l13.218.581zm-292.419 34.629l-9.723.899 7.348 1.309c.968.172 1.833.635 2.5 1.297.183-1.168.956-2.205 2.083-2.683l-.356-.063c-.679-.12-1.307-.384-1.852-.76zm25.696-21.91l4.146 20.007 11.385-1.054-.963-10.386-9.775-1.037c-1.593-.17-2.934-1.251-3.442-2.758l-.062-.199-1.289-4.573zm55.184 12.88l-.258 2.425 12.341-1.143-12.083-1.282zm25.769-27.45l-.146 3.304 1.018.109c1.594.17 2.935 1.252 3.443 2.757l.061.2 4.131 14.656 9.297.41.564-12.843-5.69-2.274c-1.727-.69-2.882-2.326-2.968-4.17l-.005-.223-.001-1.5-9.704-.427zm53.141-1.32c.008-.487.506-.812.955-.623l4.528 1.903c.351.147.577.493.57.875l-.094 5.457 5.458.095c.382.007.72.244.855.6l1.744 4.59c.173.456-.168.942-.655.934l-7.508-.131-.13 7.507c-.009.487-.507.81-.956.622l-4.528-1.902c-.35-.148-.577-.495-.57-.876l.094-5.457-5.458-.095c-.38-.006-.72-.244-.855-.6l-1.744-4.59c-.173-.455.168-.941.655-.933l7.509.13zm308.812-92.42c-.134-2.468 2.267-4.292 4.609-3.5l23.627 7.985c1.833.62 3.104 2.292 3.21 4.224l1.51 27.672 27.68-1.51c1.93-.105 3.732.976 4.548 2.73l10.51 22.612c1.042 2.242-.51 4.827-2.978 4.962l-38.074 2.078 2.078 38.065c.134 2.469-2.267 4.293-4.609 3.501l-23.627-7.985c-1.832-.62-3.104-2.292-3.209-4.223l-1.51-27.674-27.68 1.51c-1.932.107-3.733-.975-4.548-2.729l-10.511-22.612c-1.042-2.242.51-4.827 2.978-4.961l38.075-2.078zM927.65 504.94c.012-.679.705-1.13 1.33-.867l6.312 2.652c.49.205.805.688.795 1.22l-.131 7.605 7.607.132c.53.01 1.002.34 1.191.837l2.432 6.398c.24.634-.235 1.312-.914 1.3l-10.465-.183-.181 10.463c-.012.679-.705 1.13-1.331.868l-6.311-2.652c-.49-.206-.805-.689-.795-1.22l.132-7.606-7.608-.131c-.53-.01-1.003-.341-1.19-.838l-2.433-6.398c-.24-.634.235-1.311.914-1.3l10.465.182zM263.35 524.826l-.277 2.604.492.052.116-2.64-.331-.016zm179-91.916c0-2.068 2.089-3.482 4.01-2.714l19.374 7.747c1.503.602 2.489 2.057 2.489 3.676v23.188h23.192c1.62 0 3.075.986 3.677 2.488l7.75 19.37c.767 1.92-.647 4.01-2.716 4.01h-31.903v31.896c0 2.069-2.09 3.483-4.01 2.715l-19.374-7.748c-1.504-.602-2.49-2.057-2.49-3.676v-23.187h-23.192c-1.62 0-3.075-.986-3.676-2.489l-7.75-19.37c-.768-1.92.647-4.01 2.715-4.01h31.904zM225.43 518.198l-7.146 1.48 6.775 2.008.371-3.488zm986.006-23.685c.01-.486.507-.81.955-.622l4.528 1.903c.351.147.577.494.57.875l-.094 5.457 5.458.095c.382.006.72.245.855.6l1.745 4.591c.172.455-.169.941-.656.933l-7.508-.13-.13 7.506c-.009.487-.506.811-.956.623l-4.528-1.903c-.35-.148-.577-.494-.57-.875l.095-5.458-5.459-.094c-.38-.007-.72-.245-.855-.6l-1.744-4.592c-.173-.455.168-.94.655-.932l7.509.13zm-142.149-29.467c.02-1.122 1.167-1.87 2.203-1.435l10.445 4.39c.811.34 1.333 1.14 1.317 2.018l-.218 12.59 12.592.218c.878.016 1.66.565 1.972 1.386l4.025 10.59c.399 1.05-.389 2.17-1.513 2.151l-17.321-.301-.301 17.318c-.02 1.123-1.167 1.87-2.203 1.437l-10.446-4.39c-.81-.34-1.332-1.14-1.317-2.02l.22-12.589-12.593-.219c-.879-.015-1.66-.564-1.972-1.385l-4.025-10.59c-.399-1.05.389-2.17 1.512-2.152l17.322.301zm-785.183 34.48l-18.069-.001-.024.225c.106.006.213.026.32.062l.112.045 7.885 3.562c.612.277.994.898.964 1.568l-.422 9.607 9.233.406v-15.474zm513.02-31.81c.228-.939 1.333-1.351 2.12-.79l7.948 5.657c.616.438.903 1.208.725 1.943l-2.559 10.534 10.536 2.558c.736.179 1.288.787 1.395 1.536l1.384 9.654c.137.957-.736 1.75-1.676 1.522l-14.493-3.518-3.52 14.49c-.228.939-1.333 1.351-2.121.79l-7.946-5.657c-.617-.438-.904-1.208-.726-1.944l2.559-10.533-10.536-2.558c-.735-.179-1.288-.787-1.395-1.536l-1.384-9.654c-.136-.957.736-1.75 1.676-1.522l14.493 3.518zm-702.386 6.761l5.546 3.105c1.689.946 2.631 2.823 2.38 4.741l-3.592 27.48 12.059 1.576-5.546-3.105c-1.623-.908-2.557-2.68-2.403-4.52l.023-.22 3.592-27.481-12.059-1.576zm128.942 16.152l1.314 14.175 1.601 2.419 1.711-16.103-4.626-.491zm-86.22-10.57l-2.482 18.984 6.401 1.897c1.307.388 2.355 1.308 2.923 2.491l7.247-1.501.863-3.55-9.346-2.269c-.653-.158-1.144-.698-1.238-1.363l-1.227-8.564c-.122-.85.652-1.553 1.486-1.35l8.813 2.139-1.098-5.301-12.342-1.613zm53.615-6.162l-11.091 1.027 4.196 20.246 8.698-1.802-1.803-19.47zm677.755-4.02c.009-.486.506-.81.955-.622l4.528 1.903c.352.148.578.494.57.875l-.094 5.457 5.458.095c.381.007.72.245.855.6l1.745 4.591c.173.456-.169.941-.656.933l-7.508-.13-.13 7.506c-.009.487-.507.812-.956.622l-4.528-1.902c-.351-.148-.577-.494-.57-.875l.094-5.457-5.458-.095c-.38-.007-.719-.245-.855-.601l-1.744-4.59c-.173-.455.168-.941.655-.933l7.508.13zm74.7-68.165c-.257-1.822 1.409-3.328 3.197-2.89l18.034 4.426c1.4.344 2.448 1.504 2.65 2.93l2.876 20.434 20.437-2.875c1.427-.201 2.832.486 3.548 1.737l9.232 16.108c.915 1.597-.072 3.614-1.895 3.87l-28.114 3.955 3.956 28.108c.257 1.824-1.409 3.328-3.197 2.89l-18.034-4.426c-1.4-.343-2.448-1.504-2.649-2.93l-2.876-20.434-20.438 2.876c-1.427.2-2.831-.487-3.548-1.737l-9.232-16.109c-.915-1.597.072-3.613 1.895-3.87l28.114-3.955zM270.555 456.98l-1.235 11.628h14.785l-.001-4.394-13.549-7.234zm281.058-79.331c.376-1.802 2.453-2.655 3.987-1.637l15.47 10.269c1.2.796 1.794 2.244 1.5 3.653l-4.213 20.2 20.205 4.213c1.41.295 2.5 1.417 2.75 2.835l3.232 18.283c.32 1.813-1.291 3.375-3.093 3l-27.794-5.795-5.795 27.788c-.376 1.802-2.453 2.654-3.987 1.636l-15.47-10.269c-1.2-.797-1.794-2.243-1.5-3.654l4.213-20.2-20.205-4.212c-1.41-.294-2.5-1.417-2.75-2.835l-3.232-18.283c-.32-1.812 1.291-3.375 3.093-3l27.794 5.796zm182.473 56.547c.009-.486.506-.81.955-.622l4.528 1.903c.351.147.577.494.57.875l-.095 5.457 5.46.094c.38.008.718.246.854.601l1.745 4.591c.173.455-.169.94-.656.932l-7.508-.13-.13 7.507c-.01.487-.507.81-.956.622l-4.528-1.903c-.351-.147-.577-.494-.57-.875l.094-5.457-5.458-.095c-.38-.006-.72-.244-.855-.6l-1.745-4.591c-.172-.454.17-.94.656-.932l7.508.13zm114.896-22.895c.015-.858.891-1.428 1.682-1.096l7.978 3.352c.62.26 1.017.871 1.005 1.542l-.166 9.615 9.617.167c.67.011 1.267.43 1.506 1.058l3.073 8.088c.306.802-.297 1.658-1.154 1.643l-13.229-.23-.23 13.226c-.015.858-.891 1.429-1.682 1.096l-7.978-3.352c-.62-.26-1.017-.87-1.005-1.541l.167-9.616-9.617-.167c-.672-.011-1.268-.43-1.507-1.058l-3.073-8.088c-.305-.801.297-1.657 1.155-1.642l13.228.23zM106.64 444.617l-.01.234 4.175.546.077-.594-4.242-.186zm78.651-33.16l-9.966 2.065c-.299 2.203-2.618 3.619-4.76 2.762l-.844-.337c-.207-.003-.418-.048-.624-.14l-1.51-.683-4.291.889 5.297 1.286c.606.147 1.072.623 1.212 1.222l.026.14 1.228 8.565c.121.849-.654 1.552-1.488 1.35l-9.324-2.264 3.942 19.025 6.689-.619.51-11.597c.036-.816.846-1.352 1.6-1.096l.112.044 7.885 3.563c.612.276.994.898.964 1.568l-.287 6.519 6.562-.607-2.933-31.655zm-102.88-.06l-3.893 29.781 6.087.796-2.63-7.514c-.27-.771.284-1.57 1.078-1.611l.12-.001 13.218.58.251-5.732c-.239-.232-.455-.493-.644-.778l-9.965-15.048-3.622-.472zm137.366-13.206l-22.623 4.686.715 1.081.076.119 15.147 4.489c1.855.55 3.19 2.172 3.368 4.099l2.556 27.596 26.705-2.473.507-4.759c.035-.333.122-.644.25-.928l-17.273-3.075c-1.905-.34-3.411-1.803-3.804-3.698l-5.624-27.137zm38.07 32.162c-.15 1.343-1.08 2.47-2.324 2.906l11.803 6.238.884-8zm-144.555-3.982l-5.905 1.224-.276 6.305 5.167.226 1.014-7.755zm269.078-10.232l-.79 5.932 10.476 1.395v-3.395l-9.039-3.614c-.226-.09-.442-.197-.647-.318zm729.335-26.59c.013-.678.705-1.13 1.331-.866l6.31 2.651c.491.206.806.689.796 1.22l-.131 7.606 7.607.132c.53.01 1.003.34 1.191.837l2.432 6.398c.24.635-.235 1.312-.914 1.3l-10.465-.182-.181 10.462c-.012.678-.705 1.13-1.331.868l-6.31-2.652c-.49-.206-.805-.69-.796-1.22l.132-7.606-7.608-.132c-.53-.01-1.003-.341-1.19-.837l-2.432-6.397c-.241-.635.235-1.312.914-1.3l10.464.181zm-752.34 24.914l-17.835 1.653.057.628 17.17 2.288.608-4.569zm407.587-47.727c.02-1.123 1.167-1.871 2.203-1.437l10.445 4.39c.81.34 1.332 1.14 1.317 2.019l-.218 12.59 12.592.218c.878.016 1.66.564 1.972 1.386l4.025 10.59c.399 1.05-.389 2.17-1.512 2.151l-17.322-.3-.301 17.318c-.02 1.122-1.167 1.87-2.203 1.435l-10.446-4.39c-.81-.34-1.331-1.139-1.316-2.018l.218-12.59-12.592-.218c-.879-.016-1.66-.565-1.972-1.386l-4.024-10.59c-.4-1.05.388-2.171 1.51-2.151l17.323.3zm-500.341 21.752l-15.982 3.312c.033.383-.121.747-.39.994l2.874 13.875 17.626 1.948.435-3.944-1.196-2.336-2.029-1.136c-1.623-.908-2.557-2.679-2.403-4.52l.023-.22 1.042-7.973zm323.06-89.191c-.346-2.448 1.888-4.472 4.29-3.886l24.228 5.918c1.88.46 3.29 2.016 3.562 3.93l3.893 27.44 27.445-3.891c1.915-.272 3.804.65 4.767 2.327l12.423 21.621c1.232 2.144-.091 4.853-2.54 5.2l-37.752 5.354 5.355 37.745c.348 2.448-1.888 4.472-4.29 3.885l-24.227-5.917c-1.88-.46-3.29-2.016-3.562-3.931l-3.893-27.44-27.445 3.892c-1.916.272-3.804-.65-4.768-2.328l-12.422-21.62c-1.232-2.144.09-4.853 2.54-5.2l37.752-5.354zm401.12 83.147c.009-.486.506-.81.955-.622l4.528 1.903c.351.147.578.493.57.875l-.094 5.457 5.458.095c.381.007.72.244.855.6l1.745 4.59c.173.456-.168.942-.656.933l-7.508-.13-.13 7.507c-.009.487-.506.81-.955.622l-4.528-1.902c-.352-.148-.578-.495-.571-.876l.095-5.457-5.459-.095c-.38-.006-.72-.244-.855-.6l-1.744-4.591c-.173-.454.168-.94.655-.932l7.508.13zm-112.587-35.99c.02-1.122 1.167-1.87 2.203-1.435l10.446 4.39c.81.34 1.331 1.14 1.316 2.018l-.218 12.59 12.592.219c.878.015 1.66.564 1.972 1.385l4.025 10.59c.4 1.05-.389 2.17-1.512 2.152l-17.322-.301-.301 17.317c-.02 1.124-1.167 1.871-2.203 1.437l-10.445-4.39c-.81-.34-1.332-1.14-1.317-2.019l.218-12.59-12.592-.218c-.879-.016-1.66-.565-1.972-1.386l-4.025-10.59c-.399-1.05.389-2.17 1.512-2.15l17.322.3zm-189.028 27.214c.009-.487.506-.81.955-.622l4.528 1.903c.352.147.578.494.57.874l-.094 5.458 5.458.094c.381.007.72.246.855.601l1.745 4.591c.173.455-.169.94-.656.932l-7.508-.13-.13 7.507c-.009.486-.507.81-.955.622l-4.529-1.903c-.351-.148-.577-.494-.57-.875l.095-5.457-5.459-.095c-.38-.007-.719-.244-.855-.6l-1.744-4.591c-.173-.455.168-.94.655-.932l7.508.13zm-568.63 13.457l.876 5.988.35-.072-1.226-5.916zm179.277-14.139l-2.109 16.138 10.172-.942-1.326-14.316-6.737-.88zm29.345-61.586h-22.65c.725.968 1.068 2.2.905 3.45l-3.593 27.48 27.487 3.592c1.918.25 3.49 1.643 3.97 3.517l6.184 24.156c.583 2.276-1.195 4.427-3.477 4.36l.684 7.376 12.397-1.147c-1.408-.385-2.586-1.409-3.145-2.807l-9.263-23.152c-.918-2.294.773-4.791 3.245-4.791h38.13v-8.83l-7.312.677c-1.852.172-3.626-.757-4.543-2.36l-.106-.196-7.99-15.615v22.413c0 2.41-2.377 4.078-4.624 3.306l-.168-.063-23.156-9.26c-1.797-.718-2.975-2.459-2.975-4.393V311.4zM90.23 364.507l-1.723.251-2.089 15.984 6.309.824-2.497-17.06zm89.483 10.409h-4.356v1.007c.25-.12.52-.212.808-.271l3.548-.736zm29.779-22.888l1.49 3.725-.769-3.712-.721-.013zm518.829-52.339c.019-1.122 1.167-1.87 2.202-1.435l10.446 4.39c.81.34 1.332 1.14 1.317 2.018l-.219 12.59 12.593.218c.878.016 1.66.565 1.972 1.386l4.024 10.59c.4 1.05-.388 2.17-1.512 2.151l-17.321-.301-.301 17.318c-.02 1.123-1.167 1.87-2.203 1.437l-10.446-4.39c-.81-.34-1.332-1.14-1.317-2.02l.22-12.589-12.593-.219c-.88-.015-1.66-.564-1.972-1.385l-4.025-10.59c-.399-1.05.388-2.17 1.511-2.152l17.323.301zm-226.635-60.61c0-2.472 2.497-4.162 4.792-3.244l23.157 9.26c1.796.72 2.975 2.458 2.975 4.393v27.714h27.719c1.934 0 3.675 1.178 4.393 2.974l9.263 23.151c.918 2.295-.773 4.792-3.245 4.792h-38.13v38.123c0 2.472-2.498 4.161-4.793 3.244l-23.157-9.26c-1.796-.719-2.974-2.458-2.974-4.393v-27.714h-27.72c-1.935 0-3.674-1.178-4.394-2.974l-9.262-23.151c-.918-2.296.773-4.792 3.245-4.792h38.131zm486.834 69.418c.015-.858.892-1.43 1.683-1.097l7.978 3.353c.619.26 1.017.87 1.005 1.541l-.168 9.615 9.618.167c.671.012 1.267.43 1.506 1.058l3.074 8.088c.304.802-.297 1.658-1.155 1.643l-13.228-.23-.23 13.226c-.016.858-.892 1.43-1.683 1.097l-7.977-3.353c-.62-.26-1.018-.87-1.006-1.541l.167-9.615-9.617-.167c-.671-.012-1.267-.43-1.506-1.059l-3.074-8.087c-.305-.802.297-1.658 1.154-1.643l13.23.23zm-779.478-45.933l-.13 7.506c-.009.487-.506.811-.956.622l-4.325-1.818v22.433h27.72c1.935 0 3.675 1.178 4.394 2.973l9.262 23.152c.918 2.295-.772 4.792-3.244 4.792h-38.131v21.808c.176.021.35.051.52.091l-.006-.015c-.264-.692.255-1.431.997-1.418l3.143.054-2.519-12.157c-.49-2.362 1.5-4.476 3.857-4.176l.177.027 24.555 4.37c1.63.29 2.97 1.407 3.567 2.91l35.245 4.606 1.243-9.521-18.031-9.53c-1.417-.75-2.26-2.252-2.172-3.839l.017-.207 2.53-23.814-10.779-1.144c-.569 1.709-2.428 2.803-4.312 2.244l-23.911-7.085c-1.856-.55-3.188-2.174-3.367-4.1l-1.733-18.702-3.61-.062zm1017.887 57.271c.009-.486.506-.81.955-.622l4.528 1.903c.351.147.578.493.57.875l-.094 5.457 5.458.094c.381.008.72.245.855.601l1.745 4.591c.173.455-.169.94-.656.932l-7.508-.13-.13 7.507c-.01.487-.507.81-.955.622l-4.529-1.903c-.351-.147-.577-.494-.57-.875l.095-5.457-5.459-.095c-.38-.006-.719-.244-.855-.6l-1.744-4.591c-.173-.454.168-.94.655-.932l7.508.13zM84.926 328.27l-12.374 1.146v10.664l.018.01 13.792-2.016-1.436-9.804zm59.507-5.51l-18.81 1.742.715 7.722 10.164-1.486c1.582-.232 3.147.48 4.014 1.808l.114.185 3.803 6.554v-16.525zm721.312-9.21c.009-.487.506-.812.955-.623l4.528 1.902c.351.148.577.494.57.876l-.095 5.457 5.46.095c.38.006.719.244.854.6l1.745 4.59c.173.456-.169.942-.656.933l-7.508-.13-.13 7.507c-.01.487-.507.81-.956.622l-4.528-1.903c-.351-.147-.577-.494-.57-.875l.095-5.457-5.459-.095c-.38-.007-.72-.244-.855-.6l-1.744-4.59c-.173-.456.168-.942.655-.933l7.508.13zm52.888-62.455c-.257-1.823 1.409-3.328 3.196-2.89l18.035 4.426c1.4.344 2.448 1.504 2.649 2.93l2.876 20.434 20.437-2.876c1.427-.2 2.832.487 3.548 1.738l9.233 16.108c.914 1.597-.072 3.613-1.895 3.87l-28.114 3.955 3.956 28.108c.256 1.823-1.41 3.328-3.197 2.89l-18.035-4.426c-1.398-.343-2.448-1.504-2.649-2.93l-2.876-20.434-20.437 2.876c-1.427.2-2.832-.487-3.548-1.737l-9.232-16.11c-.915-1.596.072-3.612 1.894-3.868l28.115-3.956zm129.032 54.253c.008-.486.506-.81.954-.622l4.528 1.903c.352.147.578.494.57.875l-.094 5.457 5.459.095c.38.006.719.245.855.6l1.744 4.59c.173.456-.168.942-.656.934l-7.508-.131-.13 7.507c-.008.487-.506.811-.955.622l-4.528-1.903c-.352-.147-.578-.493-.57-.875l.094-5.457-5.458-.095c-.38-.006-.72-.244-.855-.6l-1.745-4.59c-.173-.456.169-.942.656-.933l7.508.13zm-252.387-9.388c.012-.679.706-1.13 1.331-.867l6.311 2.651c.49.206.805.689.795 1.22l-.131 7.606 7.607.132c.53.01 1.003.34 1.191.837l2.432 6.398c.24.635-.235 1.312-.914 1.3l-10.464-.182-.182 10.462c-.012.679-.705 1.13-1.33.868l-6.311-2.652c-.49-.206-.805-.69-.796-1.22l.132-7.606-7.607-.132c-.53-.009-1.003-.34-1.192-.837l-2.432-6.397c-.24-.635.236-1.312.914-1.3l10.465.182zM655.37 225.28c.194-2.015 2.361-3.198 4.16-2.27l18.15 9.358c1.41.726 2.233 2.236 2.082 3.813l-2.167 22.59 22.594 2.165c1.578.151 2.904 1.248 3.349 2.768l5.74 19.594c.568 1.943-1.005 3.845-3.02 3.652l-31.08-2.98-2.98 31.074c-.193 2.015-2.361 3.198-4.16 2.27l-18.151-9.358c-1.408-.726-2.232-2.236-2.081-3.813l2.167-22.59-22.595-2.166c-1.577-.15-2.903-1.247-3.348-2.766l-5.74-19.595c-.569-1.943 1.004-3.846 3.02-3.652l31.08 2.98zM397.43 311.4h-37.338l-.001 4.003 20.449-1.893c.814-1.348 2.504-2.063 4.127-1.505l.168.062 2.122.848 10.523-.974-.05-.541zm-114.103-17.165l-.376 3.529c.112.048.222.102.33.163l12.336 6.906-3.883-9.706-8.407-.892zm-161.044-5.787l.488 5.269 8.878-.822c.612-.94 1.669-1.587 2.928-1.587l9.586-.001-21.88-2.859zm706.871-92.161l.178.01 23.446 1.92c1.818.15 3.363 1.39 3.9 3.134l7.694 24.983 24.989-7.693c1.744-.537 3.639.042 4.785 1.461l14.778 18.3c1.465 1.814.635 4.533-1.595 5.22l-34.372 10.582 10.585 34.366c.686 2.228-1.096 4.444-3.42 4.254l-23.445-1.921c-1.819-.15-3.364-1.39-3.9-3.134l-7.695-24.982-24.988 7.692c-1.744.537-3.64-.041-4.786-1.461l-14.777-18.3c-1.466-1.813-.635-4.533 1.594-5.219l34.372-10.583-10.584-34.365c-.687-2.229 1.095-4.445 3.419-4.254zm-435.882 89.84l2.364 5.907-.438-4.727-1.837-1.123-.09-.056zm-240.577-31.178l.977 10.544c.228 2.461-2.103 4.375-4.473 3.672l-1.363-.404 4.82 18.823c.362 1.417-.19 2.786-1.209 3.6.205.028.407.069.605.123h20.656v-35.479l-4.783-.21-.581 13.216c-.038.857-.93 1.405-1.712 1.052l-7.885-3.564c-.612-.276-.994-.897-.964-1.567l.422-9.607-4.51-.199zm254.736-69.133l-17.351 1.916 3.116 28.214c.202 1.829-1.508 3.284-3.282 2.792l-17.894-4.961c-1.388-.386-2.402-1.576-2.56-3.008l-.892-8.071H345.05v38.124c0 .93-.355 1.75-.919 2.362l12.986 5.193c1.796.719 2.975 2.458 2.975 4.392v27.715h27.719c1.259 0 2.435.498 3.3 1.34.01-.157.029-.313.055-.469l4.65-27.32-27.326-4.65c-1.907-.325-3.426-1.778-3.832-3.669l-5.247-24.376c-.52-2.418 1.566-4.596 4.003-4.18l37.59 6.395 6.397-37.582.03-.157zm-135.923 33.487c.194.244.366.51.512.794l8.448 16.511 6.055 3.2c1.417.75 2.26 2.252 2.172 3.839l-.017.207-.047.43 1.213.51c.51.215.853.696.895 1.24l.004.137-.149 8.59 8.59.148c.599.01 1.132.385 1.345.946l2.746 7.224c.272.716-.265 1.48-1.031 1.467l-11.817-.205-.066 3.774 19.606 2.083c1.593.17 2.935 1.25 3.442 2.757l.062.2 2.065 7.328h13.632l.001-31.229c-.243.621-.974.958-1.629.662l-7.886-3.564c-.611-.276-.993-.897-.963-1.567l.402-9.183-1.196-.478-8.393-.368c-.623-.028-1.172-.405-1.425-.966l-.053-.133-2.858-8.166c-.283-.81.34-1.65 1.198-1.612l7.76.341v-1.659l-11.673-.513-.581 13.215c-.038.858-.93 1.405-1.712 1.052l-7.885-3.563c-.612-.277-.994-.897-.965-1.568l.423-9.607-9.61-.422c-.586-.026-1.107-.362-1.377-.87zM309.15 244.5c.01-.487.507-.81.955-.623l4.528 1.903c.351.148.577.494.57.875l-.094 5.457 5.458.095c.382.007.72.245.855.6l1.745 4.591c.173.455-.169.94-.655.933l-7.509-.13-.13 7.506c-.009.487-.506.812-.956.622l-4.528-1.902c-.35-.148-.577-.494-.57-.875l.095-5.458-5.459-.095c-.38-.006-.72-.243-.855-.6l-1.744-4.59c-.173-.455.168-.941.655-.933l7.509.13zm-47.908 4.656l-16.394 1.519c-.421.836-1.209 1.416-2.099 1.599l1.009 10.892 15.818 1.68 1.666-15.69zm751.65-40.378c.02-1.123 1.167-1.87 2.203-1.436l10.446 4.39c.81.34 1.331 1.14 1.316 2.019l-.218 12.59 12.592.218c.878.015 1.66.565 1.972 1.386l4.025 10.59c.399 1.05-.389 2.17-1.512 2.15l-17.322-.3-.3 17.318c-.02 1.123-1.168 1.87-2.204 1.436l-10.446-4.39c-.81-.34-1.331-1.14-1.316-2.018l.219-12.59-12.593-.219c-.879-.015-1.66-.564-1.972-1.386l-4.024-10.59c-.4-1.05.388-2.17 1.51-2.15l17.323.3zM465.154 248.7l2.239 10.404 2.262-9.31-4.501-1.094zm-345.79-18.316l-.972.09-3.378 25.845 6.835.893-2.485-26.828zm83.726 24.158l-11.436 1.059 3.197 1.279c.023-.319.27-.595.604-.635l.095-.004 7.509.13.031-1.829zm930.912-28.258c.012-.68.705-1.13 1.331-.868l6.311 2.652c.49.206.805.688.795 1.22l-.132 7.605 7.607.133c.531.01 1.004.34 1.192.837l2.431 6.398c.241.634-.234 1.311-.913 1.3l-10.465-.183-.182 10.463c-.012.678-.704 1.13-1.33.868l-6.311-2.653c-.49-.205-.805-.689-.795-1.22l.131-7.605-7.607-.132c-.53-.01-1.003-.341-1.191-.838l-2.432-6.397c-.24-.634.235-1.312.914-1.3l10.465.182zm-922.173 27.45l-2.639.243-.042 2.5 2.94.05-.259-2.794zm527.673-68.772c.17-1.535 1.836-2.413 3.2-1.685l13.745 7.34c1.066.569 1.678 1.73 1.546 2.931l-1.902 17.212 17.215 1.902c1.202.133 2.201.983 2.524 2.149l4.164 15.013c.413 1.489-.809 2.923-2.344 2.754l-23.681-2.616-2.617 23.676c-.17 1.535-1.837 2.413-3.199 1.686l-13.746-7.34c-1.066-.57-1.679-1.73-1.545-2.932l1.901-17.212-17.215-1.902c-1.202-.132-2.201-.983-2.525-2.148l-4.163-15.014c-.413-1.488.809-2.922 2.344-2.753l23.681 2.616zm-558.358 11.631l-.537 2.212 10.306 20.142c1.098 2.145-.256 4.71-2.607 5.048l-.182.022-37.968 3.515 1.54 16.635 5.98.263.581-13.215c.038-.857.93-1.405 1.712-1.051l7.885 3.562c.612.276.994.897.964 1.569l-.422 9.606 6.817.299-6.992-13.666c-1.098-2.146.255-4.71 2.605-5.049l.183-.021 37.969-3.516-.963-10.386-9.775-1.038c-1.593-.17-2.934-1.252-3.442-2.757l-.062-.2-2.625-9.312-10.967-2.662zm407.737 10.739c.014-.766.796-1.277 1.503-.98l7.126 2.995c.553.232.909.777.898 1.377l-.149 8.588 8.59.15c.6.01 1.132.384 1.346.946l2.745 7.223c.272.716-.264 1.481-1.031 1.467l-11.817-.204-.205 11.814c-.013.766-.796 1.276-1.503.979l-7.126-2.994c-.553-.233-.909-.778-.898-1.378l.15-8.588-8.59-.15c-.6-.01-1.133-.384-1.346-.944l-2.746-7.225c-.272-.716.265-1.48 1.031-1.467l11.817.205zm-259.233 32.491l-.036.827c.133-.237.293-.455.474-.652l-.438-.175zm190.582-97.106c-.313-2.144 1.639-3.927 3.747-3.422l21.26 5.101c1.65.396 2.893 1.756 3.137 3.434l3.512 24.042 24.047-3.512c1.678-.245 3.337.557 4.188 2.024l10.969 18.911c1.087 1.874-.063 4.254-2.208 4.568l-33.079 4.83 4.83 33.07c.314 2.145-1.638 3.927-3.746 3.422l-21.261-5.101c-1.65-.396-2.892-1.755-3.137-3.433l-3.511-24.042-24.047 3.51c-1.68.245-3.337-.556-4.188-2.023l-10.969-18.91c-1.088-1.876.063-4.255 2.208-4.568l33.078-4.83zm-60.06 48.558c.038-.857.93-1.404 1.711-1.051l7.886 3.562c.612.277.994.898.964 1.569l-.422 9.606 9.61.422c.67.03 1.255.465 1.477 1.099l2.857 8.166c.284.81-.34 1.65-1.197 1.612l-13.218-.581-.582 13.215c-.037.857-.929 1.405-1.71 1.052l-7.887-3.564c-.61-.276-.993-.897-.963-1.567l.422-9.607-9.61-.422c-.67-.03-1.255-.465-1.477-1.099l-2.858-8.166c-.283-.81.34-1.649 1.198-1.612l13.218.581zm-211.539 25.6l-.258 2.424 12.338-1.142-12.08-1.283zm656.326-30.922c.012-.678.705-1.13 1.33-.867l6.312 2.652c.49.206.804.689.795 1.22l-.132 7.605 7.607.133c.531.009 1.003.34 1.192.837l2.431 6.397c.241.635-.235 1.312-.913 1.3l-10.465-.182-.181 10.462c-.012.68-.706 1.13-1.331.868l-6.311-2.651c-.49-.206-.805-.69-.795-1.22l.131-7.606-7.607-.132c-.53-.01-1.003-.341-1.191-.837l-2.432-6.398c-.24-.635.235-1.312.914-1.3l10.464.182zm-600.489 16.745h-1.165l-.38 8.633 9.61.422c.67.03 1.256.465 1.477 1.098l.116.33.001-9.078c-.896.986-2.335 1.44-3.724.964l-.168-.063-5.767-2.306zM274.4 189.423l-.146 3.305 1.018.108c1.594.17 2.935 1.252 3.443 2.758l.061.199 4.131 14.657 9.297.41.358-8.163h-6.156c-1.86 0-3.54-1.088-4.306-2.77l-.088-.204-4.059-10.145-3.553-.155zm363.919-99.276c-.135-2.468 2.266-4.292 4.609-3.501l23.627 7.985c1.832.62 3.104 2.292 3.208 4.224l1.512 27.673 27.678-1.511c1.932-.105 3.734.976 4.55 2.73l10.51 22.613c1.042 2.241-.51 4.826-2.979 4.961L672.96 157.4l2.078 38.066c.135 2.468-2.266 4.292-4.608 3.5l-23.627-7.984c-1.833-.62-3.104-2.292-3.209-4.224l-1.511-27.673-27.678 1.51c-1.933.106-3.734-.975-4.55-2.73l-10.51-22.612c-1.042-2.242.51-4.827 2.978-4.961l38.074-2.078zm-386.366 95.455l-.5 4.705 12.111 1.286.116-2.641-9.609-.423c-.67-.03-1.255-.465-1.477-1.098l-.641-1.829zM442.349 97.02c0-2.068 2.089-3.482 4.01-2.714l19.374 7.748c1.503.601 2.489 2.056 2.489 3.675v23.188h23.192c1.62 0 3.075.985 3.677 2.488l7.75 19.37c.767 1.92-.647 4.01-2.716 4.01h-31.903v31.897c0 2.068-2.09 3.482-4.01 2.714l-19.374-7.748c-1.504-.601-2.49-2.057-2.49-3.676v-23.187h-23.192c-1.62 0-3.075-.986-3.676-2.488l-7.75-19.37c-.768-1.921.647-4.01 2.715-4.01h31.904zm-212.835 37.428l-7.647.708 3.517 37.96c.228 2.462-2.103 4.376-4.473 3.673L197 169.703c-1.467-.434-2.607-1.539-3.108-2.934l-15.723 3.257.084.054 7.05 5.018c.547.389.801 1.072.643 1.724l-2.27 9.345 5.128 1.245c-.263-1.899 1.332-3.616 3.313-3.405l13.384 1.42-.04-.44c-.222-2.402 1.99-4.282 4.3-3.72l.173.047 15.126 4.482 3.301-31.069c.22-2.064 2.4-3.28 4.256-2.428l.159.078.51.27-3.772-18.199zm796.201.592c.02-1.123 1.167-1.87 2.203-1.437l10.445 4.39c.811.34 1.332 1.14 1.317 2.02l-.218 12.589 12.592.219c.878.015 1.66.564 1.972 1.385l4.025 10.59c.399 1.05-.389 2.17-1.512 2.152l-17.322-.301-.301 17.318c-.02 1.122-1.167 1.87-2.203 1.435l-10.446-4.39c-.81-.34-1.331-1.139-1.316-2.018l.218-12.59-12.592-.218c-.879-.016-1.66-.565-1.972-1.386l-4.025-10.59c-.398-1.05.389-2.17 1.512-2.151l17.322.301zm-849.15 35.318l-5.52 1.145 2.37 11.443 2.957-12.165c.038-.16.105-.301.193-.423zm958.563-11.734c.01-.487.507-.81.956-.623l4.527 1.904c.352.147.578.493.571.874l-.095 5.457 5.459.095c.381.007.72.245.855.601l1.744 4.59c.173.456-.168.941-.655.933l-7.508-.13-.13 7.506c-.01.487-.507.812-.956.622l-4.528-1.902c-.351-.148-.577-.494-.57-.875l.094-5.457-5.458-.095c-.38-.007-.72-.244-.855-.6l-1.745-4.591c-.172-.455.168-.941.656-.932l7.508.13zm-882.394 4.474c.907.862 1.386 2.11 1.25 3.395l-1.195 11.241 11.362.5.581-13.215c.011-.249.094-.472.225-.654-.695.437-1.554.634-2.458.473zm-152.886 4.889l-.775 5.927 5.145.672-4.37-6.599zm184.257-4.35h-18.311c-.09.108-.187.21-.289.306.288-.115.622-.12.939.024l7.885 3.563c.612.276.994.897.964 1.568l-.122 2.779c.262-.063.538-.096.824-.096l8.109-.001v-8.144zm567.155-14.028c.009-.487.506-.811.955-.623l4.528 1.903c.351.148.577.494.57.875l-.094 5.457 5.458.095c.381.007.72.245.855.6l1.744 4.591c.173.455-.168.94-.655.932l-7.508-.13-.131 7.507c-.008.487-.506.81-.955.622l-4.528-1.902c-.35-.148-.577-.495-.57-.876l.094-5.457-5.458-.095c-.38-.006-.72-.244-.855-.6l-1.744-4.59c-.173-.455.168-.941.655-.933l7.509.13zm34.749-61.332c-.256-1.822 1.409-3.327 3.197-2.889l18.034 4.426c1.4.343 2.449 1.503 2.65 2.93l2.875 20.434 20.438-2.876c1.427-.2 2.832.487 3.548 1.737l9.232 16.109c.915 1.596-.072 3.613-1.895 3.869l-28.114 3.956 3.957 28.108c.256 1.823-1.41 3.327-3.198 2.89l-18.034-4.426c-1.399-.344-2.448-1.505-2.65-2.93l-2.875-20.434-20.438 2.875c-1.426.2-2.832-.487-3.548-1.736l-9.232-16.11c-.915-1.596.072-3.612 1.895-3.869l28.114-3.955zM801.39 123.22c.202-.833 1.183-1.198 1.882-.7l7.049 5.017c.547.39.802 1.073.643 1.725l-2.27 9.344 9.347 2.27c.652.158 1.143.698 1.238 1.362l1.227 8.565c.121.848-.653 1.552-1.486 1.35l-12.858-3.121-3.121 12.854c-.203.834-1.183 1.199-1.882.701l-7.05-5.018c-.547-.39-.802-1.072-.643-1.724l2.27-9.345-9.347-2.27c-.653-.158-1.143-.698-1.238-1.362l-1.227-8.565c-.122-.849.653-1.552 1.487-1.35l12.857 3.122zm425.185 2.977c.012-.678.705-1.13 1.33-.867l6.311 2.652c.49.206.805.689.796 1.22l-.132 7.605 7.607.133c.531.009 1.003.34 1.192.837l2.431 6.398c.24.634-.235 1.311-.913 1.299l-10.465-.182-.182 10.462c-.012.68-.705 1.131-1.33.868l-6.311-2.651c-.49-.206-.805-.69-.795-1.22l.131-7.606-7.607-.132c-.53-.01-1.003-.341-1.191-.837l-2.432-6.398c-.24-.634.235-1.312.913-1.3l10.465.182zM94.739 138.588l5.546 3.105c1.689.945 2.631 2.823 2.38 4.74l-1.029 7.873 3.406-.705 1.756-13.438-12.059-1.575zM270.33 120.97l-9.558 1.98 1.853 3.62c1.023 1.998-.082 4.361-2.137 4.949l.248 1.2h23.369l-.001-4.394-13.774-7.355zm463.756-10.384c.009-.487.506-.811.955-.623l4.528 1.903c.351.148.577.494.57.875l-.095 5.457 5.46.095c.38.007.718.245.854.6l1.745 4.591c.173.456-.169.941-.656.933l-7.508-.13-.13 7.506c-.01.487-.507.812-.956.622l-4.528-1.902c-.351-.148-.577-.495-.57-.875l.094-5.457-5.458-.095c-.38-.007-.72-.245-.855-.601l-1.745-4.59c-.172-.455.17-.941.656-.933l7.508.13zm-344.508 0c.009-.487.506-.811.955-.623l4.528 1.903c.351.148.577.494.57.875l-.094 5.457 5.458.095c.382.007.72.245.855.6l1.745 4.591c.172.456-.168.941-.656.933l-7.508-.13-.13 7.506c-.009.487-.506.812-.956.622l-4.527-1.902c-.352-.148-.578-.495-.571-.875l.095-5.457-5.458-.095c-.381-.007-.72-.245-.855-.601l-1.745-4.59c-.173-.455.168-.941.655-.933l7.509.13zm162.035-68.827c.376-1.801 2.453-2.654 3.987-1.636l15.47 10.268c1.2.797 1.794 2.244 1.5 3.654l-4.213 20.2 20.205 4.213c1.41.294 2.5 1.416 2.75 2.835l3.232 18.283c.32 1.812-1.291 3.375-3.093 2.999l-27.794-5.794-5.795 27.787c-.376 1.802-2.453 2.654-3.987 1.637l-15.47-10.27c-1.2-.796-1.794-2.243-1.5-3.653l4.213-20.2-20.205-4.212c-1.41-.295-2.5-1.418-2.75-2.836l-3.232-18.282c-.32-1.813 1.291-3.376 3.093-3l27.794 5.794zm-187.187-2.814c.243-1.824 2.253-2.826 3.856-1.923l16.18 9.11c1.256.708 1.954 2.107 1.763 3.535l-2.724 20.455 20.458 2.724c1.429.19 2.597 1.23 2.95 2.627l4.56 17.997c.452 1.784-1.04 3.461-2.866 3.217L380.46 92.94l-3.75 28.137c-.242 1.823-2.252 2.825-3.855 1.923l-16.18-9.111c-1.255-.707-1.953-2.107-1.763-3.534l2.725-20.454-20.46-2.725c-1.427-.19-2.596-1.23-2.949-2.627l-4.56-17.997c-.452-1.785 1.041-3.46 2.866-3.218l28.143 3.748zM186.238 85.778c-.403 1.05-1.474 1.796-2.718 1.658l-13.23-1.462.769 5.362c.115.809-.582 1.485-1.369 1.373l-.119-.023-12.856-3.121-3.122 12.855c-.06.247-.19.454-.36.609l-.758 6.854 2.4.427 1.898-.176c.19-.155.43-.254.695-.268h.121l1.418.061 11.871-1.099.51-11.597c.036-.816.846-1.352 1.6-1.096l.112.045 7.885 3.562c.612.277.994.898.964 1.568l-.287 6.52 1.944-.18c.327-.23.701-.406 1.115-.515l.184-.043 3.245-.672zm-79.598 22.95l-.01.233 4.175.546.078-.593-4.243-.186zm-24.229-33.22l-3.893 29.781 6.087.795-2.63-7.514c-.27-.771.284-1.569 1.078-1.611h.12l13.218.58.581-13.215c.038-.857.93-1.405 1.711-1.052l7.886 3.563c.612.277.994.898.964 1.568l-.422 9.607 5.167.227 2.406-18.405-2.784-.307c-.386-.043-.755-.148-1.095-.306l-28.394-3.71zm699.262-14.18c.015-.857.892-1.428 1.683-1.096l7.978 3.353c.619.26 1.017.87 1.005 1.541l-.167 9.615 9.617.167c.671.012 1.267.43 1.506 1.059l3.074 8.087c.305.802-.297 1.658-1.155 1.643l-13.228-.23-.23 13.226c-.015.858-.892 1.43-1.683 1.096l-7.977-3.352c-.62-.26-1.018-.87-1.006-1.541l.167-9.616-9.617-.166c-.671-.012-1.267-.431-1.506-1.058l-3.074-8.088c-.305-.802.297-1.658 1.155-1.643l13.229.23zm314.421 1.506c.012-.68.706-1.131 1.331-.868l6.311 2.652c.49.206.805.688.795 1.22l-.131 7.605 7.607.132c.53.01 1.003.341 1.191.838l2.432 6.398c.24.634-.235 1.311-.914 1.3l-10.464-.183-.182 10.463c-.012.678-.705 1.13-1.33.868l-6.312-2.653c-.49-.205-.804-.689-.795-1.22l.132-7.605-7.607-.132c-.531-.01-1.003-.342-1.192-.838l-2.432-6.397c-.24-.634.236-1.312.914-1.3l10.465.182zM451.938 32.14c.02-1.122 1.167-1.87 2.203-1.435l10.446 4.39c.81.34 1.331 1.139 1.316 2.018l-.219 12.59 12.593.218c.878.016 1.66.564 1.972 1.386l4.025 10.59c.399 1.05-.389 2.17-1.513 2.151l-17.321-.3-.301 17.317c-.02 1.123-1.167 1.871-2.203 1.437l-10.445-4.39c-.811-.34-1.333-1.14-1.318-2.019l.22-12.59-12.593-.218c-.88-.016-1.66-.564-1.972-1.386l-4.025-10.59c-.399-1.05.388-2.17 1.511-2.151l17.323.3zm399.347-2.395c.02-1.123 1.167-1.87 2.203-1.436l10.445 4.39c.81.34 1.332 1.14 1.317 2.018l-.219 12.59 12.593.219c.878.015 1.66.565 1.972 1.386l4.024 10.59c.4 1.05-.388 2.17-1.511 2.15l-17.322-.3-.301 17.318c-.02 1.123-1.168 1.87-2.203 1.436l-10.446-4.39c-.81-.34-1.331-1.14-1.316-2.018l.218-12.59-12.592-.219c-.88-.015-1.66-.564-1.972-1.386l-4.025-10.59c-.4-1.05.388-2.17 1.511-2.15l17.323.3zm-170.99 13.858c.009-.486.506-.81.955-.621l4.528 1.902c.352.147.578.494.57.876l-.094 5.457 5.458.094c.381.007.72.245.855.6l1.745 4.592c.173.455-.169.94-.656.932l-7.508-.13-.13 7.506c-.008.488-.507.811-.955.623l-4.529-1.903c-.351-.148-.577-.494-.57-.875l.095-5.457-5.459-.095c-.38-.007-.719-.245-.855-.6l-1.744-4.592c-.173-.454.168-.94.656-.931l7.508.13zM157.896 60.827l-.067.612.332.036.028-.635-.293-.013zm163.951-27.649c.008-.486.506-.81.955-.622l4.528 1.903c.351.147.577.494.57.875l-.094 5.457 5.458.095c.38.007.72.245.855.6l1.744 4.59c.173.456-.168.942-.655.934l-7.508-.131-.131 7.507c-.008.487-.506.811-.955.622l-4.528-1.902c-.35-.148-.577-.494-.57-.876l.094-5.457-5.458-.095c-.381-.006-.72-.244-.855-.6l-1.744-4.59c-.173-.456.168-.942.655-.933l7.509.13z"/>
    </defs>
    <g fill="none" fill-rule="evenodd">
        <mask id="prefix__b" fill="#fff">
            <use xlink:href="#prefix__a"/>
        </mask>
        <g mask="url(#prefix__b)">
            <g transform="translate(-108.72 -49.859)">
                <mask id="prefix__d" fill="#fff">
                    <use xlink:href="#prefix__c"/>
                </mask>
                <use fill="#D2004C" fill-opacity="0" xlink:href="#prefix__c"/>
                <g mask="url(#prefix__d)">
                    <path fill="#D2004C" d="M0 0H1252.76V752.5H0z"/>
                </g>
            </g>
        </g>
    </g>
</svg>
