<svg width="1366" height="216" viewBox="0 0 1366 216" fill="none" xmlns="http://www.w3.org/2000/svg">
<g opacity="0.2">
<mask id="mask0" mask-type="alpha" maskUnits="userSpaceOnUse" x="-97" y="0" width="1559" height="216">
<rect x="-97" width="1559" height="216" fill="url(#paint0_linear)"/>
</mask>
<g mask="url(#mask0)">
<path d="M347.761 127.112C347.761 125.604 346.538 124.382 345.03 124.382C343.522 124.382 342.3 125.604 342.3 127.112V132.573C342.3 134.081 343.522 135.303 345.03 135.303C346.538 135.303 347.761 134.081 347.761 132.573V127.112Z" fill="white"/>
<path d="M347.761 144.708C347.761 143.2 346.538 141.977 345.03 141.977C343.522 141.977 342.3 143.2 342.3 144.708V150.168C342.3 151.676 343.522 152.899 345.03 152.899C346.538 152.899 347.761 151.676 347.761 150.168V144.708Z" fill="white"/>
<path d="M348.367 138.64C348.367 137.132 349.59 135.91 351.098 135.91H356.559C358.067 135.91 359.289 137.132 359.289 138.64C359.289 140.148 358.067 141.371 356.559 141.371H351.098C349.59 141.371 348.367 140.148 348.367 138.64Z" fill="white"/>
<path d="M333.502 135.91C331.994 135.91 330.771 137.132 330.771 138.64C330.771 140.148 331.994 141.371 333.502 141.371H338.963C340.471 141.371 341.693 140.148 341.693 138.64C341.693 137.132 340.471 135.91 338.963 135.91H333.502Z" fill="white"/>
<path d="M222.056 15.8793C221.108 16.8271 221.108 18.3638 222.056 19.3116C223.004 20.2594 224.54 20.2594 225.488 19.3116L226.346 18.4535C227.294 17.5057 227.294 15.9691 226.346 15.0213C225.398 14.0735 223.862 14.0735 222.914 15.0213L222.056 15.8793Z" fill="white"/>
<path d="M390.841 77.6629C390.841 76.3226 391.928 75.236 393.268 75.236H395.695C397.036 75.236 398.123 76.3226 398.123 77.6629C398.123 79.0033 397.036 80.0899 395.695 80.0899H393.268C391.928 80.0899 390.841 79.0033 390.841 77.6629Z" fill="white"/>
<path d="M399.336 77.6629C399.336 76.3226 400.423 75.236 401.763 75.236H404.19C405.531 75.236 406.617 76.3226 406.617 77.6629C406.617 79.0033 405.531 80.0899 404.19 80.0899H401.763C400.423 80.0899 399.336 79.0033 399.336 77.6629Z" fill="white"/>
<path d="M410.258 75.236C408.917 75.236 407.831 76.3226 407.831 77.6629C407.831 79.0033 408.917 80.0899 410.258 80.0899H419.359C420.7 80.0899 421.786 79.0033 421.786 77.6629C421.786 76.3226 420.7 75.236 419.359 75.236H410.258Z" fill="white"/>
<path d="M390.841 199.011C390.841 197.671 391.928 196.584 393.268 196.584H395.695C397.036 196.584 398.123 197.671 398.123 199.011C398.123 200.352 397.036 201.438 395.695 201.438H393.268C391.928 201.438 390.841 200.352 390.841 199.011Z" fill="white"/>
<path d="M399.336 199.011C399.336 197.671 400.423 196.584 401.763 196.584H404.19C405.531 196.584 406.617 197.671 406.617 199.011C406.617 200.352 405.531 201.438 404.19 201.438H401.763C400.423 201.438 399.336 200.352 399.336 199.011Z" fill="white"/>
<path d="M410.258 196.584C408.917 196.584 407.831 197.671 407.831 199.011C407.831 200.352 408.917 201.438 410.258 201.438H419.359C420.7 201.438 421.786 200.352 421.786 199.011C421.786 197.671 420.7 196.584 419.359 196.584H410.258Z" fill="white"/>
<path fill-rule="evenodd" clip-rule="evenodd" d="M90.0535 5.07125C90.7757 4.33084 91.8542 4.06201 92.8394 4.37686L113.648 11.0268C114.706 11.3649 115.454 12.3099 115.539 13.4171C115.625 14.5243 115.032 15.573 114.038 16.0697L105.439 20.3689L101.553 28.5304C101.077 29.5305 100.043 30.1437 98.9373 30.0828C97.8313 30.0218 96.8717 29.2988 96.5083 28.2525L89.429 7.87353C89.0896 6.89654 89.3314 5.81166 90.0535 5.07125ZM96.3798 11.241L99.4833 20.175L100.913 17.1731C101.175 16.6235 101.612 16.1771 102.157 15.9048L105.595 14.1859L96.3798 11.241Z" fill="white"/>
<path d="M34.5645 148.756C33.6166 149.704 32.0799 149.704 31.1321 148.756C30.1842 147.808 30.1842 146.271 31.1321 145.323L31.9902 144.465C32.938 143.518 34.4747 143.518 35.4226 144.465C36.3704 145.413 36.3704 146.95 35.4226 147.898L34.5645 148.756Z" fill="white"/>
<path d="M40.1421 143.178C39.1943 144.126 37.6575 144.126 36.7097 143.178C35.7619 142.231 35.7619 140.694 36.7097 139.746L37.5678 138.888C38.5156 137.94 40.0524 137.94 41.0002 138.888C41.948 139.836 41.948 141.372 41.0002 142.32L40.1421 143.178Z" fill="white"/>
<path d="M42.2874 137.601C43.2352 138.549 44.7719 138.549 45.7198 137.601L46.5779 136.743C47.5257 135.795 47.5257 134.258 46.5779 133.311C45.63 132.363 44.0933 132.363 43.1455 133.311L42.2874 134.169C41.3395 135.116 41.3395 136.653 42.2874 137.601Z" fill="white"/>
<path d="M51.2974 132.024C50.3496 132.971 48.8128 132.971 47.865 132.024C46.9172 131.076 46.9172 129.539 47.865 128.591L48.7231 127.733C49.6709 126.785 51.2077 126.785 52.1555 127.733C53.1033 128.681 53.1033 130.218 52.1555 131.165L51.2974 132.024Z" fill="white"/>
<path d="M227.014 132.27C228.354 132.27 229.441 133.356 229.441 134.697C229.441 136.037 228.354 137.124 227.014 137.124H211.845C210.504 137.124 209.418 136.037 209.418 134.697C209.418 133.356 210.504 132.27 211.845 132.27H227.014Z" fill="white"/>
<path d="M236.116 140.157C237.456 140.157 238.543 141.244 238.543 142.584C238.543 143.925 237.456 145.011 236.116 145.011H216.699C215.359 145.011 214.272 143.925 214.272 142.584C214.272 141.244 215.359 140.157 216.699 140.157H236.116Z" fill="white"/>
<path fill-rule="evenodd" clip-rule="evenodd" d="M154.112 86.8539C154.162 86.8627 154.213 86.8715 154.265 86.8802C155.266 87.048 156.668 87.2049 158.261 87.1624C161.469 87.0769 165.234 86.1971 168.206 83.2256C171.197 80.2348 172.239 76.2734 172.478 72.8473C172.501 72.5145 172.517 72.1892 172.526 71.8733L164.689 79.7092C163.742 80.657 162.205 80.657 161.257 79.7092C160.309 78.7614 160.309 77.2247 161.257 76.2769L169.093 68.441C168.777 68.4499 168.452 68.4653 168.119 68.4885C164.693 68.7273 160.731 69.7698 157.74 72.7605C154.769 75.7321 153.889 79.4969 153.803 82.7046C153.761 84.2984 153.918 85.7004 154.086 86.7009C154.094 86.7531 154.103 86.8041 154.112 86.8539ZM174.529 66.4382L175.054 64.0689C175.975 64.2731 176.694 64.9919 176.898 65.9123L174.529 66.4382ZM174.529 66.4382C175.054 64.0689 175.053 64.0685 175.053 64.0685L175.051 64.068L175.046 64.0669L175.032 64.0641L174.994 64.0559C174.963 64.0493 174.921 64.0407 174.868 64.0303C174.763 64.0097 174.616 63.9821 174.432 63.9508C174.063 63.8883 173.541 63.8103 172.897 63.7418C171.613 63.6053 169.822 63.5041 167.782 63.6463C163.738 63.9281 158.448 65.1887 154.308 69.3283C150.149 73.4871 149.056 78.6439 148.951 82.5752C148.898 84.5509 149.092 86.2728 149.298 87.5037C149.402 88.1215 149.51 88.6219 149.594 88.9761C149.637 89.1534 149.673 89.2946 149.7 89.3962C149.714 89.447 149.726 89.4879 149.734 89.5186L149.745 89.5567L149.749 89.5699L149.75 89.575L149.751 89.5772C149.751 89.5772 149.752 89.5791 152.078 88.8876L149.752 89.5791C149.985 90.3653 150.6 90.9803 151.387 91.214L152.078 88.8876C151.387 91.214 151.389 91.2146 151.389 91.2146L151.391 91.2152L151.396 91.2167L151.409 91.2206L151.447 91.2315C151.478 91.2402 151.519 91.2516 151.57 91.2652C151.671 91.2926 151.812 91.3291 151.99 91.3713C152.344 91.4558 152.844 91.5637 153.462 91.6673C154.693 91.8738 156.415 92.0673 158.391 92.0146C162.322 91.9098 167.479 90.8166 171.638 86.6578C175.778 82.5182 177.039 77.2279 177.321 73.1848C177.463 71.1443 177.362 69.3537 177.225 68.07C177.157 67.4261 177.079 66.904 177.016 66.5351C176.985 66.3504 176.957 66.2037 176.937 66.0987C176.926 66.0462 176.918 66.0041 176.911 65.9729L176.903 65.9343L176.9 65.9212L176.899 65.9163L176.898 65.9142C176.898 65.9142 176.898 65.9123 174.529 66.4382Z" fill="white"/>
<g clip-path="url(#clip0)">
<path fill-rule="evenodd" clip-rule="evenodd" d="M89.8845 203.865C89.8845 202.525 90.9712 201.438 92.3116 201.438H93.5251C94.8656 201.438 95.9522 202.525 95.9522 203.865C95.9522 205.206 94.8656 206.292 93.5251 206.292H92.3116C90.9712 206.292 89.8845 205.206 89.8845 203.865Z" fill="white"/>
<path fill-rule="evenodd" clip-rule="evenodd" d="M97.7725 203.865C97.7725 202.525 98.8591 201.438 100.2 201.438H101.413C102.754 201.438 103.84 202.525 103.84 203.865C103.84 205.206 102.754 206.292 101.413 206.292H100.2C98.8591 206.292 97.7725 205.206 97.7725 203.865Z" fill="white"/>
<path fill-rule="evenodd" clip-rule="evenodd" d="M105.661 203.865C105.661 202.525 106.747 201.438 108.088 201.438H109.301C110.642 201.438 111.728 202.525 111.728 203.865C111.728 205.206 110.642 206.292 109.301 206.292H108.088C106.747 206.292 105.661 205.206 105.661 203.865Z" fill="white"/>
<path fill-rule="evenodd" clip-rule="evenodd" d="M113.548 203.865C113.548 202.525 114.635 201.438 115.976 201.438H117.189C118.53 201.438 119.616 202.525 119.616 203.865C119.616 205.206 118.53 206.292 117.189 206.292H115.976C114.635 206.292 113.548 205.206 113.548 203.865Z" fill="white"/>
<path fill-rule="evenodd" clip-rule="evenodd" d="M105.661 195.978C105.661 194.637 106.747 193.551 108.088 193.551H113.549C114.889 193.551 115.976 194.637 115.976 195.978C115.976 197.318 114.889 198.404 113.549 198.404H108.088C106.747 198.404 105.661 197.318 105.661 195.978Z" fill="white"/>
<path fill-rule="evenodd" clip-rule="evenodd" d="M86.2439 195.978C86.2439 194.637 87.3305 193.551 88.671 193.551H100.806C102.147 193.551 103.233 194.637 103.233 195.978C103.233 197.318 102.147 198.404 100.806 198.404H88.671C87.3305 198.404 86.2439 197.318 86.2439 195.978Z" fill="white"/>
</g>
<path d="M352.719 27.4075C353.667 28.3553 355.204 28.3553 356.151 27.4075C357.099 26.4597 357.099 24.923 356.151 23.9752L355.293 23.1172C354.345 22.1694 352.809 22.1694 351.861 23.1172C350.913 24.065 350.913 25.6016 351.861 26.5494L352.719 27.4075Z" fill="white"/>
<path d="M347.141 21.8301C348.089 22.7779 349.626 22.7779 350.574 21.8301C351.522 20.8823 351.522 19.3456 350.574 18.3978L349.716 17.5398C348.768 16.592 347.231 16.592 346.283 17.5398C345.335 18.4875 345.335 20.0242 346.283 20.972L347.141 21.8301Z" fill="white"/>
<path d="M344.996 16.2527C344.048 17.2005 342.512 17.2005 341.564 16.2527L340.706 15.3946C339.758 14.4468 339.758 12.9101 340.706 11.9624C341.653 11.0146 343.19 11.0146 344.138 11.9624L344.996 12.8204C345.944 13.7682 345.944 15.3049 344.996 16.2527Z" fill="white"/>
<path d="M335.986 10.6753C336.934 11.6231 338.471 11.6231 339.418 10.6753C340.366 9.72747 340.366 8.1908 339.418 7.24301L338.56 6.38495C337.613 5.43716 336.076 5.43716 335.128 6.38495C334.18 7.33274 334.18 8.86941 335.128 9.8172L335.986 10.6753Z" fill="white"/>
<path d="M282.733 76.5535C281.785 77.5013 281.785 79.0379 282.733 79.9857C283.68 80.9335 285.217 80.9335 286.165 79.9857L287.023 79.1277C287.971 78.1799 287.971 76.6432 287.023 75.6954C286.075 74.7476 284.538 74.7476 283.591 75.6954L282.733 76.5535Z" fill="white"/>
<path fill-rule="evenodd" clip-rule="evenodd" d="M224.284 189.303C218.754 189.303 214.272 193.786 214.272 199.315C214.272 204.844 218.754 209.326 224.284 209.326C225.683 209.326 227.01 209.04 228.213 208.526C229.446 207.999 230.872 208.572 231.399 209.804C231.925 211.037 231.353 212.463 230.12 212.99C228.325 213.756 226.351 214.18 224.284 214.18C216.073 214.18 209.418 207.524 209.418 199.315C209.418 191.105 216.073 184.449 224.284 184.449C232.494 184.449 239.149 191.105 239.149 199.315C239.149 201.424 238.708 203.437 237.911 205.262C237.375 206.49 235.944 207.05 234.716 206.514C233.487 205.977 232.927 204.546 233.463 203.318C233.998 202.095 234.295 200.743 234.295 199.315C234.295 193.786 229.813 189.303 224.284 189.303Z" fill="white"/>
<path d="M443.023 5.76403C443.023 4.2561 441.801 3.03369 440.293 3.03369C438.785 3.03369 437.562 4.2561 437.562 5.76403V11.2247C437.562 12.7326 438.785 13.955 440.293 13.955C441.801 13.955 443.023 12.7326 443.023 11.2247V5.76403Z" fill="white"/>
<path d="M443.023 23.3595C443.023 21.8516 441.801 20.6292 440.293 20.6292C438.785 20.6292 437.562 21.8516 437.562 23.3595V28.8202C437.562 30.3281 438.785 31.5505 440.293 31.5505C441.801 31.5505 443.023 30.3281 443.023 28.8202V23.3595Z" fill="white"/>
<path d="M443.63 17.2921C443.63 15.7842 444.853 14.5618 446.361 14.5618H451.821C453.329 14.5618 454.552 15.7842 454.552 17.2921C454.552 18.8 453.329 20.0225 451.821 20.0225H446.361C444.853 20.0225 443.63 18.8 443.63 17.2921Z" fill="white"/>
<path d="M428.764 14.5618C427.256 14.5618 426.034 15.7842 426.034 17.2921C426.034 18.8 427.256 20.0225 428.764 20.0225H434.225C435.733 20.0225 436.956 18.8 436.956 17.2921C436.956 15.7842 435.733 14.5618 434.225 14.5618H428.764Z" fill="white"/>
<path d="M867.761 127.112C867.761 125.604 866.538 124.382 865.03 124.382C863.522 124.382 862.3 125.604 862.3 127.112V132.573C862.3 134.081 863.522 135.303 865.03 135.303C866.538 135.303 867.761 134.081 867.761 132.573V127.112Z" fill="white"/>
<path d="M867.761 144.708C867.761 143.2 866.538 141.977 865.03 141.977C863.522 141.977 862.3 143.2 862.3 144.708V150.168C862.3 151.676 863.522 152.899 865.03 152.899C866.538 152.899 867.761 151.676 867.761 150.168V144.708Z" fill="white"/>
<path d="M868.368 138.64C868.368 137.132 869.59 135.91 871.098 135.91H876.559C878.067 135.91 879.289 137.132 879.289 138.64C879.289 140.148 878.067 141.371 876.559 141.371H871.098C869.59 141.371 868.368 140.148 868.368 138.64Z" fill="white"/>
<path d="M853.502 135.91C851.994 135.91 850.771 137.132 850.771 138.64C850.771 140.148 851.994 141.371 853.502 141.371H858.963C860.471 141.371 861.693 140.148 861.693 138.64C861.693 137.132 860.471 135.91 858.963 135.91H853.502Z" fill="white"/>
<path d="M484.89 138.337C484.89 136.997 485.977 135.91 487.317 135.91H489.745C491.085 135.91 492.172 136.997 492.172 138.337C492.172 139.677 491.085 140.764 489.745 140.764H487.317C485.977 140.764 484.89 139.677 484.89 138.337Z" fill="white"/>
<path d="M493.385 138.337C493.385 136.997 494.472 135.91 495.812 135.91H498.239C499.58 135.91 500.666 136.997 500.666 138.337C500.666 139.677 499.58 140.764 498.239 140.764H495.812C494.472 140.764 493.385 139.677 493.385 138.337Z" fill="white"/>
<path d="M504.307 135.91C502.966 135.91 501.88 136.997 501.88 138.337C501.88 139.677 502.966 140.764 504.307 140.764H513.408C514.749 140.764 515.835 139.677 515.835 138.337C515.835 136.997 514.749 135.91 513.408 135.91H504.307Z" fill="white"/>
<path fill-rule="evenodd" clip-rule="evenodd" d="M495.955 66.8876C496.879 65.9172 498.415 65.8801 499.386 66.8048L513.462 80.2163C516.633 83.2385 514.494 88.5843 510.113 88.5843H491.574C487.286 88.5843 485.104 83.43 488.09 80.3513L493.806 74.4565C494.739 73.4943 496.276 73.4706 497.238 74.4037C498.2 75.3368 498.224 76.8733 497.291 77.8356L491.574 83.7303L510.113 83.7303L496.037 70.3188C495.067 69.3942 495.03 67.858 495.955 66.8876Z" fill="white"/>
<path d="M438.672 197.902C437.724 198.85 437.724 200.386 438.672 201.334C439.62 202.282 441.156 202.282 442.104 201.334L442.962 200.476C443.91 199.528 443.91 197.992 442.962 197.044C442.015 196.096 440.478 196.096 439.53 197.044L438.672 197.902Z" fill="white"/>
<path d="M742.056 15.8793C741.108 16.8271 741.108 18.3638 742.056 19.3116C743.004 20.2594 744.54 20.2594 745.488 19.3116L746.346 18.4535C747.294 17.5057 747.294 15.9691 746.346 15.0213C745.398 14.0735 743.862 14.0735 742.914 15.0213L742.056 15.8793Z" fill="white"/>
<path d="M910.841 77.6629C910.841 76.3226 911.928 75.236 913.268 75.236H915.695C917.036 75.236 918.122 76.3226 918.122 77.6629C918.122 79.0033 917.036 80.0899 915.695 80.0899H913.268C911.928 80.0899 910.841 79.0033 910.841 77.6629Z" fill="white"/>
<path d="M919.336 77.6629C919.336 76.3226 920.423 75.236 921.763 75.236H924.19C925.531 75.236 926.617 76.3226 926.617 77.6629C926.617 79.0033 925.531 80.0899 924.19 80.0899H921.763C920.423 80.0899 919.336 79.0033 919.336 77.6629Z" fill="white"/>
<path d="M930.258 75.236C928.917 75.236 927.831 76.3226 927.831 77.6629C927.831 79.0033 928.917 80.0899 930.258 80.0899H939.359C940.7 80.0899 941.786 79.0033 941.786 77.6629C941.786 76.3226 940.7 75.236 939.359 75.236H930.258Z" fill="white"/>
<path d="M910.841 199.011C910.841 197.671 911.928 196.584 913.268 196.584H915.695C917.036 196.584 918.122 197.671 918.122 199.011C918.122 200.352 917.036 201.438 915.695 201.438H913.268C911.928 201.438 910.841 200.352 910.841 199.011Z" fill="white"/>
<path d="M919.336 199.011C919.336 197.671 920.423 196.584 921.763 196.584H924.19C925.531 196.584 926.617 197.671 926.617 199.011C926.617 200.352 925.531 201.438 924.19 201.438H921.763C920.423 201.438 919.336 200.352 919.336 199.011Z" fill="white"/>
<path d="M930.258 196.584C928.917 196.584 927.831 197.671 927.831 199.011C927.831 200.352 928.917 201.438 930.258 201.438H939.359C940.7 201.438 941.786 200.352 941.786 199.011C941.786 197.671 940.7 196.584 939.359 196.584H930.258Z" fill="white"/>
<path d="M554.564 148.756C553.617 149.704 552.08 149.704 551.132 148.756C550.184 147.808 550.184 146.271 551.132 145.323L551.99 144.465C552.938 143.518 554.475 143.518 555.423 144.465C556.37 145.413 556.37 146.95 555.423 147.898L554.564 148.756Z" fill="white"/>
<path d="M560.142 143.178C559.194 144.126 557.658 144.126 556.71 143.178C555.762 142.231 555.762 140.694 556.71 139.746L557.568 138.888C558.516 137.94 560.052 137.94 561 138.888C561.948 139.836 561.948 141.372 561 142.32L560.142 143.178Z" fill="white"/>
<path d="M562.287 137.601C563.235 138.549 564.772 138.549 565.72 137.601L566.578 136.743C567.526 135.795 567.526 134.258 566.578 133.311C565.63 132.363 564.093 132.363 563.145 133.311L562.287 134.169C561.34 135.116 561.34 136.653 562.287 137.601Z" fill="white"/>
<path d="M571.297 132.024C570.35 132.971 568.813 132.971 567.865 132.024C566.917 131.076 566.917 129.539 567.865 128.591L568.723 127.733C569.671 126.785 571.208 126.785 572.155 127.733C573.103 128.681 573.103 130.218 572.155 131.165L571.297 132.024Z" fill="white"/>
<path d="M747.014 132.27C748.354 132.27 749.441 133.356 749.441 134.697C749.441 136.037 748.354 137.124 747.014 137.124H731.845C730.504 137.124 729.418 136.037 729.418 134.697C729.418 133.356 730.504 132.27 731.845 132.27H747.014Z" fill="white"/>
<path d="M756.116 140.157C757.456 140.157 758.543 141.244 758.543 142.584C758.543 143.925 757.456 145.011 756.116 145.011H736.699C735.359 145.011 734.272 143.925 734.272 142.584C734.272 141.244 735.359 140.157 736.699 140.157H756.116Z" fill="white"/>
<g clip-path="url(#clip1)">
<path fill-rule="evenodd" clip-rule="evenodd" d="M609.885 203.865C609.885 202.525 610.971 201.438 612.312 201.438H613.525C614.866 201.438 615.952 202.525 615.952 203.865C615.952 205.206 614.866 206.292 613.525 206.292H612.312C610.971 206.292 609.885 205.206 609.885 203.865Z" fill="white"/>
<path fill-rule="evenodd" clip-rule="evenodd" d="M617.773 203.865C617.773 202.525 618.859 201.438 620.2 201.438H621.413C622.754 201.438 623.84 202.525 623.84 203.865C623.84 205.206 622.754 206.292 621.413 206.292H620.2C618.859 206.292 617.773 205.206 617.773 203.865Z" fill="white"/>
<path fill-rule="evenodd" clip-rule="evenodd" d="M625.661 203.865C625.661 202.525 626.747 201.438 628.088 201.438H629.301C630.642 201.438 631.728 202.525 631.728 203.865C631.728 205.206 630.642 206.292 629.301 206.292H628.088C626.747 206.292 625.661 205.206 625.661 203.865Z" fill="white"/>
<path fill-rule="evenodd" clip-rule="evenodd" d="M633.549 203.865C633.549 202.525 634.635 201.438 635.976 201.438H637.189C638.53 201.438 639.616 202.525 639.616 203.865C639.616 205.206 638.53 206.292 637.189 206.292H635.976C634.635 206.292 633.549 205.206 633.549 203.865Z" fill="white"/>
<path fill-rule="evenodd" clip-rule="evenodd" d="M625.661 195.978C625.661 194.637 626.747 193.551 628.088 193.551H633.548C634.889 193.551 635.976 194.637 635.976 195.978C635.976 197.318 634.889 198.404 633.548 198.404H628.088C626.747 198.404 625.661 197.318 625.661 195.978Z" fill="white"/>
<path fill-rule="evenodd" clip-rule="evenodd" d="M606.244 195.978C606.244 194.637 607.331 193.551 608.671 193.551H620.806C622.147 193.551 623.233 194.637 623.233 195.978C623.233 197.318 622.147 198.404 620.806 198.404H608.671C607.331 198.404 606.244 197.318 606.244 195.978Z" fill="white"/>
</g>
<path d="M872.719 27.4074C873.667 28.3552 875.204 28.3552 876.152 27.4074C877.099 26.4596 877.099 24.923 876.152 23.9752L875.293 23.1171C874.346 22.1693 872.809 22.1693 871.861 23.1171C870.913 24.0649 870.913 25.6016 871.861 26.5493L872.719 27.4074Z" fill="white"/>
<path d="M867.141 21.83C868.089 22.7778 869.626 22.7778 870.574 21.83C871.522 20.8822 871.522 19.3455 870.574 18.3978L869.716 17.5397C868.768 16.5919 867.231 16.5919 866.283 17.5397C865.336 18.4875 865.336 20.0242 866.283 20.9719L867.141 21.83Z" fill="white"/>
<path d="M864.996 16.2526C864.048 17.2004 862.512 17.2004 861.564 16.2526L860.706 15.3945C859.758 14.4468 859.758 12.9101 860.706 11.9623C861.654 11.0145 863.19 11.0145 864.138 11.9623L864.996 12.8204C865.944 13.7681 865.944 15.3048 864.996 16.2526Z" fill="white"/>
<path d="M855.986 10.6752C856.934 11.623 858.471 11.623 859.419 10.6752C860.366 9.72741 860.366 8.19074 859.419 7.24295L858.56 6.38489C857.613 5.4371 856.076 5.4371 855.128 6.38489C854.18 7.33268 854.18 8.86935 855.128 9.81714L855.986 10.6752Z" fill="white"/>
<path d="M802.733 76.5535C801.785 77.5013 801.785 79.0379 802.733 79.9857C803.68 80.9335 805.217 80.9335 806.165 79.9857L807.023 79.1277C807.971 78.1799 807.971 76.6432 807.023 75.6954C806.075 74.7476 804.538 74.7476 803.591 75.6954L802.733 76.5535Z" fill="white"/>
<path fill-rule="evenodd" clip-rule="evenodd" d="M744.283 189.303C738.754 189.303 734.272 193.786 734.272 199.315C734.272 204.844 738.754 209.326 744.283 209.326C745.683 209.326 747.01 209.04 748.213 208.526C749.446 207.999 750.872 208.572 751.398 209.804C751.925 211.037 751.353 212.463 750.12 212.99C748.325 213.756 746.351 214.18 744.283 214.18C736.073 214.18 729.418 207.524 729.418 199.315C729.418 191.105 736.073 184.449 744.283 184.449C752.494 184.449 759.149 191.105 759.149 199.315C759.149 201.424 758.708 203.437 757.911 205.262C757.375 206.49 755.944 207.05 754.715 206.514C753.487 205.977 752.926 204.546 753.463 203.318C753.997 202.095 754.295 200.743 754.295 199.315C754.295 193.786 749.813 189.303 744.283 189.303Z" fill="white"/>
<path d="M963.023 5.76403C963.023 4.2561 961.801 3.03369 960.293 3.03369C958.785 3.03369 957.562 4.2561 957.562 5.76403V11.2247C957.562 12.7326 958.785 13.955 960.293 13.955C961.801 13.955 963.023 12.7326 963.023 11.2247V5.76403Z" fill="white"/>
<path d="M963.023 23.3595C963.023 21.8516 961.801 20.6292 960.293 20.6292C958.785 20.6292 957.562 21.8516 957.562 23.3595V28.8202C957.562 30.3281 958.785 31.5505 960.293 31.5505C961.801 31.5505 963.023 30.3281 963.023 28.8202V23.3595Z" fill="white"/>
<path d="M963.63 17.2921C963.63 15.7842 964.853 14.5618 966.361 14.5618H971.821C973.329 14.5618 974.552 15.7842 974.552 17.2921C974.552 18.8 973.329 20.0225 971.821 20.0225H966.361C964.853 20.0225 963.63 18.8 963.63 17.2921Z" fill="white"/>
<path d="M948.764 14.5618C947.256 14.5618 946.034 15.7842 946.034 17.2921C946.034 18.8 947.256 20.0225 948.764 20.0225H954.225C955.733 20.0225 956.956 18.8 956.956 17.2921C956.956 15.7842 955.733 14.5618 954.225 14.5618H948.764Z" fill="white"/>
<path d="M1004.89 138.337C1004.89 136.997 1005.98 135.91 1007.32 135.91H1009.74C1011.08 135.91 1012.17 136.997 1012.17 138.337C1012.17 139.677 1011.08 140.764 1009.74 140.764H1007.32C1005.98 140.764 1004.89 139.677 1004.89 138.337Z" fill="white"/>
<path d="M1013.39 138.337C1013.39 136.997 1014.47 135.91 1015.81 135.91H1018.24C1019.58 135.91 1020.67 136.997 1020.67 138.337C1020.67 139.677 1019.58 140.764 1018.24 140.764H1015.81C1014.47 140.764 1013.39 139.677 1013.39 138.337Z" fill="white"/>
<path d="M1024.31 135.91C1022.97 135.91 1021.88 136.997 1021.88 138.337C1021.88 139.677 1022.97 140.764 1024.31 140.764H1033.41C1034.75 140.764 1035.84 139.677 1035.84 138.337C1035.84 136.997 1034.75 135.91 1033.41 135.91H1024.31Z" fill="white"/>
<path fill-rule="evenodd" clip-rule="evenodd" d="M1015.95 66.8876C1016.88 65.9172 1018.42 65.8801 1019.39 66.8048L1033.46 80.2163C1036.63 83.2385 1034.49 88.5843 1030.11 88.5843H1011.57C1007.29 88.5843 1005.1 83.43 1008.09 80.3513L1013.81 74.4565C1014.74 73.4943 1016.28 73.4706 1017.24 74.4037C1018.2 75.3368 1018.22 76.8733 1017.29 77.8356L1011.57 83.7303L1030.11 83.7303L1016.04 70.3188C1015.07 69.3942 1015.03 67.858 1015.95 66.8876Z" fill="white"/>
<path d="M958.672 197.902C957.724 198.85 957.724 200.386 958.672 201.334C959.62 202.282 961.156 202.282 962.104 201.334L962.962 200.476C963.91 199.528 963.91 197.992 962.962 197.044C962.015 196.096 960.478 196.096 959.53 197.044L958.672 197.902Z" fill="white"/>
<path d="M1262.06 15.8793C1261.11 16.8271 1261.11 18.3638 1262.06 19.3116C1263 20.2594 1264.54 20.2594 1265.49 19.3116L1266.35 18.4535C1267.29 17.5057 1267.29 15.9691 1266.35 15.0213C1265.4 14.0735 1263.86 14.0735 1262.91 15.0213L1262.06 15.8793Z" fill="white"/>
<path fill-rule="evenodd" clip-rule="evenodd" d="M1130.05 5.07125C1130.78 4.33084 1131.85 4.06201 1132.84 4.37686L1153.65 11.0268C1154.71 11.3649 1155.45 12.3099 1155.54 13.4171C1155.63 14.5243 1155.03 15.573 1154.04 16.0697L1145.44 20.3689L1141.55 28.5304C1141.08 29.5305 1140.04 30.1437 1138.94 30.0828C1137.83 30.0218 1136.87 29.2988 1136.51 28.2525L1129.43 7.87353C1129.09 6.89654 1129.33 5.81166 1130.05 5.07125ZM1136.38 11.241L1139.48 20.175L1140.91 17.1731C1141.17 16.6235 1141.61 16.1771 1142.16 15.9048L1145.6 14.1859L1136.38 11.241Z" fill="white"/>
<path d="M1074.56 148.756C1073.62 149.704 1072.08 149.704 1071.13 148.756C1070.18 147.808 1070.18 146.271 1071.13 145.323L1071.99 144.465C1072.94 143.518 1074.47 143.518 1075.42 144.465C1076.37 145.413 1076.37 146.95 1075.42 147.898L1074.56 148.756Z" fill="white"/>
<path d="M1080.14 143.178C1079.19 144.126 1077.66 144.126 1076.71 143.178C1075.76 142.231 1075.76 140.694 1076.71 139.746L1077.57 138.888C1078.52 137.94 1080.05 137.94 1081 138.888C1081.95 139.836 1081.95 141.372 1081 142.32L1080.14 143.178Z" fill="white"/>
<path d="M1082.29 137.601C1083.24 138.549 1084.77 138.549 1085.72 137.601L1086.58 136.743C1087.53 135.795 1087.53 134.258 1086.58 133.311C1085.63 132.363 1084.09 132.363 1083.15 133.311L1082.29 134.169C1081.34 135.116 1081.34 136.653 1082.29 137.601Z" fill="white"/>
<path d="M1091.3 132.024C1090.35 132.971 1088.81 132.971 1087.87 132.024C1086.92 131.076 1086.92 129.539 1087.87 128.591L1088.72 127.733C1089.67 126.785 1091.21 126.785 1092.16 127.733C1093.1 128.681 1093.1 130.218 1092.16 131.165L1091.3 132.024Z" fill="white"/>
<path d="M1267.01 132.27C1268.35 132.27 1269.44 133.356 1269.44 134.697C1269.44 136.037 1268.35 137.124 1267.01 137.124H1251.84C1250.5 137.124 1249.42 136.037 1249.42 134.697C1249.42 133.356 1250.5 132.27 1251.84 132.27H1267.01Z" fill="white"/>
<path d="M1276.12 140.157C1277.46 140.157 1278.54 141.244 1278.54 142.584C1278.54 143.925 1277.46 145.011 1276.12 145.011H1256.7C1255.36 145.011 1254.27 143.925 1254.27 142.584C1254.27 141.244 1255.36 140.157 1256.7 140.157H1276.12Z" fill="white"/>
<path fill-rule="evenodd" clip-rule="evenodd" d="M1194.11 86.8539C1194.16 86.8627 1194.21 86.8715 1194.27 86.8802C1195.27 87.048 1196.67 87.2049 1198.26 87.1624C1201.47 87.0769 1205.23 86.1971 1208.21 83.2256C1211.2 80.2348 1212.24 76.2734 1212.48 72.8473C1212.5 72.5145 1212.52 72.1892 1212.53 71.8733L1204.69 79.7092C1203.74 80.657 1202.2 80.657 1201.26 79.7092C1200.31 78.7614 1200.31 77.2247 1201.26 76.2769L1209.09 68.441C1208.78 68.4499 1208.45 68.4653 1208.12 68.4885C1204.69 68.7273 1200.73 69.7698 1197.74 72.7605C1194.77 75.7321 1193.89 79.4969 1193.8 82.7046C1193.76 84.2984 1193.92 85.7004 1194.09 86.7009C1194.09 86.7531 1194.1 86.8041 1194.11 86.8539ZM1214.53 66.4382L1215.05 64.0689C1215.98 64.2731 1216.69 64.9919 1216.9 65.9123L1214.53 66.4382ZM1214.53 66.4382C1215.05 64.0689 1215.05 64.0685 1215.05 64.0685L1215.05 64.068L1215.05 64.0669L1215.03 64.0641L1214.99 64.0559C1214.96 64.0493 1214.92 64.0407 1214.87 64.0303C1214.76 64.0097 1214.62 63.9821 1214.43 63.9508C1214.06 63.8883 1213.54 63.8103 1212.9 63.7418C1211.61 63.6053 1209.82 63.5041 1207.78 63.6463C1203.74 63.9281 1198.45 65.1887 1194.31 69.3283C1190.15 73.4871 1189.06 78.6439 1188.95 82.5752C1188.9 84.5509 1189.09 86.2728 1189.3 87.5037C1189.4 88.1215 1189.51 88.6219 1189.59 88.9761C1189.64 89.1534 1189.67 89.2946 1189.7 89.3962C1189.71 89.447 1189.73 89.4879 1189.73 89.5186L1189.75 89.5567L1189.75 89.5699L1189.75 89.575L1189.75 89.5772C1189.75 89.5772 1189.75 89.5791 1192.08 88.8876L1189.75 89.5791C1189.99 90.3653 1190.6 90.9803 1191.39 91.214L1192.08 88.8876C1191.39 91.214 1191.39 91.2146 1191.39 91.2146L1191.39 91.2152L1191.4 91.2167L1191.41 91.2206L1191.45 91.2315C1191.48 91.2402 1191.52 91.2516 1191.57 91.2652C1191.67 91.2926 1191.81 91.3291 1191.99 91.3713C1192.34 91.4558 1192.84 91.5637 1193.46 91.6673C1194.69 91.8738 1196.42 92.0673 1198.39 92.0146C1202.32 91.9098 1207.48 90.8166 1211.64 86.6578C1215.78 82.5182 1217.04 77.2279 1217.32 73.1848C1217.46 71.1443 1217.36 69.3537 1217.23 68.07C1217.16 67.4261 1217.08 66.904 1217.02 66.5351C1216.98 66.3504 1216.96 66.2037 1216.94 66.0987C1216.93 66.0462 1216.92 66.0041 1216.91 65.9729L1216.9 65.9343L1216.9 65.9212L1216.9 65.9163L1216.9 65.9142C1216.9 65.9142 1216.9 65.9123 1214.53 66.4382Z" fill="white"/>
<g clip-path="url(#clip2)">
<path fill-rule="evenodd" clip-rule="evenodd" d="M1129.88 203.865C1129.88 202.525 1130.97 201.438 1132.31 201.438H1133.53C1134.87 201.438 1135.95 202.525 1135.95 203.865C1135.95 205.206 1134.87 206.292 1133.53 206.292H1132.31C1130.97 206.292 1129.88 205.206 1129.88 203.865Z" fill="white"/>
<path fill-rule="evenodd" clip-rule="evenodd" d="M1137.77 203.865C1137.77 202.525 1138.86 201.438 1140.2 201.438H1141.41C1142.75 201.438 1143.84 202.525 1143.84 203.865C1143.84 205.206 1142.75 206.292 1141.41 206.292H1140.2C1138.86 206.292 1137.77 205.206 1137.77 203.865Z" fill="white"/>
<path fill-rule="evenodd" clip-rule="evenodd" d="M1145.66 203.865C1145.66 202.525 1146.75 201.438 1148.09 201.438H1149.3C1150.64 201.438 1151.73 202.525 1151.73 203.865C1151.73 205.206 1150.64 206.292 1149.3 206.292H1148.09C1146.75 206.292 1145.66 205.206 1145.66 203.865Z" fill="white"/>
<path fill-rule="evenodd" clip-rule="evenodd" d="M1153.55 203.865C1153.55 202.525 1154.63 201.438 1155.98 201.438H1157.19C1158.53 201.438 1159.62 202.525 1159.62 203.865C1159.62 205.206 1158.53 206.292 1157.19 206.292H1155.98C1154.63 206.292 1153.55 205.206 1153.55 203.865Z" fill="white"/>
<path fill-rule="evenodd" clip-rule="evenodd" d="M1145.66 195.978C1145.66 194.637 1146.75 193.551 1148.09 193.551H1153.55C1154.89 193.551 1155.98 194.637 1155.98 195.978C1155.98 197.318 1154.89 198.404 1153.55 198.404H1148.09C1146.75 198.404 1145.66 197.318 1145.66 195.978Z" fill="white"/>
<path fill-rule="evenodd" clip-rule="evenodd" d="M1126.24 195.978C1126.24 194.637 1127.33 193.551 1128.67 193.551H1140.81C1142.15 193.551 1143.23 194.637 1143.23 195.978C1143.23 197.318 1142.15 198.404 1140.81 198.404H1128.67C1127.33 198.404 1126.24 197.318 1126.24 195.978Z" fill="white"/>
</g>
<path d="M1322.73 76.5535C1321.78 77.5013 1321.78 79.0379 1322.73 79.9857C1323.68 80.9335 1325.22 80.9335 1326.16 79.9857L1327.02 79.1277C1327.97 78.1799 1327.97 76.6432 1327.02 75.6954C1326.08 74.7476 1324.54 74.7476 1323.59 75.6954L1322.73 76.5535Z" fill="white"/>
<path fill-rule="evenodd" clip-rule="evenodd" d="M1264.28 189.303C1258.75 189.303 1254.27 193.786 1254.27 199.315C1254.27 204.844 1258.75 209.326 1264.28 209.326C1265.68 209.326 1267.01 209.04 1268.21 208.526C1269.45 207.999 1270.87 208.572 1271.4 209.804C1271.93 211.037 1271.35 212.463 1270.12 212.99C1268.33 213.756 1266.35 214.18 1264.28 214.18C1256.07 214.18 1249.42 207.524 1249.42 199.315C1249.42 191.105 1256.07 184.449 1264.28 184.449C1272.49 184.449 1279.15 191.105 1279.15 199.315C1279.15 201.424 1278.71 203.437 1277.91 205.262C1277.37 206.49 1275.94 207.05 1274.72 206.514C1273.49 205.977 1272.93 204.546 1273.46 203.318C1274 202.095 1274.3 200.743 1274.3 199.315C1274.3 193.786 1269.81 189.303 1264.28 189.303Z" fill="white"/>
</g>
</g>
<defs>
<linearGradient id="paint0_linear" x1="682.5" y1="0" x2="682.906" y2="175.398" gradientUnits="userSpaceOnUse">
<stop stop-color="white"/>
<stop offset="1" stop-color="white" stop-opacity="0"/>
</linearGradient>
<clipPath id="clip0">
<rect width="33.979" height="33.9775" fill="white" transform="translate(85.6371 182.022)"/>
</clipPath>
<clipPath id="clip1">
<rect width="33.9789" height="33.9775" fill="white" transform="translate(605.637 182.022)"/>
</clipPath>
<clipPath id="clip2">
<rect width="33.979" height="33.9775" fill="white" transform="translate(1125.64 182.022)"/>
</clipPath>
</defs>
</svg>
