<?xml version="1.0" encoding="UTF-8"?>
<svg width="295px" height="157px" viewBox="0 0 295 157" version="1.1" xmlns="http://www.w3.org/2000/svg" xmlns:xlink="http://www.w3.org/1999/xlink">
    <!-- Generator: Sketch 48.2 (47327) - http://www.bohemiancoding.com/sketch -->
    <title>Page 1</title>
    <desc>Created with Sketch.</desc>
    <defs></defs>
    <g id="gift-cart" stroke="none" stroke-width="1" fill="none" fill-rule="evenodd" transform="translate(-1058.000000, -620.000000)" opacity="0.520606884">
        <g id="Group-19" transform="translate(913.000000, 620.000000)" fill="#F2798A">
            <g id="Group-20">
                <g id="Group-17">
                    <g id="Page-1">
                        <g transform="translate(145.113169, -158.000000)">
                            <polygon id="Fill-5" points="48.6831276 230.863673 35.7493433 230 35.5761317 233.136327 48.5095898 234"></polygon>
                            <polygon id="Fill-6" points="150.628662 301 141.368313 310.769179 143.342531 313 152.602881 303.230821"></polygon>
                            <polygon id="Fill-8" points="117.124578 153 104.855967 157.087218 105.694028 160 117.962963 155.912434"></polygon>
                            <polygon id="Fill-9" points="117.026749 235.219357 109.709149 225 107.664609 226.780315 114.982209 237"></polygon>
                            <polygon id="Fill-10" points="188.179012 232.470096 177.355708 226 176.00823 228.529904 186.831535 235"></polygon>
                            <polygon id="Fill-11" points="251.51765 277 255.58642 264.033592 253.10139 263 249.032922 275.966408"></polygon>
                            <polygon id="Fill-12" points="222.81893 309.702791 212.356173 302 210.648148 304.297209 221.110905 312"></polygon>
                            <polygon id="Fill-14" points="11.2345679 198.599273 5.22954483 187 2.80864198 188.400727 8.81366505 200"></polygon>
                            <polygon id="Fill-15" points="77.3586399 276 79.5781893 262.588655 77.1166687 262 74.8971193 275.411345"></polygon>
                            <polygon id="Fill-16" points="14.0432099 306.991109 1.73099819 303 0.936213992 306.008533 13.2481027 310"></polygon>
                            <polygon id="Fill-19" points="256.522634 161.487941 250.371306 150 248.096708 151.512395 254.248036 163"></polygon>
                            <polygon id="Fill-20" points="219.074074 199.585686 217.631664 186 215.329218 186.414659 216.771628 200"></polygon>
                            <g id="Group-176">
                                <path d="M179.237252,161.915145 L178.254029,156.030713 C178.124313,155.25294 178.71361,154.351485 179.442184,154.213192 L183.672118,153.409936 C184.368183,153.277758 185.081459,153.873405 185.220735,154.707582 L186.203959,160.592354 L179.237252,161.915145 Z M187.838629,153.359647 C187.49952,151.330779 185.692747,150.001192 183.76805,150.366463 L178.18678,151.426599 C176.250929,151.794248 175.027078,153.663757 175.371605,155.726943 L176.982371,165.368061 L189.449395,163.000764 L187.838629,153.359647 Z" id="Fill-34"></path>
                                <path d="M47.2240998,197.310046 L41.7151777,198.42013 C40.9872414,198.566578 40.1356452,197.947826 39.997962,197.172432 L39.200228,192.671953 C39.068919,191.930877 39.6199706,191.164318 40.4011316,191.006997 L45.9100538,189.896912 L47.2240998,197.310046 Z M39.1090766,188.230597 C37.2098769,188.613197 35.9818828,190.553381 36.3448948,192.601277 L37.3975978,198.540075 C37.7628407,200.600204 39.5291379,201.885278 41.4608462,201.495882 L50.4864271,199.677342 L48.1346576,186.412057 L39.1090766,188.230597 Z" id="Fill-40"></path>
                                <path d="M7.66095543,274.723657 L3.59579476,270.607476 C3.05876648,270.063477 3.03167604,268.964946 3.54161387,268.392745 L6.50020944,265.071666 C6.98720007,264.524949 7.89297715,264.553831 8.4692069,265.137245 L12.5343676,269.253425 L7.66095543,274.723657 Z M9.82691638,262.396523 C8.42554347,260.977572 6.23089852,261.049267 4.88466264,262.56064 L0.98076981,266.942873 C-0.373752561,268.462741 -0.318934244,270.742032 1.106342,272.185447 L7.76644882,278.92954 L16.4870232,269.140616 L9.82691638,262.396523 Z" id="Fill-42"></path>
                                <path d="M117.186073,309.378536 L111.662809,310.404353 C110.93296,310.539588 110.08965,309.907924 109.962485,309.130491 L109.225306,304.618119 C109.103877,303.875345 109.665446,303.11728 110.448519,302.971851 L115.971783,301.946034 L117.186073,309.378536 Z M109.194072,300.175744 C107.289773,300.529462 106.035645,302.450618 106.371247,304.503951 L107.343954,310.458379 C107.681469,312.523604 109.430556,313.835522 111.367045,313.476027 L120.41621,311.795441 L118.243238,298.495497 L109.194072,300.175744 Z" id="Fill-44"></path>
                                <path d="M256.138842,198.666951 L250.552792,198.156591 C249.814657,198.088974 249.150462,197.24868 249.213567,196.462413 L249.580723,191.898734 C249.640959,191.147464 250.365389,190.567448 251.157387,190.639483 L256.743118,191.150183 L256.138842,198.666951 Z M250.613347,187.594991 C248.687694,187.418981 247.015417,188.935451 246.848412,191.012229 L246.363971,197.033935 C246.19601,199.122946 247.573161,200.867072 249.531641,201.04614 L258.683432,201.882696 L259.765137,188.431547 L250.613347,187.594991 Z" id="Fill-48"></path>
                                <path d="M188.05752,268.344121 L184.166694,272.647524 C183.652613,273.216327 182.62222,273.237054 182.089016,272.689318 L178.995924,269.51061 C178.486624,268.987338 178.520089,268.022003 179.071778,267.412085 L182.962603,263.108683 L188.05752,268.344121 Z M176.511252,265.944545 C175.169797,267.428055 175.22111,269.768169 176.628538,271.214642 L180.710272,275.408973 C182.125987,276.863941 184.26422,276.822487 185.628622,275.313493 L192.003164,268.262572 L182.885794,258.893624 L176.511252,265.944545 Z" id="Fill-50"></path>
                                <path d="M282.241253,308.678472 L284.023804,303.011504 C284.259332,302.262614 285.182001,301.772641 285.883802,302.023404 L289.956931,303.479731 C290.627499,303.71962 290.98573,304.606804 290.732993,305.410401 L288.950441,311.077369 L282.241253,308.678472 Z M293.636451,305.564664 C294.250926,303.610889 293.262922,301.520859 291.409616,300.857934 L286.034553,298.936438 C284.170411,298.269776 282.255595,299.28506 281.630602,301.272134 L278.709933,310.556815 L290.715782,314.849345 L293.636451,305.564664 Z" id="Fill-52"></path>
                                <path d="M292.993101,155.026303 L289.998172,160.079275 C289.602333,160.746957 288.597118,160.989225 287.971488,160.567549 L284.339456,158.120743 C283.741554,157.718095 283.591441,156.765333 284.015964,156.049061 L287.010893,150.996089 L292.993101,155.026303 Z M281.23011,155.163237 C280.197804,156.905325 280.691488,159.185975 282.344005,160.299457 L287.136465,163.528114 C288.798543,164.648052 290.884827,164.146866 291.93498,162.375216 L296.841857,154.096645 L286.136987,146.885005 L281.23011,155.163237 Z" id="Fill-56"></path>
                                <path d="M141.683901,231.695576 L145.405172,227.224998 C145.896943,226.634108 146.925743,226.568189 147.479344,227.091801 L150.69259,230.132216 C151.22165,230.632722 151.225475,231.598397 150.698008,232.232439 L146.976737,236.703017 L141.683901,231.695576 Z M153.313033,233.586151 C154.595845,232.044877 154.454337,229.709181 152.992091,228.325908 L148.751958,224.314042 C147.281106,222.922614 145.146378,223.05785 143.841575,224.625627 L137.744949,231.950416 L147.216407,240.91094 L153.313033,233.586151 Z" id="Fill-60"></path>
                                <polygon id="Fill-72" points="282.763525 273.199032 285.801798 275.310469 293.652928 272.70804 292.717511 264.000318 289.679238 261.888881 290.614655 270.596603"></polygon>
                                <polygon id="Fill-76" points="251.427909 238.302259 255.036356 237.912523 259.615598 230.632246 253.760237 224.480062 250.151789 224.869798 256.00715 231.021982"></polygon>
                                <polygon id="Fill-80" points="83.426977 154.334972 81.3212524 151.186845 73.1208146 150.554162 71.0103094 159.024712 73.1157153 162.173179 75.2265392 153.702288"></polygon>
                                <polygon id="Fill-82" points="144.570977 187.536786 141.766001 189.988349 141.725205 198.753835 149.794334 200.429665 152.598992 197.978101 144.529864 196.302272"></polygon>
                                <polygon id="Fill-84" points="38.0218573 311.155214 41.2653806 312.885409 48.7888759 309.349925 46.9323835 300.811757 43.6888602 299.081561 45.5453526 307.61973"></polygon>
                                <path d="M2.79952684,154.699461 L2.80749462,154.714752 L2.8014391,154.718829 L2.79952684,154.699461 Z M7.5221886,159.79185 C6.87743595,160.183624 5.88178233,159.893106 5.5149458,159.206736 L3.0959282,154.681792 L3.03314211,154.564566 L2.73227878,154.001879 L2.7297291,154.003238 L2.50153191,154.141871 L0.304018562,155.477234 L0.660656335,156.144576 L0.658425357,156.145935 L3.46977638,161.404819 C4.44503248,163.228795 6.51059942,163.832597 8.22080343,162.793528 L13.7826316,159.413667 L12.4003814,156.827887 L7.5221886,159.79185 Z" id="Fill-100"></path>
                                <path d="M81.8236049,192.710655 L81.8083068,192.704199 L81.8108565,192.696723 L81.8236049,192.710655 Z M75.1571239,191.834684 C75.4353587,191.101084 76.3854367,190.671253 77.0725779,190.967547 L81.6011446,192.920303 L81.718749,192.970932 L82.2819116,193.213879 L82.2831864,193.210821 L82.3816682,192.951224 L83.3301525,190.451411 L82.662134,190.163271 L82.6630901,190.160893 L77.3995755,187.891455 C75.5739981,187.104169 73.6021322,187.99509 72.8639972,189.940711 L70.4634648,196.267885 L73.0517181,197.384085 L75.1571239,191.834684 Z" id="Fill-102"></path>
                                <path d="M284.83996,189.716349 L284.837729,189.733679 L284.830398,189.732999 L284.83996,189.716349 Z M285.675302,196.821976 C284.940035,196.713924 284.316636,195.836933 284.417986,195.054064 L285.085049,189.894738 L285.102259,189.761201 L285.185443,189.119344 L285.182255,189.119004 L284.922187,189.080608 L282.41648,188.712279 L282.317998,189.473062 L282.315767,189.472722 L281.540025,195.469284 C281.271032,197.54912 282.564043,199.369359 284.514237,199.6558 L290.855951,200.588175 L291.237449,197.639503 L285.675302,196.821976 Z" id="Fill-104"></path>
                                <path d="M82.2095641,232.208314 L82.1984092,232.195402 L82.2035086,232.189966 L82.2095641,232.208314 Z M76.5243947,228.394205 C77.0687533,227.856322 78.1001026,227.897776 78.6039849,228.477453 L81.9246364,232.297339 L82.0106884,232.396217 L82.423738,232.871579 L82.425969,232.8692 L82.6184705,232.678919 L84.4736881,230.845768 L83.9841478,230.282741 L83.9857414,230.280703 L80.1264681,225.841385 C78.7878813,224.30113 76.6477359,224.214145 75.2039744,225.640571 L70.5084031,230.280023 L72.406328,232.463155 L76.5243947,228.394205 Z" id="Fill-106"></path>
                                <path d="M151.836827,271.620789 L151.831408,271.60414 L151.838101,271.601421 L151.836827,271.620789 Z M148.072529,265.689807 C148.773694,265.431229 149.702099,265.911688 149.944638,266.65854 L151.542337,271.580015 L151.58377,271.707435 L151.782646,272.319731 L151.785514,272.318712 L152.03379,272.226969 L154.423805,271.345222 L154.188277,270.619437 L154.190508,270.618418 L152.333697,264.898443 C151.689582,262.914087 149.763292,261.916132 147.902975,262.602502 L141.8532,264.834903 L142.766307,267.64766 L148.072529,265.689807 Z" id="Fill-108"></path>
                                <path d="M220.903827,265.438908 L220.887254,265.438228 L220.887254,265.430413 L220.903827,265.438908 Z M214.346982,266.993094 C214.378853,266.202749 215.138979,265.458616 215.879664,265.492255 L220.760088,265.715834 L220.886616,265.721611 L221.493761,265.749473 L221.493761,265.746076 L221.504916,265.466431 L221.613596,262.772259 L220.893947,262.7393 L220.893947,262.736582 L215.221526,262.476985 C213.254122,262.386941 211.675864,263.930254 211.591406,266.027079 L211.316677,272.845925 L214.106037,272.973685 L214.346982,266.993094 Z" id="Fill-110"></path>
                                <polygon id="Fill-140" points="218.952996 158.000458 218.570542 155.051447 215.803492 155.459191 216.185946 158.408543"></polygon>
                                <polygon id="Fill-142" points="148.777391 158.167124 148.744564 155.19025 145.951698 155.225248 145.984206 158.202122"></polygon>
                                <polygon id="Fill-144" points="43.841969 155.280667 41.0529278 155.136937 40.9181129 158.111773 43.7071542 158.255163"></polygon>
                                <polygon id="Fill-146" points="114.142286 194.88468 113.203681 192.080758 110.573039 193.08177 111.511644 195.885693"></polygon>
                                <polygon id="Fill-148" points="181.194489 195.65756 183.961858 195.260349 183.589285 192.308958 180.821916 192.70617"></polygon>
                                <polygon id="Fill-152" points="289.396382 231.925849 288.145759 229.264298 285.648339 230.597962 286.898961 233.259853"></polygon>
                                <polygon id="Fill-154" points="218.955864 232.606239 218.566718 229.658247 215.800624 230.073466 216.18977 233.021459"></polygon>
                                <polygon id="Fill-156" points="9.12705858 232.286703 8.25187777 229.459675 5.5992449 230.39307 6.47442571 233.220098"></polygon>
                                <polygon id="Fill-158" points="43.4971235 270.166399 43.9474624 267.228261 41.190611 266.748141 40.7402721 269.68628"></polygon>
                                <polygon id="Fill-160" points="113.670306 270.03028 113.833486 267.058163 111.044764 266.884192 110.881902 269.856309"></polygon>
                                <polygon id="Fill-164" points="253.073446 304.009968 250.534274 305.248832 251.696933 307.956935 254.235786 306.717731"></polygon>
                                <polygon id="Fill-166" points="184.343419 305.903432 182.267016 303.912959 180.399369 306.127012 182.475772 308.117824"></polygon>
                                <polygon id="Fill-168" points="79.2802262 305.287092 76.8140394 303.890907 75.5041366 306.521198 77.9703234 307.917383"></polygon>
                            </g>
                        </g>
                    </g>
                </g>
            </g>
        </g>
    </g>
</svg>