<svg xmlns="http://www.w3.org/2000/svg" width="1655" height="157" viewBox="0 0 1655 157">
    <defs>
        <linearGradient id="prefix__a" x1="50%" x2="50%" y1="28.069%" y2="83.545%">
            <stop offset="0%" stop-color="#A1A1A1"/>
            <stop offset="100%" stop-color="#4DD4E3" stop-opacity="0"/>
        </linearGradient>
    </defs>
    <g opacity=".197">
        <path fill="url(#prefix__a)" d="M1392.925 174.84c81.976-11.25 184.62-11.097 267.78.903 32.337 4.667 62.584 10.665 96.775 18.814 24.104 5.747 46.982 11.934 67.158 18.124 11.927 3.659 22.286 7.195 30.991 10.594 29.322 9.095 52.839 19.225 68.573 29.62l-3.724.21c-9.36-6.184-21.494-12.273-35.975-18.104 7.41 3.328 13.803 6.634 19.087 9.88l-3.883.237c-3.83-2.353-8.25-4.739-13.222-7.142l-2.37.158c-4.096-2.3-8.937-4.658-14.487-7.063l-1.104.079c-2.426-1.262-5.126-2.548-8.097-3.857-4.014-1.568-8.31-3.153-12.88-4.753-3.015-1.012-6.096-2.017-9.24-3.013-32.267-9.089-70.482-16.919-112.376-22.614-102.381-13.915-228.523-10.524-310.397 8.042l-1.039.236c-9.748 2.223-18.004 4.282-30.172 7.515l-4.973 1.328-18.2 4.915c-44.482 11.949-68.939 17.165-107.838 21.825-62.64 7.508-144.184 8.366-206.855 1.849-37.41-3.89-63.056-8.993-107.75-20.086l-16.487-4.082-3.461-.841c-80.021-19.196-187.804-27.224-289.77-18.399-26.301 2.276-48.626 4.897-80.273 9.234l-6.246.86-6.114.853c-.193.027-8.87 1.247-16.34 2.294l-15.387 2.137c-68.325 9.31-114.934 12.757-182.672 11.642C218.573 224.53 123.32 211.895 74.91 194.05c-6.457-1.714-12.432-3.496-17.892-5.34-10.478-2.72-19.703-5.632-27.564-8.721-6.55-1.916-12.526-3.928-17.906-6.033l3.993-.382c4.58 1.793 9.597 3.515 15.04 5.169l.412-.037c.5.206 1.006.41 1.518.615 4.233 1.25 8.711 2.46 13.43 3.628l.505-.044c.29.128.58.255.873.382 26.5 6.452 60.423 11.643 100.725 15.544 36.505 3.535 78.984 5.535 126.997 6.107 67.89.81 114.136-2.587 185.224-11.664l30.09-3.877c12.308-1.575 22.147-2.793 31.711-3.907l4.403-.507 3.891-.44c15.67-1.745 30.703-3.203 46.052-4.433 29.636-2.387 59.867-3.454 90.269-3.269 74.513.454 147.197 8.42 203.722 21.228l22.79 5.218c39.629 9.008 63.168 13.286 95.558 16.5l3.706.36c7.63.721 15.558 1.335 23.735 1.838 55.83 3.431 121.424 1.566 173.255-4.82 15.866-1.954 30.703-4.307 45.248-7.116 16.027-3.097 28.839-6.046 48.62-11.113l7.765-2.004 15.314-4.001c16.038-4.182 26.177-6.717 36.767-9.108l3.555-.793 3.41-.746c13.127-2.843 27.467-5.334 42.8-7.444zm306.925 14.292c-84.04-11.719-186.1-11.566-266.387-.059-15.085 2.163-29.183 4.707-42.07 7.6-9.795 2.199-18.014 4.214-29.671 7.275l-6.73 1.78-16.35 4.39c-25.06 6.728-39.448 10.31-56.426 13.754l-3.774.755-2.52.493c-14.857 2.886-30.13 5.3-46.546 7.294-53.754 6.534-122.153 8.225-180.255 4.324-8.542-.573-16.815-1.265-24.772-2.072-37.25-3.781-62.606-8.739-107.664-19.706l-11.975-2.913-7.122-1.71c-55.633-13.12-126.969-21.232-199.727-21.634-29.963-.164-59.859.97-89.276 3.47-15.335 1.301-30.357 2.845-45.954 4.688-13.907 1.646-27.061 3.364-45.954 5.953l-28.548 3.909c-69.977 9.415-116.862 12.924-185.351 11.895-45.834-.69-89.628-3.253-128.573-7.513-31.546-3.471-59.496-7.88-82.729-13.037 50.679 15.294 137.412 25.88 230.81 27.42 68.644 1.13 115.2-2.498 186.26-12.354l31.68-4.436c35.218-4.884 58.893-7.72 87.177-10.167 104.844-9.075 215.56-.658 296.815 19.203l1.048.256 20.95 5.186c41.657 10.254 66.541 15.09 102.08 18.786 61.415 6.387 141.482 5.544 202.972-1.826 36.457-4.367 60.142-9.251 100.381-19.929l6.381-1.704 15.299-4.135c12.835-3.456 21.466-5.7 30.075-7.762l1.723-.41 3.333-.782 4.122-.946c83.16-18.858 211.544-22.308 315.58-8.168 27.345 3.717 53.122 8.332 76.718 13.605-3.565-.933-7.18-1.852-10.845-2.757-29.803-7.352-61.053-13.395-94.185-18.016zm-20.905-5.918c-82.811-11.658-184.12-11.657-264.47-.471-15.062 2.098-29.156 4.575-42.063 7.4-11.137 2.435-20.342 4.667-34.572 8.356l-5.138 1.338-19.625 5.154c-21.561 5.623-34.996 8.844-50.664 11.972l-2.967.586-2.574.499c-14.789 2.843-29.975 5.228-46.272 7.207-53.337 6.476-121.012 8.26-178.616 4.584-8.457-.54-16.666-1.195-24.558-1.965-34.544-3.364-58.686-7.71-98.515-16.906l-4.491-1.042-12.28-2.881-8.8-2.052c-55.845-12.922-127.737-20.937-201.147-21.36-29.864-.172-59.617.909-88.85 3.31-15.254 1.25-30.208 2.732-45.744 4.5-9.534 1.09-18.718 2.213-29.694 3.622l-5.647.73-10.109 1.324-31.6 4.156c-68.207 8.755-114.597 12.035-181.786 11.136-47.148-.63-90.679-2.909-128.642-6.799-31.048-3.182-58.515-7.195-81.618-11.944 25.63 6.779 58.911 12.483 97.711 16.752 38.42 4.203 81.636 6.733 126.88 7.413 68.386 1.028 114.835-2.541 185.893-12.186l30.754-4.215c12.634-1.719 22.726-3.043 32.57-4.254l4.21-.512 3.985-.476c15.748-1.86 30.93-3.421 46.44-4.738 29.969-2.547 60.464-3.703 91.031-3.536 74.989.415 148.24 8.846 204.858 22.422l.974.233 20.471 4.968c40.544 9.791 64.877 14.51 98.34 18.055l3.621.376c7.776.788 15.864 1.464 24.216 2.024 56.914 3.822 124.028 2.163 176.753-4.246 16.141-1.962 31.178-4.338 45.826-7.183 17.03-3.306 30.222-6.412 51.458-12.018l7.393-1.965 16.852-4.527c14.66-3.92 23.978-6.302 34.011-8.628l2.33-.537 3.229-.73c13.08-2.937 27.4-5.52 42.73-7.719 81.71-11.711 185.714-11.867 271.193.052 22.618 3.155 44.345 6.961 65.322 11.384-29.443-6.9-58.27-12.393-88.609-16.663zm-20.905-6.782c-81.604-11.775-182.13-11.924-262.535-.89-15.058 2.072-29.15 4.52-42.057 7.317-10.809 2.34-19.892 4.512-33.262 7.941l-8.585 2.22-11.555 3.021c-26.667 6.972-41.315 10.517-59.57 14.104l-2.634.514c-14.764 2.852-29.85 5.243-46.002 7.232-52.923 6.521-119.883 8.426-177 4.916-8.385-.517-16.515-1.146-24.344-1.886-33.759-3.202-57.382-7.32-96.16-16.048l-6.735-1.528-15.75-3.615-7.018-1.591c-55.448-12.349-126.108-19.997-198.293-20.436-29.77-.181-59.368.863-88.42 3.203-15.164 1.215-30.028 2.657-45.532 4.383-10.83 1.214-21.214 2.47-34.367 4.138l-5.417.69-24.232 3.125-12.414 1.582c-68.177 8.549-114.465 11.773-181.392 10.974-48.58-.579-91.64-2.606-128.717-6.196-35.36-3.423-65.9-7.828-90.92-13.197 1.462.541 2.967 1.077 4.516 1.607 1.591.418 3.213.831 4.863 1.24l2.557-.205c1.261.588 2.573 1.172 3.934 1.751 24.804 5.7 55.575 10.443 91.119 14.086 37.416 3.834 80.368 6.083 126.94 6.705 68.143.912 114.49-2.544 185.563-11.833l30.338-4.003c11.67-1.529 21.144-2.73 30.26-3.823l6.274-.742 3.94-.455c15.693-1.786 30.81-3.284 46.245-4.548 29.798-2.448 60.162-3.551 90.642-3.376 74.754.431 147.722 8.567 204.29 21.655l3.057.71 18.007 4.22c42.195 9.833 66.523 14.32 101.67 17.745 7.703.75 15.718 1.391 23.975 1.917 56.376 3.598 122.734 1.85 175.014-4.499 16.015-1.945 30.959-4.292 45.534-7.093 16.998-3.267 30.277-6.353 51.813-11.93l5.728-1.492 17.886-4.7c14.589-3.814 24.034-6.172 34.125-8.456l2.438-.547 3.36-.742c13.115-2.87 27.444-5.388 42.766-7.523 81.842-11.393 185.167-11.395 269.471.474 32.9 4.63 63.974 10.67 95.898 18.35-7.614-1.972-15.406-3.91-23.331-5.799-33.979-8.098-63.986-14.049-95.98-18.667zm-273.828-8.826c82.088-11.105 184.038-10.795 266.076 1.334 31.77 4.698 60.62 10.533 97.665 19.284 24.552 5.802 48.308 11.999 69.519 18.098 22.47 6.46 39.19 12.253 50.121 17.51l-4.31.335c-10.795-5.191-27.362-10.932-49.666-17.344-21.13-6.076-44.8-12.25-69.26-18.03-36.836-8.702-65.467-14.493-96.891-19.14-80.422-11.89-180.153-12.193-260.589-1.311-15.037 2.04-29.13 4.46-42.05 7.233-11.45 2.451-21.066 4.743-35.588 8.455l-5.234 1.345-19.393 5.03c-22.606 5.832-36.29 9.077-52.82 12.342l-2.635.517-3.16.605c-13.711 2.595-27.696 4.796-42.567 6.654-52.512 6.566-118.757 8.591-175.378 5.25-8.33-.492-16.394-1.096-24.133-1.81-33.678-3.102-57.07-7.098-96.227-15.729l-6.677-1.482-17.331-3.89-4.892-1.081c-55.336-12.058-125.666-19.535-197.57-19.998-29.692-.189-59.14.82-87.991 3.096-15.094 1.183-29.898 2.587-45.308 4.265-9.796 1.076-19.232 2.184-30.742 3.6l-8.33 1.033-33.454 4.2C385.43 196.62 338.837 199.9 271.11 199.19c-50.323-.528-92.635-2.294-128.8-5.586C81.929 188.106 36.19 180.02 6.309 168.88l4.124-.413c29.392 10.958 74.362 18.908 133.856 24.325 35.566 3.237 77.305 4.98 127.073 5.501 67.626.71 113.771-2.625 184.867-11.485l27.479-3.457c13.243-1.659 23.587-2.914 33.61-4.056l4.282-.484 4.035-.448c15.582-1.696 30.562-3.117 45.845-4.315 29.454-2.324 59.553-3.355 89.896-3.162 74.287.48 146.695 8.276 203.152 20.797l2.663.592 19.508 4.374c39.983 8.897 63.285 13.048 95.53 16.157l3.689.348c7.53.694 15.38 1.282 23.49 1.76 55.281 3.263 120.113 1.28 171.5-5.144 15.722-1.964 30.455-4.323 44.957-7.139 16.559-3.216 29.783-6.288 51.093-11.75l5.837-1.504 14.432-3.749c16.621-4.304 27.074-6.889 38.217-9.361l3.614-.793 2.319-.5c13.152-2.822 27.507-5.288 42.835-7.367zm-8.7-6.359c82.184-10.784 183.41-10.32 264.35 1.745 27.885 4.157 52.053 8.903 86.014 16.585l5.041 1.145 7.489 1.719c24.836 5.729 49.44 11.83 71.881 17.79 23.963 6.362 41.137 11.761 52.187 16.58l-4.417.378c-10.89-4.748-27.897-10.095-51.676-16.409-22.377-5.942-46.914-12.027-71.678-17.74-37.212-8.581-62.456-13.791-90.162-18.141l-3.795-.588-3.833-.58c-79.279-11.817-178.22-12.27-258.684-1.711-15.02 1.979-29.112 4.334-42.044 7.035-11.972 2.496-22.041 4.848-37.49 8.719l-5.358 1.348-20.441 5.185c-20.71 5.21-33.865 8.259-49.319 11.29l-3.124.607c-14.652 2.817-29.553 5.188-45.452 7.172-52.084 6.506-117.607 8.62-173.729 5.5-8.254-.46-16.24-1.027-23.917-1.701-34.084-2.998-57.42-6.88-98.064-15.54l-4.588-.983-13.529-2.923-8.433-1.802c-55.233-11.58-125.215-18.766-196.832-19.245-29.574-.196-58.88.76-87.577 2.94-15.238 1.15-30.093 2.503-45.106 4.084-9.86 1.037-19.337 2.103-30.952 3.472l-8.413 1-32.872 3.955c-69.921 8.28-116.244 11.438-183.532 10.839-52.493-.468-93.634-1.94-128.853-4.89-61.18-5.126-106.613-12.595-137.521-23.422l4.23-.451c30.362 10.636 74.967 17.969 135.212 23.016 34.601 2.899 75.197 4.35 127.155 4.814 67.206.598 113.088-2.613 184.171-11.105l32.063-3.86c12.748-1.52 22.818-2.673 32.943-3.758l4.059-.43c15.185-1.6 30.224-2.969 45.654-4.134 29.31-2.226 59.275-3.204 89.505-3.003 74.048.494 146.166 8 202.571 20.043l19.616 4.228c43.1 9.264 66.532 13.265 101.093 16.304 7.458.655 15.224 1.207 23.254 1.654 54.746 3.043 118.832.976 169.77-5.386 15.601-1.948 30.243-4.277 44.667-7.05 16.077-3.091 29.102-6.06 49.713-11.225l4.087-1.028 20.35-5.162c16.01-4.036 26.347-6.5 37.834-8.946l3.61-.76c13.176-2.753 27.544-5.154 42.871-7.174zm1.635-7.233c82.276-10.634 182.783-10.011 262.653 2.179 30.597 4.67 53.12 9.329 99.423 19.92l7.443 1.71c22.364 5.168 45.01 10.619 66.79 16.05 25.642 6.398 43.1 11.454 54.244 15.916l-4.523.422c-9.59-3.84-24.024-8.152-44.529-13.423l-4.487-1.145-4.676-1.174c-24.157-6.026-49.383-12.073-74.099-17.73-46.085-10.54-68.455-15.169-98.699-19.784l-2.35-.354c-77.759-11.584-174.725-12.078-254.394-1.78-14.984 1.944-29.073 4.271-42.037 6.95-11.223 2.314-20.855 4.523-34.57 7.91l-7.223 1.797-21.195 5.342c-21.243 5.323-34.529 8.4-50.168 11.473l-2.637.514c-14.62 2.826-29.425 5.204-45.182 7.199-51.668 6.55-116.473 8.786-172.103 5.838-8.171-.435-16.093-.977-23.704-1.625-33.366-2.84-56.207-6.508-95.871-14.728l-4.564-.95-18.876-3.976-4.737-.984c-55.142-11.291-124.797-18.309-196.133-18.81-29.495-.206-58.653.715-87.153 2.832-15.218 1.121-30.026 2.435-44.896 3.964-9.776 1.004-19.176 2.035-30.711 3.36l-8.358.967-32.562 3.813c-69.934 8.065-116.12 11.16-183.119 10.658-55.346-.414-94.678-1.61-128.911-4.275-62.097-4.834-107.151-11.81-139.037-22.493l4.35-.486c31.286 10.483 75.451 17.321 136.563 22.079 33.59 2.615 72.41 3.795 127.23 4.205 66.924.5 112.67-2.646 183.793-10.92l34.179-4.002c9.583-1.108 17.658-2.012 25.507-2.85l4.693-.496 4.025-.417c15.048-1.547 30.045-2.878 45.46-4.013 29.13-2.165 58.962-3.107 89.128-2.897 73.804.52 145.635 7.854 201.988 19.607l1.59.332 17.431 3.672c43.493 9.132 66.616 12.992 101.014 15.92 7.385.628 15.077 1.154 23.012 1.576 54.2 2.873 117.526.688 168.02-5.714 15.452-1.956 29.995-4.292 44.382-7.073 15.164-2.93 27.687-5.76 46.683-10.473l5.903-1.472 17.584-4.436c18.746-4.715 30.073-7.406 43.054-10.122l2.455-.51c13.22-2.731 27.6-5.107 42.907-7.093zm-3.54-6.235c82.357-10.48 182.132-9.694 260.959 2.619 23.13 3.613 42.806 7.49 71.925 13.976l9.032 2.026 23.978 5.448c10.498 2.39 21.035 4.813 32.348 7.436l13.994 3.253 25.602 5.988c27.55 6.462 45.071 11.134 56.298 15.24l-4.61.47c-11.02-4.03-28.37-8.656-55.712-15.069l-18.037-4.223c-12.508-2.922-23.796-5.543-34.598-8.031l-12.29-2.821-28.627-6.514c-32.338-7.322-53.048-11.595-75.962-15.338l-3.29-.531-3.328-.526c-77.05-12.035-174.34-12.802-254.811-2.562-14.96 1.912-29.05 4.21-42.029 6.863-12.287 2.505-22.765 4.91-38.464 8.787l-5.654 1.404-16.586 4.16c-21.368 5.345-34.754 8.488-49.636 11.483l-2.81.56-2.703.53c-14.567 2.83-29.275 5.216-44.903 7.225-51.247 6.596-115.34 8.953-170.474 6.177-8.078-.408-15.926-.922-23.493-1.543-33.876-2.785-56.657-6.403-98.075-14.82l-4.594-.938-10.93-2.251-9.913-2.02c-55.049-10.997-124.37-17.84-195.42-18.365-29.4-.214-58.41.67-86.728 2.723-15.177 1.09-29.94 2.366-44.682 3.843-10.436 1.046-20.441 2.12-33.15 3.547l-5.62.634-32.207 3.667c-69.977 7.85-116.025 10.88-182.735 10.477-59.254-.357-95.737-1.268-128.97-3.652-63.145-4.532-107.71-11.01-140.565-21.558l4.467-.52C42.8 165.368 86.41 171.71 148.517 176.166c29.878 2.143 62.667 3.077 113.232 3.49l7.007.053 7.079.046c66.647.404 112.26-2.678 183.457-10.735l28.695-3.272c11.055-1.252 20.03-2.24 28.615-3.14l6.392-.662 3.991-.403c14.927-1.495 29.882-2.788 45.258-3.892 28.963-2.1 58.664-3.005 88.75-2.786 73.565.543 145.112 7.705 201.42 19.165l20.691 4.247c42.414 8.658 65.018 12.295 98.66 15.061 7.33.601 14.938 1.1 22.771 1.496 53.653 2.7 116.225.4 166.27-6.041 15.32-1.97 29.763-4.312 44.094-7.097 14.624-2.842 26.866-5.599 45.076-10.084l7.898-1.959 11.083-2.78c20.341-5.112 32.526-8.043 45.465-10.786l2.516-.529 3.726-.768c13.248-2.708 27.643-5.056 42.944-7.011zm6.827-6.35c82.417-10.157 181.436-9.22 259.227 3.016 21.42 3.369 39.94 6.992 66.897 12.907l7.125 1.573 22.515 5.032 59.642 13.223 32.116 7.023c25.032 5.512 39.975 9.2 50.155 12.531l-4.654.532c-9.672-3.166-23.883-6.695-47.401-11.897l-6.256-1.375-14.788-3.219-68.252-15.1-27.137-6.06c-27.62-6.131-46.302-9.92-66.46-13.246l-3.575-.583-3.339-.53c-75.968-11.949-172.44-12.862-252.903-2.947-14.937 1.851-29.02 4.084-42.02 6.668-14.31 2.839-26.283 5.574-46.418 10.492l-21.26 5.208c-18.787 4.56-31.244 7.367-45.459 10.147l-2.775.538c-14.505 2.789-29.125 5.145-44.632 7.137-50.832 6.534-114.186 8.975-168.817 6.417-8.003-.377-15.783-.857-23.276-1.44-33.115-2.58-55.4-5.93-95.708-13.753l-6.89-1.346-10.83-2.138-9.558-1.868c-54.95-10.528-123.935-17.09-194.707-17.63-29.32-.22-58.182.613-86.317 2.571-15.094 1.037-29.788 2.254-44.475 3.663-9.606.923-18.846 1.867-30.223 3.083l-8.25.887-24.21 2.64-11.301 1.217c-67.979 7.218-113.432 10.03-178.684 9.735-65.193-.294-96.839-.9-129.003-2.977-64.314-4.148-108.29-10.034-142.095-20.281l4.558-.562c33.072 10.025 76.026 15.774 139.248 19.852 26.978 1.741 53.804 2.431 101.612 2.776l12.676.081 13.13.066c66.386.3 111.873-2.668 183.159-10.379l33.283-3.62c9.458-1.017 17.407-1.846 25.125-2.615l4.614-.456 3.957-.383c14.875-1.427 29.766-2.66 45.059-3.71 28.786-2.004 58.342-2.858 88.348-2.633 73.317.56 144.571 7.435 200.823 18.42l22.378 4.402c41.322 8.059 63.42 11.427 96.3 13.99 7.248.562 14.782 1.027 22.533 1.392 53.118 2.488 114.936.106 164.548-6.272 15.197-1.951 29.547-4.264 43.813-7.007 14.127-2.716 26.094-5.36 43.618-9.58l6.057-1.467 21.228-5.201c16.071-3.916 26.942-6.43 38.312-8.781l2.742-.562 3.894-.782c13.282-2.64 27.687-4.924 42.981-6.82zm1.636-6.235c82.486-9.997 180.756-8.892 257.531 3.462 18.537 2.982 34.907 6.166 57.209 11.024l7.12 1.564 9.007 2.005 25.641 5.746 15.93 3.503c20.742 4.542 39.133 8.49 55.71 11.945l5.458 1.134 18.41 3.787c23.639 4.891 36.689 7.818 46.268 10.493l1.61.457 1.336.39-4.686.592c-8.688-2.572-20.154-5.244-41.306-9.672l-9.122-1.895-14.151-2.908c-19.442-4.008-41.417-8.714-66.882-14.299l-9.715-2.136-6.285-1.393-27.01-6.055c-26.841-5.977-44.843-9.625-64.78-12.907l-3.342-.543c-74.9-12.053-170.525-13.128-250.97-3.378-14.923 1.82-29.005 4.025-42.012 6.582-12.635 2.477-23.542 4.898-39.539 8.73l-5.751 1.386-16.183 3.944c-21.154 5.155-34.431 8.214-48.901 11.109l-2.818.559-2.778.54c-14.49 2.801-29.002 5.163-44.352 7.162-50.41 6.58-113.048 9.142-167.18 6.76-7.89-.349-15.596-.802-23.065-1.359-32.597-2.44-54.97-5.694-94.412-13.133l-4.629-.877-14.323-2.748-9.062-1.724c-54.855-10.236-123.517-16.628-194.02-17.19-29.085-.23-57.812.57-85.89 2.46-15.263 1.027-29.948 2.206-44.275 3.544-8.866.829-17.415 1.674-27.67 2.731l-8.044.836L476.22 159c-70.105 7.29-115.857 10.143-181.986 9.937l-17.884-.056c-52.785-.187-78.27-.572-103.78-1.887l-2.944-.156-4.439-.25c-65.624-3.824-108.884-9.219-143.628-19.337l4.663-.599c33.94 9.885 76.108 15.143 140.58 18.9l1.476.085c25.044 1.426 48.251 1.895 96.386 2.115l14.902.058 18.16.053c62.07.093 106.165-2.634 172.3-9.45l7.172-.745 30.3-3.2c9.682-1.012 17.736-1.833 25.447-2.586l4.595-.444 5.887-.557c14.52-1.356 29.402-2.55 44.87-3.592 28.749-1.935 58.178-2.754 87.959-2.52 73.077.584 144.04 7.285 200.235 17.976l20.808 3.986c41.861 7.97 64.257 11.318 97.191 13.783 7.214.537 14.665.976 22.293 1.313 52.572 2.313 113.639-.185 162.806-6.602 15.036-1.958 29.275-4.276 43.524-7.03 14.688-2.838 27.118-5.608 46.173-10.2l4.04-.978 16.357-3.988c19-4.622 31.072-7.405 44.025-10.03l2.694-.542 2.65-.524c13.303-2.616 27.722-4.873 43.02-6.739zm6.817-6.235c82.528-9.834 180.039-8.56 255.828 3.91 21.398 3.52 39.87 7.315 69.114 13.91l25.295 5.705 5.192 1.152 6.866 1.506c29.469 6.43 56.506 12.048 80.047 16.586l14.13 2.73c26.014 5.043 36.297 7.163 45.003 9.362l1.179.3 2.102.55-4.681.66c-10.755-2.86-21.367-5.012-61.82-12.81l-5.74-1.114c-18.176-3.552-38.271-7.701-59.836-12.335l-7.672-1.655-10.6-2.31c-1.32-.289-2.65-.581-4.008-.881l-6.357-1.415-30.358-6.843c-23.609-5.27-40.052-8.618-57.996-11.645l-3.611-.601c-73.863-12.153-168.63-13.39-249.032-3.81-14.886 1.785-28.964 3.96-42.008 6.495-13.346 2.585-24.854 5.13-42.12 9.254l-5.758 1.382-15.05 3.648c-20.42 4.944-33.418 7.928-47.418 10.743l-2.816.562-2.858.56c-14.44 2.805-28.858 5.175-44.078 7.188-50 6.623-111.914 9.309-165.536 7.105-7.837-.325-15.476-.75-22.857-1.276-32.736-2.346-55.439-5.582-95.503-12.954l-4.702-.869-12.623-2.357-9.042-1.672c-54.766-9.941-123.109-16.16-193.335-16.746-28.998-.238-57.574.524-85.47 2.35-15.317 1.001-29.954 2.14-44.063 3.42-8.06.732-15.857 1.476-24.95 2.379l-10.507 1.055-37.178 3.789c-68.122 6.799-113.273 9.484-177.955 9.376l-32.74-.03c-49.693-.065-71.39-.394-96.337-1.687l-3.126-.164c-65.273-3.47-106.93-8.377-142.049-18.217l4.765-.636c34.793 9.75 76.052 14.52 141.91 17.936l1.489.077c21.29 1.075 40.803 1.436 79.425 1.544l11.291.024 38.81.037c64.03.008 108.905-2.85 179.213-9.995l29.809-3.047c9.627-.975 17.623-1.765 25.273-2.49l4.559-.427 5.838-.536c14.306-1.299 29.144-2.453 44.667-3.469 28.581-1.87 57.87-2.651 87.574-2.407 72.824.607 143.499 7.132 199.643 17.524l21.375 3.98c41.028 7.586 63.518 10.838 95.946 13.162 7.115.507 14.49.918 22.058 1.231 52.013 2.138 112.324-.478 161.058-6.933 14.903-1.971 29.048-4.296 43.245-7.054 13.682-2.66 25.464-5.264 42.74-9.386l5.972-1.432 19.037-4.611c19.315-4.656 31.6-7.437 45.31-10.142l2.963-.58c13.355-2.594 27.785-4.823 43.064-6.656zm12.007-6.338c82.545-9.51 179.273-8.088 254.09 4.292 20.321 3.363 37.956 6.97 65.702 13.18l25.169 5.632c4.642 1.027 8.806 1.935 12.923 2.817l3.563.76c29.625 6.312 57.72 11.885 82.361 16.29l35.873 6.396 5.34.976c8.992 1.661 15.736 2.993 21.026 4.17l2.18.497-4.6.738c-4.741-1.103-10.852-2.344-19.094-3.89l-3.666-.683-4.174-.765-39.935-7.128c-23.05-4.16-48.937-9.293-76.176-15.066l-7.136-1.52c-3.45-.739-6.93-1.495-10.69-2.324l-5.884-1.303-26.234-5.874c-23.427-5.207-39.504-8.484-57.025-11.453l-3.412-.571c-72.85-12.056-166.78-13.436-247.132-4.179-14.843 1.722-28.923 3.833-41.996 6.3-13.023 2.453-24.375 4.887-40.734 8.689l-7.93 1.857-15.667 3.713c-19.081 4.518-31.602 7.344-44.66 9.961l-4.225.836-2.863.555c-14.391 2.768-28.71 5.107-43.793 7.099-49.588 6.56-110.76 9.324-163.872 7.333-7.754-.292-15.317-.684-22.641-1.174-31.577-2.124-54.103-5.127-91.855-11.716l-7.11-1.25-11.178-1.995-11.204-1.983c-54.682-9.483-122.683-15.428-192.633-16.028-28.898-.242-57.335.472-85.065 2.203-15.351.958-29.918 2.038-43.86 3.246-8.644.749-16.978 1.51-26.983 2.46l-7.848.75-33.395 3.243c-70.308 6.738-115.748 9.409-181.3 9.395l-10.469.006-28.755.064c-47.178.1-66.695-.097-89.869-1.13l-3.15-.143c-66.795-3.057-107.53-7.418-143.571-16.991l4.834-.68c34.531 9.171 73.368 13.415 137.087 16.406l6.145.281c18.621.83 34.98 1.108 66.386 1.123h6.202l10.666-.012 32.614-.072 15.383-.01c61.417-.08 105.19-2.63 171.328-8.91l7.585-.726 29.626-2.88c9.321-.897 17.092-1.627 24.518-2.298l4.424-.396 6.097-.535c14.14-1.225 28.91-2.32 44.468-3.292 28.417-1.773 57.564-2.505 87.164-2.257 72.57.623 142.936 6.867 199.04 16.79l17.334 3.088c43.098 7.672 66.17 10.928 99.305 13.157 7.052.472 14.343.85 21.82 1.131 51.483 1.93 111.044-.761 159.357-7.153 14.764-1.949 28.806-4.243 42.951-6.964 15.224-2.926 28.165-5.79 49.332-10.79l17.698-4.194c18.331-4.32 30.507-7.026 43.454-9.554l2.893-.559 2.744-.521c13.4-2.53 27.848-4.696 43.102-6.465zm6.813-6.233c82.566-9.342 178.515-7.749 252.391 4.744 16.508 2.792 31.19 5.74 51.505 10.242l4.61 1.027 6.816 1.533 23.402 5.293c4.164.933 7.95 1.77 11.584 2.561l3.593.778 6.624 1.411c30.061 6.359 59.125 11.96 84.77 16.28l1.971.331 41.857 6.93c7.989 1.344 13.924 2.389 18.7 3.305l2.126.414 1.755.353-4.487.82c-6.054-1.24-14.18-2.673-27.26-4.846l-27.792-4.587-13.921-2.328c-26.094-4.45-55.482-10.16-85.761-16.607l-1.582-.337c-6.866-1.47-13.873-3.021-22.662-5.006l-22.166-5.017c-22.322-5.012-37.69-8.187-54.386-11.077l-3.36-.575c-71.86-12.152-164.915-13.697-245.202-4.613-14.822 1.689-28.895 3.77-41.98 6.211-14.278 2.656-26.64 5.312-45.407 9.678l-6.04 1.411-18.328 4.317c-16.18 3.79-27.5 6.316-39.151 8.663l-2.923.583-4.282.838c-14.347 2.774-28.57 5.121-43.518 7.124-49.177 6.605-109.63 9.492-162.227 7.681-7.72-.268-15.208-.632-22.427-1.093-34.28-2.19-58.229-5.49-102.531-13.16l-9.208-1.594-9.057-1.552c-54.596-9.186-122.28-14.96-191.954-15.58-28.796-.254-57.093.422-84.65 2.089-15.352.928-29.857 1.966-43.65 3.123-7.658.642-15.071 1.292-23.652 2.074l-10.949 1.008-32.917 3.083c-70.423 6.515-115.698 9.116-180.96 9.195l-4.554.008c-2.363.005-4.712.012-7.143.02l-10.377.048-32.042.19c-33.2.176-50.046.103-67.006-.416l-4.252-.139-3.733-.136c-70.39-2.676-110.744-6.554-148.277-16.17l4.926-.718c36.462 9.341 75.504 13.092 144.543 15.718l1.32.049c19.295.712 35.916.82 74.424.608l22.568-.137c4.422-.026 8.31-.048 11.907-.065l8.532-.033 12.607-.026c63.488-.169 108.086-2.84 178.7-9.43l34.06-3.187c6.904-.637 12.975-1.185 18.811-1.696l4.959-.43 6.05-.513c13.995-1.173 28.706-2.227 44.263-3.167 28.255-1.709 57.27-2.402 86.775-2.142 72.312.645 142.386 6.712 198.438 16.334l20.388 3.518c40.671 6.979 63.582 10.049 95.577 12.093 6.938.444 14.144.794 21.577 1.052 50.924 1.753 109.739-1.056 157.622-7.487 14.628-1.96 28.573-4.26 42.673-6.988 12.75-2.463 23.947-4.887 39.986-8.606l5.995-1.398 18.32-4.315c19.066-4.475 31.714-7.284 44.899-9.851l2.836-.547 4.177-.788c13.426-2.505 27.884-4.643 43.137-6.38zm11.995-6.234c82.585-9.169 177.75-7.402 250.685 5.201 18.695 3.231 34.969 6.653 60.572 12.506l23.092 5.281c5.393 1.22 10.186 2.287 14.79 3.288l3.908.843 3.17.675c31.74 6.722 62.971 12.603 90.556 16.983 9.346 1.485 50.235 7.656 64.574 9.982l2.594.428 1.196.206-4.307.906c-8.14-1.448-57.503-8.889-68.096-10.572l-2.997-.48c-27.093-4.365-57.43-10.103-88.219-16.624l-1.595-.338c-7.977-1.699-16.015-3.489-26.343-5.846l-19.468-4.46c-22.61-5.152-37.814-8.356-54.342-11.28l-3.325-.581c-70.875-12.247-163.051-13.958-243.265-5.053-14.823 1.662-28.891 3.713-41.977 6.124-14.052 2.58-26.335 5.183-44.333 9.327l-4.097.947-22.856 5.345c-16.15 3.76-27.39 6.254-39.093 8.602l-2.939.585-2.865.56c-14.326 2.785-28.44 5.136-43.24 7.149-48.753 6.65-108.478 9.661-160.566 8.033-7.6-.24-15.02-.576-22.22-1.008-31.166-1.886-54.079-4.746-91.465-10.875l-4.96-.818-12.991-2.173-10.823-1.798c-54.517-8.886-121.878-14.485-191.283-15.131-28.708-.262-56.857.377-84.24 1.977-15.305.894-29.738 1.89-43.438 3-8.472.686-16.639 1.381-26.47 2.25l-10.459.933-18.238 1.648-15.5 1.39c-68.34 6.037-112.977 8.476-176.753 8.644l-4.02.013c-6.835.026-13.481.069-21.398.139l-5.482.05-26.922.276c-37.405.37-52.283.336-71.295-.26l-6.113-.196c-68.378-2.267-106.363-5.756-143.734-14.998l5.013-.758c37.296 9.224 75.026 12.52 145.852 14.738l3.695.11c16.86.472 31.941.475 66.577.132l22.203-.23c9.401-.093 16.87-.156 23.986-.197l6.352-.031 8.73-.03c60.878-.245 104.36-2.663 170.707-8.524l7.76-.692 23.228-2.1c11.81-1.064 21.046-1.877 29.807-2.614l6.014-.501 4.002-.327c13.906-1.125 28.546-2.137 44.057-3.042 28.087-1.641 56.96-2.297 86.382-2.03 72.06.672 141.831 6.56 197.839 15.874l2.125.353 16.517 2.763c41.26 6.879 64.53 9.919 96.63 11.86 6.91.415 14.043.738 21.348.97 50.373 1.574 108.436-1.354 155.881-7.826 14.48-1.969 28.316-4.274 42.394-7.01 12.321-2.393 23.245-4.754 38.745-8.328l5.787-1.342 22.875-5.35c17.08-3.962 29.093-6.585 41.52-8.981l1.524-.293 3.01-.568 2.847-.528c13.44-2.477 27.91-4.586 43.183-6.298zm12.01-5.323c82.567-8.847 176.916-6.936 248.942 5.568 18.054 3.136 33.78 6.437 58.554 12.076l23.09 5.254c9.34 2.101 16.976 3.763 24.76 5.375l3.451.712c31.063 6.377 61.917 11.907 89.411 15.956l2.095.306c16.953 2.462 51.622 7.135 63.977 8.833l4.214.588-4.003 1.002c-3.935-.587-51.407-6.946-70.252-9.722l-3.103-.461c-28.046-4.204-59.28-9.865-90.578-16.35-6.542-1.355-12.971-2.743-20.366-4.39l-4.561-1.021-6.288-1.422-21.213-4.834c-20.69-4.678-34.93-7.657-50.354-10.396l-3.21-.564c-69.931-12.14-161.247-13.99-241.38-5.404-14.788 1.599-28.856 3.587-41.96 5.933-14.803 2.638-27.726 5.321-47.045 9.684l-4.24.96-23.428 5.36c-14.418 3.273-24.844 5.533-35.575 7.662l-3.078.605-2.865.555c-14.262 2.74-28.285 5.062-42.958 7.056-48.342 6.586-107.32 9.67-158.888 8.25-7.533-.21-14.88-.513-21.994-.91-33.344-1.866-57.578-4.894-100.097-11.657l-10.917-1.738-8.724-1.376c-54.43-8.437-121.456-13.769-190.577-14.427-28.622-.27-56.638.322-83.852 1.832-15.36.851-29.717 1.79-43.24 2.828-11.224.862-21.895 1.736-36.74 2.997l-29.218 2.492c-70.76 5.964-115.68 8.38-180.382 8.64l-1.964.009c-10.059.046-19.492.137-31.54.297l-8.798.122-18.067.267c-35.575.518-49.318.588-66.287.213l-5.48-.13c-72.258-1.794-109.503-4.76-148.376-13.902l5.059-.804c37.063 8.716 72.39 11.612 141.18 13.375l5.978.148c16.403.395 28.895.378 60.387-.062l22.474-.33c13.453-.196 23.581-.322 33.307-.398l1.494-.011 6.546-.041 7.535-.035c58.124-.311 100.35-2.45 162.372-7.526l8.028-.664 7.932-.668 30.29-2.583c7.901-.667 14.649-1.224 21.098-1.74l4.795-.38 5.96-.463c13.73-1.054 28.29-2.005 43.852-2.868 27.917-1.549 56.65-2.155 85.977-1.88 71.785.684 141.247 6.296 197.203 15.15l1.119.177 18.278 2.905c38.617 6.11 61.66 9.002 91.307 10.788l3.907.227c6.818.38 13.87.671 21.103.872 49.842 1.372 107.16-1.624 154.19-8.031 14.353-1.951 28.098-4.226 42.111-6.919 11.27-2.165 21.41-4.305 35.18-7.397l7.9-1.788 19.508-4.466c20.245-4.617 33.655-7.49 47.855-10.124l3.057-.56 2.904-.523c13.474-2.413 27.962-4.46 43.217-6.11zm11.993-7.217c82.376-8.692 176.045-6.595 247.232 6.026 15.322 2.716 28.905 5.541 48.196 9.924l4.384 1 22.793 5.256c8.918 2.045 16.305 3.697 23.371 5.21l5.258 1.113 3.276.68c32.77 6.754 65.768 12.548 95.167 16.629 13.747 1.908 27.198 3.626 42.28 5.44 2.372.286 9.025 1.073 15.528 1.844l14.355 1.716-3.644 1.096c-3.281-.408-16.84-2.01-24.81-2.955l-10-1.2c-13.21-1.61-25.303-3.17-37.64-4.883-29.791-4.135-63.104-9.985-96.151-16.795l-1.891-.392c-6.294-1.307-12.53-2.66-19.572-4.239l-6.58-1.487-6.226-1.425-20.646-4.764c-20.12-4.608-33.929-7.54-48.89-10.25l-3.114-.557c-69.05-12.243-159.587-14.27-239.448-5.843-14.679 1.548-28.73 3.506-41.94 5.84-14.58 2.563-27.404 5.188-45.97 9.336l-8.33 1.875-16.008 3.646c-15.674 3.564-26.62 5.967-37.444 8.153l-4.239.846-4.288.837c-14.233 2.75-28.154 5.076-42.68 7.08-47.926 6.628-106.18 9.834-157.233 8.6-7.453-.184-14.73-.46-21.775-.825-32.857-1.72-57.23-4.63-98.771-10.995l-12.647-1.942-7.769-1.182c-54.359-8.131-121.069-13.287-189.92-13.97-28.51-.278-56.384.276-83.432 1.718-15.475.825-29.73 1.719-43.04 2.702-6.735.498-13.268 1-20.652 1.584l-13.274 1.066-31.132 2.543c-71.013 5.741-115.762 8.083-180.217 8.435l-4.709.03c-10.15.073-19.948.202-32.001.415l-9.504.174-22.692.446c-27.122.523-39.486.67-52.362.54l-3.648-.043-4.176-.065c-34.409-.591-53.556-1.15-73.394-2.414l-1.216-.078-3.593-.24c-28.126-1.938-52.419-5.171-74.789-10.259l5.135-.844c21.602 4.913 44.903 8.014 71.917 9.875 17.983 1.239 34.466 1.848 61.9 2.393l5.835.112 8.802.157c13.464.232 23.511.204 45.926-.19l7.112-.129 28.942-.564c16.804-.32 29.06-.5 41.963-.591l7.934-.05c57.876-.387 99.945-2.463 162.082-7.343l8.221-.652 7.962-.644 24.53-2.007c9.401-.766 17.116-1.382 24.359-1.942l6.424-.49 5.91-.442c13.518-.999 27.977-1.905 43.653-2.741 27.757-1.48 56.35-2.049 85.567-1.764 71.523.71 140.683 6.14 196.598 14.68l22.707 3.476c37.777 5.72 60.843 8.387 91.213 9.977 6.741.35 13.721.614 20.867.79 49.288 1.192 105.865-1.922 152.469-8.367 14.205-1.96 27.85-4.24 41.835-6.941 10.758-2.078 20.515-4.132 33.606-7.054l6.13-1.377 23.942-5.442c19.454-4.396 32.725-7.203 46.732-9.77l3.128-.566 2.963-.526c13.597-2.403 28.089-4.421 43.253-6.02zm6.82-6.228c82.347-8.515 175.213-6.238 245.536 6.49 14.31 2.591 27.052 5.268 44.709 9.315l6.318 1.458 26.322 6.141c8.988 2.073 16.52 3.755 23.887 5.318l3.675.773 3.222.666c33.33 6.836 67.19 12.632 97.47 16.592 14.437 1.887 28.736 3.567 43.463 5.148 5.672.61 11.211 1.183 17.218 1.79l13.317 1.328-3.186 1.19-17.802-1.784c-4.396-.45-8.616-.89-12.914-1.352-14.895-1.6-29.364-3.3-43.978-5.21-30.748-4.02-64.977-9.88-98.632-16.783l-1.63-.336c-10.847-2.241-21.358-4.593-35.565-7.904l-20.174-4.715c-18.108-4.202-30.93-6.989-44.252-9.508l-3.086-.578-3.12-.57c-68.145-12.335-157.79-14.533-237.529-6.287-14.64 1.513-28.689 3.44-41.926 5.747-15.403 2.672-28.926 5.43-48.93 9.89l-6.425 1.44-18.414 4.168c-16.59 3.743-27.725 6.15-39.575 8.484l-2.98.583-3.262.627c-13.029 2.48-25.837 4.614-39.134 6.477-47.519 6.673-105.046 10.004-155.566 8.955-7.34-.155-14.545-.402-21.565-.74-29.454-1.43-52.36-3.864-86.866-8.8l-5.265-.76-5.324-.778-12.903-1.907-8.286-1.214c-54.27-7.827-120.668-12.808-189.252-13.515-28.464-.286-56.19.23-83.029 1.605-15.514.794-29.685 1.644-42.839 2.576-6.767.48-13.32.961-20.765 1.526l-10.551.809-32.884 2.567c-71.28 5.513-115.81 7.779-179.994 8.221l-2.244.017c-13.905.109-26.829.333-44.022.737l-6.657.16-25.115.623c-22.357.539-32.673.704-43.76.662l-.784-.003-3.587-.023-5.669-.055c-35.327-.368-52.61-.753-72.292-1.88l-3.216-.19c-28.547-1.725-53.3-4.83-76.316-9.896l5.209-.884c22.174 4.881 45.84 7.849 73.176 9.501 17.629 1.066 32.58 1.507 60.078 1.855l8.35.098 8.136.086c13.895.142 23.078.042 49.248-.587l25.694-.637c21.799-.535 36.748-.807 53.523-.923l3.628-.027c62.512-.505 106.507-2.833 178.164-8.42l26.282-2.054c7.316-.568 13.596-1.048 19.485-1.487l8.62-.634 5.878-.42c13.364-.947 27.738-1.81 43.449-2.613 27.552-1.413 55.997-1.941 85.169-1.648 71.263.735 140.122 5.983 195.974 14.208l20.941 3.087c38.356 5.613 61.79 8.235 92.3 9.717 6.707.323 13.602.56 20.626.707 48.726 1.012 104.563-2.221 150.75-8.706 14.086-1.975 27.642-4.263 41.554-6.965 12.405-2.409 23.523-4.788 40.326-8.57l22.395-5.065c19.787-4.444 33.357-7.29 47.662-9.88l3.194-.572 3.024-.53c13.642-2.377 28.15-4.367 43.294-5.932zm12.023-6.31c82.286-8.192 174.317-5.776 243.775 6.844 13.962 2.537 26.37 5.143 43.643 9.092l6.183 1.422 23.618 5.496c13.923 3.212 24.423 5.514 35.557 7.749l3.284.655c32.861 6.519 66.341 11.973 96.486 15.623 27.177 3.29 52.122 5.621 75.785 7.401l-2.583 1.284c-24.053-1.81-49.391-4.179-76.982-7.518-31.695-3.837-66.837-9.607-101.12-16.49-12.34-2.476-23.872-5.027-39.976-8.766l-21.538-5.013c-16.557-3.818-28.54-6.407-40.944-8.763l-3.25-.61-3.041-.558c-67.251-12.22-156.02-14.55-235.636-6.623-14.603 1.453-28.645 3.318-41.92 5.56-15.214 2.56-28.66 5.217-47.97 9.407l-6.418 1.4-22.855 5.056c-14.305 3.15-24.434 5.294-34.894 7.343l-1.462.285-2.763.534c-14.152 2.716-27.868 5.016-42.116 7.008-47.104 6.606-103.88 10.003-153.876 9.158-7.324-.127-14.448-.341-21.344-.642-31.864-1.4-56.417-4.01-96.084-9.516l-22.059-3.069c-54.21-7.39-120.263-12.11-188.557-12.827-28.343-.294-55.945.175-82.642 1.463-15.626.753-29.676 1.544-42.637 2.408-6.72.448-13.224.898-20.627 1.425l-10.501.755-32.228 2.358c-71.531 5.189-115.85 7.34-179.75 7.865l-2.4.02c-14.864.139-28.67.424-46.73.93l-6.983.201-22.915.685c-23.713.7-33.006.903-43.886.924h-4.326l-18.114-.062c-29.448-.138-44.893-.462-63.622-1.46-28.277-1.508-53.01-4.417-76.23-9.289l5.24-.933c22.314 4.682 45.888 7.455 72.884 8.894 17.32.923 31.87 1.25 58.602 1.395l8.4.038 7.957.026 8.272.015c8.642-.01 16.086-.133 30.778-.537l7.989-.227 27.931-.831c22.86-.67 38.88-1.018 56.85-1.165l3.685-.032c57.284-.535 98.967-2.448 161.309-6.847l8.438-.602 8.341-.605 22.972-1.684c12.016-.877 21.185-1.53 30.142-2.14l6.199-.419 3.984-.26c12.052-.778 25.016-1.496 39.253-2.182 27.403-1.322 55.713-1.803 84.749-1.502 70.975.745 139.505 5.723 195.326 13.497l21.693 3.02c37.406 5.158 60.878 7.608 90.871 8.927 6.58.287 13.393.492 20.4.614 48.196.814 103.292-2.483 149.067-8.902 13.93-1.948 27.372-4.201 41.277-6.87 9.842-1.889 18.898-3.76 30.841-6.355l7.961-1.742 24.948-5.514c19.046-4.167 32.47-6.9 46.585-9.38l3.272-.57 3.091-.525c13.696-2.313 28.214-4.24 43.34-5.746zm6.826-7.223c82.243-8.01 173.457-5.415 242.067 7.31 13.649 2.531 25.754 5.116 42.684 9.042l6.063 1.415 23.086 5.445c12.08 2.825 21.666 4.973 31.21 6.954l3.58.736 3.244.654c34.472 6.891 70.045 12.59 102.06 16.238 28.786 3.278 56.925 5.582 77.53 6.671l-1.929 1.364c-21.232-1.122-49.971-3.476-79.315-6.817-32.643-3.72-68.707-9.497-103.603-16.473-13.21-2.64-25.382-5.354-42.605-9.409L1756.59 97c-18.476-4.348-31.122-7.15-44.3-9.697l-2.94-.562-2.973-.557c-66.368-12.31-154.231-14.81-233.71-7.068-14.593 1.423-28.638 3.258-41.903 5.468-18.772 3.113-34.948 6.399-62.114 12.38l-12.907 2.845c-16.384 3.604-27.22 5.901-38.634 8.131l-2.754.535c-14.078 2.718-27.704 5.024-41.83 7.031-46.684 6.65-102.73 10.17-152.195 9.515-7.197-.1-14.247-.284-21.13-.556-28.241-1.13-51.003-3.246-83.514-7.407l-5.672-.734-5.573-.734-22.848-3.047c-54.16-7.082-119.888-11.627-187.896-12.368-28.275-.302-55.725.13-82.247 1.348-15.811.73-29.706 1.473-42.436 2.283-6.556.417-12.898.834-20.096 1.32l-8.516.582-33.82 2.35c-71.869 4.956-115.947 7.026-179.594 7.641l-2.537.026c-15.825.174-30.497.532-49.468 1.164l-6.883.234-25.893.92c-19.572.686-27.633.915-36.384 1.01l-3.828.032-12.812.061c-33.395.144-49.866.014-68.896-.807l-3.199-.143c-28.317-1.313-53.26-4.09-76.874-8.893l5.302-.974c22.64 4.605 46.333 7.243 73.278 8.492 16.935.785 31.125 1.005 56.893.955l5.5-.014 10.643-.042 10.676-.054c7.65-.058 13.859-.19 26.601-.61l5.598-.19 32.134-1.136c23.754-.826 40.73-1.26 59.784-1.443l7.447-.08c60.104-.71 103.44-2.852 174.384-7.781l22.068-1.537c6.959-.483 12.946-.893 18.484-1.266l9.982-.661 7.74-.5c12.94-.822 27.027-1.576 43.027-2.314 27.23-1.252 55.386-1.694 84.35-1.385 70.687.77 138.895 5.564 194.69 13.02l25.251 3.361c34.895 4.558 57.914 6.787 86.627 7.936 6.558.259 13.292.436 20.166.53 47.64.631 102-2.783 147.352-9.243 13.81-1.962 27.163-4.222 40.997-6.893 8.936-1.724 17.244-3.432 27.839-5.716l9.42-2.048 18.963-4.175c22.329-4.903 37.26-7.975 52.773-10.692l1.528-.266 3.124-.535 3.16-.53c13.701-2.283 28.24-4.182 43.378-5.659zm6.832-7.221c82.173-7.827 172.563-5.05 240.354 7.779 13.355 2.527 25.178 5.093 41.793 9.003l5.952 1.409 20.437 4.89c17.042 4.055 29.232 6.783 42.55 9.433l3.19.63c34.067 6.693 69.275 12.152 101.156 15.567 30.189 3.235 59.973 5.344 79.235 5.94l-1.187 1.433c-19.67-.609-49.249-2.684-79.369-5.857l-2.318-.247c-33.591-3.599-70.563-9.38-106.092-16.455-14.064-2.799-26.84-5.672-45.154-10.044l-16.262-3.896c-18.15-4.332-30.51-7.115-43.398-9.653l-2.875-.56-2.909-.556c-65.512-12.397-152.467-15.07-231.787-7.515-14.553 1.386-28.589 3.188-41.884 5.373-17.065 2.788-32.053 5.736-54.632 10.618l-4.467.97-19.548 4.281c-11.218 2.45-19.734 4.265-27.823 5.906l-4.52.908-5.46 1.072c-14.05 2.725-27.571 5.037-41.547 7.053-46.275 6.694-101.585 10.339-150.518 9.873-7.116-.07-14.1-.226-20.915-.468-30.86-1.11-55.512-3.44-93.271-8.214l-23.802-3.033C937.05 99.5 871.626 95.132 803.886 94.368c-28.208-.313-55.515.079-81.84 1.232-15.882.694-29.65 1.392-42.243 2.153l-1.822.11c-9.693.59-19.12 1.191-31.918 2.03l-27.632 1.82c-72.31 4.725-116.136 6.714-179.556 7.42l-2.666.03c-20.349.257-38.835.849-65.505 1.962l-20.361.845c-18.7.768-25.429.997-33.302 1.13l-3.483.051-20.205.243c-29.198.328-44.87.28-62.706-.38l-3.601-.141c-27.943-1.142-52.799-3.786-76.515-8.466l5.362-1.016c22.682 4.477 46.214 6.98 72.706 8.062 17.42.712 31.94.822 58.838.551l8.17-.089 17.286-.21c7.294-.097 12.305-.222 24.13-.682l8.77-.35 30.192-1.249c24.54-.992 42.392-1.518 62.46-1.74l3.734-.044c61.869-.747 105.313-2.79 178.206-7.588l26.138-1.721c6.723-.44 12.53-.813 18.008-1.158l9.18-.57 7.077-.427c11.918-.7 24.875-1.348 39.601-1.992 27.03-1.183 55.038-1.585 83.93-1.265 70.414.794 138.317 5.403 194.054 12.535l19.604 2.501 6.66.836c33.87 4.206 56.813 6.29 84.935 7.301 6.481.23 13.141.379 19.927.446 47.089.448 100.708-3.085 145.649-9.586 13.665-1.972 26.917-4.237 40.724-6.915 9.418-1.827 18.161-3.636 29.864-6.165l5.78-1.254 23.581-5.16c22.548-4.894 37.67-7.915 54.236-10.688l3.451-.57c13.75-2.26 28.302-4.129 43.422-5.568zm6.83-7.222c82.105-7.637 171.667-4.676 238.644 8.256 15.572 3.007 28.98 6.048 50.841 11.354l17.823 4.324c17.008 4.088 29.332 6.856 42.925 9.55 35.664 7.072 72.92 12.764 106.634 16.155 31.452 3.166 62.37 5.028 80.915 5.208l-.386 1.486c-19.762-.192-51.718-2.116-84.083-5.374-34.519-3.472-72.398-9.259-108.592-16.436-14.896-2.953-28.238-5.98-47.602-10.668l-17.626-4.28c-18.048-4.356-30.171-7.098-43.342-9.692l-2.947-.575-1.946-.371c-64.441-12.17-149.556-14.886-227.92-7.596-14.522 1.351-28.548 3.121-41.87 5.277-17.488 2.816-32.855 5.814-55.997 10.79l-4.58.988-26.885 5.847c-7.59 1.633-13.907 2.961-19.992 4.195l-4.947.992-4.086.803c-14.013 2.733-27.424 5.05-41.253 7.076-45.882 6.74-100.452 10.509-148.839 10.235-7.03-.042-13.942-.168-20.699-.38-30.347-.962-55.009-3.143-91.822-7.563l-1.053-.127-23.73-2.881c-54.025-6.455-119.102-10.642-186.536-11.43-28.116-.322-55.29.031-81.451 1.115-16.072.666-29.653 1.316-42.037 2.025l-2.27.13c-4.529.261-9.007.525-13.822.814l-12.959.788-35.743 2.213c-70.134 4.291-113.165 6.134-175.04 6.911l-2.783.037c-21.234.304-40.466 1.005-67.762 2.31l-30.114 1.428c-9.615.443-14.393.63-19.064.755l-2.489.062-25.455.508c-28.642.547-44.259.61-62.126.056l-3.276-.108c-27.858-.963-52.84-3.482-76.846-8.082l5.419-1.057c22.9 4.388 46.466 6.764 72.782 7.674 16.607.575 30.612.603 54.99.187l8.209-.149 24.23-.482c4.808-.104 8.583-.223 16.146-.555l6.03-.272 33.281-1.578c27.002-1.271 46.375-1.943 68.328-2.219l7.404-.1c54.765-.785 95.407-2.503 157.25-6.224l8.77-.533 8.674-.535 22.191-1.378c8.456-.523 15.421-.946 21.958-1.334l6.434-.378 8.395-.481c9.831-.548 20.416-1.062 32.352-1.578l7.33-.31c26.865-1.113 54.731-1.475 83.524-1.145 70.122.82 137.698 5.24 193.402 12.045l18.32 2.228 9.092 1.086c32.799 3.856 55.61 5.786 83.104 6.66 6.416.2 12.998.32 19.693.36 46.526.263 99.406-3.389 143.955-9.933 13.52-1.981 26.666-4.252 40.44-6.939l1.556-.304c8.274-1.623 16.201-3.266 26.477-5.475l6.046-1.305 21.579-4.7c22.998-4.982 38.504-8.096 54.923-10.864l3.299-.55 3.14-.51c13.792-2.233 28.355-4.07 43.465-5.477zm1.687-7.287c82.004-7.317 170.704-4.225 236.88 8.584 15.281 2.958 28.397 5.93 49.955 11.145l17.295 4.181c15.143 3.628 26.658 6.231 38.51 8.63l3.398.68 3.293.647c36.247 7.038 74.342 12.626 108.912 15.834 32.655 3.03 64.501 4.596 82.61 4.398h-.001l.446 1.523c-19.61.214-52.71-1.414-86.468-4.546-35.466-3.29-74.256-8.981-111.089-16.133l-1.678-.328c-13.972-2.74-26.705-5.585-44.204-9.779l-24.833-5.995c-14.426-3.449-24.938-5.82-35.813-8.011l-3.12-.623-2.796-.546c-63.842-12.357-148.994-15.326-227.99-8.276-14.495 1.293-28.525 3.002-41.856 5.091-17.92 2.792-33.667 5.785-57.367 10.766l-4.689.99-23.572 5.02c-10.275 2.174-18.103 3.787-25.878 5.315l-5.015.976-3.22.615c-12.829 2.431-25.127 4.516-37.752 6.361-45.466 6.668-99.285 10.493-147.126 10.416-6.954-.014-13.797-.109-20.47-.286-30.027-.807-54.856-2.817-90.895-6.851l-2.41-.27-22.902-2.603c-54.243-6.028-118.823-9.957-185.762-10.752-28.057-.328-55.097-.02-81.078.978-16.3.626-29.662 1.214-41.846 1.86l-4.105.219c-7.643.41-15.287.834-24.864 1.377l-39.121 2.231c-64.94 3.642-106.368 5.336-162.505 6.206l-10.9.16c-22.122.345-42.065 1.148-69.972 2.631l-16.739.901-9.56.502-5.38.269c-9.353.455-17.124.764-24.445.958l-20.948.575c-29.487.785-45.222.93-64.391.397-27.803-.774-52.932-3.13-77.243-7.578l5.423-1.108c23.13 4.232 46.757 6.448 72.943 7.176 16.498.459 30.5.388 54.31-.196l8.005-.205 22.756-.626c5.81-.168 12.026-.415 19.242-.756l4.966-.242c4.07-.203 8.3-.425 14.099-.737l8.792-.474 13.005-.689c25.96-1.335 45.39-2.057 67.352-2.36l3.789-.054c61.49-.896 104.457-2.73 178.515-6.97l21.12-1.209c5.278-.3 9.964-.566 14.323-.81l10.365-.571 9.082-.488c10.62-.563 22.082-1.081 35.511-1.616l6.884-.269c26.669-1.024 54.382-1.34 83.095-1.005 69.646.828 136.744 4.983 192.729 11.348l16.907 1.927 7.991.896c33.568 3.714 56.994 5.566 84.942 6.318 6.332.167 12.844.258 19.463.271 45.993.074 98.145-3.633 142.29-10.106 13.372-1.955 26.404-4.19 40.167-6.841 9.898-1.906 19.084-3.79 32.453-6.625l21.78-4.64c23.56-4.99 39.456-8.103 56.294-10.854l3.383-.546 3.22-.508c13.82-2.166 28.406-3.942 43.508-5.29zm1.666-8.22c81.898-7.113 169.755-3.843 235.156 9.042 14.071 2.773 26.236 5.54 45.235 10.168l22.741 5.557c17.82 4.303 30.755 7.184 45.338 9.998 36.842 7.115 75.773 12.688 111.188 15.76 33.77 2.932 66.434 4.222 84.29 3.674l1.267 1.542c-19.637.603-53.785-.747-88.864-3.791-36.407-3.159-76.104-8.841-113.587-16.08-16.54-3.192-30.927-6.453-52.337-11.683l-20.023-4.896c-15.431-3.736-26.257-6.194-37.94-8.544l-3.072-.611-1.897-.37c-62.83-12.112-146.172-15.118-224.185-8.343-14.474 1.258-28.489 2.93-41.84 4.986-17.863 2.734-33.61 5.68-56.797 10.5l-6.95 1.454-23.56 4.984c-7.41 1.559-13.492 2.816-19.232 3.969l-4.639.923-5.377 1.05c-13.944 2.694-27.145 4.976-40.681 6.982-45.065 6.7-98.14 10.641-145.435 10.758-6.926.013-13.683-.053-20.242-.198-29.504-.661-54.305-2.51-89.362-6.197l-3.91-.413-22.416-2.408c-54.227-5.702-118.475-9.444-185.123-10.262-27.978-.338-54.882-.07-80.685.857-12.172.438-22.453.843-31.793 1.263l-5.007.23-4.855.235c-4.374.217-8.629.431-13.132.663l-11.475.597-37.923 2.015c-68.289 3.598-110.043 5.257-167.49 6.213l-10.461.167c-22.904.395-43.468 1.314-71.858 3l.04-.002-.022.002c-.714.043-15.005.905-23.415 1.401l-.291.017-6.818.392c-9.048.503-16.52.854-23.575 1.095l-22.722.807c-26.973.934-42.575 1.22-60.18.912l-3.55-.07c-27.796-.6-53.111-2.838-77.75-7.21l5.46-1.15c23.381 4.149 47.1 6.245 73.186 6.809 16.96.366 31.393.172 56.087-.647l5.453-.185 24.467-.87c6.839-.249 14.254-.613 23.356-1.13l1.187-.068 30.286-1.805c28.252-1.652 49.107-2.539 72.9-2.9l7.513-.12c59.365-.988 101.797-2.734 175.112-6.643l17.3-.923c6.348-.338 11.825-.627 16.853-.89l12.202-.626 9.704-.483c8.07-.39 16.67-.759 26.482-1.138l6.73-.254 6.522-.239c26.483-.951 54.048-1.226 82.67-.88 69.334.85 136.085 4.808 192.064 10.83l13.06 1.41 5.121.548 7.639.804c32.599 3.385 55.935 5.081 83.343 5.695 6.217.138 12.642.2 19.229.188 45.435-.112 96.854-3.93 140.605-10.435 13.238-1.962 26.181-4.2 39.891-6.849l4.466-.87c5.732-1.127 11.5-2.3 18.368-3.73l7.982-1.673 21.783-4.61c25.888-5.446 42.75-8.69 61.422-11.616l3.221-.498c13.859-2.134 28.448-3.875 43.552-5.187zm-3.497-8.224c81.791-6.895 168.787-3.451 233.423 9.49 13.84 2.772 25.765 5.518 44.54 10.141l22.167 5.474c18.71 4.565 32.13 7.57 47.462 10.508l3.041.579c36.55 6.9 75.154 12.23 110.425 15.084 34.853 2.819 68.281 3.828 85.987 2.943l2.068 1.547c-19.733.986-54.878-.074-91.246-3.016-37.34-3.02-77.952-8.686-116.096-16.002-14.356-2.752-27.015-5.548-43.656-9.567l-4.435-1.077-6.501-1.596-19.335-4.778c-15.239-3.73-25.86-6.173-37.348-8.519l-3.02-.61-1.874-.372c-62.043-12.158-144.476-15.324-222.298-8.764-14.427 1.217-28.438 2.852-41.823 4.873-21.196 3.18-39.463 6.67-70.02 13.083l-16.995 3.572c-10 2.093-17.475 3.623-24.833 5.072l-4.739.924-3.208.616c-12.774 2.435-24.85 4.513-37.187 6.363-44.657 6.721-96.991 10.772-143.732 11.084-6.797.04-13.48.004-20.012-.108-28.964-.516-53.689-2.196-87.78-5.54l-6.399-.634-21.073-2.127c-54.22-5.364-118.106-8.912-184.4-9.75-27.958-.346-54.707-.118-80.31.737-17.011.57-29.72 1.051-41.46 1.591l-2.696.125c-3.581.165-7.127.332-10.853.51l-11.937.575-31.257 1.535c-71.85 3.522-113.777 5.131-172.338 6.174l-7.41.128c-24.859.413-46.54 1.458-76.55 3.43l-18.612 1.238-10.813.702c-8.767.549-15.96.94-22.766 1.224l-24.15 1.054c-28.224 1.205-44.23 1.583-63.384 1.288-27.81-.43-53.328-2.548-78.303-6.843l5.495-1.194c23.635 4.065 47.455 6.042 73.466 6.444 17.476.27 32.41-.059 58.07-1.134l5.466-.233 5.612-.246 17.77-.775c5.394-.238 11.157-.55 17.912-.965l4.656-.29 30.552-2.02c28.742-1.858 50.244-2.863 74.87-3.272 56.793-.944 96.8-2.349 160.352-5.384l13.66-.659 26.827-1.32c8.53-.418 15.446-.753 21.882-1.059l12.565-.588 4.526-.203c6.722-.295 13.85-.576 21.95-.87l6.264-.223 9.225-.315c26.271-.877 53.667-1.11 82.252-.757 68.99.873 135.388 4.627 191.384 10.297l15.625 1.582c2.94.296 5.542.554 8.07.802l3.189.31c31.595 3.054 54.776 4.585 81.598 5.063 6.186.107 12.54.141 18.995.103 44.88-.3 95.575-4.224 138.93-10.748 13.07-1.96 25.878-4.189 39.62-6.847 6.903-1.335 13.47-2.656 21.685-4.356l5.975-1.243 23.339-4.898c26.619-5.554 43.922-8.846 63.13-11.797l3.227-.49c13.91-2.1 28.517-3.804 43.597-5.076zm-8.668-8.224c81.664-6.667 167.802-3.054 231.685 9.925 11.74 2.385 22.052 4.738 36.56 8.297l7.31 1.806 17.28 4.314c19.095 4.741 32.727 7.896 47.313 10.795l3.26.641 3.307.636c38.058 7.239 78.658 12.754 115.736 15.542 35.902 2.698 70.058 3.423 87.71 2.214l2.825 1.541c-19.885 1.362-55.983.596-93.6-2.231-38.27-2.877-79.786-8.517-118.602-15.9-15.778-3-29.428-6.047-48.093-10.622l-4.4-1.084-24.717-6.156c-12.97-3.195-22.507-5.418-32.384-7.5l-2.977-.622-2.654-.544c-61.478-12.49-143.872-15.946-222.27-9.545-14.406 1.175-28.412 2.77-41.811 4.75-21.79 3.2-40.513 6.735-71.994 13.283l-13.193 2.75c-11.488 2.39-19.516 4.03-27.452 5.585l-7.17 1.389c-12.718 2.428-24.7 4.502-36.91 6.353-44.259 6.732-95.844 10.886-142.014 11.392-6.753.069-13.354.064-19.8-.017-28.408-.371-53.027-1.876-86.127-4.881l-1.625-.148-6.911-.64-20.16-1.902c-54.218-5.016-117.731-8.363-183.683-9.22-27.898-.356-54.508-.169-79.926.614-12.64.39-22.541.719-31.403 1.056l-4.023.156-5.84.24-3.757.16-11.408.494-48.93 2.19C570.32 69.371 530.91 70.8 480.378 71.841l-7.479.15-13.74.259c-24.392.496-46.079 1.657-75.311 3.762-2.404.173-15.862 1.163-22.969 1.676l-7.729.544c-7.482.511-13.752.892-19.726 1.188l-1.319.065-21.591 1.124c-29.236 1.505-45.835 2.04-65.61 1.856-27.858-.259-53.604-2.258-78.935-6.477l5.52-1.239c23.907 3.982 47.855 5.842 73.82 6.083 17.483.162 32.576-.278 57.765-1.536l5.36-.272 15.054-.79 9.562-.486c5.21-.27 10.768-.612 17.319-1.06l4.52-.314 29.552-2.147c29.259-2.074 51.4-3.203 76.874-3.662l10.72-.2c51.32-1 89.915-2.335 150.456-4.995l9.02-.399 47.155-2.112 18.952-.817c6.195-.256 12.65-.498 20.026-.75l8.723-.29 11.038-.347c26.072-.802 53.31-.994 81.819-.63 68.652.892 134.684 4.437 190.7 9.744l14.39 1.362 7.076.658 6.442.585c30.62 2.734 53.637 4.099 79.895 4.441 6.097.077 12.366.082 18.777.016 44.318-.486 94.284-4.509 137.253-11.045 12.94-1.962 25.652-4.185 39.346-6.837 4.945-.956 9.717-1.904 15.127-3.002l7.664-1.57 28.398-5.899c26.348-5.43 43.732-8.68 63.043-11.584l3.238-.481c13.944-2.063 28.568-3.727 43.65-4.958zm-8.67-9.223c81.534-6.43 166.802-2.654 229.949 10.346 11.016 2.268 20.723 4.493 34.017 7.767l5.651 1.401 24.422 6.131c17.767 4.413 30.912 7.432 45.042 10.222l3.413.666 3.343.636c38.654 7.287 80.087 12.763 118.01 15.404 36.923 2.571 71.798 3.013 89.46 1.488l3.527 1.527c-20.054 1.73-57.09 1.262-95.918-1.442-39.216-2.731-81.644-8.338-121.116-15.78-18.923-3.564-34.673-7.185-58.977-13.291l-16.25-4.09c-17.176-4.293-28.19-6.872-40.93-9.494l-1.865-.38c-60.517-12.193-141.124-15.666-218.51-9.562-14.377 1.133-28.372 2.685-41.783 4.623-19.68 2.824-36.867 5.924-62.719 11.159L1357.267 41l-24.056 4.954c-6.924 1.418-12.497 2.54-17.93 3.608l-4.884.951-3.195.614c-12.705 2.422-24.568 4.484-36.623 6.33-43.868 6.737-94.702 10.987-140.299 11.687-6.679.099-13.213.124-19.57.073-27.844-.228-52.315-1.552-84.42-4.227l-4.993-.419-25.107-2.192c-54.245-4.66-117.328-7.8-182.845-8.674-27.888-.364-54.348-.217-79.555.49-18.218.513-29.812.876-41.078 1.312l-15.866.623-46.558 1.89c-64.557 2.608-103.538 3.933-154.143 5.015l-7.313.153-10.357.206c-26.326.51-49.083 1.803-79.824 4.212-3.712.292-20.68 1.652-25.185 2.002l-4.512.345c-7.264.548-13.309.96-19.082 1.29l-1.4.081-4.468.263-18.407 1.114c-28.595 1.702-45.4 2.362-65.212 2.297-27.919-.09-53.905-1.972-79.597-6.112l5.539-1.285c24.181 3.898 48.266 5.64 74.204 5.726 19.882.065 36.876-.658 68.153-2.563l12.777-.775 7.808-.457c3.735-.224 7.657-.486 12.036-.803l4.541-.336 4.397-.337 28.62-2.268c29.72-2.293 52.46-3.548 78.75-4.058l10.294-.205c50.259-1.03 87.827-2.242 147.234-4.606l13.405-.538 41.415-1.683 21.055-.83c9.815-.38 19.828-.704 34.05-1.114l7.48-.213c25.843-.726 52.91-.875 81.388-.504 68.263.91 133.909 4.242 189.998 9.182 9.26.816 14.113 1.243 17.854 1.565l11.129.935c29.644 2.423 52.459 3.617 78.157 3.827 6.007.048 12.202.025 18.536-.069 43.762-.672 93-4.788 135.596-11.33 12.779-1.956 25.373-4.168 39.077-6.816 7.444-1.44 14.486-2.851 24.264-4.857l24.652-5.076c27.487-5.612 45.433-8.925 65.489-11.872l3.186-.463c13.974-2.02 28.609-3.642 43.682-4.83zm-19.003-9.22c81.385-6.188 165.77-2.253 228.199 10.757l2.718.57c9.787 2.075 18.814 4.181 30.882 7.177l7.253 1.815 19.998 5.061c21.138 5.31 35.799 8.676 52.516 11.867l3.373.637c39.272 7.329 81.532 12.759 120.277 15.25 37.935 2.44 73.524 2.599 91.254.765l4.17 1.506c-20.237 2.094-58.194 1.924-98.214-.65-40.139-2.58-83.475-8.149-123.626-15.641-16.724-3.12-30.897-6.276-50.232-11.064l-4.384-1.091-6.475-1.63-12.036-3.052c-16.65-4.214-27.467-6.825-38.842-9.275l-2.54-.543-2.573-.54c-59.984-12.5-140.525-16.256-218.482-10.33-14.347 1.091-28.338 2.6-41.772 4.495-19.84 2.777-37.14 5.836-62.892 10.977l-9.177 1.847-26.515 5.4c-3.495.705-6.635 1.334-9.636 1.927l-3.547.698-4.899.952c-13.927 2.686-26.622 4.922-39.524 6.915-43.476 6.736-93.556 11.077-138.566 11.967-6.572.127-13.031.183-19.35.165-27.267-.088-51.551-1.23-82.668-3.584l-5.096-.39-4.343-.34-22.035-1.778c-54.281-4.305-116.965-7.24-182.089-8.129-27.86-.373-54.174-.267-79.188.368-14.07.356-23.644.613-32.143.879l-5.865.19-12.406.433-67.784 2.454c-60.641 2.168-97.609 3.276-149.001 4.366l-6.788.142c-27.014.56-50.25 1.978-81.301 4.61-2.882.244-11.244.968-17.553 1.512l-11.206.952c-7.06.583-12.89 1.023-18.474 1.386l-1.478.097-4.734.316-16.386 1.13c-29.74 2.033-47.249 2.873-67.795 2.927-28 .074-54.243-1.69-80.312-5.753l5.55-1.33c24.469 3.814 48.708 5.443 74.642 5.374 19.93-.053 37.163-.907 67.764-3.022l15.285-1.051 6.257-.414c5.953-.4 12.378-.903 20.529-1.592 3.466-.293 17.076-1.474 22.828-1.967l5.037-.425c30.089-2.508 53.364-3.889 80.405-4.449 53.12-1.1 89.83-2.17 149.579-4.292l17.732-.636 45.753-1.664 23.804-.837c4.374-.144 8.868-.28 13.982-.425l9.464-.258 13.467-.347c25.627-.651 52.525-.76 80.953-.378 67.88.925 133.134 4.042 189.284 8.61 10.533.857 16.084 1.305 21.13 1.698l9.083.69c28.62 2.117 51.173 3.137 76.254 3.219 5.967.016 12.091-.036 18.324-.157 43.196-.854 91.71-5.06 133.931-11.601 12.628-1.95 25.09-4.146 38.804-6.79l1.497-.29c3.486-.676 6.932-1.354 10.715-2.11l8.756-1.763 23.507-4.79c28.24-5.725 46.662-9.13 66.59-12.067l3.434-.5 3.213-.455c14.016-1.977 28.668-3.556 43.734-4.702zm-19.007-10.218c81.233-5.94 164.732-1.85 226.45 11.157 10.686 2.252 20.047 4.437 33.023 7.68l5.522 1.388 21.147 5.382c23.419 5.92 39 9.468 57.906 12.957l2.788.51c39.092 7.1 81.1 12.287 119.761 14.573 38.926 2.303 75.234 2.183 93.067.045l4.759 1.484c-20.423 2.448-59.29 2.577-100.468.14-41.078-2.429-85.325-7.953-126.144-15.49-20.488-3.78-37.05-7.605-63.21-14.266l-13.265-3.384c-14.21-3.61-24.024-6-33.884-8.185l-3.87-.846-3.787-.808c-59.257-12.488-138.87-16.387-216.6-10.704-14.326 1.049-28.308 2.511-41.748 4.36-20.63 2.814-38.48 5.927-65.486 11.264l-9.094 1.812-19.556 3.944c-4.694.945-8.665 1.739-12.33 2.463l-6.619 1.297-6.575 1.265c-12.789 2.431-24.453 4.472-36.263 6.31-43.084 6.729-92.408 11.156-136.837 12.238-6.502.154-12.883.24-19.117.253-30.925.058-52.904-.93-94.692-3.939l-8.63-.629-5.824-.431c-55.454-4.135-119.412-6.995-185.959-7.924-27.876-.38-54.024-.316-78.823.244-14.162.32-22.907.525-30.417.728l-6.877.194-20.12.627-73.592 2.355c-44.747 1.404-79.996 2.398-119.975 3.333l-11.563.266-10.11.226c-27.68.61-51.37 2.156-82.69 5.008l-25.78 2.388c-7.842.71-14.053 1.23-19.995 1.664l-2.68.197-4.356.328-16.695 1.287c-29.149 2.226-46.906 3.2-67.54 3.373-28.094.236-54.603-1.411-81.052-5.396l5.553-1.378c24.76 3.731 49.163 5.247 75.107 5.03 19.995-.168 37.469-1.157 67.44-3.47l15.42-1.188 7.18-.533c4.715-.353 9.728-.772 15.756-1.313l4.177-.378 27.03-2.499c30.479-2.731 54.292-4.242 82.103-4.855 56.165-1.236 99.395-2.464 163.784-4.53l47.456-1.525 24.911-.776c9.16-.268 18.48-.491 36.478-.897l4.777-.101c23.958-.479 49.094-.514 75.736-.15 67.468.941 132.299 3.84 188.566 8.036 50.522 3.765 72.988 4.944 105.8 4.882 5.887-.013 11.935-.093 18.098-.24 42.639-1.038 90.43-5.328 132.282-11.864 12.453-1.938 24.777-4.113 38.536-6.757 3.493-.672 6.886-1.334 10.614-2.072l8.66-1.727 24.99-5.034c29.808-5.96 48.81-9.374 70.324-12.383l3.248-.448c14.042-1.931 28.705-3.465 43.774-4.568z" opacity=".588" transform="rotate(180 914.736 105.5)"/>
    </g>
</svg>
