<svg xmlns="http://www.w3.org/2000/svg" xmlns:xlink="http://www.w3.org/1999/xlink" width="667" height="277" viewBox="0 0 667 277">
    <defs>
        <path id="prefix__a" d="M0 0H667V277H0z"/>
        <path id="prefix__c" d="M0 0H928V526.812H0z"/>
        <path id="prefix__e" d="M49.183 2.468C49.443.48 51.627-.615 53.375.364l17.633 9.873c1.368.766 2.132 2.288 1.928 3.842l-2.91 22.273 22.272 2.91c1.555.204 2.83 1.333 3.218 2.851l1.08 4.224 12.75 1.409 2.527-22.867c.164-1.483 1.774-2.33 3.09-1.628l13.272 7.089c.288.154.542.353.756.585l.295-6.722c.04-.9.974-1.474 1.794-1.103l8.271 3.737c.642.29 1.043.942 1.011 1.645l-.443 10.079 10.079.442c.703.032 1.317.488 1.55 1.152l2.997 8.568c.297.849-.357 1.73-1.256 1.69l-13.864-.61-.055 1.26 5.144.568c1.096.121 2.018.86 2.38 1.89l.057.185 3.745 13.51-1.025-11.08c-.18-1.938 1.597-3.457 3.46-3.02l.165.043 19.375 5.743c1.503.446 2.584 1.761 2.729 3.322l1.751 18.911 2.934-.607-6.268-30.256c-.406-1.961 1.297-3.713 3.27-3.363l5.476.975.104-2.359-7.786-.342c-.544-.024-1.018-.377-1.198-.89l-2.315-6.618c-.23-.657.275-1.337.97-1.307l10.71.471.472-10.711c.03-.694.753-1.138 1.386-.852l6.39 2.887c.496.224.805.728.782 1.271l-.343 7.787 7.787.342c.543.024 1.017.376 1.197.89l2.316 6.618c.23.657-.276 1.337-.97 1.307l-10.711-.471-.156 3.515 5.785 1.03c1.476.263 2.657 1.36 3.036 2.8l.046.197.713 3.439 18.605 2.056 2.526-22.866c.164-1.483 1.774-2.331 3.09-1.629l13.273 7.09c1.029.549 1.62 1.67 1.492 2.83l-1.837 16.624 16.623 1.836c1.16.129 2.127.95 2.438 2.076l4.02 14.5c.02.072.036.143.048.215l2.52.11.472-10.71c.03-.695.752-1.139 1.386-.852l6.39 2.887c.495.224.805.728.781 1.271l-.342 7.787 7.786.341c.544.025 1.018.377 1.197.89l2.317 6.62c.23.655-.276 1.336-.971 1.305l-10.71-.47-.472 10.71c-.03.695-.753 1.139-1.386.853l-6.39-2.888c-.496-.224-.806-.727-.781-1.27l.342-7.787-7.786-.342c-.047-.002-.093-.007-.139-.014v18.367c.755-.832 1.987-1.197 3.154-.73l4.671 1.868h14.637c1.5 0 2.855.873 3.48 2.223l.08.187 7.506 18.764c.744 1.86-.626 3.884-2.63 3.884l-6.571-.001v4.787l15.897-1.754-2.525-22.867c-.164-1.483 1.222-2.662 2.66-2.263l14.5 4.021c1.125.312 1.946 1.277 2.074 2.438l1.836 16.623 16.623-1.836c1.16-.128 2.281.463 2.831 1.493l7.089 13.273c.702 1.316-.146 2.926-1.629 3.09l-2.699.297 15.377 9.408c1.279.783 1.979 2.235 1.807 3.712l-.029.202-3.768 22.143 22.143 3.768c1.546.263 2.776 1.44 3.106 2.974l-.003-.007 7.731 1.877 2.53-10.418c.164-.676.959-.972 1.525-.568l5.712 4.067c.443.315.65.869.522 1.397l-1.84 7.574 7.574 1.84c.529.127.926.565 1.003 1.103l.995 6.942c.098.688-.53 1.258-1.205 1.094l-10.418-2.53-2.53 10.418c-.164.676-.958.972-1.525.569l-5.712-4.067c-.1-.071-.189-.155-.263-.248l.155.714c.422 1.958-1.268 3.723-3.244 3.387l-30.46-5.183-2.55 14.99c1.156.59 1.953 1.738 2.075 3.062l2.071 22.366 22.367-2.072c1.56-.144 3.053.676 3.767 2.072l9.204 17.992c.912 1.783-.266 3.925-2.26 4.11l-30.767 2.848 1.018 10.99h5.11c1.5 0 2.855.873 3.48 2.223l.08.187 6.896 17.236.106.022c.21-.418.645-.718 1.17-.708l14.037.244.244-14.036c.015-.91.945-1.517 1.785-1.165l8.464 3.559c.657.275 1.08.923 1.067 1.636l-.177 10.203 10.203.178c.712.012 1.345.457 1.598 1.123l3.262 8.583c.323.85-.315 1.759-1.225 1.743l-14.036-.244-.244 14.036c-.016.91-.946 1.516-1.785 1.164l-8.465-3.558c-.656-.276-1.079-.923-1.067-1.636l.178-10.203-8.899-.155 4.129 10.32c.722 1.805-.547 3.765-2.454 3.878l-.175.006h-30.898v30.897c0 2.004-2.024 3.374-3.884 2.63l-6.956-2.783c-.16 1.09-1.176 1.94-2.367 1.78l-11.3-1.506 1.883.792c.254.107.426.34.458.608l.005.101-.077 4.423 4.423.077c.31.006.583.198.693.487l1.414 3.72c.14.37-.137.763-.531.757l-6.085-.107-.105 6.085c-.007.394-.41.657-.774.504l-3.67-1.542c-.284-.12-.467-.4-.462-.71l.077-4.422-4.423-.077c-.308-.005-.583-.198-.692-.487l-1.414-3.72c-.14-.369.136-.763.53-.756l6.085.106.106-6.084c0-.032.003-.063.009-.093l-8.953-1.193-3.038 22.804c-.078.59-.384 1.072-.805 1.394l7.235 2.007c1.126.312 1.947 1.278 2.075 2.438l1.836 16.623 16.623-1.835c1.16-.129 2.281.463 2.831 1.492l7.089 13.273c.702 1.316-.146 2.926-1.629 3.09l-2.699.297 15.377 9.408c1.279.783 1.979 2.235 1.807 3.712l-.029.202-3.768 22.143 22.143 3.768c1.546.263 2.776 1.44 3.106 2.974l-.003-.007 7.731 1.877 2.53-10.418c.164-.676.959-.972 1.525-.569l5.712 4.067c.443.316.65.87.522 1.398l-1.84 7.574 7.574 1.84c.529.127.926.565 1.003 1.104l.995 6.94c.098.69-.53 1.26-1.205 1.095l-10.418-2.53-2.53 10.418c-.164.676-.958.972-1.525.569l-5.712-4.067c-.1-.071-.189-.155-.263-.248l.155.714c.422 1.958-1.268 3.723-3.244 3.387l-30.46-5.183-2.55 14.99c1.156.59 1.953 1.738 2.075 3.062l2.071 22.366 22.367-2.071c1.56-.145 3.053.675 3.767 2.071l9.204 17.992c.912 1.783-.266 3.924-2.26 4.109l-30.767 2.85 2.85 30.766c.185 1.994-1.704 3.546-3.625 2.976l-19.376-5.743c-1.503-.445-2.583-1.761-2.728-3.322l-2.071-22.366-22.366 2.07c-1.561.145-3.053-.675-3.768-2.071l-6.474-12.655v18.164c0 1.944-1.906 3.292-3.719 2.69l-.164-.06-18.764-7.506c-1.456-.582-2.41-1.992-2.41-3.56v-22.462h-18.354c.588.785.865 1.784.733 2.796l-2.91 22.273 22.272 2.91c1.554.204 2.829 1.333 3.218 2.851l5.01 19.579c.497 1.94-1.124 3.77-3.11 3.51l-30.637-4.004-4.004 30.637c-.26 1.987-2.444 3.083-4.192 2.104l-17.632-9.873c-1.369-.766-2.132-2.288-1.929-3.842l2.91-22.273-22.272-2.91c-1.555-.203-2.829-1.332-3.217-2.852l-1.95-7.614-7.806-.135-.16 9.255c-.011.6-.624 1-1.177.767l-5.582-2.345c-.433-.183-.711-.61-.703-1.08l.117-6.727-5.6-.098 5.867 14.667c.722 1.805-.547 3.765-2.454 3.878l-.175.006h-30.898v30.898c0 2.003-2.024 3.373-3.884 2.629l-18.764-7.506c-1.455-.582-2.41-1.992-2.41-3.56v-22.461l-20.805-.001 2.174 14.846c.242 1.66-1.213 3.049-2.835 2.767l-.157-.033-16.982-4.07c-1.318-.315-2.31-1.401-2.506-2.742l-2.81-19.204-19.205 2.81c-1.34.196-2.666-.444-3.346-1.616L41.8 553.748c-.87-1.498.048-3.399 1.762-3.65l1.895-.277-9.314-3.726c-1.392-.557-2.326-1.871-2.405-3.356l-.005-.204v-22.461H11.27c-1.568 0-2.978-.955-3.56-2.411L.205 498.899c-.744-1.86.627-3.883 2.63-3.883h30.898v-30.898c0-2.004 2.023-3.373 3.883-2.63l18.764 7.506c1.456.583 2.41 1.992 2.41 3.56v2.921l9.562 1.25.76-5.817c-.093-.04-.184-.084-.274-.135L51.205 460.9c-1.368-.766-2.131-2.288-1.928-3.842l2.91-22.273-22.272-2.91c-1.555-.204-2.829-1.333-3.218-2.852l-5.01-19.578c-.497-1.94 1.123-3.77 3.11-3.51l30.637 4.004 4.004-30.638c.096-.735.455-1.348.959-1.779l-3.087-12.064-16.36-9.16c-1.308-.733-2.063-2.157-1.949-3.64l.021-.202 2.91-22.273-22.272-2.91c-1.554-.203-2.828-1.332-3.217-2.852l-5.01-19.578c-.498-1.94 1.122-3.77 3.109-3.51l30.637 4.004 1.92-14.689-5.3-9.132c-.84-1.45-.008-3.276 1.6-3.62l.163-.029 1.897-.278-9.316-3.726c-1.392-.557-2.326-1.87-2.405-3.356l-.005-.204v-22.461H11.27c-1.568 0-2.978-.955-3.56-2.41L.205 226.666c-.744-1.86.627-3.883 2.63-3.883h30.898v-30.898c0-2.003 2.023-3.374 3.883-2.63l18.764 7.506c1.456.583 2.41 1.992 2.41 3.56v2.921l9.562 1.25.76-5.817c-.093-.04-.184-.084-.274-.135l-17.633-9.873c-1.368-.766-2.131-2.288-1.928-3.842l2.91-22.273-22.272-2.91c-1.555-.203-2.829-1.332-3.218-2.852l-5.01-19.578c-.497-1.94 1.123-3.77 3.11-3.51l30.637 4.004 4.004-30.637c.096-.735.455-1.349.959-1.78L57.31 93.226l-16.36-9.16c-1.308-.732-2.063-2.157-1.949-3.64l.021-.202 2.91-22.273-22.272-2.91c-1.554-.203-2.828-1.332-3.217-2.851l-5.01-19.579c-.498-1.94 1.122-3.77 3.109-3.51l30.637 4.004zm428.635 512.338c-.28-1.983 1.53-3.624 3.476-3.149l19.632 4.796c1.523.372 2.666 1.634 2.886 3.186l3.155 22.24 22.24-3.155c1.55-.22 3.081.527 3.862 1.886l10.066 17.524c.998 1.737-.074 3.933-2.058 4.214l-30.591 4.34 4.339 30.591c.282 1.984-1.53 3.624-3.476 3.149l-19.631-4.796c-1.524-.372-2.667-1.634-2.887-3.186l-3.155-22.24-22.238 3.155c-1.553.22-3.083-.527-3.864-1.886l-10.066-17.524c-.998-1.737.074-3.933 2.058-4.214l30.592-4.34zm195.875 26.798c.016-.91.946-1.516 1.785-1.163l8.464 3.557c.657.276 1.08.924 1.067 1.636l-.177 10.204 10.203.177c.712.013 1.345.458 1.599 1.124l3.261 8.583c.323.85-.315 1.759-1.225 1.743l-14.036-.244-.244 14.036c-.016.91-.946 1.516-1.785 1.164l-8.464-3.558c-.657-.276-1.08-.924-1.068-1.636l.178-10.204-10.204-.177c-.712-.013-1.344-.457-1.598-1.123l-3.261-8.583c-.323-.851.315-1.76 1.225-1.744l14.036.244zm-375.735 22.493c.007-.394.41-.657.774-.504l3.669 1.542c.285.12.468.4.463.71l-.077 4.422 4.423.077c.308.006.582.198.692.487l1.414 3.72c.14.37-.137.763-.531.756l-6.084-.106-.106 6.085c-.007.394-.41.657-.774.504l-3.669-1.542c-.284-.12-.468-.4-.462-.71l.076-4.422-4.423-.077c-.308-.005-.582-.198-.692-.487l-1.414-3.72c-.14-.369.137-.763.531-.756l6.085.105zm292.209-48.972c.015-.91.945-1.517 1.785-1.164l8.464 3.557c.657.276 1.08.924 1.067 1.637l-.177 10.203 10.204.177c.711.013 1.344.458 1.598 1.123l3.26 8.584c.324.85-.314 1.759-1.224 1.743l-14.036-.244-.244 14.036c-.016.91-.946 1.516-1.785 1.164l-8.465-3.558c-.657-.276-1.079-.924-1.066-1.636l.177-10.204-10.204-.177c-.712-.013-1.345-.457-1.598-1.123l-3.261-8.583c-.323-.85.314-1.76 1.224-1.744l14.037.244zM406.522 466c0-2.004 2.023-3.374 3.883-2.63l18.764 7.506c1.456.582 2.41 1.992 2.41 3.56v22.462h22.462c1.568 0 2.978.954 3.56 2.41l7.505 18.764c.744 1.86-.625 3.883-2.628 3.883H431.58v30.898c0 2.003-2.024 3.373-3.884 2.63l-18.764-7.506c-1.455-.582-2.41-1.992-2.41-3.56v-22.462H384.06c-1.568 0-2.977-.954-3.56-2.41l-7.505-18.764c-.744-1.86.626-3.883 2.63-3.883h30.897zm394.488 56.262c.012-.696.722-1.159 1.363-.89l6.465 2.718c.501.21.824.705.814 1.25l-.135 7.792 7.793.135c.543.01 1.026.35 1.22.858l2.49 6.555c.248.65-.24 1.344-.935 1.332l-10.719-.186-.186 10.718c-.013.696-.723 1.159-1.364.89l-6.464-2.718c-.502-.21-.824-.705-.815-1.25l.135-7.792-7.792-.135c-.544-.01-1.027-.35-1.221-.858l-2.49-6.555c-.248-.65.24-1.344.935-1.331l10.72.186zm-623.212 11.124h-7.877l-4.916 1.018v16.658c.143.017.284.042.422.074l-.005-.012c-.214-.561.207-1.16.807-1.15l9.255.161.161-9.255c.01-.6.624-1 1.177-.768l2.596 1.091-1.62-7.817zm-108.982 4.9l-10.026.929v8.654l11.19-1.637-1.164-7.946zm48.22-4.466l-15.242 1.413.579 6.258 8.236-1.204c1.273-.186 2.533.381 3.238 1.443l.107.172 3.082 5.312v-13.394zm89.161-7.951l-4.186.868 3.657 17.649 15.683 2.05 1.008-7.717-14.612-7.724c-1.137-.602-1.818-1.804-1.76-3.077l.015-.202.195-1.847zm495.327.487c.006-.395.41-.658.773-.505l3.67 1.542c.284.12.467.4.462.71l-.077 4.422 4.423.077c.309.006.583.199.693.487l1.413 3.72c.14.37-.136.763-.53.757l-6.085-.106-.106 6.084c-.007.395-.41.657-.774.504l-3.669-1.542c-.284-.12-.467-.4-.462-.71l.077-4.422-4.423-.077c-.309-.005-.583-.198-.693-.487l-1.413-3.72c-.14-.369.136-.763.53-.756l6.085.106zm301.748-2.422c.006-.394.41-.657.773-.504l3.67 1.542c.284.12.467.4.462.709l-.077 4.423 4.423.077c.309.005.583.198.693.487l1.413 3.72c.14.369-.136.762-.53.756l-6.085-.106-.106 6.084c-.006.395-.41.658-.774.505l-3.669-1.542c-.284-.12-.467-.401-.462-.71l.077-4.423-4.423-.077c-.309-.005-.583-.197-.693-.486l-1.414-3.72c-.14-.37.137-.763.531-.756l6.085.105zm-258.893-48.196c-.208-1.478 1.142-2.698 2.59-2.342l14.614 3.587c1.134.278 1.984 1.218 2.146 2.374l2.331 16.562 16.56-2.33c1.156-.164 2.295.394 2.876 1.407l7.48 13.056c.742 1.294-.058 2.928-1.535 3.136l-22.781 3.206 3.206 22.78c.207 1.478-1.142 2.698-2.591 2.342l-14.613-3.586c-1.134-.278-1.985-1.22-2.147-2.375l-2.33-16.561-16.561 2.33c-1.156.163-2.295-.395-2.875-1.407l-7.481-13.056c-.742-1.295.058-2.928 1.535-3.136l22.782-3.206zm104.556 43.97c.007-.393.41-.656.774-.503l3.669 1.542c.285.12.468.4.462.709l-.077 4.423 4.423.077c.31.005.583.198.693.487l1.414 3.72c.14.369-.137.762-.532.756l-6.084-.106-.105 6.084c-.007.395-.41.658-.774.504l-3.67-1.542c-.284-.12-.467-.4-.461-.709l.076-4.423-4.423-.076c-.308-.006-.582-.198-.693-.487l-1.413-3.72c-.14-.37.136-.763.531-.756l6.084.105zm-204.511-7.608c.01-.55.571-.916 1.078-.703l5.114 2.15c.397.166.652.557.644.988l-.107 6.164 6.165.107c.43.008.812.276.965.679l1.97 5.185c.195.514-.19 1.063-.74 1.053l-8.48-.147-.147 8.48c-.01.55-.571.916-1.078.703l-5.114-2.15c-.397-.166-.652-.558-.644-.988l.107-6.165-6.165-.106c-.43-.008-.812-.277-.965-.679l-1.97-5.185c-.195-.514.19-1.063.74-1.054l8.48.148zm-113.37-57.285c.156-1.633 1.912-2.591 3.37-1.84l14.708 7.585c1.141.588 1.809 1.812 1.687 3.09l-1.757 18.308 18.309 1.756c1.278.122 2.353 1.011 2.713 2.243l4.652 15.88c.46 1.575-.815 3.117-2.447 2.96l-25.185-2.414-2.415 25.184c-.157 1.633-1.913 2.592-3.371 1.84l-14.708-7.585c-1.14-.588-1.809-1.812-1.686-3.09l1.756-18.308-18.309-1.756c-1.278-.122-2.352-1.01-2.713-2.242l-4.65-15.881c-.462-1.575.813-3.117 2.446-2.96L528.64 480zM322.04 524.615h-30.254l-.001 3.244 30.297-2.806-.042-.438zm-91.517-13.813l3.53 5.331c.028.043.055.087.081.131l5.406 3.027-3.146-7.865-5.871-.624zm441.323-79.485l.17.009 18.999 1.557c1.474.12 2.725 1.126 3.16 2.54l6.235 20.248 20.248-6.236c1.414-.435 2.95.035 3.878 1.185l11.975 14.83c1.187 1.471.514 3.675-1.292 4.231l-27.853 8.578 8.577 27.852c.556 1.806-.887 3.602-2.771 3.448l-18.997-1.557c-1.474-.121-2.726-1.127-3.161-2.54l-6.235-20.248-20.248 6.235c-1.413.436-2.95-.034-3.879-1.184l-11.974-14.83c-1.187-1.472-.514-3.676 1.292-4.232l27.853-8.577-8.577-27.852c-.556-1.806.887-3.603 2.77-3.448zm-353.174 72.815l1.915 4.787-.355-3.831-1.488-.91-.072-.046zm-146.282 3.154l-1.186-5.719-6.2 1.285v5.478h2.342l5.044-1.044zm110.177-149.932l.995 2.841c.23.656-.276 1.337-.971 1.306l-3.616-.159.619 6.678c.18 1.938-1.597 3.457-3.46 3.02l-.164-.043-4.47-1.326-.09 2.07c-.03.656-.676 1.089-1.281.894l-.106-.041-6.39-2.888c-.496-.224-.806-.728-.781-1.27l.057-1.311-6.316-1.872c-.493-.146-.94-.386-1.325-.698l.002 15.243h22.461c1.568 0 2.978.954 3.56 2.41l7.506 18.764c.744 1.86-.626 3.884-2.63 3.884h-30.897v30.898c0 2.003-2.024 3.373-3.884 2.629l-5.601-2.242-.323 7.37 7.786.342c.543.024 1.018.376 1.197.89l2.316 6.618c.23.657-.276 1.337-.97 1.307l-10.711-.471-.47 10.71c-.032.695-.754 1.14-1.388.853l-6.39-2.888c-.495-.224-.805-.727-.78-1.27l.341-7.787-7.786-.342c-.475-.021-.897-.293-1.116-.704l-7.486-.797c.158.197.297.413.415.643l6.846 13.382 4.906 2.594c1.138.602 1.819 1.804 1.761 3.078l-.015.201-.037.349.982.413c.408.171.683.552.723.985l.005.132-.12 6.96 6.96.121c.486.009.918.312 1.09.767l2.225 5.855c.22.58-.215 1.2-.835 1.189l-9.576-.166-.053 3.059 15.887 1.687c1.283.136 2.364 1.004 2.782 2.212l.057.184 1.674 5.94h11.046V474.25c-.197.502-.79.773-1.32.534l-6.39-2.888c-.495-.224-.805-.727-.78-1.27l.342-7.787-7.786-.342c-.544-.024-1.018-.377-1.198-.89l-2.316-6.619c-.23-.656.276-1.336.97-1.306l10.711.471.472-10.711c.03-.694.752-1.138 1.386-.852l6.39 2.887c.495.224.805.728.781 1.271l-.342 7.787 7.786.342c.544.024 1.018.376 1.197.89l2.317 6.618c.229.657-.277 1.337-.971 1.307l-10.71-.471-.18 4.053c.664-1.179 2.14-1.797 3.524-1.243l18.764 7.505c1.456.583 2.41 1.993 2.41 3.56v22.463h22.462c1.02 0 1.972.403 2.673 1.085l.017-.177.029-.202 3.768-22.143-22.143-3.768c-1.546-.264-2.776-1.44-3.105-2.974l-4.252-19.757c-.421-1.958 1.27-3.723 3.243-3.387l30.46 5.183 5.184-30.46c.007-.042.016-.085.025-.127l-14.06 1.553 2.524 22.867c.164 1.482-1.222 2.662-2.659 2.263l-14.5-4.02c-1.125-.313-1.946-1.278-2.075-2.439l-1.835-16.623-16.623 1.836c-1.16.128-2.282-.463-2.832-1.493L271 413.502c-.702-1.316.146-2.925 1.629-3.09l22.866-2.525-2.525-22.866c-.164-1.483 1.222-2.662 2.66-2.263l2.119.587-10.285-5.792c-.961-.541-1.519-1.583-1.448-2.672l.019-.193 2.208-16.577-5.674-.757zm-32.06 113.04c.007-.394.41-.657.774-.504l3.669 1.542c.285.12.468.4.462.709l-.077 4.423 4.423.077c.31.005.584.198.693.487l1.414 3.72c.14.37-.137.762-.531.756l-6.084-.106-.106 6.084c-.007.395-.41.658-.774.505l-3.67-1.542c-.284-.12-.467-.4-.461-.71l.077-4.423-4.424-.076c-.308-.006-.583-.198-.693-.487l-1.413-3.72c-.14-.37.136-.763.531-.756l6.084.105zm-38.82 3.774l-13.285 1.231c-.341.677-.979 1.147-1.7 1.296l.818 8.828 12.817 1.361 1.35-12.716zm609.07-32.725c.016-.91.946-1.517 1.785-1.164l8.465 3.558c.657.276 1.079.924 1.067 1.636l-.178 10.203 10.204.177c.712.013 1.345.458 1.598 1.124l3.261 8.583c.324.85-.314 1.76-1.225 1.743l-14.036-.244-.244 14.036c-.015.91-.945 1.517-1.785 1.164l-8.464-3.558c-.656-.275-1.079-.924-1.067-1.636l.177-10.204-10.203-.177c-.713-.012-1.345-.457-1.598-1.123l-3.261-8.583c-.324-.85.314-1.759 1.224-1.743l14.037.244zM376.92 473.797l1.814 8.433 1.834-7.546-3.648-.887zM96.722 458.953l-.787.072-2.738 20.948 5.538.723-2.013-21.743zm822.173-3.323c.01-.55.572-.917 1.079-.703l5.114 2.149c.396.167.652.558.644.988l-.107 6.165 6.164.107c.43.007.813.276.966.678l1.97 5.186c.195.514-.19 1.063-.74 1.053l-8.48-.148-.147 8.48c-.01.55-.571.916-1.079.704l-5.113-2.15c-.397-.167-.652-.559-.645-.989l.107-6.164-6.164-.107c-.43-.007-.813-.276-.965-.679l-1.97-5.185c-.196-.514.19-1.063.74-1.053l8.48.147zm-319.668-33.49c.138-1.245 1.488-1.956 2.593-1.367l11.138 5.949c.864.462 1.36 1.403 1.253 2.376l-1.542 13.95 13.95 1.542c.974.107 1.784.797 2.045 1.74l3.375 12.17c.334 1.206-.656 2.368-1.9 2.23l-19.19-2.12-2.12 19.19c-.137 1.244-1.488 1.956-2.592 1.366l-11.138-5.949c-.864-.461-1.36-1.402-1.252-2.376l1.54-13.95-13.95-1.541c-.974-.108-1.783-.797-2.045-1.742l-3.374-12.168c-.334-1.206.656-2.369 1.9-2.231l19.189 2.12zM137.54 462.284l1.773 8.559 2.665.117-4.438-8.676zm339.638-22.016c.012-.62.645-1.034 1.218-.793l5.775 2.426c.447.189.736.631.727 1.116l-.12 6.961 6.96.121c.486.009.918.312 1.09.767l2.225 5.855c.22.58-.214 1.2-.836 1.189l-9.575-.166-.166 9.575c-.01.62-.645 1.035-1.218.794l-5.774-2.427c-.448-.189-.737-.63-.728-1.117l.12-6.96-6.96-.121c-.486-.009-.917-.312-1.09-.766l-2.225-5.855c-.22-.58.215-1.2.836-1.19l9.575.167zM421.548 387.9c-.253-1.738 1.329-3.183 3.037-2.773l17.228 4.134c1.337.32 2.343 1.423 2.541 2.784l2.846 19.485 19.485-2.846c1.36-.198 2.705.45 3.394 1.64l8.888 15.327c.881 1.519-.05 3.448-1.789 3.702l-26.804 3.914 3.914 26.804c.254 1.738-1.328 3.182-3.036 2.773l-17.228-4.134c-1.337-.321-2.343-1.423-2.542-2.783l-2.845-19.486-19.486 2.846c-1.36.198-2.703-.451-3.393-1.64l-8.888-15.327c-.882-1.52.05-3.448 1.789-3.702l26.804-3.914zm-48.667 39.356c.03-.695.753-1.139 1.387-.852l6.39 2.887c.495.224.805.728.78 1.271l-.341 7.787 7.786.341c.544.025 1.018.377 1.198.89l2.315 6.62c.23.655-.275 1.336-.97 1.305l-10.71-.47-.472 10.71c-.03.695-.753 1.139-1.386.853l-6.39-2.888c-.496-.225-.805-.727-.782-1.27l.343-7.787-7.787-.342c-.543-.024-1.017-.377-1.197-.89l-2.316-6.619c-.23-.657.276-1.337.97-1.307l10.711.472zm-236.95 28.066l-7.878.729 5.953 1.06c.785.14 1.486.515 2.028 1.053.146-.947.772-1.788 1.685-2.176l-.288-.05c-.55-.099-1.059-.312-1.5-.616zm20.819-17.765l3.362 16.223 9.225-.854-.78-8.418-7.92-.84c-1.283-.137-2.365-1.004-2.782-2.213l-.058-.184-1.047-3.714zm44.719 10.446l-.21 1.965 9.998-.925-9.788-1.04zm20.88-22.248l-.118 2.679.825.088c1.284.136 2.365 1.004 2.782 2.212l.058.184 3.347 11.88 7.533.331.457-10.409-4.61-1.843c-1.392-.557-2.326-1.87-2.404-3.357l-.006-.203V426.1l-7.864-.345zm43.061-1.07c.007-.394.41-.657.774-.504l3.67 1.542c.284.12.467.4.462.71l-.077 4.422 4.423.077c.309.006.583.199.693.487l1.413 3.72c.14.37-.136.763-.53.757l-6.085-.106-.106 6.084c-.006.395-.41.657-.774.504l-3.669-1.542c-.284-.12-.467-.4-.462-.71l.077-4.422-4.423-.077c-.309-.005-.583-.198-.693-.487l-1.414-3.72c-.14-.369.137-.763.532-.756l6.084.106zm250.235-74.903c-.11-2 1.837-3.479 3.734-2.837l19.145 6.471c1.485.502 2.516 1.858 2.6 3.424l1.225 22.428 22.429-1.224c1.565-.086 3.024.79 3.686 2.212l8.517 18.327c.844 1.817-.414 3.912-2.414 4.021l-30.852 1.684 1.684 30.852c.109 2-1.837 3.48-3.735 2.837l-19.145-6.472c-1.485-.502-2.515-1.857-2.6-3.422l-1.225-22.43-22.428 1.225c-1.565.086-3.025-.79-3.686-2.212l-8.517-18.327c-.844-1.817.413-3.912 2.414-4.021l30.852-1.684zm236.041 59.461c.01-.55.571-.916 1.078-.703l5.114 2.15c.397.166.652.558.645.988l-.107 6.164 6.164.108c.43.007.813.275.965.678l1.97 5.185c.196.514-.19 1.063-.74 1.053l-8.48-.147-.146 8.48c-.01.55-.571.916-1.079.703l-5.114-2.15c-.396-.166-.652-.558-.644-.988l.107-6.164-6.165-.107c-.429-.008-.812-.277-.965-.679l-1.97-5.185c-.195-.514.19-1.063.74-1.054l8.48.148zm-538.293 16.118l-.224 2.111.4.042.094-2.14-.27-.013zm145.047-74.496c0-1.676 1.693-2.822 3.25-2.2l15.7 6.28c1.217.487 2.016 1.667 2.016 2.978v18.794h18.793c1.312 0 2.492.799 2.979 2.016l6.28 15.7c.622 1.556-.524 3.25-2.2 3.25h-25.852v25.85c0 1.677-1.694 2.823-3.25 2.2l-15.699-6.279c-1.218-.487-2.017-1.667-2.017-2.979v-18.793h-18.793c-1.312 0-2.491-.798-2.979-2.017l-6.28-15.699c-.622-1.556.524-3.25 2.2-3.25h25.852zM182.668 419.99l-5.789 1.199 5.489 1.627.3-2.826zm798.974-19.197c.007-.394.41-.656.774-.504l3.669 1.542c.284.12.468.4.462.71l-.077 4.422 4.423.077c.31.006.583.199.693.487l1.414 3.72c.14.37-.137.763-.531.756l-6.084-.105-.107 6.084c-.006.394-.409.657-.773.504l-3.67-1.542c-.284-.12-.467-.4-.461-.709l.076-4.423-4.423-.077c-.308-.006-.583-.198-.693-.487l-1.413-3.72c-.14-.37.136-.763.531-.756l6.084.106zm-115.185-23.882c.016-.91.945-1.516 1.785-1.164l8.464 3.558c.657.276 1.08.924 1.067 1.636l-.177 10.204 10.203.177c.712.012 1.345.457 1.599 1.123l3.26 8.583c.324.851-.314 1.76-1.225 1.743l-14.036-.243-.244 14.036c-.015.91-.945 1.516-1.785 1.164l-8.464-3.559c-.656-.275-1.079-.923-1.067-1.635l.177-10.204-10.203-.177c-.712-.013-1.345-.458-1.598-1.124l-3.261-8.582c-.324-.852.315-1.76 1.225-1.744l14.036.244zm-636.244 27.945l-14.641-.001-.018.182c.08.005.161.02.242.046l.107.041 6.39 2.887c.495.224.804.728.78 1.271l-.342 7.787 7.482.328v-12.541zm415.707-25.78c.185-.762 1.08-1.096 1.718-.642l6.44 4.585c.499.355.732.98.587 1.575l-2.073 8.538 8.537 2.073c.596.145 1.044.638 1.13 1.245l1.122 7.824c.11.776-.597 1.419-1.358 1.234l-11.744-2.852-2.852 11.744c-.184.761-1.08 1.095-1.719.64l-6.439-4.584c-.5-.355-.732-.98-.587-1.576l2.073-8.537-8.538-2.073c-.595-.145-1.043-.638-1.13-1.245l-1.121-7.825c-.11-.775.596-1.418 1.358-1.233l11.743 2.852zm-569.152 5.478l4.494 2.517c1.368.767 2.132 2.288 1.93 3.843l-2.912 22.272 9.77 1.276-4.492-2.516c-1.309-.732-2.064-2.156-1.95-3.64l.021-.202 2.91-22.272-9.771-1.278zm104.483 13.091l1.064 11.488 1.298 1.961L185 398.043l-3.749-.398zm-69.865-8.566l-2.011 15.386 5.187 1.537c1.06.314 1.908 1.06 2.368 2.019l5.873-1.217.699-2.877-7.573-1.839c-.529-.128-.927-.566-1.004-1.104l-.994-6.941c-.099-.689.529-1.259 1.205-1.095l7.141 1.734-.89-4.297-10-1.306zm43.445-4.995l-8.987.833 3.4 16.409 7.048-1.461-1.46-15.78zm549.193-3.257c.007-.395.41-.658.774-.505l3.67 1.542c.284.12.467.4.461.71l-.076 4.423 4.423.076c.308.006.582.199.692.487l1.414 3.72c.14.37-.136.763-.531.757l-6.084-.106-.106 6.084c-.006.395-.41.658-.774.504l-3.669-1.542c-.285-.12-.468-.4-.463-.71l.077-4.422-4.422-.077c-.309-.005-.583-.198-.693-.487l-1.414-3.72c-.14-.369.137-.763.531-.756l6.084.106zm60.53-55.248c-.208-1.476 1.142-2.696 2.591-2.34l14.613 3.586c1.134.278 1.984 1.219 2.147 2.375l2.33 16.561 16.561-2.33c1.156-.163 2.295.394 2.876 1.407l7.48 13.056c.742 1.294-.058 2.928-1.536 3.136l-22.78 3.206 3.205 22.78c.208 1.479-1.142 2.698-2.59 2.343l-14.614-3.587c-1.134-.279-1.984-1.22-2.146-2.375l-2.331-16.561-16.561 2.33c-1.156.163-2.294-.394-2.875-1.407l-7.48-13.056c-.742-1.294.058-2.928 1.535-3.136l22.781-3.206zm-545.32 44.793l-1 9.427h11.98l-.001-3.562-10.979-5.865zm227.745-64.295c.304-1.46 1.987-2.152 3.23-1.326l12.536 8.322c.973.646 1.454 1.818 1.216 2.961l-3.414 16.372 16.372 3.414c1.143.239 2.025 1.148 2.228 2.298l2.62 14.818c.259 1.469-1.047 2.735-2.507 2.43l-22.522-4.695-4.696 22.521c-.305 1.46-1.988 2.15-3.23 1.326l-12.536-8.323c-.973-.645-1.454-1.818-1.216-2.96l3.414-16.373-16.372-3.414c-1.143-.238-2.025-1.148-2.228-2.298l-2.62-14.817c-.259-1.47 1.047-2.736 2.507-2.431l22.522 4.696zm147.86 45.83c.007-.394.41-.657.773-.504l3.67 1.542c.284.12.467.4.462.71l-.077 4.423 4.423.076c.309.006.583.199.693.487l1.413 3.72c.14.37-.136.763-.53.756l-6.085-.105-.106 6.084c-.006.395-.41.657-.774.504l-3.668-1.542c-.285-.12-.468-.4-.463-.71l.077-4.422-4.423-.077c-.309-.005-.583-.198-.693-.487l-1.414-3.72c-.14-.369.137-.763.531-.756l6.085.105zm93.101-18.555c.013-.696.723-1.158 1.363-.889l6.465 2.717c.502.21.824.706.814 1.25l-.135 7.792 7.793.136c.544.009 1.027.349 1.22.857l2.491 6.556c.247.649-.24 1.343-.935 1.33l-10.72-.185-.186 10.719c-.012.695-.723 1.158-1.363.889l-6.465-2.717c-.502-.211-.824-.706-.814-1.25l.135-7.793-7.793-.135c-.544-.01-1.027-.35-1.22-.857l-2.491-6.556c-.247-.65.24-1.343.936-1.331l10.719.186zM86.412 360.353l-.009.19 3.384.442.062-.481-3.437-.15zm63.731-26.876l-8.075 1.675c-.243 1.785-2.121 2.932-3.858 2.238l-.684-.273c-.167-.003-.338-.04-.505-.114l-1.223-.554-3.479.721 4.294 1.043c.485.117.86.495.977.971l.026.133.995 6.941c.098.688-.53 1.258-1.205 1.094l-7.556-1.835 3.195 15.42 5.42-.502.413-9.399c.029-.656.675-1.089 1.28-.894l.107.041 6.39 2.888c.495.224.804.728.78 1.271l-.232 5.284 5.318-.492-2.378-25.657zm-83.364-.047l-3.154 24.136 4.931.644-2.13-6.089c-.217-.62.222-1.26.856-1.305l.114-.001 10.71.47.204-4.645c-.193-.189-.369-.4-.522-.632l-8.075-12.196-2.934-.382zm111.309-10.704l-18.333 3.798.58.876c.022.031.042.063.061.095l12.275 3.64c1.503.445 2.584 1.76 2.729 3.322l2.071 22.366 21.64-2.005.41-3.856c.029-.27.099-.523.203-.753l-13.996-2.492c-1.544-.275-2.765-1.461-3.083-2.997l-4.557-21.994zm30.848 26.067c-.121 1.088-.873 2.001-1.881 2.355l9.563 5.055.716-6.483zm-117.135-3.227l-4.784.991-.224 5.11 4.187.184.821-6.285zm218.038-8.293l-.64 4.807 8.489 1.131v-2.751l-7.325-2.93c-.183-.073-.358-.16-.524-.257zm590.989-21.55c.01-.55.571-.917 1.078-.703l5.114 2.149c.397.167.652.558.645.988l-.107 6.165 6.164.107c.43.008.813.276.966.678l1.97 5.186c.195.514-.19 1.063-.74 1.053l-8.48-.148-.147 8.48c-.01.55-.572.916-1.079.704l-5.114-2.15c-.396-.167-.651-.558-.644-.989l.107-6.164-6.165-.107c-.43-.008-.812-.277-.965-.679l-1.97-5.185c-.195-.514.19-1.063.74-1.053l8.48.147zm-609.63 20.192l-14.452 1.339.046.509 13.913 1.854.493-3.702zm330.272-38.683c.016-.91.946-1.516 1.785-1.164l8.464 3.558c.657.276 1.08.924 1.068 1.636l-.178 10.204 10.204.177c.712.013 1.345.457 1.598 1.123l3.261 8.583c.323.851-.314 1.76-1.225 1.744l-14.036-.244-.244 14.036c-.015.91-.945 1.516-1.785 1.163l-8.464-3.557c-.657-.276-1.08-.924-1.067-1.636l.177-10.204-10.203-.177c-.713-.013-1.345-.458-1.598-1.123l-3.262-8.584c-.323-.85.315-1.759 1.225-1.743l14.036.244zm-405.432 17.629l-12.95 2.685c.026.31-.099.606-.317.807l2.33 11.244 14.282 1.579.352-3.195-.97-1.896-1.642-.92c-1.31-.732-2.065-2.156-1.95-3.639l.021-.202.844-6.463zm261.78-72.287c-.28-1.983 1.53-3.624 3.476-3.149l19.632 4.796c1.523.372 2.666 1.634 2.886 3.186l3.155 22.24 22.24-3.155c1.55-.22 3.081.527 3.862 1.886l10.066 17.524c.998 1.737-.074 3.933-2.058 4.214l-30.591 4.34 4.339 30.591c.282 1.984-1.53 3.625-3.476 3.149l-19.631-4.796c-1.524-.372-2.667-1.634-2.887-3.186l-3.155-22.24-22.238 3.155c-1.553.22-3.083-.527-3.864-1.886l-10.066-17.524c-.998-1.737.074-3.933 2.058-4.214l30.592-4.34zm325.032 67.39c.007-.395.41-.658.774-.505l3.669 1.542c.284.12.468.4.462.71l-.077 4.423 4.423.076c.309.006.583.199.693.487l1.414 3.72c.14.37-.137.763-.532.756l-6.084-.105-.105 6.084c-.007.395-.41.657-.774.504l-3.67-1.542c-.284-.12-.467-.4-.462-.71l.077-4.422-4.423-.077c-.308-.005-.583-.198-.693-.487l-1.413-3.72c-.14-.369.136-.763.53-.756l6.085.105zm-91.23-29.17c.015-.91.945-1.516 1.784-1.163l8.465 3.558c.656.276 1.078.924 1.066 1.636l-.177 10.204 10.204.177c.712.012 1.345.457 1.598 1.123l3.261 8.583c.324.851-.315 1.759-1.225 1.743l-14.036-.243-.244 14.035c-.016.91-.946 1.517-1.785 1.164l-8.464-3.558c-.657-.276-1.08-.924-1.067-1.635l.177-10.204-10.204-.177c-.712-.013-1.344-.458-1.598-1.124l-3.26-8.583c-.324-.85.314-1.76 1.224-1.743l14.036.244zm-153.172 22.057c.007-.395.41-.657.773-.505l3.67 1.543c.284.119.467.4.462.709l-.077 4.422 4.423.077c.309.006.583.199.693.487l1.413 3.721c.14.369-.136.762-.53.756l-6.085-.106-.106 6.084c-.006.395-.41.657-.773.504l-3.67-1.542c-.284-.12-.467-.4-.462-.71l.077-4.422-4.423-.077c-.308-.005-.583-.198-.693-.486l-1.413-3.721c-.14-.369.136-.763.53-.755l6.085.105zM97.679 313.755l.711 4.856.283-.059-.994-4.797zm145.272-11.457l-1.71 13.079 8.243-.763-1.075-11.603-5.458-.713zm23.778-49.915h-18.354c.588.785.865 1.784.733 2.797l-2.91 22.272 22.272 2.91c1.554.204 2.829 1.333 3.218 2.852l5.01 19.578c.473 1.844-.968 3.587-2.817 3.533l.554 5.978 10.044-.93c-1.14-.312-2.094-1.142-2.548-2.275l-7.505-18.763c-.744-1.86.626-3.884 2.63-3.884h30.897v-7.157l-5.925.55c-1.494.138-2.923-.606-3.67-1.893l-.098-.179-6.474-12.655v18.164c0 1.944-1.906 3.292-3.719 2.69l-.164-.061-18.764-7.505c-1.456-.582-2.41-1.993-2.41-3.56v-22.462zM73.114 295.426l-1.396.203-1.692 12.955 5.111.667-2.023-13.825zm72.51 8.436h-3.53v.816c.202-.097.421-.171.655-.22l2.875-.596zm24.13-18.55l1.207 3.019-.623-3.009-.584-.01zm420.413-42.42c.015-.91.945-1.516 1.785-1.163l8.464 3.557c.657.276 1.08.924 1.067 1.636l-.177 10.204 10.204.177c.711.013 1.344.458 1.598 1.123l3.26 8.584c.324.85-.314 1.759-1.224 1.743l-14.036-.244-.244 14.036c-.016.91-.946 1.516-1.785 1.164l-8.465-3.558c-.657-.276-1.079-.924-1.066-1.636l.177-10.204-10.204-.177c-.712-.013-1.345-.457-1.598-1.123l-3.261-8.583c-.323-.851.314-1.76 1.224-1.744l14.037.244zM406.522 193.77c0-2.004 2.023-3.374 3.883-2.63l18.764 7.506c1.456.583 2.41 1.992 2.41 3.56v22.462h22.462c1.568 0 2.978.954 3.56 2.41l7.505 18.764c.744 1.86-.625 3.884-2.628 3.884H431.58v30.897c0 2.004-2.024 3.373-3.884 2.63l-18.764-7.506c-1.455-.582-2.41-1.992-2.41-3.56v-22.461H384.06c-1.568 0-2.977-.955-3.56-2.411l-7.505-18.764c-.744-1.86.626-3.883 2.63-3.883h30.897zm394.488 56.262c.012-.696.722-1.159 1.363-.889l6.465 2.717c.501.21.824.705.814 1.25l-.135 7.792 7.793.135c.543.01 1.026.35 1.22.858l2.49 6.555c.248.65-.24 1.344-.935 1.331l-10.719-.185-.186 10.719c-.013.695-.723 1.158-1.364.889l-6.464-2.718c-.502-.21-.824-.705-.815-1.25l.135-7.792-7.792-.135c-.544-.01-1.027-.35-1.221-.858l-2.49-6.555c-.248-.65.24-1.344.935-1.331l10.72.186zm-631.62-37.228l-.106 6.084c-.007.394-.41.657-.774.504l-3.505-1.474v18.181h22.461c1.569 0 2.979.955 3.56 2.41l7.506 18.764c.744 1.86-.625 3.884-2.629 3.884h-30.898v17.675c.143.017.284.042.422.074l-.005-.013c-.214-.56.207-1.16.807-1.149l2.548.044-2.042-9.853c-.394-1.906 1.202-3.613 3.101-3.388l.168.025 19.897 3.543c1.321.235 2.406 1.139 2.89 2.357l28.56 3.734 1.008-7.717-14.612-7.724c-1.137-.602-1.818-1.804-1.76-3.077l.015-.202 2.05-19.3-8.734-.928c-.461 1.385-1.968 2.272-3.495 1.82l-19.375-5.743c-1.504-.446-2.584-1.762-2.728-3.323l-1.405-15.158-2.926-.05zm824.805 46.417c.007-.394.41-.657.774-.504l3.67 1.542c.284.12.467.4.461.71l-.076 4.422 4.423.077c.308.006.582.198.693.487l1.413 3.72c.14.37-.136.763-.531.756l-6.084-.106-.106 6.084c-.007.395-.41.658-.774.505l-3.669-1.543c-.285-.119-.468-.4-.462-.708l.076-4.423-4.422-.077c-.309-.006-.583-.198-.693-.487l-1.414-3.721c-.14-.368.137-.762.532-.755l6.083.105zm-925.379 6.835l-10.026.929v8.644l.014.008 11.176-1.635-1.164-7.946zm48.22-4.465l-15.242 1.412.579 6.259 8.236-1.205c1.273-.187 2.533.381 3.238 1.444l.107.171 3.082 5.312V261.59zm584.488-7.465c.006-.395.41-.658.773-.505l3.67 1.542c.284.12.467.4.462.71l-.077 4.423 4.423.076c.309.006.583.199.693.487l1.413 3.72c.14.37-.136.763-.53.756l-6.085-.105-.106 6.084c-.007.395-.41.657-.774.504l-3.669-1.542c-.284-.12-.467-.4-.462-.71l.077-4.422-4.423-.077c-.309-.005-.583-.198-.693-.487l-1.413-3.72c-.14-.369.136-.763.53-.756l6.085.106zm42.855-50.618c-.208-1.477 1.142-2.698 2.59-2.342l14.614 3.587c1.134.278 1.984 1.218 2.146 2.374l2.331 16.562 16.56-2.331c1.156-.163 2.295.395 2.876 1.408l7.48 13.055c.742 1.295-.058 2.93-1.535 3.137l-22.781 3.206 3.206 22.78c.207 1.478-1.142 2.698-2.591 2.343l-14.613-3.587c-1.134-.278-1.985-1.219-2.147-2.375l-2.33-16.561-16.561 2.33c-1.156.163-2.295-.394-2.875-1.407l-7.481-13.057c-.742-1.294.058-2.927 1.535-3.135l22.782-3.206zm104.556 43.971c.007-.394.41-.657.774-.504l3.669 1.542c.285.12.468.4.462.709l-.077 4.423 4.423.077c.31.005.583.198.693.487l1.414 3.72c.14.369-.137.762-.532.756l-6.084-.106-.105 6.084c-.007.395-.41.658-.774.505l-3.67-1.542c-.284-.12-.467-.4-.461-.71l.076-4.423-4.423-.077c-.308-.005-.582-.197-.693-.486l-1.413-3.72c-.14-.37.136-.763.531-.756l6.084.105zm-204.511-7.609c.01-.55.571-.916 1.078-.703l5.114 2.15c.397.166.652.557.644.987l-.107 6.165 6.165.107c.43.008.812.276.965.679l1.97 5.185c.195.514-.19 1.063-.74 1.053l-8.48-.147-.147 8.48c-.01.55-.571.916-1.078.703l-5.114-2.15c-.397-.166-.652-.558-.644-.988l.107-6.165-6.165-.107c-.43-.007-.812-.276-.965-.678l-1.97-5.185c-.195-.514.19-1.063.74-1.054l8.48.148zm-113.37-57.285c.156-1.633 1.912-2.591 3.37-1.84l14.708 7.585c1.141.588 1.809 1.812 1.687 3.09l-1.757 18.308 18.309 1.756c1.278.122 2.353 1.01 2.713 2.243l4.652 15.881c.46 1.574-.815 3.116-2.447 2.96l-25.185-2.416-2.415 25.186c-.157 1.632-1.913 2.59-3.371 1.839l-14.708-7.585c-1.14-.588-1.809-1.812-1.686-3.09l1.756-18.308-18.309-1.756c-1.278-.122-2.352-1.01-2.713-2.242l-4.65-15.881c-.462-1.575.813-3.117 2.446-2.96l25.185 2.415zM322.04 252.383h-30.254l-.001 3.244 16.57-1.535c.655-1.084 2.01-1.663 3.316-1.229l.165.06 1.718.688 8.528-.79-.042-.438zm-92.458-13.912l-.304 2.86c.09.039.18.083.268.132l9.994 5.596-3.146-7.865-6.812-.723zm-130.496-4.69l.396 4.27 7.193-.666c.497-.761 1.353-1.287 2.374-1.287h7.772l-17.735-2.317zm572.76-74.696l.17.009 18.999 1.556c1.474.121 2.725 1.128 3.16 2.54l6.235 20.249 20.248-6.236c1.414-.435 2.95.034 3.878 1.185l11.975 14.83c1.187 1.471.514 3.675-1.292 4.231l-27.853 8.577 8.577 27.853c.556 1.806-.887 3.602-2.771 3.448l-18.997-1.557c-1.474-.121-2.726-1.127-3.161-2.54l-6.235-20.248-20.248 6.235c-1.413.435-2.95-.034-3.879-1.184l-11.974-14.831c-1.187-1.47-.514-3.675 1.292-4.23l27.853-8.578-8.577-27.852c-.556-1.806.887-3.603 2.77-3.448zM318.672 231.9l1.916 4.788-.355-3.832-1.488-.91-.073-.046zM123.73 206.63l.792 8.546c.185 1.995-1.704 3.546-3.624 2.976l-1.105-.327 3.905 15.256c.295 1.149-.153 2.258-.98 2.919.167.02.332.054.493.098h16.736v-28.755l-3.876-.17-.47 10.71c-.03.695-.753 1.14-1.387.853l-6.39-2.888c-.496-.224-.805-.727-.78-1.27l.341-7.787-3.655-.161zm206.417-56.03l-14.06 1.552 2.524 22.867c.164 1.482-1.222 2.662-2.659 2.263l-14.5-4.02c-1.125-.313-1.946-1.278-2.075-2.439l-.722-6.541h-19.057v30.898c0 .755-.287 1.42-.745 1.915l10.523 4.209c1.456.582 2.41 1.992 2.41 3.56v22.462h22.462c1.02 0 1.972.403 2.673 1.085l.017-.177.029-.202 3.768-22.143-22.143-3.768c-1.546-.264-2.776-1.44-3.105-2.974l-4.252-19.756c-.421-1.96 1.27-3.725 3.243-3.388l30.46 5.183 5.184-30.46c.007-.042.016-.085.025-.127zm-110.14 27.14c.157.198.296.413.414.644l6.846 13.381 4.906 2.595c1.138.6 1.819 1.803 1.761 3.077l-.015.201-.037.349.982.413c.408.172.683.552.723.985l.005.131-.12 6.961 6.96.121c.486.009.918.312 1.09.767l2.225 5.855c.22.58-.215 1.2-.835 1.189l-9.576-.166-.053 3.059 15.887 1.687c1.283.137 2.364 1.003 2.782 2.212l.057.184 1.674 5.94h11.046v-25.308c-.197.502-.79.774-1.32.534l-6.39-2.888c-.495-.224-.805-.727-.78-1.27l.326-7.443-.968-.387-6.802-.3c-.499-.02-.939-.319-1.147-.764l-.051-.125-2.316-6.619c-.23-.656.276-1.336.97-1.306l6.289.276v-1.345l-9.46-.415-.47 10.71c-.03.695-.753 1.14-1.387.853l-6.39-2.888c-.495-.224-.805-.727-.78-1.27l.341-7.787-7.786-.342c-.475-.02-.897-.293-1.116-.704zm30.501 20.422c.007-.394.41-.657.774-.504l3.669 1.542c.285.12.468.4.462.71l-.077 4.422 4.423.077c.31.005.584.199.693.487l1.414 3.72c.14.37-.137.763-.531.756l-6.084-.106-.106 6.084c-.007.395-.41.658-.774.505l-3.67-1.542c-.284-.12-.467-.4-.461-.71l.077-4.423-4.424-.076c-.308-.006-.583-.198-.693-.487l-1.413-3.72c-.14-.37.136-.763.531-.756l6.084.105zm-38.82 3.774l-13.286 1.232c-.34.677-.979 1.147-1.7 1.295l.818 8.828 12.818 1.362 1.35-12.717zm609.07-32.725c.016-.91.946-1.517 1.785-1.164l8.465 3.558c.657.276 1.079.923 1.067 1.636l-.178 10.203 10.204.178c.712.012 1.345.457 1.598 1.123l3.261 8.583c.324.85-.314 1.76-1.225 1.743l-14.036-.244-.244 14.036c-.015.91-.945 1.516-1.785 1.164l-8.464-3.558c-.656-.275-1.079-.923-1.067-1.636l.177-10.203-10.203-.178c-.713-.012-1.345-.457-1.598-1.123l-3.261-8.583c-.324-.85.314-1.759 1.224-1.743l14.037.244zM376.92 201.565l1.814 8.433 1.834-7.546-3.648-.887zM96.722 186.721l-.787.072-2.738 20.948 5.538.723-2.013-21.743zm67.844 19.579l-9.266.858 2.59 1.036c.019-.254.213-.475.478-.512l.089-.005 6.084.105.025-1.482zm754.33-22.902c.01-.55.57-.917 1.078-.703l5.114 2.149c.396.167.652.558.644.988l-.107 6.165 6.164.107c.43.008.813.276.966.678l1.97 5.186c.195.514-.19 1.063-.74 1.053l-8.48-.148-.147 8.48c-.01.55-.571.916-1.079.704l-5.113-2.15c-.397-.167-.652-.558-.645-.989l.107-6.164-6.164-.107c-.43-.008-.813-.277-.965-.679l-1.97-5.185c-.196-.514.19-1.063.74-1.053l8.48.147zm-747.248 22.247l-2.138.197-.035 2.026 2.382.041-.21-2.264zm427.58-55.737c.137-1.244 1.487-1.956 2.592-1.367l11.138 5.95c.864.46 1.36 1.402 1.253 2.375l-1.542 13.95 13.95 1.542c.974.107 1.784.796 2.045 1.741l3.375 12.168c.334 1.207-.656 2.369-1.9 2.232l-19.19-2.12-2.12 19.189c-.137 1.244-1.488 1.956-2.592 1.366l-11.138-5.949c-.864-.461-1.36-1.402-1.252-2.376l1.54-13.95-13.95-1.541c-.974-.107-1.783-.797-2.045-1.741l-3.374-12.169c-.334-1.206.656-2.368 1.9-2.231l19.189 2.12zm-452.445 9.426l-.435 1.792 8.351 16.325c.886 1.731-.198 3.8-2.086 4.088l-.174.021-30.766 2.85 1.248 13.481 4.846.214.47-10.71c.031-.695.754-1.139 1.388-.853l6.39 2.887c.495.224.804.728.78 1.272l-.342 7.786 5.524.242-5.666-11.076c-.885-1.731.198-3.8 2.086-4.088l.174-.021 30.766-2.85-.78-8.418-7.92-.84c-1.283-.137-2.365-1.004-2.782-2.213l-.058-.184-2.127-7.548-8.887-2.157zm330.394 8.704c.012-.621.645-1.035 1.218-.795l5.775 2.428c.447.188.736.63.727 1.116l-.12 6.96 6.96.121c.486.01.918.312 1.09.767l2.225 5.855c.22.58-.214 1.2-.836 1.189l-9.575-.166-.166 9.575c-.01.62-.645 1.035-1.218.794l-5.774-2.427c-.448-.188-.737-.63-.728-1.116l.12-6.96-6.96-.122c-.486-.008-.917-.312-1.09-.766l-2.225-5.855c-.22-.58.215-1.2.836-1.19l9.575.167zM267.118 194.37l-.03.67c.109-.192.238-.369.385-.528l-.355-.142zm154.43-78.703c-.253-1.737 1.329-3.183 3.037-2.773l17.228 4.135c1.337.32 2.343 1.422 2.541 2.783l2.846 19.485 19.485-2.846c1.36-.199 2.705.45 3.394 1.64l8.888 15.327c.881 1.52-.05 3.448-1.789 3.702l-26.804 3.914 3.914 26.804c.254 1.738-1.328 3.182-3.036 2.773l-17.228-4.134c-1.337-.321-2.343-1.423-2.542-2.783l-2.845-19.486-19.486 2.846c-1.36.198-2.703-.451-3.393-1.64l-8.888-15.327c-.882-1.52.05-3.448 1.789-3.702l26.804-3.914zm-48.667 39.356c.03-.695.753-1.138 1.387-.852l6.39 2.887c.495.224.805.727.78 1.271l-.341 7.786 7.786.342c.544.025 1.018.377 1.198.89l2.315 6.62c.23.656-.275 1.336-.97 1.306l-10.71-.471-.472 10.71c-.03.695-.753 1.14-1.386.853l-6.39-2.888c-.496-.224-.805-.727-.782-1.27l.343-7.787-7.787-.342c-.543-.024-1.017-.377-1.197-.89l-2.316-6.62c-.23-.655.276-1.336.97-1.305l10.711.47zM201.47 175.77l-.21 1.966 9.999-.926-9.789-1.04zm531.828-25.06c.01-.55.572-.917 1.079-.703l5.113 2.15c.397.166.652.557.645.988l-.107 6.164 6.164.107c.43.007.813.276.966.678l1.97 5.186c.195.514-.19 1.063-.74 1.053l-8.48-.148-.147 8.48c-.01.55-.571.916-1.078.704l-5.114-2.15c-.397-.167-.652-.558-.644-.988l.106-6.165-6.164-.107c-.43-.007-.813-.276-.965-.678l-1.97-5.186c-.196-.514.19-1.062.74-1.053l8.48.147zm-486.581 13.571h-.946l-.307 6.997 7.786.342c.543.024 1.018.377 1.197.89l.094.268.001-7.358c-.72.792-1.873 1.161-2.99.79l-.164-.06-4.671-1.869zm-24.367-10.759l-.118 2.679.825.088c1.284.136 2.365 1.004 2.782 2.212l.058.184 3.347 11.879 7.533.332.29-6.615h-4.987c-1.5 0-2.855-.873-3.48-2.223l-.081-.187-3.289-8.222-2.88-.127zm294.888-80.46c-.109-2.001 1.837-3.48 3.735-2.838l19.145 6.472c1.485.502 2.516 1.857 2.6 3.423l1.225 22.428 22.428-1.224c1.566-.085 3.025.79 3.686 2.213l8.517 18.327c.844 1.816-.413 3.911-2.413 4.02l-30.853 1.685 1.685 30.852c.109 2-1.837 3.478-3.735 2.837l-19.145-6.472c-1.485-.502-2.515-1.858-2.6-3.423l-1.225-22.429-22.428 1.225c-1.566.085-3.025-.791-3.686-2.213l-8.517-18.327c-.844-1.817.413-3.912 2.413-4.02l30.852-1.685zM204.16 150.425l-.404 3.814 9.813 1.042.094-2.14-7.786-.343c-.543-.024-1.018-.377-1.197-.89l-.52-1.483zm154.28-71.793c0-1.676 1.693-2.822 3.25-2.2l15.7 6.28c1.217.487 2.016 1.666 2.016 2.978v18.794h18.793c1.312 0 2.492.798 2.979 2.017l6.28 15.699c.622 1.556-.524 3.25-2.2 3.25h-25.852v25.851c0 1.676-1.694 2.822-3.25 2.2l-15.699-6.28c-1.218-.487-2.017-1.667-2.017-2.979V125.45h-18.793c-1.312 0-2.491-.799-2.979-2.016l-6.28-15.7c-.622-1.556.524-3.25 2.2-3.25h25.852zm-172.462 30.334l-6.196.575 2.85 30.766c.184 1.995-1.705 3.546-3.625 2.976l-19.376-5.743c-1.188-.352-2.111-1.247-2.518-2.377l-12.742 2.639.07.043 5.712 4.067c.443.316.65.87.521 1.398l-1.839 7.574 4.155 1.01c-.213-1.54 1.079-2.932 2.684-2.761l10.846 1.151-.033-.357c-.179-1.938 1.598-3.457 3.46-3.02l.165.044 12.256 3.632 2.676-25.18c.177-1.666 1.928-2.65 3.428-1.978l.149.073.413.218-3.056-14.75zm645.171.48c.016-.91.946-1.516 1.785-1.164l8.464 3.558c.657.276 1.08.924 1.067 1.636l-.177 10.204 10.204.177c.712.013 1.345.457 1.598 1.123l3.26 8.583c.324.851-.314 1.76-1.224 1.744l-14.036-.244-.244 14.036c-.016.91-.946 1.516-1.785 1.163l-8.465-3.557c-.656-.276-1.078-.924-1.066-1.636l.177-10.204-10.204-.177c-.712-.013-1.345-.458-1.598-1.123l-3.26-8.584c-.324-.85.314-1.759 1.224-1.743l14.036.244zm-688.076 28.624l-4.474.929 1.922 9.274 2.395-9.86c.031-.128.085-.243.157-.343zm776.735-9.51c.007-.394.41-.656.774-.504l3.669 1.543c.285.119.468.4.462.708l-.076 4.423 4.422.077c.31.006.584.199.693.487l1.414 3.72c.14.37-.136.763-.531.757l-6.084-.106-.106 6.084c-.007.394-.41.657-.774.504l-3.669-1.542c-.284-.12-.468-.4-.462-.71l.077-4.422-4.424-.077c-.308-.006-.582-.198-.692-.487l-1.414-3.72c-.14-.369.136-.763.531-.756l6.084.106zm-705.11 4.655c-.564.353-1.26.512-1.992.382l-7.912-1.41c.734.698 1.122 1.71 1.012 2.751l-.969 9.111 9.208.405.47-10.71c.01-.194.071-.367.17-.511zm-133.79 2.934l-.628 4.804 4.168.544-3.54-5.348zm149.305-3.526h-14.836c-.073.087-.152.17-.235.25.233-.094.504-.098.76.018l6.39 2.888c.496.224.805.727.781 1.27l-.098 2.253c.212-.051.436-.078.667-.078l6.571-.001v-6.6zm459.573-11.37c.007-.394.41-.656.774-.504l3.669 1.542c.285.12.468.4.462.71l-.076 4.423 4.422.077c.31.005.583.198.693.486l1.414 3.72c.14.37-.137.763-.531.756l-6.084-.105-.106 6.084c-.007.395-.41.657-.774.504l-3.67-1.542c-.283-.12-.467-.4-.461-.709l.076-4.423-4.423-.077c-.308-.005-.582-.198-.692-.487l-1.414-3.72c-.14-.369.136-.762.531-.756l6.084.106zm28.157-49.707c-.207-1.477 1.142-2.697 2.591-2.342l14.613 3.587c1.135.279 1.985 1.219 2.147 2.375l2.33 16.561 16.562-2.33c1.155-.163 2.294.394 2.875 1.408l7.48 13.055c.742 1.294-.058 2.929-1.535 3.136l-22.781 3.206 3.206 22.781c.207 1.478-1.143 2.697-2.592 2.342l-14.612-3.587c-1.134-.278-1.985-1.219-2.147-2.375l-2.33-16.56-16.561 2.33c-1.156.162-2.295-.395-2.876-1.408l-7.48-13.056c-.742-1.294.058-2.928 1.535-3.136l22.781-3.206zm-68.567 28.32c.164-.675.958-.97 1.524-.568l5.713 4.067c.443.316.65.87.521 1.398l-1.839 7.574 7.573 1.84c.529.127.927.565 1.004 1.103l.994 6.942c.098.688-.53 1.258-1.205 1.094l-10.418-2.53-2.53 10.418c-.164.676-.958.972-1.524.569l-5.713-4.067c-.443-.316-.65-.87-.521-1.398l1.839-7.574-7.574-1.839c-.528-.129-.926-.566-1.003-1.104l-.994-6.942c-.099-.688.529-1.258 1.205-1.094l10.418 2.53zm344.532 2.414c.01-.55.572-.917 1.078-.704l5.114 2.15c.397.167.652.558.645.988l-.107 6.164 6.164.108c.43.007.813.276.966.678l1.97 5.186c.195.514-.19 1.063-.74 1.053l-8.48-.148-.147 8.48c-.01.55-.572.916-1.079.703l-5.113-2.149c-.397-.167-.652-.558-.645-.989l.107-6.164-6.164-.107c-.43-.007-.813-.276-.965-.678l-1.97-5.186c-.196-.514.19-1.063.74-1.053l8.479.147zm-917.14 10.041l4.494 2.517c1.368.767 2.132 2.288 1.93 3.843l-.835 6.38 2.759-.571L86.54 113.6l-9.772-1.278zm142.284-14.279l-7.745 1.605 1.501 2.935c.83 1.62-.066 3.535-1.732 4.01l.201.973h18.936v-3.561l-11.161-5.962zm375.787-8.415c.007-.395.41-.658.773-.505l3.67 1.542c.284.12.467.4.462.71l-.077 4.422 4.423.077c.309.006.583.199.693.487l1.413 3.72c.14.37-.136.763-.53.757l-6.085-.106-.106 6.084c-.006.395-.41.657-.774.504l-3.668-1.542c-.285-.12-.468-.4-.463-.71l.077-4.422-4.423-.077c-.309-.005-.583-.198-.693-.487l-1.414-3.72c-.14-.369.137-.763.531-.756l6.085.106zm-279.16 0c.008-.395.411-.658.775-.505l3.668 1.542c.285.12.468.4.463.71l-.077 4.422 4.423.077c.31.006.583.199.693.487l1.414 3.72c.14.37-.137.763-.531.757l-6.085-.106-.105 6.084c-.007.395-.41.657-.774.504l-3.67-1.542c-.284-.12-.467-.4-.462-.71l.077-4.422-4.423-.077c-.308-.005-.583-.198-.692-.487l-1.414-3.72c-.14-.369.136-.763.53-.756l6.085.106zm131.3-55.783c.304-1.46 1.987-2.152 3.23-1.326l12.536 8.322c.973.646 1.454 1.819 1.216 2.961l-3.414 16.372 16.372 3.414c1.143.239 2.025 1.149 2.228 2.298l2.62 14.818c.259 1.469-1.047 2.735-2.507 2.431l-22.522-4.696-4.696 22.521c-.305 1.46-1.988 2.151-3.23 1.326l-12.536-8.323c-.973-.645-1.454-1.818-1.216-2.96l3.414-16.373-16.372-3.413c-1.143-.239-2.025-1.149-2.228-2.299l-2.62-14.817c-.259-1.469 1.047-2.736 2.507-2.431l22.522 4.696zm-151.68-2.28c.197-1.48 1.825-2.291 3.125-1.56l13.11 7.384c1.018.574 1.584 1.708 1.429 2.865l-2.208 16.578 16.578 2.208c1.157.154 2.104.998 2.39 2.13l3.695 14.586c.367 1.446-.843 2.805-2.322 2.607l-22.804-3.037-3.038 22.804c-.197 1.478-1.825 2.29-3.125 1.559l-13.11-7.384c-1.017-.573-1.583-1.708-1.43-2.865l2.209-16.577-16.578-2.209c-1.157-.154-2.104-.997-2.39-2.129l-3.695-14.586c-.366-1.446.844-2.805 2.322-2.608l22.805 3.038zM150.91 69.52c-.327.85-1.195 1.456-2.203 1.344l-10.72-1.185.623 4.346c.093.65-.462 1.195-1.093 1.115l-.112-.02-10.418-2.53-2.53 10.418c-.049.201-.153.368-.291.494l-.615 5.554 1.948.347 1.535-.142c.15-.123.338-.202.547-.217l.114-.001 1.154.05 9.615-.891.413-9.399c.029-.656.675-1.089 1.28-.893l.107.04 6.39 2.888c.495.224.804.728.78 1.271l-.232 5.284 1.576-.146c.257-.18.551-.321.876-.41l.176-.042 2.629-.545zm-64.5 18.6l-.008.19 3.384.442.062-.481-3.437-.15zM66.78 61.199l-3.154 24.136 4.931.644-2.13-6.089c-.217-.62.222-1.26.856-1.305l.114-.001 10.71.47.472-10.71c.03-.695.753-1.139 1.386-.852l6.39 2.887c.496.224.806.728.781 1.271l-.342 7.786 4.187.184 1.949-14.917-2.255-.249c-.313-.034-.611-.12-.887-.247l-23.008-3.008zm566.62-11.493c.012-.694.723-1.157 1.363-.888l6.465 2.717c.502.21.824.706.814 1.25l-.135 7.792 7.793.136c.544.01 1.027.349 1.22.857l2.491 6.555c.248.65-.24 1.344-.936 1.332l-10.718-.186-.187 10.719c-.012.695-.722 1.158-1.363.888l-6.465-2.716c-.502-.21-.824-.706-.814-1.25l.135-7.793-7.793-.135c-.544-.01-1.027-.35-1.22-.858l-2.491-6.555c-.247-.65.24-1.343.936-1.331l10.72.186zm254.78 1.22c.009-.55.57-.916 1.078-.703l5.113 2.15c.397.166.652.557.645.988l-.107 6.164 6.164.107c.43.008.813.276.966.68l1.97 5.184c.195.515-.19 1.063-.74 1.054l-8.48-.148-.147 8.48c-.01.55-.571.916-1.078.703l-5.114-2.15c-.397-.166-.652-.558-.645-.988l.107-6.164-6.164-.107c-.43-.008-.813-.277-.966-.68l-1.97-5.184c-.195-.514.19-1.063.74-1.054l8.48.148zM366.21 26.05c.016-.91.946-1.516 1.784-1.164l8.465 3.558c.657.276 1.079.924 1.067 1.636l-.177 10.204 10.203.177c.712.013 1.345.457 1.598 1.123l3.262 8.583c.323.851-.315 1.76-1.226 1.744l-14.036-.244-.244 14.036c-.015.91-.945 1.516-1.784 1.164l-8.465-3.558c-.656-.276-1.079-.924-1.067-1.636l.177-10.204-10.203-.177c-.713-.013-1.345-.457-1.598-1.124l-3.261-8.582c-.324-.851.314-1.76 1.224-1.744l14.037.244zm323.595-1.941c.016-.91.946-1.517 1.785-1.164l8.464 3.558c.657.276 1.08.923 1.067 1.636l-.177 10.203 10.204.178c.712.012 1.345.457 1.598 1.123l3.261 8.583c.323.85-.314 1.759-1.225 1.743l-14.036-.244-.244 14.036c-.016.91-.946 1.516-1.785 1.164l-8.464-3.558c-.657-.275-1.08-.923-1.067-1.636l.177-10.203-10.204-.178c-.712-.012-1.344-.457-1.598-1.123l-3.261-8.583c-.324-.85.315-1.759 1.225-1.743l14.036.244zM551.251 35.34c.007-.394.41-.657.774-.504l3.67 1.542c.284.119.467.4.461.709l-.076 4.423 4.423.076c.308.006.583.199.693.487l1.413 3.721c.14.37-.136.762-.531.756l-6.084-.106-.106 6.084c-.006.395-.41.657-.774.505l-3.669-1.543c-.285-.12-.468-.4-.462-.709l.077-4.423-4.423-.077c-.309-.005-.583-.198-.693-.486l-1.414-3.721c-.14-.368.137-.762.532-.755l6.084.105zM127.945 49.299l-.054.496.268.029.023-.514-.237-.011zM260.796 26.89c.007-.394.41-.656.774-.504l3.67 1.542c.284.12.467.4.462.71l-.077 4.422 4.423.077c.308.006.583.199.693.487l1.413 3.72c.14.37-.136.763-.531.757l-6.084-.107-.106 6.085c-.006.394-.41.657-.774.504l-3.669-1.542c-.284-.12-.468-.4-.462-.71l.077-4.422-4.423-.077c-.309-.006-.583-.198-.693-.487l-1.414-3.72c-.14-.369.137-.763.532-.756l6.084.106z"/>
    </defs>
    <g fill="none" fill-rule="evenodd">
        <mask id="prefix__b" fill="#fff">
            <use xlink:href="#prefix__a"/>
        </mask>
        <g mask="url(#prefix__b)">
            <g transform="translate(-257 -158)">
                <mask id="prefix__d" fill="#fff">
                    <use xlink:href="#prefix__c"/>
                </mask>
                <g mask="url(#prefix__d)">
                    <g transform="translate(-88.097 -40.41)">
                        <mask id="prefix__f" fill="#fff">
                            <use xlink:href="#prefix__e"/>
                        </mask>
                        <use fill="#D2004C" fill-opacity="0" xlink:href="#prefix__e"/>
                        <g mask="url(#prefix__f)">
                            <path fill="#D2004C" d="M0 0H1015.127V609.886H0z"/>
                        </g>
                    </g>
                </g>
            </g>
        </g>
    </g>
</svg>
