<svg width="14" height="20" viewBox="0 0 14 20" fill="none" xmlns="http://www.w3.org/2000/svg">
    <path fill-rule="evenodd" clip-rule="evenodd" d="M2.83331 0.833313H11.1666C12.5474 0.833313 13.6666 1.9526 13.6666 3.33331V16.6666C13.6666 18.0474 12.5474 19.1666 11.1666 19.1666H2.83331C1.4526 19.1666 0.333313 18.0474 0.333313 16.6666V3.33331C0.333313 1.9526 1.4526 0.833313 2.83331 0.833313ZM2.83331 2.49998C2.37308 2.49998 1.99998 2.87308 1.99998 3.33331V16.6666C1.99998 17.1269 2.37308 17.5 2.83331 17.5H11.1666C11.6269 17.5 12 17.1269 12 16.6666V3.33331C12 2.87308 11.6269 2.49998 11.1666 2.49998H2.83331ZM6.99998 16.6666C7.92045 16.6666 8.66665 15.9205 8.66665 15C8.66665 14.0795 7.92045 13.3333 6.99998 13.3333C6.0795 13.3333 5.33331 14.0795 5.33331 15C5.33331 15.9205 6.0795 16.6666 6.99998 16.6666Z" fill="#EF4056"/>
</svg>
