<svg xmlns="http://www.w3.org/2000/svg" xmlns:xlink="http://www.w3.org/1999/xlink" width="314" height="428" viewBox="0 0 314 428">
    <defs>
        <path id="prefix__a" d="M0 4.992A4.994 4.994 0 014.996 0h304.008A4.996 4.996 0 01314 4.992v418.016a4.994 4.994 0 01-4.996 4.992H4.996A4.996 4.996 0 010 423.008V4.992z"/>
        <path id="prefix__c" d="M0 0H537.269V305H0z"/>
        <path id="prefix__e" d="M28.475 1.429A1.64 1.64 0 0130.9.21l10.21 5.716a2.22 2.22 0 011.116 2.224l-1.685 12.895 12.894 1.685a2.22 2.22 0 011.863 1.65l.626 2.445 7.381.817 1.463-13.239a1.22 1.22 0 011.789-.943l7.684 4.104c.167.09.314.205.438.339l.17-3.892a.736.736 0 011.04-.638l4.788 2.164a.996.996 0 01.585.952l-.256 5.835 5.835.256a.998.998 0 01.897.667l1.736 4.96a.737.737 0 01-.728.98l-8.026-.354-.033.728 2.979.33c.624.07 1.15.484 1.367 1.065l.044.136 2.168 7.823-.594-6.416a1.64 1.64 0 011.97-1.756l.13.033 11.217 3.325a2.22 2.22 0 011.58 1.923l1.013 10.948 1.7-.351-3.63-17.517a1.64 1.64 0 011.893-1.947l3.17.565.06-1.366-4.507-.198a.77.77 0 01-.693-.515l-1.34-3.832a.569.569 0 01.56-.756l6.202.272.273-6.201a.569.569 0 01.802-.493l3.7 1.671c.287.13.466.422.452.736l-.198 4.508 4.508.198a.77.77 0 01.693.515l1.34 3.832a.569.569 0 01-.561.757l-6.201-.273-.09 2.035 3.349.597a2.22 2.22 0 011.744 1.57l.04.165.413 1.99 10.772 1.19 1.462-13.238a1.22 1.22 0 011.789-.942l7.684 4.104c.596.318.938.967.864 1.639l-1.063 9.624 9.624 1.063c.672.075 1.23.55 1.411 1.202l2.328 8.395c.011.041.02.083.028.124l1.459.064.272-6.2a.569.569 0 01.803-.494l3.7 1.672c.286.13.466.421.452.736l-.198 4.507 4.508.198c.314.014.589.219.693.516l1.34 3.832a.569.569 0 01-.561.756l-6.201-.273-.273 6.201a.569.569 0 01-.803.494l-3.7-1.672a.77.77 0 01-.451-.736l.198-4.508-4.508-.198a.772.772 0 01-.08-.007v10.633a1.636 1.636 0 011.825-.423l2.705 1.081h8.474a2.22 2.22 0 011.993 1.242l.068.154 4.346 10.863a1.64 1.64 0 01-1.522 2.25l-3.805-.001v2.771l9.203-1.016-1.461-13.238a1.22 1.22 0 011.54-1.31l8.394 2.327c.651.181 1.127.74 1.201 1.412l1.063 9.624 9.624-1.063a1.652 1.652 0 011.64.864l4.103 7.685a1.22 1.22 0 01-.943 1.788l-1.563.173 8.903 5.447a2.22 2.22 0 011.052 2.098l-.022.167-2.182 12.82 12.82 2.182a2.22 2.22 0 011.798 1.721l-.002-.004 4.476 1.087 1.465-6.031a.569.569 0 01.883-.33l3.307 2.355a.77.77 0 01.302.81l-1.065 4.384 4.385 1.065a.77.77 0 01.58.64l.576 4.018a.569.569 0 01-.697.634l-6.032-1.465-1.465 6.032a.569.569 0 01-.882.329l-3.308-2.355a.771.771 0 01-.151-.143l.09.413a1.64 1.64 0 01-1.879 1.96l-17.635-3-1.476 8.679a2.22 2.22 0 011.201 1.772l1.2 12.95 12.948-1.2a2.22 2.22 0 012.181 1.2l5.33 10.416a1.64 1.64 0 01-1.31 2.379l-17.812 1.65.589 6.362h2.96c.85 0 1.62.486 1.992 1.24l.068.155 3.993 9.98.062.012a.737.737 0 01.676-.41l8.127.14.141-8.125a.745.745 0 011.033-.674l4.9 2.06c.381.16.626.535.619.947l-.103 5.907 5.908.103c.412.007.778.265.925.65l1.888 4.97a.745.745 0 01-.71 1.009l-8.126-.141-.14 8.126a.745.745 0 01-1.034.673l-4.9-2.06a1.009 1.009 0 01-.618-.946l.102-5.908-5.152-.09 2.39 5.975a1.64 1.64 0 01-1.384 2.243l-.138.006h-17.888v17.888a1.64 1.64 0 01-2.248 1.523l-4.028-1.611a1.222 1.222 0 01-1.37 1.03l-6.54-.871 1.088.458c.138.057.234.18.26.323l.008.087-.045 2.561 2.561.045a.437.437 0 01.401.281l.819 2.154a.323.323 0 01-.308.438l-3.522-.061-.061 3.522a.323.323 0 01-.449.292l-2.124-.893a.437.437 0 01-.267-.41l.044-2.56-2.56-.045a.437.437 0 01-.402-.282l-.818-2.154a.323.323 0 01.307-.438l3.523.061.061-3.522a.33.33 0 01.005-.054l-5.183-.69-1.759 13.202a1.208 1.208 0 01-.467.808l4.19 1.161c.651.18 1.127.74 1.201 1.412l1.063 9.623 9.624-1.062a1.652 1.652 0 011.64.864l4.103 7.685a1.22 1.22 0 01-.943 1.788l-1.563.172 8.903 5.447a2.22 2.22 0 011.052 2.098l-.022.168-2.182 12.82 12.82 2.182a2.22 2.22 0 011.798 1.721l-.002-.004 4.476 1.087 1.465-6.031a.569.569 0 01.883-.33l3.307 2.355a.77.77 0 01.302.81l-1.065 4.384 4.385 1.065a.77.77 0 01.58.64l.576 4.018a.569.569 0 01-.697.633l-6.032-1.464-1.465 6.031a.569.569 0 01-.882.33l-3.308-2.355a.77.77 0 01-.151-.143l.09.413a1.64 1.64 0 01-1.879 1.96l-17.635-3-1.476 8.679a2.22 2.22 0 011.201 1.772l1.2 12.949 12.948-1.2a2.22 2.22 0 012.181 1.2l5.33 10.416a1.64 1.64 0 01-1.31 2.38l-17.812 1.65 1.65 17.811a1.64 1.64 0 01-2.099 1.724l-11.217-3.325a2.22 2.22 0 01-1.58-1.924l-1.199-12.949-12.949 1.2a2.22 2.22 0 01-2.18-1.2l-3.75-7.329.001 10.519a1.64 1.64 0 01-2.119 1.568l-.13-.046-10.863-4.346a2.22 2.22 0 01-1.395-2.061v-13.004h-10.627a2.22 2.22 0 01.425 1.619l-1.685 12.894 12.895 1.686a2.22 2.22 0 011.863 1.65l2.9 11.335a1.64 1.64 0 01-1.8 2.032l-17.738-2.318-2.318 17.738a1.64 1.64 0 01-2.427 1.218l-10.208-5.716a2.219 2.219 0 01-1.117-2.225l1.685-12.895-12.894-1.684a2.22 2.22 0 01-1.863-1.651l-1.129-4.409-4.519-.078-.093 5.359a.491.491 0 01-.681.444l-3.232-1.358a.665.665 0 01-.407-.625l.068-3.895-3.242-.058 3.396 8.493a1.64 1.64 0 01-1.384 2.243l-.138.005H82.266v17.889a1.64 1.64 0 01-2.249 1.522l-10.863-4.345a2.22 2.22 0 01-1.395-2.062v-13.004H55.713l1.259 8.595a1.417 1.417 0 01-1.606 1.608l-.126-.025-9.832-2.356a1.918 1.918 0 01-1.451-1.588l-1.627-11.118-11.119 1.627a1.919 1.919 0 01-1.937-.936l-5.074-8.744a1.416 1.416 0 011.02-2.113l1.098-.162-5.393-2.156a2.22 2.22 0 01-1.389-1.892l-.006-.17V301.1H6.526a2.22 2.22 0 01-2.062-1.396L.12 288.84a1.64 1.64 0 011.522-2.249H19.53v-17.888a1.64 1.64 0 012.248-1.523l10.863 4.346a2.22 2.22 0 011.396 2.061l-.001 1.692 5.536.723.44-3.368a1.691 1.691 0 01-.158-.078l-10.209-5.716a2.22 2.22 0 01-1.116-2.225l1.685-12.894-12.895-1.686a2.22 2.22 0 01-1.863-1.65l-2.9-11.335a1.64 1.64 0 011.8-2.032l17.738 2.318 2.318-17.738c.055-.426.264-.781.556-1.031l-1.788-6.983-9.471-5.304a2.22 2.22 0 01-1.133-2.056l.016-.168 1.685-12.895-12.895-1.685a2.22 2.22 0 01-1.862-1.65L6.619 176.49a1.64 1.64 0 011.8-2.032l17.738 2.318 1.11-8.505-3.067-5.286a1.417 1.417 0 01.894-2.089l.126-.024 1.098-.161-5.393-2.157a2.22 2.22 0 01-1.389-1.892l-.006-.169V143.49H6.526a2.22 2.22 0 01-2.062-1.396L.12 131.23a1.64 1.64 0 011.522-2.248H19.53v-17.889a1.64 1.64 0 012.248-1.522l10.863 4.345a2.22 2.22 0 011.396 2.061l-.001 1.692 5.536.723.44-3.368a1.691 1.691 0 01-.158-.078l-10.209-5.716a2.22 2.22 0 01-1.116-2.224l1.685-12.895-12.895-1.685a2.22 2.22 0 01-1.863-1.651l-2.9-11.335a1.64 1.64 0 011.8-2.032l17.738 2.318 2.318-17.738c.055-.425.264-.78.555-1.03l-1.787-6.984-9.471-5.304a2.22 2.22 0 01-1.133-2.056l.016-.168 1.685-12.895-12.895-1.685a2.22 2.22 0 01-1.862-1.65L6.619 18.88a1.64 1.64 0 011.8-2.032l17.738 2.318zm248.16 296.62a1.64 1.64 0 012.012-1.823l11.366 2.777a2.22 2.22 0 011.67 1.844l1.827 12.875 12.876-1.826a2.22 2.22 0 012.236 1.092l5.828 10.146a1.64 1.64 0 01-1.191 2.44l-17.711 2.512 2.512 17.711a1.64 1.64 0 01-2.012 1.823l-11.366-2.776a2.22 2.22 0 01-1.671-1.845l-1.827-12.876-12.875 1.827a2.22 2.22 0 01-2.237-1.092l-5.828-10.146a1.64 1.64 0 011.192-2.44l17.711-2.512zm113.402 15.515a.745.745 0 011.034-.674l4.9 2.06c.38.16.625.535.618.947l-.103 5.908 5.907.102c.413.008.78.265.926.65l1.888 4.97a.745.745 0 01-.71 1.009l-8.126-.141-.14 8.126a.745.745 0 01-1.034.674l-4.9-2.06a1.008 1.008 0 01-.619-.947l.103-5.908-5.907-.102a1.01 1.01 0 01-.926-.65l-1.888-4.97a.745.745 0 01.71-1.009l8.126.141zm-217.533 13.022a.323.323 0 01.448-.292l2.124.893c.165.07.271.232.268.41l-.044 2.562 2.56.044a.438.438 0 01.401.282l.819 2.154a.323.323 0 01-.308.437l-3.522-.06-.062 3.522a.323.323 0 01-.447.292l-2.125-.893a.436.436 0 01-.267-.41l.044-2.561-2.56-.045a.438.438 0 01-.402-.282l-.818-2.154a.323.323 0 01.307-.437l3.523.06zm169.175-28.353a.745.745 0 011.034-.674l4.9 2.06c.38.16.625.535.618.948l-.103 5.907 5.908.102c.412.008.778.265.925.65l1.888 4.97a.745.745 0 01-.71 1.01l-8.125-.142-.142 8.126a.745.745 0 01-1.033.674l-4.9-2.06a1.008 1.008 0 01-.618-.947l.102-5.907-5.907-.103a1.009 1.009 0 01-.925-.65l-1.888-4.97a.745.745 0 01.709-1.009l8.126.141zm-106.321-28.44a1.64 1.64 0 012.248-1.522l10.863 4.345a2.22 2.22 0 011.396 2.061v13.004h13.004a2.22 2.22 0 012.06 1.396l4.346 10.863a1.64 1.64 0 01-1.522 2.249h-17.888v17.888a1.64 1.64 0 01-2.249 1.522l-10.863-4.345a2.22 2.22 0 01-1.395-2.061v-13.004h-13.005a2.22 2.22 0 01-2.061-1.396l-4.345-10.863a1.64 1.64 0 011.522-2.249h17.889zm228.39 32.573a.569.569 0 01.789-.515l3.743 1.573a.77.77 0 01.471.724l-.078 4.511 4.512.079a.77.77 0 01.706.496l1.442 3.795a.569.569 0 01-.542.771l-6.205-.107-.108 6.205a.57.57 0 01-.79.515l-3.742-1.573a.77.77 0 01-.472-.723l.078-4.512-4.511-.078a.77.77 0 01-.707-.497l-1.442-3.795a.568.568 0 01.542-.77l6.206.107zm-360.811 6.44h-4.561l-2.846.59v9.644c.083.01.165.024.244.043a.492.492 0 01.465-.673l5.358.093.094-5.358a.49.49 0 01.68-.444l1.504.631-.938-4.526zm-63.095 2.837l-5.806.538v5.01l6.48-.947-.674-4.601zm27.916-2.585l-8.824.818.335 3.623 4.769-.697c.724-.106 1.44.21 1.853.803l.083.132 1.784 3.074v-7.753zm51.62-4.603l-2.423.502 2.117 10.217 9.08 1.188.584-4.468-8.46-4.472a1.918 1.918 0 01-1.02-1.743l.01-.155.112-1.069zm286.772.281a.323.323 0 01.448-.292l2.124.893c.165.07.27.232.268.41l-.045 2.561 2.561.045a.438.438 0 01.401.281l.818 2.155a.323.323 0 01-.307.437l-3.523-.061-.06 3.522a.323.323 0 01-.449.292l-2.124-.892a.437.437 0 01-.268-.411l.045-2.56-2.56-.045a.437.437 0 01-.402-.282l-.818-2.154a.323.323 0 01.307-.438l3.522.062zm174.698-1.402a.323.323 0 01.448-.292l2.124.893c.165.07.27.232.268.41l-.045 2.561 2.561.045a.438.438 0 01.401.282l.819 2.154a.323.323 0 01-.308.437l-3.522-.061-.062 3.522a.323.323 0 01-.448.292l-2.124-.892a.437.437 0 01-.268-.411l.045-2.56-2.56-.045a.437.437 0 01-.402-.282l-.818-2.154a.323.323 0 01.307-.438l3.523.062zm-149.887-27.903a1.22 1.22 0 011.5-1.356l8.46 2.077a1.653 1.653 0 011.243 1.374l1.35 9.589 9.587-1.35a1.652 1.652 0 011.665.815l4.33 7.56a1.22 1.22 0 01-.888 1.815l-13.19 1.856L446.876 311a1.22 1.22 0 01-1.5 1.356l-8.46-2.077a1.653 1.653 0 01-1.244-1.375l-1.349-9.588-9.588 1.35a1.653 1.653 0 01-1.664-.816l-4.331-7.558a1.22 1.22 0 01.889-1.816l13.19-1.856zm60.533 25.457a.323.323 0 01.448-.292l2.124.893c.165.07.271.232.268.41l-.044 2.561 2.56.045a.438.438 0 01.401.282l.819 2.154a.323.323 0 01-.308.437l-3.522-.06-.061 3.521a.323.323 0 01-.448.292l-2.125-.892a.436.436 0 01-.267-.411l.044-2.56-2.56-.045a.438.438 0 01-.402-.282l-.818-2.154a.323.323 0 01.308-.437l3.522.06zm-118.402-4.405a.45.45 0 01.624-.407l2.96 1.244c.23.097.378.323.373.573l-.061 3.568 3.569.063c.249.004.47.16.558.392l1.141 3.002a.45.45 0 01-.428.61l-4.91-.085-.085 4.909a.45.45 0 01-.624.407l-2.96-1.244a.61.61 0 01-.374-.573l.062-3.568-3.569-.062a.61.61 0 01-.559-.393l-1.14-3.002a.45.45 0 01.428-.61l4.91.085zm-65.637-33.165a1.342 1.342 0 011.952-1.065l8.515 4.39c.66.341 1.047 1.05.977 1.79l-1.017 10.6 10.6 1.016c.74.07 1.362.585 1.57 1.298l2.693 9.195a1.343 1.343 0 01-1.416 1.713l-14.58-1.398-1.4 14.58a1.342 1.342 0 01-1.95 1.066l-8.516-4.391a1.817 1.817 0 01-.976-1.79l1.016-10.599-10.6-1.017a1.817 1.817 0 01-1.57-1.298l-2.693-9.194a1.343 1.343 0 011.417-1.714l14.58 1.398zm-121.007 40.41h-17.517l-.001 1.878 17.541-1.624-.023-.254zm-52.986-7.997l2.044 3.086c.017.025.032.05.048.076l3.129 1.753-1.822-4.554-3.399-.361zm255.476-46.019l.13.006 10.998.901c.854.07 1.578.652 1.83 1.47l3.61 11.723 11.723-3.61a2.095 2.095 0 012.245.686l6.932 8.586a1.546 1.546 0 01-.748 2.45l-16.125 4.966 4.966 16.125a1.547 1.547 0 01-1.605 1.996l-10.998-.901a2.094 2.094 0 01-1.83-1.47l-3.61-11.723-11.723 3.61a2.093 2.093 0 01-2.245-.686l-6.933-8.586a1.546 1.546 0 01.748-2.45l16.126-4.966-4.966-16.125a1.546 1.546 0 011.604-1.996zM184.497 291.87l1.109 2.772-.206-2.218-.861-.527a2.233 2.233 0 01-.042-.027zm-84.69 1.826l-.687-3.311-3.59.744v3.172l1.361-.001 2.915-.604zm63.786-86.804l.577 1.645a.569.569 0 01-.562.757l-2.094-.093.359 3.866a1.64 1.64 0 01-1.97 1.757l-.129-.033-2.587-.768-.053 1.2a.57.57 0 01-.717.523l-.086-.03-3.7-1.672a.77.77 0 01-.451-.736l.032-.759-3.656-1.083a2.216 2.216 0 01-.766-.404v8.825h13.004a2.22 2.22 0 012.061 1.395l4.346 10.863a1.64 1.64 0 01-1.522 2.249H147.79v17.888a1.64 1.64 0 01-2.248 1.522l-3.244-1.297-.186 4.266 4.507.198a.77.77 0 01.694.515l1.34 3.832a.569.569 0 01-.562.757l-6.2-.273-.273 6.201a.57.57 0 01-.803.494l-3.7-1.672a.77.77 0 01-.452-.736l.198-4.508-4.507-.198a.77.77 0 01-.647-.408l-4.335-.462c.092.114.173.24.242.374l3.963 7.747 2.84 1.502a1.918 1.918 0 011.022 1.743l-.01.155-.022.202.568.24a.688.688 0 01.416.542l.006.104-.07 4.03 4.03.07c.281.005.531.18.631.443l1.288 3.39a.508.508 0 01-.484.689l-5.543-.096-.032 1.77 9.199.977a1.918 1.918 0 011.595 1.24l.049.148.968 3.438h6.396v-14.652a.57.57 0 01-.764.31l-3.7-1.672a.77.77 0 01-.452-.736l.198-4.508-4.507-.198a.77.77 0 01-.694-.516l-1.34-3.831a.569.569 0 01.561-.757l6.201.273.273-6.201a.569.569 0 01.803-.493l3.7 1.671c.286.13.465.422.452.736l-.199 4.508 4.508.198c.315.014.59.218.693.515l1.341 3.832a.569.569 0 01-.562.757l-6.2-.273-.105 2.348a1.64 1.64 0 012.041-.721l10.863 4.345a2.22 2.22 0 011.396 2.061v13.005h13.004a2.22 2.22 0 011.55.63l.002-.053.022-.168 2.182-12.82-12.82-2.182a2.22 2.22 0 01-1.798-1.721l-2.461-11.438a1.64 1.64 0 011.877-1.962l17.635 3.001 3.001-17.635.015-.073-8.14.899 1.461 13.239a1.221 1.221 0 01-1.54 1.31l-8.394-2.328a1.653 1.653 0 01-1.201-1.411l-1.063-9.625-9.624 1.063a1.652 1.652 0 01-1.64-.864l-4.103-7.685a1.221 1.221 0 01.943-1.788l13.238-1.462-1.461-13.238a1.22 1.22 0 011.54-1.31l1.227.339-5.955-3.353a1.653 1.653 0 01-.84-1.505l.012-.154 1.279-9.597-3.286-.439zm-18.56 65.445a.323.323 0 01.448-.292l2.124.893c.165.07.27.232.268.41l-.045 2.562 2.56.044a.437.437 0 01.402.282l.818 2.154a.323.323 0 01-.307.438l-3.523-.062-.061 3.523a.323.323 0 01-.448.292l-2.124-.893a.437.437 0 01-.268-.41l.045-2.561-2.561-.045a.438.438 0 01-.401-.282l-.819-2.154a.323.323 0 01.308-.437l3.522.06zm-22.476 2.185l-7.69.713a1.425 1.425 0 01-.985.75l.473 5.111 7.42.789.782-7.363zm352.624-18.946a.745.745 0 011.034-.674l4.9 2.06c.38.16.625.535.618.947l-.103 5.908 5.908.102c.412.007.778.265.925.65l1.888 4.97a.745.745 0 01-.71 1.009l-8.125-.141-.142 8.126a.745.745 0 01-1.033.674l-4.9-2.06a1.009 1.009 0 01-.618-.947l.102-5.908-5.907-.102a1.009 1.009 0 01-.925-.65l-1.888-4.97a.745.745 0 01.709-1.01l8.126.142zM218.22 274.307l1.05 4.88 1.062-4.367-2.112-.513zm-162.221-8.594l-.456.041-1.585 12.128 3.206.419-1.165-12.588zm476-1.924a.45.45 0 01.624-.407l2.961 1.244c.23.096.378.323.373.572l-.062 3.569 3.569.062c.25.004.47.16.559.393l1.14 3.002a.45.45 0 01-.428.61l-4.91-.086-.084 4.91a.45.45 0 01-.625.407l-2.96-1.245a.61.61 0 01-.373-.572l.061-3.569-3.568-.062a.609.609 0 01-.56-.393l-1.14-3.002a.45.45 0 01.429-.61l4.909.086zm-185.073-19.39c.08-.72.861-1.132 1.5-.79l6.45 3.443c.5.268.787.812.725 1.376l-.893 8.077 8.076.892a1.386 1.386 0 011.185 1.008l1.953 7.045a1.024 1.024 0 01-1.1 1.292l-11.11-1.228-1.227 11.11a1.024 1.024 0 01-1.5.791l-6.45-3.444a1.386 1.386 0 01-.724-1.376l.892-8.076-8.077-.893a1.386 1.386 0 01-1.184-1.008l-1.953-7.045a1.024 1.024 0 011.1-1.291l11.11 1.227zM79.628 267.641l1.027 4.955 1.543.068-2.57-5.023zm196.636-12.745a.508.508 0 01.705-.46l3.343 1.405c.26.11.426.365.421.646l-.07 4.03 4.03.07c.281.005.531.18.631.444l1.288 3.39a.508.508 0 01-.483.688l-5.544-.096-.096 5.544a.508.508 0 01-.705.46l-3.344-1.406a.688.688 0 01-.42-.646l.07-4.03-4.03-.07a.687.687 0 01-.632-.444l-1.288-3.39a.508.508 0 01.484-.688l5.543.096zm-32.207-30.32a1.437 1.437 0 011.758-1.605l9.974 2.393a1.945 1.945 0 011.472 1.612l1.647 11.28 11.281-1.647a1.946 1.946 0 011.965.95l5.146 8.873c.51.88-.03 1.997-1.036 2.144l-15.518 2.266 2.266 15.518a1.437 1.437 0 01-1.758 1.605l-9.974-2.393a1.946 1.946 0 01-1.472-1.611l-1.647-11.282-11.281 1.648a1.946 1.946 0 01-1.965-.95l-5.146-8.873c-.51-.88.03-1.996 1.036-2.143l15.518-2.266zm-28.176 22.785a.57.57 0 01.803-.493l3.7 1.672a.77.77 0 01.451.736l-.197 4.508 4.508.197c.314.015.589.219.693.516l1.34 3.832a.569.569 0 01-.561.756l-6.201-.273-.273 6.201a.569.569 0 01-.803.494l-3.7-1.672a.77.77 0 01-.452-.736l.198-4.508-4.507-.198a.77.77 0 01-.694-.515l-1.34-3.832a.57.57 0 01.562-.756l6.2.273zm-137.183 16.25l-4.564.421 3.45.614c.454.081.86.299 1.173.61a1.643 1.643 0 01.977-1.26l-.168-.03a2.216 2.216 0 01-.868-.356zm12.052-10.29l1.947 9.396 5.341-.494-.451-4.874-4.586-.486a1.918 1.918 0 01-1.595-1.24l-.049-.147-.607-2.155zm25.891 6.052l-.121 1.138 5.791-.536-5.67-.602zm12.089-12.88l-.068 1.55.477.051a1.918 1.918 0 011.596 1.24l.048.148 1.938 6.877 4.361.192.265-6.026-2.669-1.067a2.22 2.22 0 01-1.389-1.892l-.006-.17-.001-.704-4.552-.2zm24.93-.62a.323.323 0 01.448-.292l2.125.893c.164.07.27.232.267.41l-.044 2.561 2.56.045a.437.437 0 01.402.282l.818 2.154a.323.323 0 01-.307.438l-3.523-.062-.061 3.522a.323.323 0 01-.448.293l-2.124-.893a.437.437 0 01-.268-.41l.044-2.562-2.56-.044a.437.437 0 01-.401-.282l-.819-2.154a.323.323 0 01.308-.437l3.522.06zm144.874-43.365a1.64 1.64 0 012.163-1.643l11.084 3.747a2.22 2.22 0 011.505 1.982l.709 12.985 12.985-.71a2.22 2.22 0 012.134 1.282l4.931 10.61a1.64 1.64 0 01-1.397 2.328l-17.862.975.975 17.862a1.64 1.64 0 01-2.162 1.643l-11.084-3.747a2.22 2.22 0 01-1.506-1.982l-.709-12.985-12.985.709a2.22 2.22 0 01-2.134-1.281l-4.93-10.61a1.64 1.64 0 011.397-2.328l17.861-.976zm136.658 34.425a.45.45 0 01.624-.407l2.96 1.244c.23.097.378.323.374.573l-.062 3.568 3.569.063c.249.004.47.16.559.392l1.14 3.002a.45.45 0 01-.428.61l-4.91-.085-.085 4.909a.45.45 0 01-.624.407l-2.96-1.244a.61.61 0 01-.374-.572l.062-3.57-3.57-.061a.61.61 0 01-.558-.393l-1.14-3.002a.45.45 0 01.428-.61l4.91.085zm-311.647 9.331l-.13 1.222.232.025.054-1.24-.156-.007zm83.976-43.13c0-.97.98-1.633 1.88-1.273l9.09 3.636a1.858 1.858 0 011.167 1.724v10.88h10.88c.76 0 1.443.463 1.726 1.168l3.635 9.09a1.372 1.372 0 01-1.274 1.88h-14.967v14.968c0 .97-.98 1.634-1.88 1.273l-9.09-3.635a1.857 1.857 0 01-1.167-1.725v-10.88H196.64c-.76 0-1.442-.463-1.725-1.168l-3.635-9.09a1.372 1.372 0 011.273-1.88h14.968zm-101.764 40.021l-3.35.694 3.176.941.174-1.635zm462.568-11.114a.323.323 0 01.449-.292l2.124.893c.164.069.27.232.267.41l-.044 2.56 2.56.045a.437.437 0 01.402.282l.818 2.155a.323.323 0 01-.307.437l-3.523-.061-.061 3.522a.323.323 0 01-.448.292l-2.124-.893a.437.437 0 01-.268-.41l.045-2.561-2.561-.044a.438.438 0 01-.401-.282l-.819-2.154a.323.323 0 01.308-.438l3.522.061zm-66.686-13.827a.745.745 0 011.033-.674l4.9 2.06c.38.16.625.535.618.947l-.102 5.908 5.907.102c.412.008.778.265.925.65l1.888 4.97a.745.745 0 01-.71 1.01l-8.125-.142-.142 8.126a.745.745 0 01-1.033.674l-4.9-2.06a1.008 1.008 0 01-.618-.947l.102-5.908-5.907-.102a1.009 1.009 0 01-.925-.65l-1.888-4.97a.745.745 0 01.709-1.009l8.126.141zm-368.356 16.179l-8.477-.001-.01.106a.562.562 0 01.116.02l.086.03 3.7 1.672a.77.77 0 01.451.736l-.198 4.507 4.331.19v-7.26zm240.675-14.926a.641.641 0 01.995-.37l3.728 2.653a.868.868 0 01.34.912l-1.2 4.943 4.942 1.2c.346.084.605.37.655.721l.649 4.53a.641.641 0 01-.786.714l-6.8-1.65-1.65 6.798a.641.641 0 01-.996.371l-3.728-2.654a.868.868 0 01-.34-.912l1.2-4.943-4.942-1.2a.868.868 0 01-.655-.72l-.649-4.53a.641.641 0 01.786-.715l6.8 1.651zm-329.513 3.172l2.602 1.457a2.22 2.22 0 011.117 2.225l-1.685 12.895 5.658.739-2.603-1.457a2.22 2.22 0 01-1.132-2.056l.016-.168 1.685-12.895-5.658-.74zm60.491 7.579l.616 6.651.752 1.135.802-7.556-2.17-.23zm-40.448-4.96l-1.165 8.908 3.003.89a2.22 2.22 0 011.371 1.169l3.4-.705.405-1.665-4.385-1.064a.77.77 0 01-.58-.64l-.576-4.018a.569.569 0 01.697-.634l4.134 1.003-.515-2.487-5.79-.756zm25.152-2.89l-5.203.48 1.969 9.501 4.08-.846-.846-9.136zm317.958-1.887a.323.323 0 01.447-.292l2.125.893c.165.07.27.232.267.41l-.044 2.561 2.56.045a.438.438 0 01.402.281l.818 2.154a.323.323 0 01-.307.438l-3.523-.061-.061 3.522a.323.323 0 01-.448.292l-2.124-.892a.437.437 0 01-.268-.411l.045-2.56-2.561-.045a.438.438 0 01-.401-.282l-.819-2.154a.323.323 0 01.308-.438l3.522.062zm35.044-31.985a1.22 1.22 0 011.5-1.356l8.46 2.077a1.653 1.653 0 011.243 1.374l1.35 9.589 9.587-1.35a1.653 1.653 0 011.665.815l4.33 7.559a1.22 1.22 0 01-.888 1.816l-13.19 1.856 1.856 13.189a1.22 1.22 0 01-1.5 1.356l-8.46-2.077a1.653 1.653 0 01-1.243-1.375l-1.35-9.588-9.587 1.35a1.653 1.653 0 01-1.665-.815l-4.33-7.56a1.22 1.22 0 01.889-1.815l13.189-1.856zm-315.716 25.933l-.579 5.457h6.936l-.001-2.062-6.356-3.395zm131.854-37.225a1.22 1.22 0 011.87-.767l7.258 4.818c.563.374.842 1.053.704 1.714l-1.977 9.479 9.479 1.977a1.652 1.652 0 011.29 1.33l1.516 8.579a1.22 1.22 0 01-1.45 1.407l-13.04-2.719-2.718 13.04a1.22 1.22 0 01-1.87.767l-7.258-4.819a1.653 1.653 0 01-.704-1.714l1.976-9.479-9.478-1.976a1.653 1.653 0 01-1.29-1.33l-1.517-8.58a1.22 1.22 0 011.451-1.407l13.04 2.72zm85.604 26.534a.323.323 0 01.448-.292l2.124.893c.165.07.271.232.268.41l-.045 2.561 2.561.045a.438.438 0 01.401.282l.819 2.154a.323.323 0 01-.308.437l-3.522-.06-.061 3.522a.323.323 0 01-.449.292l-2.124-.893a.437.437 0 01-.267-.41l.044-2.562-2.56-.044a.437.437 0 01-.402-.282l-.818-2.154a.323.323 0 01.307-.437l3.523.06zm53.902-10.743a.569.569 0 01.789-.514l3.743 1.573a.77.77 0 01.471.723l-.078 4.512 4.512.078a.77.77 0 01.706.497l1.442 3.795a.569.569 0 01-.541.77l-6.206-.107-.108 6.206a.569.569 0 01-.79.514l-3.742-1.573a.77.77 0 01-.472-.723l.078-4.512-4.511-.078a.77.77 0 01-.707-.497l-1.442-3.795a.569.569 0 01.542-.77l6.206.107zM50.028 208.628l-.005.109 1.96.257.035-.279-1.99-.087zm36.898-15.561l-4.675.971a1.64 1.64 0 01-2.234 1.295l-.398-.158a.735.735 0 01-.29-.066l-.708-.32-2.013.417 2.485.604a.77.77 0 01.559.537l.021.102.576 4.019a.569.569 0 01-.697.633l-4.375-1.062 1.85 8.927 3.137-.291.24-5.441a.57.57 0 01.717-.525l.086.031 3.7 1.672a.77.77 0 01.451.736l-.134 3.058 3.078-.284-1.376-14.855zm-48.264-.026l-1.826 13.974 2.855.373-1.234-3.526a.57.57 0 01.472-.753l.09-.003 6.201.272.119-2.69a2.218 2.218 0 01-.303-.365l-4.676-7.061-1.698-.221zm64.443-6.198l-10.614 2.199.336.508.035.054 7.107 2.108a2.22 2.22 0 011.58 1.923l1.199 12.95 12.528-1.162.238-2.232c.016-.157.057-.303.117-.436l-8.103-1.443a2.22 2.22 0 01-1.785-1.735l-2.638-12.734zm17.86 15.091c-.07.63-.507 1.16-1.091 1.365l5.537 2.927.415-3.754zm-67.817-1.868l-2.769.574-.13 2.96 2.424.105.475-3.639zm126.235-4.8l-.37 2.783 4.913.654v-1.593l-4.24-1.696a2.221 2.221 0 01-.303-.148zm342.155-12.477a.45.45 0 01.624-.407l2.96 1.244c.23.097.379.323.374.572l-.062 3.57 3.569.061c.25.005.47.16.559.393l1.14 3.002a.45.45 0 01-.428.61l-4.91-.085-.084 4.909a.45.45 0 01-.625.407l-2.96-1.244a.61.61 0 01-.373-.573l.061-3.568-3.569-.062a.61.61 0 01-.558-.393l-1.141-3.002a.45.45 0 01.429-.61l4.909.085zm-352.948 11.69l-8.367.775.027.295 8.055 1.073.285-2.143zm191.213-22.395a.745.745 0 011.033-.674l4.9 2.06c.38.16.625.534.618.947l-.102 5.907 5.907.103c.412.007.779.265.925.65l1.888 4.97a.745.745 0 01-.709 1.009l-8.126-.141-.141 8.126a.745.745 0 01-1.034.673l-4.9-2.06a1.008 1.008 0 01-.618-.946l.103-5.908-5.908-.103a1.01 1.01 0 01-.925-.65l-1.888-4.97a.745.745 0 01.709-1.008l8.126.14zM125.076 182.29l-7.498 1.555a.57.57 0 01-.183.467l1.348 6.509 8.27.915.203-1.851-.561-1.097-.951-.532a2.22 2.22 0 01-1.132-2.056l.015-.168.489-3.742zm151.559-41.85a1.64 1.64 0 012.012-1.824l11.366 2.777a2.219 2.219 0 011.67 1.844l1.827 12.876 12.876-1.826a2.22 2.22 0 012.236 1.092l5.828 10.145a1.64 1.64 0 01-1.191 2.44l-17.711 2.512 2.512 17.711a1.64 1.64 0 01-2.012 1.823l-11.366-2.776a2.22 2.22 0 01-1.671-1.845l-1.827-12.875-12.875 1.826a2.22 2.22 0 01-2.237-1.092l-5.828-10.146a1.64 1.64 0 011.192-2.44l17.711-2.512zm188.178 39.015a.323.323 0 01.448-.292l2.124.892c.165.07.271.232.268.411l-.044 2.56 2.56.045a.438.438 0 01.401.282l.819 2.154a.323.323 0 01-.308.438l-3.522-.062-.061 3.523a.323.323 0 01-.448.292l-2.125-.893a.437.437 0 01-.267-.41l.044-2.561-2.56-.045a.437.437 0 01-.402-.282l-.818-2.154a.323.323 0 01.307-.437l3.523.06zm-52.818-16.888a.745.745 0 011.033-.674l4.9 2.06c.38.16.625.535.618.947l-.102 5.908 5.907.103c.412.007.779.264.925.65l1.889 4.969a.745.745 0 01-.71 1.01l-8.126-.142-.141 8.126a.745.745 0 01-1.034.674l-4.9-2.06a1.009 1.009 0 01-.618-.947l.103-5.907-5.908-.103a1.01 1.01 0 01-.925-.65l-1.888-4.97a.745.745 0 01.71-1.009l8.125.142zm-88.68 12.77a.323.323 0 01.448-.293l2.125.893c.165.07.27.232.267.41l-.044 2.562 2.56.044a.438.438 0 01.402.282l.818 2.154a.323.323 0 01-.308.438l-3.522-.062-.061 3.523a.323.323 0 01-.448.292l-2.124-.893a.437.437 0 01-.268-.41l.044-2.561-2.56-.045a.438.438 0 01-.401-.282l-.819-2.154a.323.323 0 01.308-.437l3.522.061zm-266.764 6.308l.412 2.816.164-.034-.576-2.782zm84.106-6.628l-.99 7.572 4.773-.442-.623-6.718-3.16-.412zm13.767-28.899h-10.627a2.22 2.22 0 01.425 1.62l-1.685 12.894 12.895 1.685a2.22 2.22 0 011.863 1.65l2.9 11.335a1.64 1.64 0 01-1.63 2.046l.32 3.461 5.82-.537a2.22 2.22 0 01-1.48-1.318l-4.345-10.864a1.64 1.64 0 011.522-2.248h17.889l-.001-4.144-3.43.319a2.22 2.22 0 01-2.098-1.052l-.083-.148-3.749-7.328.001 10.518a1.64 1.64 0 01-2.119 1.568l-.13-.046-10.863-4.346a2.22 2.22 0 01-1.395-2.06v-13.005zM42.33 171.038l-.809.117-.98 7.5 2.959.387-1.17-8.004zm41.98 4.884h-2.044l-.001.473c.118-.056.245-.1.38-.128l1.665-.345zm13.97-10.74l.698 1.745-.36-1.739-.338-.006zm243.4-24.559a.745.745 0 011.033-.673l4.9 2.06c.38.16.625.535.618.947l-.103 5.907 5.908.103c.412.007.778.265.925.65l1.888 4.97a.745.745 0 01-.71 1.009l-8.125-.142-.142 8.126a.745.745 0 01-1.033.674l-4.9-2.06a1.008 1.008 0 01-.618-.947l.102-5.907-5.907-.103a1.009 1.009 0 01-.925-.65l-1.888-4.97a.745.745 0 01.709-1.009l8.126.142zm-106.322-28.44a1.64 1.64 0 012.248-1.522l10.863 4.345a2.22 2.22 0 011.396 2.061v13.005h13.004a2.22 2.22 0 012.06 1.395l4.346 10.863a1.64 1.64 0 01-1.522 2.249h-17.888v17.888a1.64 1.64 0 01-2.249 1.523l-10.863-4.346a2.22 2.22 0 01-1.395-2.061v-13.004h-13.005a2.22 2.22 0 01-2.061-1.396l-4.345-10.863a1.64 1.64 0 011.522-2.248h17.889zm228.39 32.573a.569.569 0 01.789-.514l3.743 1.573a.77.77 0 01.471.723l-.078 4.512 4.512.078a.77.77 0 01.706.497l1.442 3.795a.569.569 0 01-.542.77l-6.205-.107-.108 6.206a.57.57 0 01-.79.514l-3.742-1.573a.77.77 0 01-.472-.723l.078-4.512-4.511-.078a.77.77 0 01-.707-.497l-1.442-3.795a.568.568 0 01.542-.77l6.206.107zm-365.68-21.553l-.06 3.522a.323.323 0 01-.449.292l-2.029-.853v10.526h13.004a2.22 2.22 0 012.062 1.395l4.345 10.864a1.64 1.64 0 01-1.522 2.248H95.53v10.234c.083.01.165.024.244.042a.492.492 0 01.465-.672l1.475.025-1.182-5.705a1.64 1.64 0 011.762-1.964l.13.018 11.52 2.05a2.22 2.22 0 011.673 1.365l16.535 2.162.584-4.468-8.46-4.472a1.918 1.918 0 01-1.02-1.742l.01-.156 1.186-11.174-5.056-.537a1.641 1.641 0 01-2.023 1.053l-11.218-3.325a2.22 2.22 0 01-1.58-1.923l-.813-8.776-1.693-.03zm477.525 26.874a.323.323 0 01.448-.292l2.124.892c.165.07.271.232.268.411l-.044 2.56 2.56.045a.438.438 0 01.401.282l.819 2.154a.323.323 0 01-.308.438l-3.522-.062-.061 3.523a.323.323 0 01-.448.292l-2.125-.893a.437.437 0 01-.267-.41l.044-2.561-2.56-.045a.438.438 0 01-.402-.282l-.818-2.154a.323.323 0 01.308-.437l3.522.06zm-535.751 3.957l-5.806.538v5.003l.01.006 6.47-.947-.674-4.6zm27.916-2.585l-8.824.817.335 3.623 4.769-.697c.724-.106 1.44.21 1.853.804l.083.131 1.784 3.074v-7.752zm338.392-4.322a.323.323 0 01.448-.293l2.124.893c.165.07.27.232.268.41l-.045 2.562 2.561.044a.438.438 0 01.401.282l.818 2.154a.323.323 0 01-.307.437l-3.523-.06-.06 3.522a.323.323 0 01-.449.292l-2.124-.893a.437.437 0 01-.268-.41l.045-2.561-2.56-.045a.437.437 0 01-.402-.282l-.818-2.154a.323.323 0 01.307-.437l3.522.06zm24.811-29.306a1.22 1.22 0 011.5-1.356l8.46 2.077a1.653 1.653 0 011.243 1.375l1.35 9.588 9.587-1.35a1.653 1.653 0 011.665.816l4.33 7.558a1.22 1.22 0 01-.888 1.816l-13.19 1.856 1.857 13.19a1.22 1.22 0 01-1.5 1.355l-8.46-2.077a1.653 1.653 0 01-1.244-1.374l-1.349-9.589-9.588 1.35a1.653 1.653 0 01-1.664-.815l-4.331-7.56a1.22 1.22 0 01.889-1.815l13.19-1.856zm60.533 25.457a.323.323 0 01.448-.292l2.124.893c.165.07.271.232.268.41l-.044 2.561 2.56.045a.438.438 0 01.401.282l.819 2.154a.323.323 0 01-.308.438l-3.522-.062-.061 3.522a.323.323 0 01-.448.293l-2.125-.893a.436.436 0 01-.267-.41l.044-2.562-2.56-.044a.437.437 0 01-.402-.282l-.818-2.154a.323.323 0 01.308-.437l3.522.06zm-118.402-4.405a.45.45 0 01.624-.407l2.96 1.244c.23.097.378.323.373.573l-.061 3.569 3.569.062c.249.004.47.16.558.392l1.141 3.003a.45.45 0 01-.428.61l-4.91-.086-.085 4.91a.45.45 0 01-.624.406l-2.96-1.244a.61.61 0 01-.374-.572l.062-3.57-3.569-.061a.61.61 0 01-.559-.393l-1.14-3.002a.45.45 0 01.428-.61l4.91.085zm-65.637-33.165a1.342 1.342 0 011.952-1.065l8.515 4.39c.66.341 1.047 1.05.977 1.79l-1.017 10.6 10.6 1.016c.74.07 1.362.585 1.57 1.299l2.693 9.194a1.343 1.343 0 01-1.416 1.713l-14.58-1.398-1.4 14.581a1.342 1.342 0 01-1.95 1.065l-8.516-4.391a1.818 1.818 0 01-.976-1.79l1.016-10.599-10.6-1.017a1.816 1.816 0 01-1.57-1.298l-2.693-9.194a1.342 1.342 0 011.417-1.714l14.58 1.398zm-121.008 40.41h-17.516l-.001 1.878 9.594-.888a1.642 1.642 0 011.885-.723l.13.046.995.398 4.937-.457-.024-.254zm-53.53-8.055l-.175 1.656c.052.023.104.049.155.077l5.786 3.24-1.822-4.554-3.943-.419zm-75.55-2.715l.23 2.473 4.164-.387c.288-.44.783-.744 1.374-.744h4.499l-10.267-1.342zm331.57-43.245l.13.005 11 .901c.853.07 1.577.653 1.83 1.47l3.609 11.724 11.723-3.61a2.094 2.094 0 012.245.685l6.932 8.587a1.546 1.546 0 01-.748 2.45l-16.125 4.965 4.966 16.125a1.547 1.547 0 01-1.605 1.997l-10.998-.902a2.094 2.094 0 01-1.83-1.47l-3.61-11.723-11.723 3.61a2.094 2.094 0 01-2.245-.686l-6.933-8.586a1.546 1.546 0 01.748-2.45l16.126-4.965-4.966-16.126a1.546 1.546 0 011.604-1.996zm-204.44 42.156l1.109 2.771-.205-2.217-.862-.527a2.222 2.222 0 01-.042-.027zM71.634 119.63l.459 4.948a1.64 1.64 0 01-2.099 1.723l-.64-.19 2.262 8.833a1.633 1.633 0 01-.567 1.69c.096.012.19.031.283.057h9.691v-16.648l-2.244-.098-.273 6.2a.569.569 0 01-.802.494l-3.7-1.672a.77.77 0 01-.452-.735l.198-4.508-2.116-.094zm119.506-32.44l-8.14.9 1.461 13.239a1.221 1.221 0 01-1.54 1.31l-8.394-2.328a1.654 1.654 0 01-1.201-1.411l-.419-3.788-11.033.001V113c0 .437-.166.822-.43 1.11l6.091 2.435a2.22 2.22 0 011.396 2.062v13.004h13.004a2.22 2.22 0 011.55.631l.002-.054.022-.168 2.182-12.82-12.82-2.181a2.22 2.22 0 01-1.798-1.722l-2.461-11.438a1.64 1.64 0 011.877-1.962l17.635 3.001 3.001-17.634.015-.074zm-63.768 15.713c.092.115.173.24.242.374l3.963 7.747 2.84 1.502a1.918 1.918 0 011.022 1.743l-.01.155-.022.202.568.24a.688.688 0 01.416.542l.006.104-.07 4.03 4.03.07c.281.005.531.18.631.444l1.288 3.39a.508.508 0 01-.484.688l-5.543-.096-.032 1.77 9.199.978c.728.077 1.344.56 1.595 1.239l.049.148.969 3.439h6.395v-14.653a.57.57 0 01-.764.31l-3.7-1.672a.77.77 0 01-.452-.736l.189-4.309-.56-.224-3.938-.173a.77.77 0 01-.653-.42l-.04-.095-1.341-3.832a.569.569 0 01.561-.756l3.64.159v-.779l-5.475-.24-.273 6.201a.57.57 0 01-.803.494l-3.7-1.672a.77.77 0 01-.452-.736l.198-4.508-4.507-.198a.77.77 0 01-.647-.408zm17.66 11.825a.323.323 0 01.449-.292l2.124.892c.165.07.27.232.268.411l-.045 2.56 2.56.045a.437.437 0 01.402.282l.818 2.154a.323.323 0 01-.307.438l-3.523-.062-.061 3.523a.323.323 0 01-.448.292l-2.124-.893a.437.437 0 01-.268-.41l.045-2.561-2.561-.045a.437.437 0 01-.401-.281l-.819-2.154a.323.323 0 01.308-.438l3.522.061zm-22.475 2.185l-7.691.713a1.425 1.425 0 01-.984.75l.473 5.11 7.42.789.782-7.362zm352.624-18.947a.745.745 0 011.034-.674l4.9 2.06c.38.16.625.535.618.947l-.103 5.908 5.908.102c.412.008.778.265.925.65l1.888 4.97a.745.745 0 01-.71 1.01l-8.125-.142-.142 8.126a.745.745 0 01-1.033.674l-4.9-2.06a1.009 1.009 0 01-.618-.947l.102-5.907-5.907-.103a1.009 1.009 0 01-.925-.65l-1.888-4.97a.745.745 0 01.709-1.009l8.126.141zM218.22 116.697l1.05 4.88 1.062-4.367-2.112-.513zm-162.221-8.594l-.456.041-1.585 12.128 3.206.419-1.165-12.588zm39.278 11.335l-5.364.497 1.5.6a.324.324 0 01.254-.293l.073-.006 3.523.06.014-.858zm436.722-13.26a.45.45 0 01.624-.406l2.961 1.244c.23.097.378.323.373.572l-.062 3.57 3.569.061c.25.005.47.16.559.393l1.14 3.002a.45.45 0 01-.428.61l-4.91-.085-.084 4.909a.45.45 0 01-.625.407l-2.96-1.244a.61.61 0 01-.373-.573l.061-3.569-3.568-.062a.61.61 0 01-.56-.392l-1.14-3.002a.45.45 0 01.429-.61l4.909.085zm-432.622 12.88l-1.238.115-.02 1.173 1.379.024-.12-1.311zM346.925 86.79c.08-.72.861-1.133 1.5-.791l6.45 3.444c.5.267.787.812.725 1.375l-.893 8.077 8.076.892a1.386 1.386 0 011.185 1.008l1.953 7.045a1.024 1.024 0 01-1.1 1.292l-11.11-1.227-1.227 11.11a1.024 1.024 0 01-1.5.79l-6.45-3.444a1.386 1.386 0 01-.724-1.375l.892-8.077-8.077-.892a1.386 1.386 0 01-1.184-1.008l-1.953-7.045a1.024 1.024 0 011.1-1.292l11.11 1.227zM84.98 92.247l-.253 1.037 4.836 9.452a1.64 1.64 0 01-1.173 2.36l-.136.02-17.812 1.649.723 7.805 2.805.124.273-6.201a.569.569 0 01.803-.494l3.7 1.672a.77.77 0 01.451.736L79 114.915l3.198.139-3.28-6.412a1.64 1.64 0 011.172-2.36l.136-.019 17.812-1.65-.451-4.873-4.586-.487a1.919 1.919 0 01-1.595-1.239l-.049-.148-1.231-4.37-5.145-1.249zm191.283 5.039a.508.508 0 01.705-.46l3.343 1.405c.26.11.426.365.421.647l-.07 4.03 4.03.07c.281.005.531.18.631.444l1.288 3.39a.508.508 0 01-.483.688l-5.544-.097-.096 5.544a.508.508 0 01-.705.46l-3.344-1.405a.688.688 0 01-.42-.647l.07-4.03-4.03-.07a.687.687 0 01-.632-.443l-1.288-3.39a.508.508 0 01.484-.689l5.543.097zm-32.207-30.32a1.437 1.437 0 011.758-1.605l9.974 2.394a1.945 1.945 0 011.472 1.611l1.647 11.281 11.281-1.648a1.946 1.946 0 011.965.95l5.146 8.874c.51.879-.03 1.996-1.036 2.143l-15.518 2.266 2.266 15.518a1.437 1.437 0 01-1.758 1.606l-9.974-2.394a1.946 1.946 0 01-1.472-1.611l-1.647-11.281-11.281 1.647a1.946 1.946 0 01-1.965-.95l-5.146-8.873c-.51-.88.03-1.996 1.036-2.143l15.518-2.266zm-28.176 22.786a.569.569 0 01.803-.494l3.7 1.672a.77.77 0 01.451.736l-.197 4.508 4.508.198c.314.014.589.218.693.515l1.34 3.832a.569.569 0 01-.561.756l-6.201-.272-.273 6.2a.569.569 0 01-.803.494l-3.7-1.672a.77.77 0 01-.452-.735l.198-4.508-4.507-.198a.77.77 0 01-.694-.516l-1.34-3.832a.569.569 0 01.562-.756l6.2.273zm-99.24 12.012l-.121 1.137 5.791-.536-5.67-.601zm307.904-14.51a.45.45 0 01.625-.407l2.96 1.245a.61.61 0 01.373.572l-.062 3.569 3.57.062c.248.004.47.16.558.393l1.14 3.002a.45.45 0 01-.428.61l-4.909-.086-.085 4.91a.45.45 0 01-.624.407l-2.961-1.244a.61.61 0 01-.373-.573l.062-3.569-3.57-.062a.61.61 0 01-.558-.392l-1.14-3.003a.45.45 0 01.428-.61l4.91.086zm-281.709 7.857h-.547l-.177 4.052 4.507.197c.315.015.59.219.694.516l.053.153.001-4.258c-.41.45-1.06.665-1.696.469l-.13-.046-2.705-1.083zm-14.106-6.228l-.068 1.55.477.052a1.918 1.918 0 011.596 1.239l.048.148 1.938 6.877 4.361.193.168-3.831-2.887.001a2.22 2.22 0 01-1.993-1.241l-.069-.155-1.904-4.761-1.667-.072zM299.457 42.3a1.64 1.64 0 012.162-1.643l11.084 3.747a2.22 2.22 0 011.505 1.982l.71 12.985 12.984-.71a2.221 2.221 0 012.134 1.282l4.931 10.61a1.64 1.64 0 01-1.397 2.328l-17.862.976.975 17.861a1.64 1.64 0 01-2.162 1.643l-11.084-3.747a2.219 2.219 0 01-1.506-1.982l-.709-12.985-12.984.709a2.22 2.22 0 01-2.135-1.281l-4.93-10.61a1.64 1.64 0 011.397-2.329l17.861-.974zM118.2 87.09l-.235 2.208 5.682.603.054-1.24-4.508-.197a.77.77 0 01-.693-.516l-.3-.858zm89.32-41.565c0-.97.98-1.634 1.882-1.274l9.089 3.636a1.858 1.858 0 011.167 1.724v10.88h10.88c.76 0 1.443.463 1.726 1.168l3.635 9.09c.36.9-.303 1.88-1.274 1.88h-14.967v14.968c0 .97-.98 1.634-1.88 1.273l-9.09-3.635a1.858 1.858 0 01-1.167-1.725V72.63H196.64c-.76 0-1.442-.463-1.725-1.168l-3.635-9.089a1.372 1.372 0 011.273-1.881h14.968zm-99.848 17.562l-3.587.333 1.65 17.812a1.64 1.64 0 01-2.098 1.723L92.419 79.63a2.22 2.22 0 01-1.458-1.377l-7.378 1.529.041.025 3.308 2.354a.77.77 0 01.301.81l-1.064 4.384 2.405.585a1.417 1.417 0 011.554-1.598l6.279.666-.018-.207a1.64 1.64 0 011.97-1.755l.128.032 7.096 2.103 1.549-14.578a1.417 1.417 0 011.954-1.158l.117.055.239.127-1.77-8.54zm373.525.278a.745.745 0 011.033-.674l4.9 2.06c.381.16.626.535.619.947l-.103 5.907 5.907.103c.413.007.779.265.926.65l1.888 4.97a.745.745 0 01-.71 1.009l-8.126-.141-.141 8.126a.745.745 0 01-1.033.674l-4.901-2.06a1.009 1.009 0 01-.618-.947l.103-5.908-5.907-.102a1.01 1.01 0 01-.926-.65l-1.888-4.97a.745.745 0 01.71-1.01l8.126.142zM82.833 79.936l-2.59.538 1.112 5.37 1.387-5.708a.567.567 0 01.091-.2zm449.693-5.505a.323.323 0 01.449-.292l2.124.893c.165.07.27.232.267.41l-.044 2.561 2.56.045a.437.437 0 01.402.282l.818 2.154a.323.323 0 01-.307.437l-3.523-.06-.06 3.521a.323.323 0 01-.449.292l-2.124-.892a.437.437 0 01-.268-.411l.045-2.56-2.561-.045a.437.437 0 01-.401-.282l-.819-2.154a.323.323 0 01.308-.437l3.522.06zm-413.96 2.1c.425.403.65.99.586 1.593l-.56 5.274 5.33.235.273-6.201a.563.563 0 01.107-.31c-.326.208-.73.3-1.155.225zM46.84 78.823l-.362 2.782 2.413.315-2.051-3.097zm86.442-2.04h-8.59c-.043.05-.09.1-.138.145a.553.553 0 01.443.01l3.7 1.671a.77.77 0 01.451.736l-.057 1.304a1.66 1.66 0 01.387-.045l3.803-.001v-3.82zM399.354 70.2a.323.323 0 01.448-.292l2.125.893c.164.069.27.231.267.41l-.044 2.561 2.56.045a.438.438 0 01.402.281l.818 2.154a.323.323 0 01-.307.438l-3.523-.061-.061 3.522a.323.323 0 01-.448.292l-2.124-.893a.437.437 0 01-.268-.41l.044-2.561-2.56-.045a.438.438 0 01-.401-.281l-.819-2.154a.323.323 0 01.308-.438l3.522.061zm16.302-28.779a1.22 1.22 0 011.5-1.355l8.46 2.076a1.653 1.653 0 011.243 1.375l1.35 9.589 9.588-1.35a1.652 1.652 0 011.664.815l4.331 7.559a1.22 1.22 0 01-.889 1.815l-13.19 1.857 1.857 13.189a1.221 1.221 0 01-1.5 1.356l-8.46-2.077a1.654 1.654 0 01-1.243-1.375l-1.35-9.588-9.587 1.349a1.654 1.654 0 01-1.665-.815l-4.331-7.559a1.22 1.22 0 01.889-1.815l13.19-1.856zM375.96 57.82a.569.569 0 01.882-.33l3.307 2.355a.77.77 0 01.302.81l-1.064 4.384 4.384 1.065a.77.77 0 01.581.64l.576 4.018a.569.569 0 01-.698.634l-6.032-1.465-1.464 6.032a.569.569 0 01-.883.329l-3.307-2.355a.77.77 0 01-.302-.809l1.065-4.385-4.385-1.065a.77.77 0 01-.58-.639l-.576-4.019a.569.569 0 01.697-.633l6.032 1.465zm199.468 1.397a.45.45 0 01.624-.407l2.96 1.244c.23.097.378.323.374.572l-.062 3.57 3.569.061c.25.005.47.16.559.393l1.14 3.002a.45.45 0 01-.428.61l-4.91-.086-.084 4.91a.45.45 0 01-.625.407l-2.96-1.244a.61.61 0 01-.373-.573l.061-3.569-3.569-.061a.61.61 0 01-.558-.393l-1.141-3.002a.45.45 0 01.428-.61l4.91.085zM44.444 65.029l2.603 1.458a2.22 2.22 0 011.117 2.224l-.484 3.694 1.598-.331.825-6.305-5.659-.74zm82.376-8.267l-4.483.929.87 1.7a1.64 1.64 0 01-1.004 2.322l.116.562h10.964l-.001-2.061-6.462-3.452zm217.564-4.872a.323.323 0 01.448-.292l2.124.893c.165.07.271.232.268.41l-.045 2.561 2.561.045a.438.438 0 01.401.281l.819 2.155a.323.323 0 01-.308.437l-3.522-.061-.061 3.522a.323.323 0 01-.449.292l-2.124-.892a.437.437 0 01-.267-.411l.044-2.56-2.56-.045a.437.437 0 01-.402-.282l-.818-2.154a.323.323 0 01.307-.437l3.523.06zm-161.62 0a.323.323 0 01.448-.292l2.124.893c.165.07.271.232.268.41l-.045 2.561 2.561.045a.437.437 0 01.401.281l.819 2.155a.323.323 0 01-.308.437l-3.522-.061-.061 3.522a.323.323 0 01-.449.292l-2.124-.892a.437.437 0 01-.267-.411l.044-2.56-2.56-.045a.437.437 0 01-.402-.282l-.818-2.154a.323.323 0 01.307-.437l3.523.06zm76.016-32.295a1.22 1.22 0 011.87-.768l7.258 4.818c.563.374.842 1.053.704 1.715l-1.977 9.478 9.479 1.977a1.652 1.652 0 011.29 1.33l1.516 8.579a1.22 1.22 0 01-1.45 1.407l-13.04-2.718-2.718 13.038a1.22 1.22 0 01-1.87.768l-7.258-4.819a1.653 1.653 0 01-.704-1.714l1.976-9.479-9.478-1.976a1.653 1.653 0 01-1.29-1.33l-1.517-8.579a1.22 1.22 0 011.451-1.407l13.04 2.718zm-87.816-1.32a1.22 1.22 0 011.81-.903l7.59 4.275c.589.332.917.988.827 1.658l-1.278 9.598 9.598 1.279c.67.089 1.218.577 1.384 1.232l2.139 8.445a1.22 1.22 0 01-1.345 1.51l-13.202-1.759-1.759 13.203a1.22 1.22 0 01-1.81.902l-7.59-4.275a1.653 1.653 0 01-.827-1.658l1.279-9.598-9.598-1.279a1.653 1.653 0 01-1.384-1.232l-2.14-8.445a1.22 1.22 0 011.345-1.51l13.203 1.759zM87.371 40.248a1.22 1.22 0 01-1.276.779l-6.207-.687.361 2.517a.57.57 0 01-.608.648l-.09-.015-6.03-1.464-1.466 6.031a.563.563 0 01-.168.286l-.357 3.216 1.125.201.893-.083c.08-.066.18-.11.292-.123l.09-.003.664.029 5.57-.516.24-5.441a.57.57 0 01.717-.524l.086.03 3.7 1.672a.77.77 0 01.451.736l-.134 3.059.91-.084c.142-.099.302-.177.478-.229l.133-.033 1.522-.315zm-37.343 10.77l-.005.109 1.96.256.035-.278-1.99-.088zM38.662 35.43l-1.826 13.974 2.855.373-1.234-3.526a.57.57 0 01.472-.753l.09-.003 6.201.272.273-6.2a.57.57 0 01.803-.494l3.7 1.672a.77.77 0 01.451.736l-.198 4.507 2.424.106 1.129-8.636-1.306-.144a1.652 1.652 0 01-.51-.141L38.662 35.43zm328.047-6.654a.569.569 0 01.79-.514l3.742 1.573a.77.77 0 01.471.723l-.078 4.512 4.512.078a.77.77 0 01.707.497l1.441 3.795a.569.569 0 01-.541.77l-6.206-.107-.108 6.206a.569.569 0 01-.79.514l-3.742-1.573a.77.77 0 01-.472-.723l.079-4.512-4.512-.078a.771.771 0 01-.707-.497l-1.442-3.795a.569.569 0 01.542-.77l6.206.107zm147.505.706a.45.45 0 01.625-.407l2.96 1.245c.23.096.378.323.373.572l-.062 3.569 3.57.062c.248.004.47.16.558.393l1.14 3.002a.45.45 0 01-.428.61l-4.909-.086-.085 4.91a.45.45 0 01-.624.407l-2.961-1.245a.61.61 0 01-.373-.572l.062-3.569-3.57-.062a.61.61 0 01-.558-.393l-1.14-3.002a.45.45 0 01.428-.61l4.91.086zM212.02 15.082a.745.745 0 011.033-.674l4.901 2.06c.38.16.625.535.618.947l-.103 5.907 5.907.103c.413.007.779.265.926.65l1.888 4.97a.745.745 0 01-.71 1.009l-8.126-.141-.141 8.126a.745.745 0 01-1.033.674l-4.9-2.06a1.008 1.008 0 01-.619-.947l.103-5.908-5.907-.102a1.009 1.009 0 01-.926-.65l-1.888-4.97a.745.745 0 01.71-1.01l8.126.142zm187.347-1.124a.745.745 0 011.033-.674l4.9 2.06c.38.16.626.535.619.947l-.103 5.907 5.907.103c.413.007.779.265.926.65l1.888 4.97a.745.745 0 01-.71 1.009l-8.126-.141-.141 8.126a.745.745 0 01-1.033.674l-4.901-2.06a1.008 1.008 0 01-.618-.947l.103-5.908-5.907-.102a1.009 1.009 0 01-.926-.65l-1.888-4.97a.745.745 0 01.71-1.01l8.126.142zm-80.217 6.503a.323.323 0 01.448-.292l2.124.893c.165.069.271.231.268.41l-.044 2.56 2.56.045a.438.438 0 01.401.282l.819 2.154a.323.323 0 01-.308.438l-3.522-.061-.061 3.522a.323.323 0 01-.448.292l-2.125-.893a.436.436 0 01-.267-.41l.044-2.561-2.56-.045a.438.438 0 01-.402-.282l-.818-2.154a.323.323 0 01.308-.437l3.522.061zm-168.16-4.893a.323.323 0 01.448-.292l2.124.893c.165.07.271.232.268.41l-.044 2.561 2.56.045a.438.438 0 01.401.282l.819 2.154a.323.323 0 01-.308.437l-3.522-.061-.062 3.522a.323.323 0 01-.447.292l-2.125-.892a.437.437 0 01-.267-.411l.044-2.56-2.56-.045a.437.437 0 01-.402-.282l-.818-2.154a.323.323 0 01.307-.437l3.523.06z"/>
        <path id="prefix__g" d="M0 0H537.269V305H0z"/>
        <path id="prefix__i" d="M28.475 1.429A1.64 1.64 0 0130.9.21l10.21 5.716a2.22 2.22 0 011.116 2.224l-1.685 12.895 12.894 1.685a2.22 2.22 0 011.863 1.65l.626 2.445 7.381.817 1.463-13.239a1.22 1.22 0 011.789-.943l7.684 4.104c.167.09.314.205.438.339l.17-3.892a.736.736 0 011.04-.638l4.788 2.164a.996.996 0 01.585.952l-.256 5.835 5.835.256a.998.998 0 01.897.667l1.736 4.96a.737.737 0 01-.728.98l-8.026-.354-.033.728 2.979.33c.624.07 1.15.484 1.367 1.065l.044.136 2.168 7.823-.594-6.416a1.64 1.64 0 011.97-1.756l.13.033 11.217 3.325a2.22 2.22 0 011.58 1.923l1.013 10.948 1.7-.351-3.63-17.517a1.64 1.64 0 011.893-1.947l3.17.565.06-1.366-4.507-.198a.77.77 0 01-.693-.515l-1.34-3.832a.569.569 0 01.56-.756l6.202.272.273-6.201a.569.569 0 01.802-.493l3.7 1.671c.287.13.466.422.452.736l-.198 4.508 4.508.198a.77.77 0 01.693.515l1.34 3.832a.569.569 0 01-.561.757l-6.201-.273-.09 2.035 3.349.597a2.22 2.22 0 011.744 1.57l.04.165.413 1.99 10.772 1.19 1.462-13.238a1.22 1.22 0 011.789-.942l7.684 4.104c.596.318.938.967.864 1.639l-1.063 9.624 9.624 1.063c.672.075 1.23.55 1.411 1.202l2.328 8.395c.011.041.02.083.028.124l1.459.064.272-6.2a.569.569 0 01.803-.494l3.7 1.672c.286.13.466.421.452.736l-.198 4.507 4.508.198c.314.014.589.219.693.516l1.34 3.832a.569.569 0 01-.561.756l-6.201-.273-.273 6.201a.569.569 0 01-.803.494l-3.7-1.672a.77.77 0 01-.451-.736l.198-4.508-4.508-.198a.772.772 0 01-.08-.007v10.633a1.636 1.636 0 011.825-.423l2.705 1.081h8.474a2.22 2.22 0 011.993 1.242l.068.154 4.346 10.863a1.64 1.64 0 01-1.522 2.25l-3.805-.001v2.771l9.203-1.016-1.461-13.238a1.22 1.22 0 011.54-1.31l8.394 2.327c.651.181 1.127.74 1.201 1.412l1.063 9.624 9.624-1.063a1.652 1.652 0 011.64.864l4.103 7.685a1.22 1.22 0 01-.943 1.788l-1.563.173 8.903 5.447a2.22 2.22 0 011.052 2.098l-.022.167-2.182 12.82 12.82 2.182a2.22 2.22 0 011.798 1.721l-.002-.004 4.476 1.087 1.465-6.031a.569.569 0 01.883-.33l3.307 2.355a.77.77 0 01.302.81l-1.065 4.384 4.385 1.065a.77.77 0 01.58.64l.576 4.018a.569.569 0 01-.697.634l-6.032-1.465-1.465 6.032a.569.569 0 01-.882.329l-3.308-2.355a.771.771 0 01-.151-.143l.09.413a1.64 1.64 0 01-1.879 1.96l-17.635-3-1.476 8.679a2.22 2.22 0 011.201 1.772l1.2 12.95 12.948-1.2a2.22 2.22 0 012.181 1.2l5.33 10.416a1.64 1.64 0 01-1.31 2.379l-17.812 1.65.589 6.362h2.96c.85 0 1.62.486 1.992 1.24l.068.155 3.993 9.98.062.012a.737.737 0 01.676-.41l8.127.14.141-8.125a.745.745 0 011.033-.674l4.9 2.06c.381.16.626.535.619.947l-.103 5.907 5.908.103c.412.007.778.265.925.65l1.888 4.97a.745.745 0 01-.71 1.009l-8.126-.141-.14 8.126a.745.745 0 01-1.034.673l-4.9-2.06a1.009 1.009 0 01-.618-.946l.102-5.908-5.152-.09 2.39 5.975a1.64 1.64 0 01-1.384 2.243l-.138.006h-17.888v17.888a1.64 1.64 0 01-2.248 1.523l-4.028-1.611a1.222 1.222 0 01-1.37 1.03l-6.54-.871 1.088.458c.138.057.234.18.26.323l.008.087-.045 2.561 2.561.045a.437.437 0 01.401.281l.819 2.154a.323.323 0 01-.308.438l-3.522-.061-.061 3.522a.323.323 0 01-.449.292l-2.124-.893a.437.437 0 01-.267-.41l.044-2.56-2.56-.045a.437.437 0 01-.402-.282l-.818-2.154a.323.323 0 01.307-.438l3.523.061.061-3.522a.33.33 0 01.005-.054l-5.183-.69-1.759 13.202a1.208 1.208 0 01-.467.808l4.19 1.161c.651.18 1.127.74 1.201 1.412l1.063 9.623 9.624-1.062a1.652 1.652 0 011.64.864l4.103 7.685a1.22 1.22 0 01-.943 1.788l-1.563.172 8.903 5.447a2.22 2.22 0 011.052 2.098l-.022.168-2.182 12.82 12.82 2.182a2.22 2.22 0 011.798 1.721l-.002-.004 4.476 1.087 1.465-6.031a.569.569 0 01.883-.33l3.307 2.355a.77.77 0 01.302.81l-1.065 4.384 4.385 1.065a.77.77 0 01.58.64l.576 4.018a.569.569 0 01-.697.633l-6.032-1.464-1.465 6.031a.569.569 0 01-.882.33l-3.308-2.355a.77.77 0 01-.151-.143l.09.413a1.64 1.64 0 01-1.879 1.96l-17.635-3-1.476 8.679a2.22 2.22 0 011.201 1.772l1.2 12.949 12.948-1.2a2.22 2.22 0 012.181 1.2l5.33 10.416a1.64 1.64 0 01-1.31 2.38l-17.812 1.65 1.65 17.811a1.64 1.64 0 01-2.099 1.724l-11.217-3.325a2.22 2.22 0 01-1.58-1.924l-1.199-12.949-12.949 1.2a2.22 2.22 0 01-2.18-1.2l-3.75-7.329.001 10.519a1.64 1.64 0 01-2.119 1.568l-.13-.046-10.863-4.346a2.22 2.22 0 01-1.395-2.061v-13.004h-10.627a2.22 2.22 0 01.425 1.619l-1.685 12.894 12.895 1.686a2.22 2.22 0 011.863 1.65l2.9 11.335a1.64 1.64 0 01-1.8 2.032l-17.738-2.318-2.318 17.738a1.64 1.64 0 01-2.427 1.218l-10.208-5.716a2.219 2.219 0 01-1.117-2.225l1.685-12.895-12.894-1.684a2.22 2.22 0 01-1.863-1.651l-1.129-4.409-4.519-.078-.093 5.359a.491.491 0 01-.681.444l-3.232-1.358a.665.665 0 01-.407-.625l.068-3.895-3.242-.058 3.396 8.493a1.64 1.64 0 01-1.384 2.243l-.138.005H82.266v17.889a1.64 1.64 0 01-2.249 1.522l-10.863-4.345a2.22 2.22 0 01-1.395-2.062v-13.004H55.713l1.259 8.595a1.417 1.417 0 01-1.606 1.608l-.126-.025-9.832-2.356a1.918 1.918 0 01-1.451-1.588l-1.627-11.118-11.119 1.627a1.919 1.919 0 01-1.937-.936l-5.074-8.744a1.416 1.416 0 011.02-2.113l1.098-.162-5.393-2.156a2.22 2.22 0 01-1.389-1.892l-.006-.17V301.1H6.526a2.22 2.22 0 01-2.062-1.396L.12 288.84a1.64 1.64 0 011.522-2.249H19.53v-17.888a1.64 1.64 0 012.248-1.523l10.863 4.346a2.22 2.22 0 011.396 2.061l-.001 1.692 5.536.723.44-3.368a1.691 1.691 0 01-.158-.078l-10.209-5.716a2.22 2.22 0 01-1.116-2.225l1.685-12.894-12.895-1.686a2.22 2.22 0 01-1.863-1.65l-2.9-11.335a1.64 1.64 0 011.8-2.032l17.738 2.318 2.318-17.738c.055-.426.264-.781.556-1.031l-1.788-6.983-9.471-5.304a2.22 2.22 0 01-1.133-2.056l.016-.168 1.685-12.895-12.895-1.685a2.22 2.22 0 01-1.862-1.65L6.619 176.49a1.64 1.64 0 011.8-2.032l17.738 2.318 1.11-8.505-3.067-5.286a1.417 1.417 0 01.894-2.089l.126-.024 1.098-.161-5.393-2.157a2.22 2.22 0 01-1.389-1.892l-.006-.169V143.49H6.526a2.22 2.22 0 01-2.062-1.396L.12 131.23a1.64 1.64 0 011.522-2.248H19.53v-17.889a1.64 1.64 0 012.248-1.522l10.863 4.345a2.22 2.22 0 011.396 2.061l-.001 1.692 5.536.723.44-3.368a1.691 1.691 0 01-.158-.078l-10.209-5.716a2.22 2.22 0 01-1.116-2.224l1.685-12.895-12.895-1.685a2.22 2.22 0 01-1.863-1.651l-2.9-11.335a1.64 1.64 0 011.8-2.032l17.738 2.318 2.318-17.738c.055-.425.264-.78.555-1.03l-1.787-6.984-9.471-5.304a2.22 2.22 0 01-1.133-2.056l.016-.168 1.685-12.895-12.895-1.685a2.22 2.22 0 01-1.862-1.65L6.619 18.88a1.64 1.64 0 011.8-2.032l17.738 2.318zm248.16 296.62a1.64 1.64 0 012.012-1.823l11.366 2.777a2.22 2.22 0 011.67 1.844l1.827 12.875 12.876-1.826a2.22 2.22 0 012.236 1.092l5.828 10.146a1.64 1.64 0 01-1.191 2.44l-17.711 2.512 2.512 17.711a1.64 1.64 0 01-2.012 1.823l-11.366-2.776a2.22 2.22 0 01-1.671-1.845l-1.827-12.876-12.875 1.827a2.22 2.22 0 01-2.237-1.092l-5.828-10.146a1.64 1.64 0 011.192-2.44l17.711-2.512zm113.402 15.515a.745.745 0 011.034-.674l4.9 2.06c.38.16.625.535.618.947l-.103 5.908 5.907.102c.413.008.78.265.926.65l1.888 4.97a.745.745 0 01-.71 1.009l-8.126-.141-.14 8.126a.745.745 0 01-1.034.674l-4.9-2.06a1.008 1.008 0 01-.619-.947l.103-5.908-5.907-.102a1.01 1.01 0 01-.926-.65l-1.888-4.97a.745.745 0 01.71-1.009l8.126.141zm-217.533 13.022a.323.323 0 01.448-.292l2.124.893c.165.07.271.232.268.41l-.044 2.562 2.56.044a.438.438 0 01.401.282l.819 2.154a.323.323 0 01-.308.437l-3.522-.06-.062 3.522a.323.323 0 01-.447.292l-2.125-.893a.436.436 0 01-.267-.41l.044-2.561-2.56-.045a.438.438 0 01-.402-.282l-.818-2.154a.323.323 0 01.307-.437l3.523.06zm169.175-28.353a.745.745 0 011.034-.674l4.9 2.06c.38.16.625.535.618.948l-.103 5.907 5.908.102c.412.008.778.265.925.65l1.888 4.97a.745.745 0 01-.71 1.01l-8.125-.142-.142 8.126a.745.745 0 01-1.033.674l-4.9-2.06a1.008 1.008 0 01-.618-.947l.102-5.907-5.907-.103a1.009 1.009 0 01-.925-.65l-1.888-4.97a.745.745 0 01.709-1.009l8.126.141zm-106.321-28.44a1.64 1.64 0 012.248-1.522l10.863 4.345a2.22 2.22 0 011.396 2.061v13.004h13.004a2.22 2.22 0 012.06 1.396l4.346 10.863a1.64 1.64 0 01-1.522 2.249h-17.888v17.888a1.64 1.64 0 01-2.249 1.522l-10.863-4.345a2.22 2.22 0 01-1.395-2.061v-13.004h-13.005a2.22 2.22 0 01-2.061-1.396l-4.345-10.863a1.64 1.64 0 011.522-2.249h17.889zm228.39 32.573a.569.569 0 01.789-.515l3.743 1.573a.77.77 0 01.471.724l-.078 4.511 4.512.079a.77.77 0 01.706.496l1.442 3.795a.569.569 0 01-.542.771l-6.205-.107-.108 6.205a.57.57 0 01-.79.515l-3.742-1.573a.77.77 0 01-.472-.723l.078-4.512-4.511-.078a.77.77 0 01-.707-.497l-1.442-3.795a.568.568 0 01.542-.77l6.206.107zm-360.811 6.44h-4.561l-2.846.59v9.644c.083.01.165.024.244.043a.492.492 0 01.465-.673l5.358.093.094-5.358a.49.49 0 01.68-.444l1.504.631-.938-4.526zm-63.095 2.837l-5.806.538v5.01l6.48-.947-.674-4.601zm27.916-2.585l-8.824.818.335 3.623 4.769-.697c.724-.106 1.44.21 1.853.803l.083.132 1.784 3.074v-7.753zm51.62-4.603l-2.423.502 2.117 10.217 9.08 1.188.584-4.468-8.46-4.472a1.918 1.918 0 01-1.02-1.743l.01-.155.112-1.069zm286.772.281a.323.323 0 01.448-.292l2.124.893c.165.07.27.232.268.41l-.045 2.561 2.561.045a.438.438 0 01.401.281l.818 2.155a.323.323 0 01-.307.437l-3.523-.061-.06 3.522a.323.323 0 01-.449.292l-2.124-.892a.437.437 0 01-.268-.411l.045-2.56-2.56-.045a.437.437 0 01-.402-.282l-.818-2.154a.323.323 0 01.307-.438l3.522.062zm174.698-1.402a.323.323 0 01.448-.292l2.124.893c.165.07.27.232.268.41l-.045 2.561 2.561.045a.438.438 0 01.401.282l.819 2.154a.323.323 0 01-.308.437l-3.522-.061-.062 3.522a.323.323 0 01-.448.292l-2.124-.892a.437.437 0 01-.268-.411l.045-2.56-2.56-.045a.437.437 0 01-.402-.282l-.818-2.154a.323.323 0 01.307-.438l3.523.062zm-149.887-27.903a1.22 1.22 0 011.5-1.356l8.46 2.077a1.653 1.653 0 011.243 1.374l1.35 9.589 9.587-1.35a1.652 1.652 0 011.665.815l4.33 7.56a1.22 1.22 0 01-.888 1.815l-13.19 1.856L446.876 311a1.22 1.22 0 01-1.5 1.356l-8.46-2.077a1.653 1.653 0 01-1.244-1.375l-1.349-9.588-9.588 1.35a1.653 1.653 0 01-1.664-.816l-4.331-7.558a1.22 1.22 0 01.889-1.816l13.19-1.856zm60.533 25.457a.323.323 0 01.448-.292l2.124.893c.165.07.271.232.268.41l-.044 2.561 2.56.045a.438.438 0 01.401.282l.819 2.154a.323.323 0 01-.308.437l-3.522-.06-.061 3.521a.323.323 0 01-.448.292l-2.125-.892a.436.436 0 01-.267-.411l.044-2.56-2.56-.045a.438.438 0 01-.402-.282l-.818-2.154a.323.323 0 01.308-.437l3.522.06zm-118.402-4.405a.45.45 0 01.624-.407l2.96 1.244c.23.097.378.323.373.573l-.061 3.568 3.569.063c.249.004.47.16.558.392l1.141 3.002a.45.45 0 01-.428.61l-4.91-.085-.085 4.909a.45.45 0 01-.624.407l-2.96-1.244a.61.61 0 01-.374-.573l.062-3.568-3.569-.062a.61.61 0 01-.559-.393l-1.14-3.002a.45.45 0 01.428-.61l4.91.085zm-65.637-33.165a1.342 1.342 0 011.952-1.065l8.515 4.39c.66.341 1.047 1.05.977 1.79l-1.017 10.6 10.6 1.016c.74.07 1.362.585 1.57 1.298l2.693 9.195a1.343 1.343 0 01-1.416 1.713l-14.58-1.398-1.4 14.58a1.342 1.342 0 01-1.95 1.066l-8.516-4.391a1.817 1.817 0 01-.976-1.79l1.016-10.599-10.6-1.017a1.817 1.817 0 01-1.57-1.298l-2.693-9.194a1.343 1.343 0 011.417-1.714l14.58 1.398zm-121.007 40.41h-17.517l-.001 1.878 17.541-1.624-.023-.254zm-52.986-7.997l2.044 3.086c.017.025.032.05.048.076l3.129 1.753-1.822-4.554-3.399-.361zm255.476-46.019l.13.006 10.998.901c.854.07 1.578.652 1.83 1.47l3.61 11.723 11.723-3.61a2.095 2.095 0 012.245.686l6.932 8.586a1.546 1.546 0 01-.748 2.45l-16.125 4.966 4.966 16.125a1.547 1.547 0 01-1.605 1.996l-10.998-.901a2.094 2.094 0 01-1.83-1.47l-3.61-11.723-11.723 3.61a2.093 2.093 0 01-2.245-.686l-6.933-8.586a1.546 1.546 0 01.748-2.45l16.126-4.966-4.966-16.125a1.546 1.546 0 011.604-1.996zM184.497 291.87l1.109 2.772-.206-2.218-.861-.527a2.233 2.233 0 01-.042-.027zm-84.69 1.826l-.687-3.311-3.59.744v3.172l1.361-.001 2.915-.604zm63.786-86.804l.577 1.645a.569.569 0 01-.562.757l-2.094-.093.359 3.866a1.64 1.64 0 01-1.97 1.757l-.129-.033-2.587-.768-.053 1.2a.57.57 0 01-.717.523l-.086-.03-3.7-1.672a.77.77 0 01-.451-.736l.032-.759-3.656-1.083a2.216 2.216 0 01-.766-.404v8.825h13.004a2.22 2.22 0 012.061 1.395l4.346 10.863a1.64 1.64 0 01-1.522 2.249H147.79v17.888a1.64 1.64 0 01-2.248 1.522l-3.244-1.297-.186 4.266 4.507.198a.77.77 0 01.694.515l1.34 3.832a.569.569 0 01-.562.757l-6.2-.273-.273 6.201a.57.57 0 01-.803.494l-3.7-1.672a.77.77 0 01-.452-.736l.198-4.508-4.507-.198a.77.77 0 01-.647-.408l-4.335-.462c.092.114.173.24.242.374l3.963 7.747 2.84 1.502a1.918 1.918 0 011.022 1.743l-.01.155-.022.202.568.24a.688.688 0 01.416.542l.006.104-.07 4.03 4.03.07c.281.005.531.18.631.443l1.288 3.39a.508.508 0 01-.484.689l-5.543-.096-.032 1.77 9.199.977a1.918 1.918 0 011.595 1.24l.049.148.968 3.438h6.396v-14.652a.57.57 0 01-.764.31l-3.7-1.672a.77.77 0 01-.452-.736l.198-4.508-4.507-.198a.77.77 0 01-.694-.516l-1.34-3.831a.569.569 0 01.561-.757l6.201.273.273-6.201a.569.569 0 01.803-.493l3.7 1.671c.286.13.465.422.452.736l-.199 4.508 4.508.198c.315.014.59.218.693.515l1.341 3.832a.569.569 0 01-.562.757l-6.2-.273-.105 2.348a1.64 1.64 0 012.041-.721l10.863 4.345a2.22 2.22 0 011.396 2.061v13.005h13.004a2.22 2.22 0 011.55.63l.002-.053.022-.168 2.182-12.82-12.82-2.182a2.22 2.22 0 01-1.798-1.721l-2.461-11.438a1.64 1.64 0 011.877-1.962l17.635 3.001 3.001-17.635.015-.073-8.14.899 1.461 13.239a1.221 1.221 0 01-1.54 1.31l-8.394-2.328a1.653 1.653 0 01-1.201-1.411l-1.063-9.625-9.624 1.063a1.652 1.652 0 01-1.64-.864l-4.103-7.685a1.221 1.221 0 01.943-1.788l13.238-1.462-1.461-13.238a1.22 1.22 0 011.54-1.31l1.227.339-5.955-3.353a1.653 1.653 0 01-.84-1.505l.012-.154 1.279-9.597-3.286-.439zm-18.56 65.445a.323.323 0 01.448-.292l2.124.893c.165.07.27.232.268.41l-.045 2.562 2.56.044a.437.437 0 01.402.282l.818 2.154a.323.323 0 01-.307.438l-3.523-.062-.061 3.523a.323.323 0 01-.448.292l-2.124-.893a.437.437 0 01-.268-.41l.045-2.561-2.561-.045a.438.438 0 01-.401-.282l-.819-2.154a.323.323 0 01.308-.437l3.522.06zm-22.476 2.185l-7.69.713a1.425 1.425 0 01-.985.75l.473 5.111 7.42.789.782-7.363zm352.624-18.946a.745.745 0 011.034-.674l4.9 2.06c.38.16.625.535.618.947l-.103 5.908 5.908.102c.412.007.778.265.925.65l1.888 4.97a.745.745 0 01-.71 1.009l-8.125-.141-.142 8.126a.745.745 0 01-1.033.674l-4.9-2.06a1.009 1.009 0 01-.618-.947l.102-5.908-5.907-.102a1.009 1.009 0 01-.925-.65l-1.888-4.97a.745.745 0 01.709-1.01l8.126.142zM218.22 274.307l1.05 4.88 1.062-4.367-2.112-.513zm-162.221-8.594l-.456.041-1.585 12.128 3.206.419-1.165-12.588zm476-1.924a.45.45 0 01.624-.407l2.961 1.244c.23.096.378.323.373.572l-.062 3.569 3.569.062c.25.004.47.16.559.393l1.14 3.002a.45.45 0 01-.428.61l-4.91-.086-.084 4.91a.45.45 0 01-.625.407l-2.96-1.245a.61.61 0 01-.373-.572l.061-3.569-3.568-.062a.609.609 0 01-.56-.393l-1.14-3.002a.45.45 0 01.429-.61l4.909.086zm-185.073-19.39c.08-.72.861-1.132 1.5-.79l6.45 3.443c.5.268.787.812.725 1.376l-.893 8.077 8.076.892a1.386 1.386 0 011.185 1.008l1.953 7.045a1.024 1.024 0 01-1.1 1.292l-11.11-1.228-1.227 11.11a1.024 1.024 0 01-1.5.791l-6.45-3.444a1.386 1.386 0 01-.724-1.376l.892-8.076-8.077-.893a1.386 1.386 0 01-1.184-1.008l-1.953-7.045a1.024 1.024 0 011.1-1.291l11.11 1.227zM79.628 267.641l1.027 4.955 1.543.068-2.57-5.023zm196.636-12.745a.508.508 0 01.705-.46l3.343 1.405c.26.11.426.365.421.646l-.07 4.03 4.03.07c.281.005.531.18.631.444l1.288 3.39a.508.508 0 01-.483.688l-5.544-.096-.096 5.544a.508.508 0 01-.705.46l-3.344-1.406a.688.688 0 01-.42-.646l.07-4.03-4.03-.07a.687.687 0 01-.632-.444l-1.288-3.39a.508.508 0 01.484-.688l5.543.096zm-32.207-30.32a1.437 1.437 0 011.758-1.605l9.974 2.393a1.945 1.945 0 011.472 1.612l1.647 11.28 11.281-1.647a1.946 1.946 0 011.965.95l5.146 8.873c.51.88-.03 1.997-1.036 2.144l-15.518 2.266 2.266 15.518a1.437 1.437 0 01-1.758 1.605l-9.974-2.393a1.946 1.946 0 01-1.472-1.611l-1.647-11.282-11.281 1.648a1.946 1.946 0 01-1.965-.95l-5.146-8.873c-.51-.88.03-1.996 1.036-2.143l15.518-2.266zm-28.176 22.785a.57.57 0 01.803-.493l3.7 1.672a.77.77 0 01.451.736l-.197 4.508 4.508.197c.314.015.589.219.693.516l1.34 3.832a.569.569 0 01-.561.756l-6.201-.273-.273 6.201a.569.569 0 01-.803.494l-3.7-1.672a.77.77 0 01-.452-.736l.198-4.508-4.507-.198a.77.77 0 01-.694-.515l-1.34-3.832a.57.57 0 01.562-.756l6.2.273zm-137.183 16.25l-4.564.421 3.45.614c.454.081.86.299 1.173.61a1.643 1.643 0 01.977-1.26l-.168-.03a2.216 2.216 0 01-.868-.356zm12.052-10.29l1.947 9.396 5.341-.494-.451-4.874-4.586-.486a1.918 1.918 0 01-1.595-1.24l-.049-.147-.607-2.155zm25.891 6.052l-.121 1.138 5.791-.536-5.67-.602zm12.089-12.88l-.068 1.55.477.051a1.918 1.918 0 011.596 1.24l.048.148 1.938 6.877 4.361.192.265-6.026-2.669-1.067a2.22 2.22 0 01-1.389-1.892l-.006-.17-.001-.704-4.552-.2zm24.93-.62a.323.323 0 01.448-.292l2.125.893c.164.07.27.232.267.41l-.044 2.561 2.56.045a.437.437 0 01.402.282l.818 2.154a.323.323 0 01-.307.438l-3.523-.062-.061 3.522a.323.323 0 01-.448.293l-2.124-.893a.437.437 0 01-.268-.41l.044-2.562-2.56-.044a.437.437 0 01-.401-.282l-.819-2.154a.323.323 0 01.308-.437l3.522.06zm144.874-43.365a1.64 1.64 0 012.163-1.643l11.084 3.747a2.22 2.22 0 011.505 1.982l.709 12.985 12.985-.71a2.22 2.22 0 012.134 1.282l4.931 10.61a1.64 1.64 0 01-1.397 2.328l-17.862.975.975 17.862a1.64 1.64 0 01-2.162 1.643l-11.084-3.747a2.22 2.22 0 01-1.506-1.982l-.709-12.985-12.985.709a2.22 2.22 0 01-2.134-1.281l-4.93-10.61a1.64 1.64 0 011.397-2.328l17.861-.976zm136.658 34.425a.45.45 0 01.624-.407l2.96 1.244c.23.097.378.323.374.573l-.062 3.568 3.569.063c.249.004.47.16.559.392l1.14 3.002a.45.45 0 01-.428.61l-4.91-.085-.085 4.909a.45.45 0 01-.624.407l-2.96-1.244a.61.61 0 01-.374-.572l.062-3.57-3.57-.061a.61.61 0 01-.558-.393l-1.14-3.002a.45.45 0 01.428-.61l4.91.085zm-311.647 9.331l-.13 1.222.232.025.054-1.24-.156-.007zm83.976-43.13c0-.97.98-1.633 1.88-1.273l9.09 3.636a1.858 1.858 0 011.167 1.724v10.88h10.88c.76 0 1.443.463 1.726 1.168l3.635 9.09a1.372 1.372 0 01-1.274 1.88h-14.967v14.968c0 .97-.98 1.634-1.88 1.273l-9.09-3.635a1.857 1.857 0 01-1.167-1.725v-10.88H196.64c-.76 0-1.442-.463-1.725-1.168l-3.635-9.09a1.372 1.372 0 011.273-1.88h14.968zm-101.764 40.021l-3.35.694 3.176.941.174-1.635zm462.568-11.114a.323.323 0 01.449-.292l2.124.893c.164.069.27.232.267.41l-.044 2.56 2.56.045a.437.437 0 01.402.282l.818 2.155a.323.323 0 01-.307.437l-3.523-.061-.061 3.522a.323.323 0 01-.448.292l-2.124-.893a.437.437 0 01-.268-.41l.045-2.561-2.561-.044a.438.438 0 01-.401-.282l-.819-2.154a.323.323 0 01.308-.438l3.522.061zm-66.686-13.827a.745.745 0 011.033-.674l4.9 2.06c.38.16.625.535.618.947l-.102 5.908 5.907.102c.412.008.778.265.925.65l1.888 4.97a.745.745 0 01-.71 1.01l-8.125-.142-.142 8.126a.745.745 0 01-1.033.674l-4.9-2.06a1.008 1.008 0 01-.618-.947l.102-5.908-5.907-.102a1.009 1.009 0 01-.925-.65l-1.888-4.97a.745.745 0 01.709-1.009l8.126.141zm-368.356 16.179l-8.477-.001-.01.106a.562.562 0 01.116.02l.086.03 3.7 1.672a.77.77 0 01.451.736l-.198 4.507 4.331.19v-7.26zm240.675-14.926a.641.641 0 01.995-.37l3.728 2.653a.868.868 0 01.34.912l-1.2 4.943 4.942 1.2c.346.084.605.37.655.721l.649 4.53a.641.641 0 01-.786.714l-6.8-1.65-1.65 6.798a.641.641 0 01-.996.371l-3.728-2.654a.868.868 0 01-.34-.912l1.2-4.943-4.942-1.2a.868.868 0 01-.655-.72l-.649-4.53a.641.641 0 01.786-.715l6.8 1.651zm-329.513 3.172l2.602 1.457a2.22 2.22 0 011.117 2.225l-1.685 12.895 5.658.739-2.603-1.457a2.22 2.22 0 01-1.132-2.056l.016-.168 1.685-12.895-5.658-.74zm60.491 7.579l.616 6.651.752 1.135.802-7.556-2.17-.23zm-40.448-4.96l-1.165 8.908 3.003.89a2.22 2.22 0 011.371 1.169l3.4-.705.405-1.665-4.385-1.064a.77.77 0 01-.58-.64l-.576-4.018a.569.569 0 01.697-.634l4.134 1.003-.515-2.487-5.79-.756zm25.152-2.89l-5.203.48 1.969 9.501 4.08-.846-.846-9.136zm317.958-1.887a.323.323 0 01.447-.292l2.125.893c.165.07.27.232.267.41l-.044 2.561 2.56.045a.438.438 0 01.402.281l.818 2.154a.323.323 0 01-.307.438l-3.523-.061-.061 3.522a.323.323 0 01-.448.292l-2.124-.892a.437.437 0 01-.268-.411l.045-2.56-2.561-.045a.438.438 0 01-.401-.282l-.819-2.154a.323.323 0 01.308-.438l3.522.062zm35.044-31.985a1.22 1.22 0 011.5-1.356l8.46 2.077a1.653 1.653 0 011.243 1.374l1.35 9.589 9.587-1.35a1.653 1.653 0 011.665.815l4.33 7.559a1.22 1.22 0 01-.888 1.816l-13.19 1.856 1.856 13.189a1.22 1.22 0 01-1.5 1.356l-8.46-2.077a1.653 1.653 0 01-1.243-1.375l-1.35-9.588-9.587 1.35a1.653 1.653 0 01-1.665-.815l-4.33-7.56a1.22 1.22 0 01.889-1.815l13.189-1.856zm-315.716 25.933l-.579 5.457h6.936l-.001-2.062-6.356-3.395zm131.854-37.225a1.22 1.22 0 011.87-.767l7.258 4.818c.563.374.842 1.053.704 1.714l-1.977 9.479 9.479 1.977a1.652 1.652 0 011.29 1.33l1.516 8.579a1.22 1.22 0 01-1.45 1.407l-13.04-2.719-2.718 13.04a1.22 1.22 0 01-1.87.767l-7.258-4.819a1.653 1.653 0 01-.704-1.714l1.976-9.479-9.478-1.976a1.653 1.653 0 01-1.29-1.33l-1.517-8.58a1.22 1.22 0 011.451-1.407l13.04 2.72zm85.604 26.534a.323.323 0 01.448-.292l2.124.893c.165.07.271.232.268.41l-.045 2.561 2.561.045a.438.438 0 01.401.282l.819 2.154a.323.323 0 01-.308.437l-3.522-.06-.061 3.522a.323.323 0 01-.449.292l-2.124-.893a.437.437 0 01-.267-.41l.044-2.562-2.56-.044a.437.437 0 01-.402-.282l-.818-2.154a.323.323 0 01.307-.437l3.523.06zm53.902-10.743a.569.569 0 01.789-.514l3.743 1.573a.77.77 0 01.471.723l-.078 4.512 4.512.078a.77.77 0 01.706.497l1.442 3.795a.569.569 0 01-.541.77l-6.206-.107-.108 6.206a.569.569 0 01-.79.514l-3.742-1.573a.77.77 0 01-.472-.723l.078-4.512-4.511-.078a.77.77 0 01-.707-.497l-1.442-3.795a.569.569 0 01.542-.77l6.206.107zM50.028 208.628l-.005.109 1.96.257.035-.279-1.99-.087zm36.898-15.561l-4.675.971a1.64 1.64 0 01-2.234 1.295l-.398-.158a.735.735 0 01-.29-.066l-.708-.32-2.013.417 2.485.604a.77.77 0 01.559.537l.021.102.576 4.019a.569.569 0 01-.697.633l-4.375-1.062 1.85 8.927 3.137-.291.24-5.441a.57.57 0 01.717-.525l.086.031 3.7 1.672a.77.77 0 01.451.736l-.134 3.058 3.078-.284-1.376-14.855zm-48.264-.026l-1.826 13.974 2.855.373-1.234-3.526a.57.57 0 01.472-.753l.09-.003 6.201.272.119-2.69a2.218 2.218 0 01-.303-.365l-4.676-7.061-1.698-.221zm64.443-6.198l-10.614 2.199.336.508.035.054 7.107 2.108a2.22 2.22 0 011.58 1.923l1.199 12.95 12.528-1.162.238-2.232c.016-.157.057-.303.117-.436l-8.103-1.443a2.22 2.22 0 01-1.785-1.735l-2.638-12.734zm17.86 15.091c-.07.63-.507 1.16-1.091 1.365l5.537 2.927.415-3.754zm-67.817-1.868l-2.769.574-.13 2.96 2.424.105.475-3.639zm126.235-4.8l-.37 2.783 4.913.654v-1.593l-4.24-1.696a2.221 2.221 0 01-.303-.148zm342.155-12.477a.45.45 0 01.624-.407l2.96 1.244c.23.097.379.323.374.572l-.062 3.57 3.569.061c.25.005.47.16.559.393l1.14 3.002a.45.45 0 01-.428.61l-4.91-.085-.084 4.909a.45.45 0 01-.625.407l-2.96-1.244a.61.61 0 01-.373-.573l.061-3.568-3.569-.062a.61.61 0 01-.558-.393l-1.141-3.002a.45.45 0 01.429-.61l4.909.085zm-352.948 11.69l-8.367.775.027.295 8.055 1.073.285-2.143zm191.213-22.395a.745.745 0 011.033-.674l4.9 2.06c.38.16.625.534.618.947l-.102 5.907 5.907.103c.412.007.779.265.925.65l1.888 4.97a.745.745 0 01-.709 1.009l-8.126-.141-.141 8.126a.745.745 0 01-1.034.673l-4.9-2.06a1.008 1.008 0 01-.618-.946l.103-5.908-5.908-.103a1.01 1.01 0 01-.925-.65l-1.888-4.97a.745.745 0 01.709-1.008l8.126.14zM125.076 182.29l-7.498 1.555a.57.57 0 01-.183.467l1.348 6.509 8.27.915.203-1.851-.561-1.097-.951-.532a2.22 2.22 0 01-1.132-2.056l.015-.168.489-3.742zm151.559-41.85a1.64 1.64 0 012.012-1.824l11.366 2.777a2.219 2.219 0 011.67 1.844l1.827 12.876 12.876-1.826a2.22 2.22 0 012.236 1.092l5.828 10.145a1.64 1.64 0 01-1.191 2.44l-17.711 2.512 2.512 17.711a1.64 1.64 0 01-2.012 1.823l-11.366-2.776a2.22 2.22 0 01-1.671-1.845l-1.827-12.875-12.875 1.826a2.22 2.22 0 01-2.237-1.092l-5.828-10.146a1.64 1.64 0 011.192-2.44l17.711-2.512zm188.178 39.015a.323.323 0 01.448-.292l2.124.892c.165.07.271.232.268.411l-.044 2.56 2.56.045a.438.438 0 01.401.282l.819 2.154a.323.323 0 01-.308.438l-3.522-.062-.061 3.523a.323.323 0 01-.448.292l-2.125-.893a.437.437 0 01-.267-.41l.044-2.561-2.56-.045a.437.437 0 01-.402-.282l-.818-2.154a.323.323 0 01.307-.437l3.523.06zm-52.818-16.888a.745.745 0 011.033-.674l4.9 2.06c.38.16.625.535.618.947l-.102 5.908 5.907.103c.412.007.779.264.925.65l1.889 4.969a.745.745 0 01-.71 1.01l-8.126-.142-.141 8.126a.745.745 0 01-1.034.674l-4.9-2.06a1.009 1.009 0 01-.618-.947l.103-5.907-5.908-.103a1.01 1.01 0 01-.925-.65l-1.888-4.97a.745.745 0 01.71-1.009l8.125.142zm-88.68 12.77a.323.323 0 01.448-.293l2.125.893c.165.07.27.232.267.41l-.044 2.562 2.56.044a.438.438 0 01.402.282l.818 2.154a.323.323 0 01-.308.438l-3.522-.062-.061 3.523a.323.323 0 01-.448.292l-2.124-.893a.437.437 0 01-.268-.41l.044-2.561-2.56-.045a.438.438 0 01-.401-.282l-.819-2.154a.323.323 0 01.308-.437l3.522.061zm-266.764 6.308l.412 2.816.164-.034-.576-2.782zm84.106-6.628l-.99 7.572 4.773-.442-.623-6.718-3.16-.412zm13.767-28.899h-10.627a2.22 2.22 0 01.425 1.62l-1.685 12.894 12.895 1.685a2.22 2.22 0 011.863 1.65l2.9 11.335a1.64 1.64 0 01-1.63 2.046l.32 3.461 5.82-.537a2.22 2.22 0 01-1.48-1.318l-4.345-10.864a1.64 1.64 0 011.522-2.248h17.889l-.001-4.144-3.43.319a2.22 2.22 0 01-2.098-1.052l-.083-.148-3.749-7.328.001 10.518a1.64 1.64 0 01-2.119 1.568l-.13-.046-10.863-4.346a2.22 2.22 0 01-1.395-2.06v-13.005zM42.33 171.038l-.809.117-.98 7.5 2.959.387-1.17-8.004zm41.98 4.884h-2.044l-.001.473c.118-.056.245-.1.38-.128l1.665-.345zm13.97-10.74l.698 1.745-.36-1.739-.338-.006zm243.4-24.559a.745.745 0 011.033-.673l4.9 2.06c.38.16.625.535.618.947l-.103 5.907 5.908.103c.412.007.778.265.925.65l1.888 4.97a.745.745 0 01-.71 1.009l-8.125-.142-.142 8.126a.745.745 0 01-1.033.674l-4.9-2.06a1.008 1.008 0 01-.618-.947l.102-5.907-5.907-.103a1.009 1.009 0 01-.925-.65l-1.888-4.97a.745.745 0 01.709-1.009l8.126.142zm-106.322-28.44a1.64 1.64 0 012.248-1.522l10.863 4.345a2.22 2.22 0 011.396 2.061v13.005h13.004a2.22 2.22 0 012.06 1.395l4.346 10.863a1.64 1.64 0 01-1.522 2.249h-17.888v17.888a1.64 1.64 0 01-2.249 1.523l-10.863-4.346a2.22 2.22 0 01-1.395-2.061v-13.004h-13.005a2.22 2.22 0 01-2.061-1.396l-4.345-10.863a1.64 1.64 0 011.522-2.248h17.889zm228.39 32.573a.569.569 0 01.789-.514l3.743 1.573a.77.77 0 01.471.723l-.078 4.512 4.512.078a.77.77 0 01.706.497l1.442 3.795a.569.569 0 01-.542.77l-6.205-.107-.108 6.206a.57.57 0 01-.79.514l-3.742-1.573a.77.77 0 01-.472-.723l.078-4.512-4.511-.078a.77.77 0 01-.707-.497l-1.442-3.795a.568.568 0 01.542-.77l6.206.107zm-365.68-21.553l-.06 3.522a.323.323 0 01-.449.292l-2.029-.853v10.526h13.004a2.22 2.22 0 012.062 1.395l4.345 10.864a1.64 1.64 0 01-1.522 2.248H95.53v10.234c.083.01.165.024.244.042a.492.492 0 01.465-.672l1.475.025-1.182-5.705a1.64 1.64 0 011.762-1.964l.13.018 11.52 2.05a2.22 2.22 0 011.673 1.365l16.535 2.162.584-4.468-8.46-4.472a1.918 1.918 0 01-1.02-1.742l.01-.156 1.186-11.174-5.056-.537a1.641 1.641 0 01-2.023 1.053l-11.218-3.325a2.22 2.22 0 01-1.58-1.923l-.813-8.776-1.693-.03zm477.525 26.874a.323.323 0 01.448-.292l2.124.892c.165.07.271.232.268.411l-.044 2.56 2.56.045a.438.438 0 01.401.282l.819 2.154a.323.323 0 01-.308.438l-3.522-.062-.061 3.523a.323.323 0 01-.448.292l-2.125-.893a.437.437 0 01-.267-.41l.044-2.561-2.56-.045a.438.438 0 01-.402-.282l-.818-2.154a.323.323 0 01.308-.437l3.522.06zm-535.751 3.957l-5.806.538v5.003l.01.006 6.47-.947-.674-4.6zm27.916-2.585l-8.824.817.335 3.623 4.769-.697c.724-.106 1.44.21 1.853.804l.083.131 1.784 3.074v-7.752zm338.392-4.322a.323.323 0 01.448-.293l2.124.893c.165.07.27.232.268.41l-.045 2.562 2.561.044a.438.438 0 01.401.282l.818 2.154a.323.323 0 01-.307.437l-3.523-.06-.06 3.522a.323.323 0 01-.449.292l-2.124-.893a.437.437 0 01-.268-.41l.045-2.561-2.56-.045a.437.437 0 01-.402-.282l-.818-2.154a.323.323 0 01.307-.437l3.522.06zm24.811-29.306a1.22 1.22 0 011.5-1.356l8.46 2.077a1.653 1.653 0 011.243 1.375l1.35 9.588 9.587-1.35a1.653 1.653 0 011.665.816l4.33 7.558a1.22 1.22 0 01-.888 1.816l-13.19 1.856 1.857 13.19a1.22 1.22 0 01-1.5 1.355l-8.46-2.077a1.653 1.653 0 01-1.244-1.374l-1.349-9.589-9.588 1.35a1.653 1.653 0 01-1.664-.815l-4.331-7.56a1.22 1.22 0 01.889-1.815l13.19-1.856zm60.533 25.457a.323.323 0 01.448-.292l2.124.893c.165.07.271.232.268.41l-.044 2.561 2.56.045a.438.438 0 01.401.282l.819 2.154a.323.323 0 01-.308.438l-3.522-.062-.061 3.522a.323.323 0 01-.448.293l-2.125-.893a.436.436 0 01-.267-.41l.044-2.562-2.56-.044a.437.437 0 01-.402-.282l-.818-2.154a.323.323 0 01.308-.437l3.522.06zm-118.402-4.405a.45.45 0 01.624-.407l2.96 1.244c.23.097.378.323.373.573l-.061 3.569 3.569.062c.249.004.47.16.558.392l1.141 3.003a.45.45 0 01-.428.61l-4.91-.086-.085 4.91a.45.45 0 01-.624.406l-2.96-1.244a.61.61 0 01-.374-.572l.062-3.57-3.569-.061a.61.61 0 01-.559-.393l-1.14-3.002a.45.45 0 01.428-.61l4.91.085zm-65.637-33.165a1.342 1.342 0 011.952-1.065l8.515 4.39c.66.341 1.047 1.05.977 1.79l-1.017 10.6 10.6 1.016c.74.07 1.362.585 1.57 1.299l2.693 9.194a1.343 1.343 0 01-1.416 1.713l-14.58-1.398-1.4 14.581a1.342 1.342 0 01-1.95 1.065l-8.516-4.391a1.818 1.818 0 01-.976-1.79l1.016-10.599-10.6-1.017a1.816 1.816 0 01-1.57-1.298l-2.693-9.194a1.342 1.342 0 011.417-1.714l14.58 1.398zm-121.008 40.41h-17.516l-.001 1.878 9.594-.888a1.642 1.642 0 011.885-.723l.13.046.995.398 4.937-.457-.024-.254zm-53.53-8.055l-.175 1.656c.052.023.104.049.155.077l5.786 3.24-1.822-4.554-3.943-.419zm-75.55-2.715l.23 2.473 4.164-.387c.288-.44.783-.744 1.374-.744h4.499l-10.267-1.342zm331.57-43.245l.13.005 11 .901c.853.07 1.577.653 1.83 1.47l3.609 11.724 11.723-3.61a2.094 2.094 0 012.245.685l6.932 8.587a1.546 1.546 0 01-.748 2.45l-16.125 4.965 4.966 16.125a1.547 1.547 0 01-1.605 1.997l-10.998-.902a2.094 2.094 0 01-1.83-1.47l-3.61-11.723-11.723 3.61a2.094 2.094 0 01-2.245-.686l-6.933-8.586a1.546 1.546 0 01.748-2.45l16.126-4.965-4.966-16.126a1.546 1.546 0 011.604-1.996zm-204.44 42.156l1.109 2.771-.205-2.217-.862-.527a2.222 2.222 0 01-.042-.027zM71.634 119.63l.459 4.948a1.64 1.64 0 01-2.099 1.723l-.64-.19 2.262 8.833a1.633 1.633 0 01-.567 1.69c.096.012.19.031.283.057h9.691v-16.648l-2.244-.098-.273 6.2a.569.569 0 01-.802.494l-3.7-1.672a.77.77 0 01-.452-.735l.198-4.508-2.116-.094zm119.506-32.44l-8.14.9 1.461 13.239a1.221 1.221 0 01-1.54 1.31l-8.394-2.328a1.654 1.654 0 01-1.201-1.411l-.419-3.788-11.033.001V113c0 .437-.166.822-.43 1.11l6.091 2.435a2.22 2.22 0 011.396 2.062v13.004h13.004a2.22 2.22 0 011.55.631l.002-.054.022-.168 2.182-12.82-12.82-2.181a2.22 2.22 0 01-1.798-1.722l-2.461-11.438a1.64 1.64 0 011.877-1.962l17.635 3.001 3.001-17.634.015-.074zm-63.768 15.713c.092.115.173.24.242.374l3.963 7.747 2.84 1.502a1.918 1.918 0 011.022 1.743l-.01.155-.022.202.568.24a.688.688 0 01.416.542l.006.104-.07 4.03 4.03.07c.281.005.531.18.631.444l1.288 3.39a.508.508 0 01-.484.688l-5.543-.096-.032 1.77 9.199.978c.728.077 1.344.56 1.595 1.239l.049.148.969 3.439h6.395v-14.653a.57.57 0 01-.764.31l-3.7-1.672a.77.77 0 01-.452-.736l.189-4.309-.56-.224-3.938-.173a.77.77 0 01-.653-.42l-.04-.095-1.341-3.832a.569.569 0 01.561-.756l3.64.159v-.779l-5.475-.24-.273 6.201a.57.57 0 01-.803.494l-3.7-1.672a.77.77 0 01-.452-.736l.198-4.508-4.507-.198a.77.77 0 01-.647-.408zm17.66 11.825a.323.323 0 01.449-.292l2.124.892c.165.07.27.232.268.411l-.045 2.56 2.56.045a.437.437 0 01.402.282l.818 2.154a.323.323 0 01-.307.438l-3.523-.062-.061 3.523a.323.323 0 01-.448.292l-2.124-.893a.437.437 0 01-.268-.41l.045-2.561-2.561-.045a.437.437 0 01-.401-.281l-.819-2.154a.323.323 0 01.308-.438l3.522.061zm-22.475 2.185l-7.691.713a1.425 1.425 0 01-.984.75l.473 5.11 7.42.789.782-7.362zm352.624-18.947a.745.745 0 011.034-.674l4.9 2.06c.38.16.625.535.618.947l-.103 5.908 5.908.102c.412.008.778.265.925.65l1.888 4.97a.745.745 0 01-.71 1.01l-8.125-.142-.142 8.126a.745.745 0 01-1.033.674l-4.9-2.06a1.009 1.009 0 01-.618-.947l.102-5.907-5.907-.103a1.009 1.009 0 01-.925-.65l-1.888-4.97a.745.745 0 01.709-1.009l8.126.141zM218.22 116.697l1.05 4.88 1.062-4.367-2.112-.513zm-162.221-8.594l-.456.041-1.585 12.128 3.206.419-1.165-12.588zm39.278 11.335l-5.364.497 1.5.6a.324.324 0 01.254-.293l.073-.006 3.523.06.014-.858zm436.722-13.26a.45.45 0 01.624-.406l2.961 1.244c.23.097.378.323.373.572l-.062 3.57 3.569.061c.25.005.47.16.559.393l1.14 3.002a.45.45 0 01-.428.61l-4.91-.085-.084 4.909a.45.45 0 01-.625.407l-2.96-1.244a.61.61 0 01-.373-.573l.061-3.569-3.568-.062a.61.61 0 01-.56-.392l-1.14-3.002a.45.45 0 01.429-.61l4.909.085zm-432.622 12.88l-1.238.115-.02 1.173 1.379.024-.12-1.311zM346.925 86.79c.08-.72.861-1.133 1.5-.791l6.45 3.444c.5.267.787.812.725 1.375l-.893 8.077 8.076.892a1.386 1.386 0 011.185 1.008l1.953 7.045a1.024 1.024 0 01-1.1 1.292l-11.11-1.227-1.227 11.11a1.024 1.024 0 01-1.5.79l-6.45-3.444a1.386 1.386 0 01-.724-1.375l.892-8.077-8.077-.892a1.386 1.386 0 01-1.184-1.008l-1.953-7.045a1.024 1.024 0 011.1-1.292l11.11 1.227zM84.98 92.247l-.253 1.037 4.836 9.452a1.64 1.64 0 01-1.173 2.36l-.136.02-17.812 1.649.723 7.805 2.805.124.273-6.201a.569.569 0 01.803-.494l3.7 1.672a.77.77 0 01.451.736L79 114.915l3.198.139-3.28-6.412a1.64 1.64 0 011.172-2.36l.136-.019 17.812-1.65-.451-4.873-4.586-.487a1.919 1.919 0 01-1.595-1.239l-.049-.148-1.231-4.37-5.145-1.249zm191.283 5.039a.508.508 0 01.705-.46l3.343 1.405c.26.11.426.365.421.647l-.07 4.03 4.03.07c.281.005.531.18.631.444l1.288 3.39a.508.508 0 01-.483.688l-5.544-.097-.096 5.544a.508.508 0 01-.705.46l-3.344-1.405a.688.688 0 01-.42-.647l.07-4.03-4.03-.07a.687.687 0 01-.632-.443l-1.288-3.39a.508.508 0 01.484-.689l5.543.097zm-32.207-30.32a1.437 1.437 0 011.758-1.605l9.974 2.394a1.945 1.945 0 011.472 1.611l1.647 11.281 11.281-1.648a1.946 1.946 0 011.965.95l5.146 8.874c.51.879-.03 1.996-1.036 2.143l-15.518 2.266 2.266 15.518a1.437 1.437 0 01-1.758 1.606l-9.974-2.394a1.946 1.946 0 01-1.472-1.611l-1.647-11.281-11.281 1.647a1.946 1.946 0 01-1.965-.95l-5.146-8.873c-.51-.88.03-1.996 1.036-2.143l15.518-2.266zm-28.176 22.786a.569.569 0 01.803-.494l3.7 1.672a.77.77 0 01.451.736l-.197 4.508 4.508.198c.314.014.589.218.693.515l1.34 3.832a.569.569 0 01-.561.756l-6.201-.272-.273 6.2a.569.569 0 01-.803.494l-3.7-1.672a.77.77 0 01-.452-.735l.198-4.508-4.507-.198a.77.77 0 01-.694-.516l-1.34-3.832a.569.569 0 01.562-.756l6.2.273zm-99.24 12.012l-.121 1.137 5.791-.536-5.67-.601zm307.904-14.51a.45.45 0 01.625-.407l2.96 1.245a.61.61 0 01.373.572l-.062 3.569 3.57.062c.248.004.47.16.558.393l1.14 3.002a.45.45 0 01-.428.61l-4.909-.086-.085 4.91a.45.45 0 01-.624.407l-2.961-1.244a.61.61 0 01-.373-.573l.062-3.569-3.57-.062a.61.61 0 01-.558-.392l-1.14-3.003a.45.45 0 01.428-.61l4.91.086zm-281.709 7.857h-.547l-.177 4.052 4.507.197c.315.015.59.219.694.516l.053.153.001-4.258c-.41.45-1.06.665-1.696.469l-.13-.046-2.705-1.083zm-14.106-6.228l-.068 1.55.477.052a1.918 1.918 0 011.596 1.239l.048.148 1.938 6.877 4.361.193.168-3.831-2.887.001a2.22 2.22 0 01-1.993-1.241l-.069-.155-1.904-4.761-1.667-.072zM299.457 42.3a1.64 1.64 0 012.162-1.643l11.084 3.747a2.22 2.22 0 011.505 1.982l.71 12.985 12.984-.71a2.221 2.221 0 012.134 1.282l4.931 10.61a1.64 1.64 0 01-1.397 2.328l-17.862.976.975 17.861a1.64 1.64 0 01-2.162 1.643l-11.084-3.747a2.219 2.219 0 01-1.506-1.982l-.709-12.985-12.984.709a2.22 2.22 0 01-2.135-1.281l-4.93-10.61a1.64 1.64 0 011.397-2.329l17.861-.974zM118.2 87.09l-.235 2.208 5.682.603.054-1.24-4.508-.197a.77.77 0 01-.693-.516l-.3-.858zm89.32-41.565c0-.97.98-1.634 1.882-1.274l9.089 3.636a1.858 1.858 0 011.167 1.724v10.88h10.88c.76 0 1.443.463 1.726 1.168l3.635 9.09c.36.9-.303 1.88-1.274 1.88h-14.967v14.968c0 .97-.98 1.634-1.88 1.273l-9.09-3.635a1.858 1.858 0 01-1.167-1.725V72.63H196.64c-.76 0-1.442-.463-1.725-1.168l-3.635-9.089a1.372 1.372 0 011.273-1.881h14.968zm-99.848 17.562l-3.587.333 1.65 17.812a1.64 1.64 0 01-2.098 1.723L92.419 79.63a2.22 2.22 0 01-1.458-1.377l-7.378 1.529.041.025 3.308 2.354a.77.77 0 01.301.81l-1.064 4.384 2.405.585a1.417 1.417 0 011.554-1.598l6.279.666-.018-.207a1.64 1.64 0 011.97-1.755l.128.032 7.096 2.103 1.549-14.578a1.417 1.417 0 011.954-1.158l.117.055.239.127-1.77-8.54zm373.525.278a.745.745 0 011.033-.674l4.9 2.06c.381.16.626.535.619.947l-.103 5.907 5.907.103c.413.007.779.265.926.65l1.888 4.97a.745.745 0 01-.71 1.009l-8.126-.141-.141 8.126a.745.745 0 01-1.033.674l-4.901-2.06a1.009 1.009 0 01-.618-.947l.103-5.908-5.907-.102a1.01 1.01 0 01-.926-.65l-1.888-4.97a.745.745 0 01.71-1.01l8.126.142zM82.833 79.936l-2.59.538 1.112 5.37 1.387-5.708a.567.567 0 01.091-.2zm449.693-5.505a.323.323 0 01.449-.292l2.124.893c.165.07.27.232.267.41l-.044 2.561 2.56.045a.437.437 0 01.402.282l.818 2.154a.323.323 0 01-.307.437l-3.523-.06-.06 3.521a.323.323 0 01-.449.292l-2.124-.892a.437.437 0 01-.268-.411l.045-2.56-2.561-.045a.437.437 0 01-.401-.282l-.819-2.154a.323.323 0 01.308-.437l3.522.06zm-413.96 2.1c.425.403.65.99.586 1.593l-.56 5.274 5.33.235.273-6.201a.563.563 0 01.107-.31c-.326.208-.73.3-1.155.225zM46.84 78.823l-.362 2.782 2.413.315-2.051-3.097zm86.442-2.04h-8.59c-.043.05-.09.1-.138.145a.553.553 0 01.443.01l3.7 1.671a.77.77 0 01.451.736l-.057 1.304a1.66 1.66 0 01.387-.045l3.803-.001v-3.82zM399.354 70.2a.323.323 0 01.448-.292l2.125.893c.164.069.27.231.267.41l-.044 2.561 2.56.045a.438.438 0 01.402.281l.818 2.154a.323.323 0 01-.307.438l-3.523-.061-.061 3.522a.323.323 0 01-.448.292l-2.124-.893a.437.437 0 01-.268-.41l.044-2.561-2.56-.045a.438.438 0 01-.401-.281l-.819-2.154a.323.323 0 01.308-.438l3.522.061zm16.302-28.779a1.22 1.22 0 011.5-1.355l8.46 2.076a1.653 1.653 0 011.243 1.375l1.35 9.589 9.588-1.35a1.652 1.652 0 011.664.815l4.331 7.559a1.22 1.22 0 01-.889 1.815l-13.19 1.857 1.857 13.189a1.221 1.221 0 01-1.5 1.356l-8.46-2.077a1.654 1.654 0 01-1.243-1.375l-1.35-9.588-9.587 1.349a1.654 1.654 0 01-1.665-.815l-4.331-7.559a1.22 1.22 0 01.889-1.815l13.19-1.856zM375.96 57.82a.569.569 0 01.882-.33l3.307 2.355a.77.77 0 01.302.81l-1.064 4.384 4.384 1.065a.77.77 0 01.581.64l.576 4.018a.569.569 0 01-.698.634l-6.032-1.465-1.464 6.032a.569.569 0 01-.883.329l-3.307-2.355a.77.77 0 01-.302-.809l1.065-4.385-4.385-1.065a.77.77 0 01-.58-.639l-.576-4.019a.569.569 0 01.697-.633l6.032 1.465zm199.468 1.397a.45.45 0 01.624-.407l2.96 1.244c.23.097.378.323.374.572l-.062 3.57 3.569.061c.25.005.47.16.559.393l1.14 3.002a.45.45 0 01-.428.61l-4.91-.086-.084 4.91a.45.45 0 01-.625.407l-2.96-1.244a.61.61 0 01-.373-.573l.061-3.569-3.569-.061a.61.61 0 01-.558-.393l-1.141-3.002a.45.45 0 01.428-.61l4.91.085zM44.444 65.029l2.603 1.458a2.22 2.22 0 011.117 2.224l-.484 3.694 1.598-.331.825-6.305-5.659-.74zm82.376-8.267l-4.483.929.87 1.7a1.64 1.64 0 01-1.004 2.322l.116.562h10.964l-.001-2.061-6.462-3.452zm217.564-4.872a.323.323 0 01.448-.292l2.124.893c.165.07.271.232.268.41l-.045 2.561 2.561.045a.438.438 0 01.401.281l.819 2.155a.323.323 0 01-.308.437l-3.522-.061-.061 3.522a.323.323 0 01-.449.292l-2.124-.892a.437.437 0 01-.267-.411l.044-2.56-2.56-.045a.437.437 0 01-.402-.282l-.818-2.154a.323.323 0 01.307-.437l3.523.06zm-161.62 0a.323.323 0 01.448-.292l2.124.893c.165.07.271.232.268.41l-.045 2.561 2.561.045a.437.437 0 01.401.281l.819 2.155a.323.323 0 01-.308.437l-3.522-.061-.061 3.522a.323.323 0 01-.449.292l-2.124-.892a.437.437 0 01-.267-.411l.044-2.56-2.56-.045a.437.437 0 01-.402-.282l-.818-2.154a.323.323 0 01.307-.437l3.523.06zm76.016-32.295a1.22 1.22 0 011.87-.768l7.258 4.818c.563.374.842 1.053.704 1.715l-1.977 9.478 9.479 1.977a1.652 1.652 0 011.29 1.33l1.516 8.579a1.22 1.22 0 01-1.45 1.407l-13.04-2.718-2.718 13.038a1.22 1.22 0 01-1.87.768l-7.258-4.819a1.653 1.653 0 01-.704-1.714l1.976-9.479-9.478-1.976a1.653 1.653 0 01-1.29-1.33l-1.517-8.579a1.22 1.22 0 011.451-1.407l13.04 2.718zm-87.816-1.32a1.22 1.22 0 011.81-.903l7.59 4.275c.589.332.917.988.827 1.658l-1.278 9.598 9.598 1.279c.67.089 1.218.577 1.384 1.232l2.139 8.445a1.22 1.22 0 01-1.345 1.51l-13.202-1.759-1.759 13.203a1.22 1.22 0 01-1.81.902l-7.59-4.275a1.653 1.653 0 01-.827-1.658l1.279-9.598-9.598-1.279a1.653 1.653 0 01-1.384-1.232l-2.14-8.445a1.22 1.22 0 011.345-1.51l13.203 1.759zM87.371 40.248a1.22 1.22 0 01-1.276.779l-6.207-.687.361 2.517a.57.57 0 01-.608.648l-.09-.015-6.03-1.464-1.466 6.031a.563.563 0 01-.168.286l-.357 3.216 1.125.201.893-.083c.08-.066.18-.11.292-.123l.09-.003.664.029 5.57-.516.24-5.441a.57.57 0 01.717-.524l.086.03 3.7 1.672a.77.77 0 01.451.736l-.134 3.059.91-.084c.142-.099.302-.177.478-.229l.133-.033 1.522-.315zm-37.343 10.77l-.005.109 1.96.256.035-.278-1.99-.088zM38.662 35.43l-1.826 13.974 2.855.373-1.234-3.526a.57.57 0 01.472-.753l.09-.003 6.201.272.273-6.2a.57.57 0 01.803-.494l3.7 1.672a.77.77 0 01.451.736l-.198 4.507 2.424.106 1.129-8.636-1.306-.144a1.652 1.652 0 01-.51-.141L38.662 35.43zm328.047-6.654a.569.569 0 01.79-.514l3.742 1.573a.77.77 0 01.471.723l-.078 4.512 4.512.078a.77.77 0 01.707.497l1.441 3.795a.569.569 0 01-.541.77l-6.206-.107-.108 6.206a.569.569 0 01-.79.514l-3.742-1.573a.77.77 0 01-.472-.723l.079-4.512-4.512-.078a.771.771 0 01-.707-.497l-1.442-3.795a.569.569 0 01.542-.77l6.206.107zm147.505.706a.45.45 0 01.625-.407l2.96 1.245c.23.096.378.323.373.572l-.062 3.569 3.57.062c.248.004.47.16.558.393l1.14 3.002a.45.45 0 01-.428.61l-4.909-.086-.085 4.91a.45.45 0 01-.624.407l-2.961-1.245a.61.61 0 01-.373-.572l.062-3.569-3.57-.062a.61.61 0 01-.558-.393l-1.14-3.002a.45.45 0 01.428-.61l4.91.086zM212.02 15.082a.745.745 0 011.033-.674l4.901 2.06c.38.16.625.535.618.947l-.103 5.907 5.907.103c.413.007.779.265.926.65l1.888 4.97a.745.745 0 01-.71 1.009l-8.126-.141-.141 8.126a.745.745 0 01-1.033.674l-4.9-2.06a1.008 1.008 0 01-.619-.947l.103-5.908-5.907-.102a1.009 1.009 0 01-.926-.65l-1.888-4.97a.745.745 0 01.71-1.01l8.126.142zm187.347-1.124a.745.745 0 011.033-.674l4.9 2.06c.38.16.626.535.619.947l-.103 5.907 5.907.103c.413.007.779.265.926.65l1.888 4.97a.745.745 0 01-.71 1.009l-8.126-.141-.141 8.126a.745.745 0 01-1.033.674l-4.901-2.06a1.008 1.008 0 01-.618-.947l.103-5.908-5.907-.102a1.009 1.009 0 01-.926-.65l-1.888-4.97a.745.745 0 01.71-1.01l8.126.142zm-80.217 6.503a.323.323 0 01.448-.292l2.124.893c.165.069.271.231.268.41l-.044 2.56 2.56.045a.438.438 0 01.401.282l.819 2.154a.323.323 0 01-.308.438l-3.522-.061-.061 3.522a.323.323 0 01-.448.292l-2.125-.893a.436.436 0 01-.267-.41l.044-2.561-2.56-.045a.438.438 0 01-.402-.282l-.818-2.154a.323.323 0 01.308-.437l3.522.061zm-168.16-4.893a.323.323 0 01.448-.292l2.124.893c.165.07.271.232.268.41l-.044 2.561 2.56.045a.438.438 0 01.401.282l.819 2.154a.323.323 0 01-.308.437l-3.522-.061-.062 3.522a.323.323 0 01-.447.292l-2.125-.892a.437.437 0 01-.267-.411l.044-2.56-2.56-.045a.437.437 0 01-.402-.282l-.818-2.154a.323.323 0 01.307-.437l3.523.06z"/>
        <path id="prefix__l" d="M47.116 17.686c.351 0 .64.261.687.6l.006.093v1.79c0 .351-.26.641-.599.687l-.094.006h-.882v1.357c0 .351-.26.641-.599.687l-.094.006H43.51c-.351 0-.641-.26-.687-.599l-.006-.094-.001-1.357h-.881c-.351 0-.641-.26-.687-.599l-.006-.094v-1.79c0-.35.26-.64.599-.686l.094-.007h5.181zM12.841 5.526c.383 0 .694.31.694.693v4.495c0 .896.725 1.622 1.62 1.622h1.528c.896 0 1.622-.726 1.622-1.622V6.219c0-.383.31-.693.692-.693h2.033c.383 0 .693.31.693.693v4.495c0 .567-.094 1.113-.267 1.622h.946c.846 0 1.54-.648 1.615-1.474l.006-.148V6.219c0-.35.261-.64.599-.686l.094-.007h2.033c.35 0 .64.26.686.599l.006.094v4.495a5.04 5.04 0 01-4.82 5.035l-.22.005h-.861a1.27 1.27 0 01-.917-.392l-.096-.113-.547-.723a5.02 5.02 0 01-3.297 1.227h-1.527a5.033 5.033 0 01-1.622-.266v.349a5.04 5.04 0 01-5.039 5.04H5.76a5.04 5.04 0 01-5.039-5.04V9.624c0-.383.31-.694.693-.694h2.031c.383 0 .694.31.694.694v6.212c0 .896.726 1.622 1.621 1.622h2.736c.896 0 1.622-.726 1.622-1.622V6.219c0-.383.31-.694.693-.694h2.031zm63.412-3.419a5.04 5.04 0 015.035 4.821l.004.219v5.188h6.684c.846 0 1.541-.647 1.616-1.473l.006-.148V6.219c0-.35.26-.64.599-.686l.093-.007h2.034c.35 0 .64.26.686.599l.006.094v4.495a5.04 5.04 0 01-4.821 5.035l-.219.005h-4.904a1.27 1.27 0 01-.917-.392l-.096-.113-.768-1.015.001.828c0 .35-.26.64-.597.685l-.094.006h-10.5v.07a5.04 5.04 0 01-5.039 5.04h-6.338a5.04 5.04 0 01-5.04-5.04v-6.2c0-.383.31-.693.693-.693h2.033c.382 0 .692.31.692.693v6.2c0 .896.726 1.622 1.622 1.622h6.338c.896 0 1.622-.726 1.622-1.622v-.07h-2.421c-.351 0-.641-.26-.687-.599l-.006-.094V13.03c0-.351.26-.641.599-.687l.094-.006h13.612v-5.19c0-.845-.648-1.54-1.475-1.614l-.147-.007h-6.4a.508.508 0 01-.452-.74l.047-.074 1.586-2.1a1.27 1.27 0 01.865-.495l.148-.009h4.206zm-1.34 15.58c.351 0 .641.26.687.598l.006.094v1.79c0 .351-.26.641-.599.687l-.094.006h-2.031c-.351 0-.641-.26-.687-.599l-.006-.094v-1.79c0-.35.26-.64.599-.686l.094-.007h2.031zm15.573 0c.351 0 .641.26.687.598l.006.094v1.79c0 .351-.26.641-.599.687l-.094.006h-5.181c-.35 0-.64-.26-.687-.599l-.006-.094v-1.79c0-.35.26-.64.599-.686l.094-.007h5.181zM40.75 0c.383 0 .693.31.693.692v10.022c0 .567-.094 1.113-.267 1.622h5.281c.846 0 1.54-.648 1.615-1.474l.007-.148V6.219c0-.35.26-.64.598-.686l.094-.007h2.033c.351 0 .64.26.686.599l.007.094v4.495a5.04 5.04 0 01-4.821 5.035l-.219.005h-5.182a1.27 1.27 0 01-.916-.392l-.097-.113-.553-.731a5.02 5.02 0 01-3.306 1.235H29.55a.692.692 0 01-.692-.692v-2.033c0-.382.31-.692.692-.692h6.852c.896 0 1.622-.726 1.622-1.622V.692c0-.382.31-.692.693-.692h2.032zm61.212 2.107a5.04 5.04 0 015.04 5.04v3.567a5.04 5.04 0 01-5.04 5.04h-6.39a.692.692 0 01-.693-.693v-2.033c0-.382.31-.692.692-.692h6.39c.896 0 1.622-.726 1.622-1.622V7.147c0-.896-.726-1.622-1.621-1.622h-6.39a.692.692 0 01-.693-.692V2.8c0-.383.31-.693.692-.693h6.39zM31.164 0a.78.78 0 01.711.46l.04.108 2.491 8.846a.57.57 0 01-.463.718l-.085.006h-2.196a.796.796 0 01-.726-.47l-.04-.11L28.409.729a.574.574 0 01.467-.723L28.96 0h2.203z"/>
        <linearGradient id="prefix__k" x1="50%" x2="50%" y1="0%" y2="100%">
            <stop offset="0%" stop-color="#FFF"/>
            <stop offset="100%" stop-color="#FFF" stop-opacity="0"/>
        </linearGradient>
        <linearGradient id="prefix__n" x1="11.837%" x2="87.66%" y1="17.881%" y2="81.695%">
            <stop offset="0%" stop-color="#EF4242"/>
            <stop offset="100%" stop-color="#D81E3A"/>
        </linearGradient>
        <linearGradient id="prefix__o" x1="21.133%" x2="87.854%" y1="11.049%" y2="82.275%">
            <stop offset="0%" stop-color="#FFF"/>
            <stop offset="100%" stop-color="#EED2DC"/>
        </linearGradient>
        <linearGradient id="prefix__p" x1="67.092%" x2="28.197%" y1="50.753%" y2="50.048%">
            <stop offset="0%" stop-color="#E9394A"/>
            <stop offset="99.89%" stop-color="#E9394A" stop-opacity="0"/>
        </linearGradient>
        <linearGradient id="prefix__q" x1="0%" x2="100%" y1="50%" y2="50%">
            <stop offset="0%" stop-color="#EF4242"/>
            <stop offset="100%" stop-color="#D81E3A"/>
        </linearGradient>
    </defs>
    <g fill="none" fill-rule="evenodd">
        <mask id="prefix__b" fill="#fff">
            <use xlink:href="#prefix__a"/>
        </mask>
        <path stroke="#D2004C" stroke-opacity=".2" d="M309.004-.5H4.996A5.48 5.48 0 001.11 1.109 5.473 5.473 0 00-.5 4.992v418.016c0 1.515.615 2.889 1.61 3.883a5.48 5.48 0 003.886 1.609h304.008a5.48 5.48 0 003.886-1.609 5.473 5.473 0 001.61-3.883V4.992a5.474 5.474 0 00-1.61-3.883A5.48 5.48 0 00309.003-.5z"/>
        <g mask="url(#prefix__b)" opacity=".105">
            <g>
                <g transform="translate(-324) translate(9)">
                    <mask id="prefix__d" fill="#fff">
                        <use xlink:href="#prefix__c"/>
                    </mask>
                    <g mask="url(#prefix__d)">
                        <g transform="translate(-51.004 -23.395)">
                            <mask id="prefix__f" fill="#fff">
                                <use xlink:href="#prefix__e"/>
                            </mask>
                            <use fill="#D2004C" fill-opacity="0" xlink:href="#prefix__e"/>
                            <g mask="url(#prefix__f)">
                                <path fill="#D2004C" d="M0 0H587.712V353.096H0z"/>
                            </g>
                        </g>
                    </g>
                </g>
                <g transform="translate(-324) translate(0 300)">
                    <mask id="prefix__h" fill="#fff">
                        <use xlink:href="#prefix__g"/>
                    </mask>
                    <g mask="url(#prefix__h)">
                        <g transform="translate(-51.004 -23.395)">
                            <mask id="prefix__j" fill="#fff">
                                <use xlink:href="#prefix__i"/>
                            </mask>
                            <use fill="#D2004C" fill-opacity="0" xlink:href="#prefix__i"/>
                            <g mask="url(#prefix__j)">
                                <path fill="#D2004C" d="M0 0H587.712V353.096H0z"/>
                            </g>
                        </g>
                    </g>
                </g>
            </g>
        </g>
        <path fill="url(#prefix__k)" d="M0 0H314V250H0z" mask="url(#prefix__b)"/>
    </g>
</svg>
