<svg width="24" height="24" viewBox="0 0 24 24" fill="none" xmlns="http://www.w3.org/2000/svg">
<path fill-rule="evenodd" clip-rule="evenodd" d="M21.2074 16.7928L14.3738 9.95921C15.0476 7.70422 14.4565 5.21606 12.7411 3.50072C10.6712 1.43085 7.49324 1.01284 4.97492 2.4207C4.39597 2.74435 4.28677 3.53166 4.75578 4.00067L7.79136 7.03625C7.98663 7.23152 7.98663 7.5481 7.79136 7.74336C7.5961 7.93862 7.27952 7.93862 7.08426 7.74336L4.04867 4.70777C3.57967 4.23877 2.79236 4.34797 2.4687 4.92691C1.06085 7.44523 1.47885 10.6232 3.54872 12.6931C5.24434 14.3887 7.69628 14.987 9.93344 14.3473L16.7932 21.207C18.0121 22.426 19.9884 22.426 21.2074 21.207C22.4263 19.9881 22.4263 18.0117 21.2074 16.7928ZM9.82712 12.2722C8.1668 12.94 6.25028 12.5662 4.96294 11.2789C3.87345 10.1894 3.44496 8.65595 3.73021 7.21774L5.67004 9.15757C6.64635 10.1339 8.22927 10.1339 9.20558 9.15757C10.1819 8.18126 10.1819 6.59835 9.20558 5.62204L7.26574 3.6822C8.70395 3.39696 10.2374 3.82544 11.3269 4.91493C12.6295 6.21749 12.9958 8.16336 12.2976 9.83433C12.1412 10.2086 12.2263 10.6402 12.5131 10.927L19.7932 18.207C20.2311 18.6449 20.2311 19.3549 19.7932 19.7928C19.3553 20.2307 18.6453 20.2307 18.2074 19.7928L10.9074 12.4928C10.6241 12.2095 10.1989 12.1226 9.82712 12.2722Z" fill="white"/>
</svg>
