<svg width="24" height="24" viewBox="0 0 24 24" fill="none" xmlns="http://www.w3.org/2000/svg">
<path d="M9 4H7C6.87278 4 6.74673 4.02428 6.62861 4.07152L1.62861 6.07152C1.37629 6.17245 1.17591 6.37172 1.07359 6.62348C0.971269 6.87524 0.975817 7.1578 1.08619 7.40614L3.08619 11.9061C3.29534 12.3767 3.82768 12.6115 4.31623 12.4487L6 11.8874V20C6 20.5523 6.44772 21 7 21H17C17.5523 21 18 20.5523 18 20V11.8874L19.6838 12.4487C20.1723 12.6115 20.7047 12.3767 20.9138 11.9061L22.9138 7.40614C23.0242 7.1578 23.0287 6.87524 22.9264 6.62348C22.8241 6.37172 22.6237 6.17245 22.3714 6.07152L17.3714 4.07152C17.2533 4.02428 17.1265 4 16.9993 4H15C14.4477 4 14 4.44772 14 5C14 5.53693 13.8199 6.04117 13.5026 6.39814C13.2016 6.7367 12.7286 7 12 7C11.2714 7 10.7984 6.7367 10.4974 6.39814C10.1801 6.04117 10 5.53693 10 5C10 4.73478 9.89464 4.48043 9.70711 4.29289C9.51957 4.10536 9.26522 4 9 4Z" fill="white"/>
</svg>
