<svg width="24" height="24" viewBox="0 0 24 24" fill="none" xmlns="http://www.w3.org/2000/svg">
<path fill-rule="evenodd" clip-rule="evenodd" d="M4.31652 12.4487L6.00029 11.8874V20C6.00029 20.5523 6.44801 21 7.00029 21H17.0003C17.5526 21 18.0003 20.5523 18.0003 20V11.8874L19.6841 12.4487C20.1726 12.6115 20.705 12.3767 20.9141 11.9061L22.9141 7.40614C23.1444 6.88794 22.8982 6.28213 22.3717 6.07152L17.3717 4.07152C17.2536 4.02428 17.1275 4 17.0003 4H15.0003C14.4875 4 14.0648 4.38604 14.007 4.88338L13.9957 5.15612C13.9313 6.23439 13.1964 7 12.0003 7C10.7472 7 10.0003 6.15973 10.0003 5C10.0003 4.44772 9.55258 4 9.00029 4H7.00029C6.87308 4 6.74702 4.02428 6.6289 4.07152L1.6289 6.07152C1.10239 6.28213 0.856172 6.88794 1.08648 7.40614L3.08648 11.9061C3.29563 12.3767 3.82797 12.6115 4.31652 12.4487ZM3.33586 7.54281L7.19288 6H8.11319L8.16215 6.19014C8.62335 7.82102 10.0386 9 12.0003 9C14.0374 9 15.4853 7.72859 15.8874 6H16.8077L20.6647 7.54281L19.4552 10.2642L17.3165 9.55132C16.669 9.33547 16.0003 9.81744 16.0003 10.5V19H8.00029V10.5C8.00029 9.81744 7.3316 9.33547 6.68407 9.55132L4.54537 10.2642L3.33586 7.54281Z" fill="white"/>
</svg>
