<svg xmlns="http://www.w3.org/2000/svg" width="70" height="70" viewBox="0 0 70 70">
    <g fill="none" fill-rule="nonzero">
        <path fill="#F9F9F9" d="M51.582 31.033c-10.392-5.476-8.634-5.476-12.423-14.99-.192-.483.038-.974.073-1.458l-26.107-.002a1.458 1.458 0 0 0-1.432 1.727l4.375 23.333c.129.69.73 1.19 1.432 1.19h37.323a7.292 7.292 0 0 0 7.236-6.387l.755-7.134c-3.247 2.415-8.409 5.21-11.232 3.721z"/>
        <g transform="translate(0 5.742)">
            <circle cx="53.958" cy="56.966" r="7.292" fill="#F9F9F9"/>
            <circle cx="24.792" cy="56.966" r="7.292" fill="#F9F9F9"/>
            <path fill="#455A64" d="M59.792 46.758H26.13a10.235 10.235 0 0 1-10.01-8.205L9.012 3.008H1.458a1.458 1.458 0 0 1 0-2.917h8.75c.694 0 1.29.488 1.43 1.167l7.344 36.72a7.312 7.312 0 0 0 7.148 5.863h33.662a1.458 1.458 0 0 1 0 2.917z"/>
        </g>
        <circle cx="53.958" cy="16.042" r="16.042" fill="#55C6D9"/>
        <g fill="#FAFAFA">
            <path d="M59.792 17.5H48.125a1.458 1.458 0 0 1 0-2.917h11.667a1.458 1.458 0 0 1 0 2.917z"/>
            <path d="M53.958 23.333a1.458 1.458 0 0 1-1.458-1.458V10.208a1.458 1.458 0 0 1 2.917 0v11.667c0 .805-.653 1.458-1.459 1.458z"/>
        </g>
        <path fill="#434A54" d="M53.958 70a7.292 7.292 0 1 1 0-14.583 7.292 7.292 0 0 1 0 14.583zm0-11.667a4.375 4.375 0 1 0 0 8.75 4.375 4.375 0 0 0 0-8.75zM24.792 70a7.292 7.292 0 1 1 0-14.583 7.292 7.292 0 0 1 0 14.583zm0-11.667a4.375 4.375 0 1 0 0 8.75 4.375 4.375 0 0 0 0-8.75zM59.792 52.5H26.13a10.235 10.235 0 0 1-10.01-8.205L9.012 8.75H1.458a1.458 1.458 0 0 1 0-2.917h8.75c.694 0 1.29.488 1.43 1.167l7.344 36.72a7.312 7.312 0 0 0 7.148 5.863h33.662a1.458 1.458 0 0 1 0 2.917z"/>
        <path fill="#434A54" d="M57.557 40.833H17.5a1.458 1.458 0 0 1 0-2.916h40.057c2.208 0 4.07-8.479 4.343-10.669a1.458 1.458 0 1 1 2.894.362c-.456 3.65-3.559 13.224-7.236 13.223zM39.01 17.5H13.125a1.458 1.458 0 0 1 0-2.917H39.01a1.458 1.458 0 0 1 0 2.917z"/>
        <path fill="#434A54" d="M53.958 32.083c-8.86 0-16.041-7.182-16.041-16.041C37.917 7.182 45.099 0 53.958 0 62.818 0 70 7.182 70 16.042c-.01 8.855-7.186 16.032-16.042 16.041zm0-29.166c-7.248 0-13.125 5.876-13.125 13.125 0 7.248 5.877 13.125 13.125 13.125 7.25 0 13.125-5.877 13.125-13.125 0-7.25-5.876-13.125-13.125-13.125zM35 31.724a1.698 1.698 0 0 1 .133-.658 1.702 1.702 0 0 1 .372-.56 1.761 1.761 0 0 1 .56-.375 1.743 1.743 0 0 1 .659-.131 1.695 1.695 0 0 1 .659.131 1.708 1.708 0 0 1 .932.933 1.7 1.7 0 0 1 0 1.319 1.713 1.713 0 0 1-1.255 1.03 1.698 1.698 0 0 1-1.293-.256 1.65 1.65 0 0 1-.476-.476 1.702 1.702 0 0 1-.257-.62 1.698 1.698 0 0 1-.034-.337zM14 31.724c0-.952.772-1.724 1.724-1.724H29.81a1.724 1.724 0 0 1 0 3.448H15.724A1.724 1.724 0 0 1 14 31.724z"/>
    </g>
</svg>
