<svg width="24" height="24" viewBox="0 0 24 24" fill="none" xmlns="http://www.w3.org/2000/svg">
<path d="M7 3C5.52161 3 4 4.03094 4 5.66667V7.52746C4.16417 7.50932 4.331 7.5 4.5 7.5C6.98528 7.5 9 9.51472 9 12V13H15V12C15 9.51472 17.0147 7.5 19.5 7.5C19.669 7.5 19.8358 7.50932 20 7.52746V5.66667C20 4.03094 18.4784 3 17 3H7Z" fill="white"/>
<path d="M8 12C8 10.067 6.433 8.5 4.5 8.5C2.567 8.5 1 10.067 1 12C1 13.3962 1.81753 14.6015 3 15.1632V17.5C3 18.6046 3.89543 19.5 5 19.5V21H7V19.5H17V21H19V19.5C20.1046 19.5 21 18.6046 21 17.5V15.1632C22.1825 14.6015 23 13.3962 23 12C23 10.067 21.433 8.5 19.5 8.5C17.567 8.5 16 10.067 16 12V14H8V12Z" fill="white"/>
</svg>
