<svg width="24" height="24" viewBox="0 0 24 24" fill="none" xmlns="http://www.w3.org/2000/svg">
<path fill-rule="evenodd" clip-rule="evenodd" d="M7 3H17C18.5606 3 19.8975 4.0659 19.9944 5.49964L20 5.66667L20.0009 8.53558C21.6966 8.7786 23 10.2371 23 12C23 13.3958 22.183 14.6007 21.001 15.1627L21 18C21 19.1046 20.1046 20 19 20V21H17V20H7V21H5V20C3.89543 20 3 19.1046 3 18L2.99997 15.1632C1.81751 14.6014 1 13.3962 1 12C1 10.2367 2.30388 8.77803 4.00005 8.53544L4 5.66667C4 4.20566 5.27908 3.08565 6.82098 3.00469L7 3ZM8 14H16V12L16.0052 11.808C16.0762 10.4939 16.8721 9.37265 18 8.83683L18 5.66667C18 5.36782 17.6494 5.05264 17.1326 5.00592L17 5H7C6.45677 5 6.06435 5.29219 6.0072 5.59178L6 5.66667L6.00104 8.83731C7.18295 9.39925 8 10.6042 8 12V14ZM3 12C3 11.1716 3.67157 10.5 4.5 10.5C5.32843 10.5 6 11.1716 6 12V15C6 15.5523 6.44772 16 7 16H17C17.5523 16 18 15.5523 18 15V12L18.0069 11.8555C18.0796 11.0949 18.7203 10.5 19.5 10.5C20.3284 10.5 21 11.1716 21 12L20.9931 12.1445C20.9204 12.9051 20.2797 13.5 19.5 13.5H19V18H5V13.5H4.5C3.67157 13.5 3 12.8284 3 12Z" fill="white"/>
</svg>
