<svg width="24" height="24" viewBox="0 0 24 24" fill="none" xmlns="http://www.w3.org/2000/svg">
<path fill-rule="evenodd" clip-rule="evenodd" d="M12 5.19721L13.168 3.44528C13.4743 2.98576 14.0952 2.86158 14.5547 3.16793C15.0142 3.47429 15.1384 4.09516 14.8321 4.55468L13.2019 6.99998L20.8321 18.4453C20.8543 18.4786 20.8742 18.5128 20.8919 18.5476C21.5197 18.6956 22.1473 18.8592 22.7747 19.0385C22.8411 19.0574 22.904 19.0827 22.9629 19.1134C23.3755 19.3282 23.5943 19.81 23.4615 20.2747C23.4426 20.3411 23.4173 20.404 23.3866 20.4629C23.1718 20.8754 22.6899 21.0943 22.2253 20.9615C18.8138 19.9868 15.4062 19.5 12 19.5C8.59387 19.5 5.18626 19.9868 1.77473 20.9615C1.74154 20.971 1.70827 20.9787 1.67501 20.9846C1.17608 21.0739 0.680731 20.7726 0.538489 20.2747C0.512261 20.1829 0.499756 20.0904 0.499756 19.9995C0.499789 19.8933 0.516885 19.7888 0.549103 19.6902C0.64882 19.3851 0.893395 19.1333 1.22529 19.0385C1.85278 18.8592 2.48037 18.6956 3.10808 18.5476C3.1258 18.5128 3.14575 18.4786 3.16796 18.4453L10.7982 6.99998L9.16796 4.55468C8.86161 4.09516 8.98578 3.47429 9.44531 3.16793C9.90484 2.86158 10.5257 2.98576 10.8321 3.44528L12 5.19721ZM15.4394 17.6567C14.2932 17.5522 13.1467 17.5 12 17.5C10.8533 17.5 9.70683 17.5522 8.56055 17.6567L12 12.5L15.4394 17.6567Z" fill="white"/>
</svg>
