<svg width="24" height="24" viewBox="0 0 24 24" fill="none" xmlns="http://www.w3.org/2000/svg">
<path fill-rule="evenodd" clip-rule="evenodd" d="M12 5.19724L13.168 3.44531C13.4743 2.98579 14.0952 2.86161 14.5547 3.16796C15.0142 3.47432 15.1384 4.09519 14.8321 4.55471L13.2019 7.00001L20.8321 18.4453C20.8543 18.4786 20.8742 18.5128 20.8919 18.5476C21.5197 18.6956 22.1473 18.8592 22.7747 19.0385C23.3058 19.1902 23.6133 19.7437 23.4615 20.2747C23.3098 20.8058 22.7563 21.1133 22.2253 20.9615C18.8138 19.9868 15.4062 19.5 12 19.5C8.59387 19.5 5.18626 19.9868 1.77473 20.9615C1.2437 21.1133 0.690214 20.8058 0.538489 20.2747C0.386765 19.7437 0.694257 19.1902 1.22529 19.0385C1.85278 18.8592 2.48037 18.6956 3.10808 18.5476C3.1258 18.5128 3.14575 18.4786 3.16796 18.4453L10.7982 7.00001L9.16796 4.55471C8.86161 4.09519 8.98578 3.47432 9.44531 3.16796C9.90484 2.86161 10.5257 2.98579 10.8321 3.44531L12 5.19724ZM5.87 17.9978C6.76669 17.8522 7.66356 17.7384 8.56057 17.6567C8.58404 17.5927 8.61444 17.5301 8.65201 17.47L11.152 13.47C11.5437 12.8433 12.4563 12.8433 12.848 13.47L15.348 17.47C15.3856 17.5301 15.416 17.5927 15.4395 17.6567C16.3365 17.7384 17.2333 17.8522 18.13 17.9978L12 8.80279L5.87 17.9978ZM13.0168 17.5137L12 15.8868L10.9832 17.5137C11.3221 17.5046 11.6611 17.5 12 17.5C12.339 17.5 12.6779 17.5046 13.0168 17.5137Z" fill="white"/>
</svg>
