<svg width="24" height="24" viewBox="0 0 24 24" fill="none" xmlns="http://www.w3.org/2000/svg">
<path fill-rule="evenodd" clip-rule="evenodd" d="M1.29289 7.20711L6.58579 12.5L3.3053 15.7805C3.23944 15.8439 3.18185 15.9169 3.13488 15.9979C3.0878 16.079 3.05304 16.1652 3.03061 16.2538L1.53524 21.7369C1.33165 22.4834 2.01662 23.1684 2.76312 22.9648L8.24614 21.4694C8.33483 21.447 8.42104 21.4122 8.50205 21.3651C8.58311 21.3182 8.65604 21.2606 8.71951 21.1947L12 17.9142L17.2929 23.2071C17.6834 23.5976 18.3166 23.5976 18.7071 23.2071L23.2071 18.7071C23.5976 18.3166 23.5976 17.6834 23.2071 17.2929L17.9142 12L21.7929 8.12132C22.9645 6.94975 22.9645 5.05025 21.7929 3.87868L20.6213 2.70711C19.4497 1.53553 17.5503 1.53553 16.3787 2.70711L12.5 6.58579L7.20711 1.29289C6.81658 0.902369 6.18342 0.902369 5.79289 1.29289L1.29289 5.79289C0.902369 6.18342 0.902369 6.81658 1.29289 7.20711ZM6.29289 6.79289L5 8.08579L3.41421 6.5L6.5 3.41421L11.0858 8L8 11.0858L6.41421 9.5L7.70711 8.20711C8.09763 7.81658 8.09763 7.18342 7.70711 6.79289C7.31658 6.40237 6.68342 6.40237 6.29289 6.79289ZM6.07442 19.9886L4.51137 18.4256L3.92522 20.5748L6.07442 19.9886ZM15.5 6.41421L18.0858 9L8 19.0858L5.41421 16.5L15.5 6.41421ZM19.5 7.58579L16.9142 5L17.7929 4.12132C18.1834 3.7308 18.8166 3.7308 19.2071 4.12132L20.3787 5.29289C20.7692 5.68342 20.7692 6.31658 20.3787 6.70711L19.5 7.58579ZM15 18.0858L13.4142 16.5L16.5 13.4142L21.0858 18L18 21.0858L16.4142 19.5L17.7071 18.2071C18.0976 17.8166 18.0976 17.1834 17.7071 16.7929C17.3166 16.4024 16.6834 16.4024 16.2929 16.7929L15 18.0858Z" fill="white"/>
</svg>
