<svg width="24" height="24" viewBox="0 0 24 24" fill="none" xmlns="http://www.w3.org/2000/svg">
<path fill-rule="evenodd" clip-rule="evenodd" d="M5.79289 1.29289C6.18342 0.902369 6.81658 0.902369 7.20711 1.29289L12.5 6.58579L14.3358 4.74999L19.75 10.1642L17.9142 12L23.2071 17.2929C23.3946 17.4804 23.5 17.7348 23.5 18C23.5 18.2652 23.3946 18.5196 23.2071 18.7071L18.7071 23.2071C18.3166 23.5976 17.6834 23.5976 17.2929 23.2071L12 17.9142L8.7071 21.2071C8.58404 21.3302 8.43101 21.419 8.26311 21.4648L2.76311 22.9648C2.4169 23.0592 2.04664 22.9609 1.79289 22.7071C1.53914 22.4534 1.44081 22.0831 1.53523 21.7369L3.03523 16.2369C3.08102 16.069 3.16983 15.9159 3.29289 15.7929L5.79289 13.2929L5.79644 13.2894L6.58579 12.5L1.29289 7.20711C0.902369 6.81658 0.902369 6.18342 1.29289 5.79289L5.79289 1.29289ZM8.00001 11.0858L6.41421 9.5L7.70711 8.20711C8.09763 7.81658 8.09763 7.18342 7.70711 6.79289C7.31658 6.40237 6.68342 6.40237 6.29289 6.79289L5 8.08579L3.41421 6.5L6.5 3.41421L11.0858 8.00001L8.00001 11.0858ZM16.4142 19.5L18 21.0858L21.0858 18L16.5 13.4142L13.4142 16.5L15 18.0858L16.2929 16.7929C16.6834 16.4024 17.3166 16.4024 17.7071 16.7929C18.0976 17.1834 18.0976 17.8166 17.7071 18.2071L16.4142 19.5ZM4.85879 17.1517L3.92521 20.5748L7.34832 19.6412L4.85879 17.1517Z" fill="white"/>
<path d="M21.1642 8.74999L21.7929 8.12132C22.9645 6.94975 22.9645 5.05025 21.7929 3.87868L20.6213 2.70711C19.4498 1.53553 17.5503 1.53553 16.3787 2.70711L15.75 3.33578L21.1642 8.74999Z" fill="white"/>
</svg>
