<?xml version="1.0" encoding="UTF-8"?>
<svg width="269px" height="49px" viewBox="0 0 269 49" version="1.1" xmlns="http://www.w3.org/2000/svg" xmlns:xlink="http://www.w3.org/1999/xlink">
    <!-- Generator: Sketch 61.2 (89653) - https://sketch.com -->
    <title>AmazingFMCG-Desktop</title>
    <desc>Created with Sketch.</desc>
    <defs>
        <path d="M210.006274,14.65 C210.400926,15.02125 210.779426,15.380125 211.141074,15.72525 C211.531329,16.0984931 211.91665,16.4766496 212.29694,16.859625 C211.920207,17.2130165 211.548459,17.5714672 211.181803,17.934875 C210.79785,18.3147098 210.405684,18.6865023 210.005572,19.05 L207.775297,16.859625 C208.512033,16.1159679 209.255494,15.3793909 210.006274,14.65 Z M205.483929,14.65 C205.879283,15.02125 206.257784,15.380125 206.619431,15.72525 C207.009686,16.0984927 207.395007,16.4766492 207.775297,16.859625 C207.398564,17.2130165 207.026817,17.5714672 206.66016,17.934875 C206.276207,18.3147098 205.884041,18.6865023 205.483929,19.05 L203.253654,16.859625 C203.989687,16.1159672 204.733148,15.3793902 205.483929,14.65 Z M214.527215,14.65 C214.922569,15.02125 215.301069,15.380125 215.662716,15.72525 C216.052972,16.0984929 216.438293,16.4766494 216.818583,16.859625 C216.44185,17.2130165 216.070102,17.5714672 215.703446,17.934875 C215.319492,18.3147095 214.927326,18.686502 214.527215,19.05 L212.29694,16.859625 C213.032973,16.1159672 213.776434,15.3793902 214.527215,14.65 Z M160.751917,21.25 C161.147271,21.62125 161.525772,21.980125 161.887419,22.32525 C162.277675,22.698493 162.662996,23.0766494 163.043286,23.459625 C162.666553,23.8130165 162.294805,24.1714672 161.928148,24.534875 C161.544195,24.9147098 161.15203,25.2865023 160.751917,25.65 L158.521643,23.459625 C159.257676,22.7159674 160.001137,21.9793903 160.751917,21.25 Z M156.230275,21.25 C156.625629,21.62125 157.004129,21.980125 157.365776,22.32525 C157.756032,22.698493 158.141353,23.0766494 158.521643,23.459625 C158.14491,23.8130165 157.773162,24.1714672 157.406506,24.534875 C157.022552,24.9147098 156.630387,25.2865023 156.230275,25.65 L154,23.459625 C154.736033,22.7159674 155.479494,21.9793903 156.230275,21.25 Z M179.484658,13 C179.880012,13.37125 180.258513,13.730125 180.62016,14.07525 C181.010415,14.4484929 181.395736,14.8266494 181.776026,15.209625 C181.399293,15.5630165 181.027546,15.9214672 180.660889,16.284875 C180.276936,16.6647095 179.88477,17.036502 179.484658,17.4 L177.254384,15.209625 C177.990417,14.4659672 178.733877,13.7293902 179.484658,13 Z M171.816334,28.554 C171.326555,28.3212278 170.876112,28.0163334 170.480697,27.6499375 C170.083308,28.009916 169.635448,28.3124911 169.150678,28.5485 C168.677377,28.77675 167.772908,28.9108125 166.437271,28.95 L154,28.95 L154,26.6695625 L166.437271,26.6695625 C167.465332,26.6379375 168.080484,26.57125 168.282725,26.4688125 C168.484967,26.3656875 168.663332,26.234375 168.816418,26.0728125 C168.970908,25.91125 169.092393,25.7180625 169.181576,25.4939375 C169.270057,25.269125 169.314999,25.0195625 169.314999,24.7431875 L169.314999,20.348 L171.634457,20.348 L171.634457,24.7431875 C171.634457,25.018875 171.680804,25.269125 171.7742,25.4939375 C171.938059,25.9159376 172.256122,26.2633445 172.666731,26.4688125 C172.868973,26.57125 173.078939,26.6379375 173.298034,26.6695625 L173.298034,26.68125 L175.507944,26.68125 C175.379141,26.3478595 175.273565,26.0063061 175.191941,25.6589375 C175.122943,25.370376 175.086444,25.0752822 175.083096,24.7789375 L175.083096,22.54525 C175.083096,21.9705 175.196155,21.4308125 175.422974,20.926875 C175.642611,20.4327403 175.955684,19.9837103 176.345701,19.6034375 C176.738846,19.2220562 177.202316,18.9171461 177.711534,18.704875 C178.239033,18.483521 178.807531,18.371176 179.381431,18.374875 C179.972706,18.374875 180.52887,18.484875 181.051328,18.704875 C181.573083,18.9255625 182.028828,19.2253125 182.41716,19.6034375 C182.806194,19.9815625 183.11377,20.42225 183.339887,20.926875 C183.567987,21.4370104 183.684022,21.9883873 183.680467,22.54525 L183.680467,24.7789375 C183.680467,25.0470625 183.641845,25.3399375 183.5646,25.6589375 C183.487355,25.9779375 183.380616,26.3189375 183.24298,26.68125 L195.518618,26.68125 C195.858497,26.68125 196.156241,26.63175 196.41115,26.5334375 C196.666058,26.435125 196.87462,26.303125 197.036132,26.1374375 C197.198347,25.9724375 197.319832,25.7854375 197.40129,25.5764375 C197.482047,25.3674375 197.522073,25.1570625 197.522073,24.9439375 C197.522073,24.7156875 197.47994,24.4929375 197.39497,24.2770625 C197.21772,23.8220794 196.854473,23.4602201 196.392892,23.2788125 C196.142196,23.1756875 195.850772,23.1248125 195.518618,23.1248125 L188.827795,23.1248125 C188.495641,23.1399375 188.181746,23.1110625 187.88681,23.0354375 C187.591874,22.9611875 187.33205,22.8429375 187.109444,22.681375 C186.891202,22.5246531 186.710905,22.3227862 186.581369,22.090125 C186.447637,21.8408554 186.380709,21.5624355 186.386852,21.2809375 L186.386852,21.1393125 C186.386852,21.0843125 186.391065,21.0293125 186.399492,20.9743125 C186.427657,20.7449581 186.486688,20.520259 186.575049,20.3060625 C186.743201,19.9067578 186.974749,19.5359766 187.261125,19.2074375 C187.407189,19.0383125 187.560976,18.863 187.722489,18.6815 C187.764183,18.6273556 187.804687,18.572343 187.843974,18.5165 L189.592521,16.57775 C190.175369,15.9321875 190.758218,15.2825 191.341067,14.6286875 C191.665496,14.9036875 191.960432,15.154625 192.22798,15.37875 C192.494827,15.6035625 192.78274,15.8414375 193.090316,16.09375 L188.852373,20.844375 L195.567072,20.844375 C196.182223,20.844375 196.753837,20.9523125 197.279103,21.168875 C197.805773,21.3854375 198.25871,21.674875 198.639317,22.0371875 C199.020053,22.3997811 199.32531,22.8312542 199.538169,23.3076875 C199.756561,23.792375 199.866109,24.2976875 199.866109,24.826375 C199.866109,25.282875 199.711619,25.901625 199.404745,26.68125 L201.000909,26.68125 C201.219301,26.649625 201.422245,26.558875 201.624487,26.4564375 C201.826728,26.354 202.005094,26.2226875 202.158179,26.061125 C202.312669,25.8995625 202.434155,25.706375 202.523338,25.4815625 C202.611818,25.2574375 202.656761,25.0071875 202.656761,24.7321875 L202.656761,20.335625 L204.976218,20.335625 L204.976218,24.7315 C204.976218,25.0388125 205.032397,25.3145 205.146157,25.5585625 C205.259216,25.802625 205.406684,26.0075 205.588561,26.1731875 C205.77114,26.3381875 205.979701,26.4646875 206.214245,26.5513125 C206.449492,26.6379375 206.688249,26.68125 206.930517,26.68125 C207.17419,26.68125 207.412948,26.6379375 207.64679,26.550625 C207.882036,26.4646875 208.090597,26.338875 208.272474,26.1725 C208.455053,26.0075 208.602521,25.802625 208.716282,25.5585625 C208.829341,25.3145 208.886221,25.0388125 208.886221,24.7315 L208.886221,20.335625 L211.217616,20.335625 L211.217616,24.7315 C211.217616,25.0388125 211.27239,25.3124375 211.381235,25.5530625 C211.583066,26.0080932 211.964231,26.3639074 212.438088,26.539625 C212.668418,26.62625 212.905069,26.6736875 213.14804,26.68125 C213.39101,26.6736875 213.627661,26.62625 213.858694,26.539625 C214.332827,26.3622788 214.7152,26.007224 214.921164,25.5530625 C215.034223,25.3124375 215.091103,25.0388125 215.091103,24.7315 L215.091103,20.335625 L217.410561,20.335625 L217.410561,24.7789375 C217.410561,25.337875 217.295395,25.8638125 217.064362,26.3560625 C216.838669,26.8414919 216.523754,27.2821688 216.135315,27.656125 C215.743474,28.0325015 215.287104,28.3385122 214.787039,28.5601875 C214.278438,28.7882522 213.730514,28.9204946 213.171915,28.95 C212.602447,28.9316576 212.042018,28.8053457 211.521681,28.5780625 C210.979022,28.3454764 210.478594,28.0280653 210.039981,27.63825 C209.569488,28.079625 209.070205,28.398625 208.540023,28.59525 C208.024123,28.7891225 207.482201,28.9086195 206.93122,28.95 C206.374851,28.9374606 205.826287,28.8190741 205.316096,28.6014375 C204.763497,28.3705147 204.257626,28.0445315 203.822459,27.6389375 C203.423687,27.9993938 202.973831,28.3015755 202.486822,28.536125 C202.009307,28.7650625 201.519152,28.9108125 201.000909,28.95 L173.298034,28.95 C172.783278,28.9093572 172.280783,28.7750602 171.816334,28.554 Z M177.59075,25.56475 C177.699596,25.805375 177.845659,26.0075 178.027536,26.1731875 C178.210115,26.3381875 178.417974,26.46675 178.652518,26.5575 C178.880845,26.6465432 179.123163,26.6963161 179.368791,26.704625 L179.357555,26.704625 C179.60825,26.7204375 179.851221,26.690875 180.085765,26.6159375 C180.320309,26.5416875 180.530977,26.4234375 180.71777,26.261875 C180.903158,26.1003125 181.053434,25.893375 181.167195,25.64175 C181.279552,25.3894375 181.336432,25.0896875 181.336432,24.7431875 L181.336432,22.6050625 C181.336432,22.257875 181.280254,21.9588125 181.166493,21.7065 C181.065313,21.4714033 180.914278,21.2600302 180.723387,21.086375 C180.540808,20.9248125 180.33014,20.8045 180.091383,20.726125 C179.859277,20.6483076 179.614716,20.6122064 179.369493,20.6195625 C179.126522,20.635375 178.887765,20.6883125 178.653221,20.7790625 C178.422152,20.8674126 178.210134,20.9975531 178.028238,21.1626875 C177.845659,21.328375 177.699596,21.5311875 177.59075,21.7718125 C177.481203,22.0124375 177.426429,22.2895 177.426429,22.604375 L177.426429,24.7431875 C177.427131,25.0505 177.481203,25.324125 177.59075,25.56475 Z M118.423009,30.5574375 C118.818363,30.9286875 119.196863,31.2875625 119.55851,31.6326875 C119.948766,32.0059304 120.334087,32.3840869 120.714377,32.7670625 C120.337644,33.120454 119.965896,33.4789047 119.59924,33.8423125 C119.215286,34.222147 118.82312,34.5939395 118.423009,34.9574375 L116.192734,32.7670625 C116.928767,32.0234046 117.672228,31.2868276 118.423009,30.5574375 Z M113.900664,30.5574375 C114.29672,30.9286875 114.67522,31.2875625 115.036868,31.6326875 L115.618538,32.1962252 L116.192734,32.7670625 C115.816001,33.120454 115.444254,33.4789047 115.077597,33.8423125 C114.693643,34.222147 114.301478,34.5939395 113.901366,34.9574375 L111.671091,32.7670625 C112.406422,32.0234048 113.149883,31.2868277 113.900664,30.5574375 Z M109.297442,30.5574375 C109.693499,30.9286875 110.071999,31.2875625 110.433646,31.6326875 C110.823902,32.0059304 111.209223,32.3840869 111.589513,32.7670625 C111.21278,33.120454 110.841032,33.4789047 110.474376,33.8423125 C110.090422,34.222147 109.698256,34.5939395 109.298145,34.9574375 L107.06787,32.7670625 C107.803201,32.0234048 108.546662,31.2868277 109.297442,30.5574375 Z M127.271617,20 C127.783915,20 128.270633,20.0830323 128.73035,20.2483871 C129.189926,20.4143654 129.604296,20.6853366 129.940396,21.0396774 C130.287138,21.4009032 130.562827,21.867871 130.766751,22.4405806 C130.969965,23.0132903 131.072326,23.7130323 131.072326,24.5412258 L131.072261,26.537 L133.043327,26.545625 C133.26172,26.514 133.464664,26.42325 133.666905,26.3208125 C133.869147,26.218375 134.047513,26.0870625 134.200598,25.9255 C134.355088,25.7639375 134.476574,25.57075 134.565756,25.3459375 C134.654237,25.1218125 134.69918,24.8715625 134.69918,24.5965625 L134.69918,20.2 L137.018637,20.2 L137.018637,24.595875 C137.018637,24.9031875 137.074815,25.178875 137.188576,25.4229375 C137.301635,25.667 137.449103,25.871875 137.63098,26.0375625 C137.813559,26.2025625 138.02212,26.3290625 138.256664,26.4156875 C138.49191,26.5023125 138.730668,26.545625 138.972936,26.545625 C139.216609,26.545625 139.455367,26.5023125 139.689208,26.415 C139.924455,26.3290625 140.133016,26.20325 140.314893,26.036875 C140.497472,25.871875 140.64494,25.667 140.758701,25.4229375 C140.871759,25.178875 140.92864,24.9031875 140.92864,24.595875 L140.92864,20.2 L143.260035,20.2 L143.260035,24.595875 C143.260035,24.9031875 143.314809,25.1768125 143.423654,25.4174375 C143.625484,25.8724682 144.006649,26.2282824 144.480506,26.404 C144.710837,26.490625 144.947488,26.5380625 145.190458,26.545625 C145.433429,26.5380625 145.67008,26.490625 145.901113,26.404 C146.375246,26.2266538 146.757619,25.871599 146.963583,25.4174375 C147.076642,25.1768125 147.133522,24.9031875 147.133522,24.595875 L147.133522,20.2 L149.452979,20.2 L149.452979,24.6433125 C149.452979,25.20225 149.337814,25.7281875 149.106781,26.2204375 C148.881088,26.7058669 148.566173,27.1465438 148.177734,27.5205 C147.785893,27.8968765 147.329523,28.2028872 146.829457,28.4245625 C146.320857,28.6526272 145.772932,28.7848696 145.214334,28.814375 C144.644865,28.7960326 144.084437,28.6697207 143.5641,28.4424375 C143.021441,28.2098514 142.521013,27.8924403 142.0824,27.502625 C141.611907,27.944 141.112623,28.263 140.582442,28.459625 C140.066542,28.6534975 139.524619,28.7729945 138.973638,28.814375 C138.417269,28.8018356 137.868705,28.6834491 137.358515,28.4658125 C136.805916,28.2348897 136.300045,27.9089065 135.864877,27.5033125 C135.466106,27.8637688 135.01625,28.1659505 134.529241,28.4005 C134.051726,28.6294375 133.561571,28.7751875 133.043327,28.814375 L130.97917,28.8149167 C130.914746,29.1901646 130.81716,29.5597138 130.687171,29.9191613 C130.443885,30.6045903 130.071495,31.2371754 129.590101,31.7827742 C129.10232,32.3270457 128.504999,32.7623419 127.837205,33.0601935 C127.14301,33.376 126.366392,33.5342581 125.506642,33.5342581 L123.222264,33.5342581 L123.087261,31.0716774 L125.393666,31.0716774 C125.96707,31.0709677 126.460894,30.9929032 126.875137,30.8339355 C127.290091,30.6756774 127.633281,30.4613548 127.905416,30.1902581 C128.178631,29.9158577 128.609206,29.2728392 128.639759,28.866194 L127.271617,28.866194 C126.487184,28.866194 125.846279,28.7831608 125.348192,28.617806 C124.850816,28.4524512 124.458599,28.2069029 124.172252,27.88329 C123.885195,27.5596771 123.685534,27.1643867 123.572559,26.697419 C123.459583,26.2304513 123.40274,24.9031613 123.40274,24.3155484 C123.40274,23.7279355 123.485873,23.1743871 123.651428,22.6549032 C123.805956,22.15616 124.055685,21.6920093 124.386835,21.2880645 C124.717563,20.8915575 125.130703,20.571665 125.597591,20.3505806 C126.080046,20.1163871 126.637817,20 127.271617,20 Z M106.684369,20 L106.684174,26.345 L120.436104,26.345625 L120.436104,28.614375 L106.616305,28.614986 C106.487059,29.4605018 106.208442,30.2577981 105.780455,31.006875 C105.369767,31.7256761 104.540464,32.408625 103.776441,32.790875 C103.011013,33.1724375 102.090594,33.186188 100.964923,33.186188 C100.333303,33.1850467 99.7323853,33.186188 99.0581743,33.186188 L99.0581743,30.806875 L100.865607,30.806875 C101.254641,30.806875 101.622709,30.8288755 101.990676,30.741563 C102.346803,30.6600092 102.687101,30.5225657 102.998373,30.334563 C103.302989,30.1485182 103.565408,29.9033022 103.769419,29.614063 C103.980087,29.318438 104.12615,28.9581875 104.206906,28.532625 C104.247636,27.973 104.282045,27.59 104.310134,26.983625 C104.338223,26.37725 104.352267,25.7426875 104.352267,25.0813125 L104.352267,24.5849375 C104.352267,24.395875 104.348756,24.22675 104.34033,24.076875 L104.34033,20 L106.684369,20 Z M84.6577058,20 L84.6577058,27.9853866 C84.5878518,29.067266 84.2865473,30.0744288 83.753792,31.006875 C83.3431034,31.7256761 82.5138011,32.408625 81.7497776,32.790875 C80.9843497,33.1724375 80.0639305,33.186188 78.9382599,33.186188 C78.3066395,33.1850467 77.7057221,33.186188 77.0315111,33.186188 L77.0315111,30.806875 L78.8389439,30.806875 C79.2279779,30.806875 79.5960459,30.8288755 79.9640131,30.741563 C80.32014,30.6600092 80.6604382,30.5225657 80.9717096,30.334563 C81.2763257,30.1485182 81.5387444,29.9033022 81.7427554,29.614063 C81.9534236,29.318438 82.0994869,28.9581875 82.1802431,28.532625 C82.2209723,27.973 82.2553814,27.59 82.2834705,26.983625 C82.3115596,26.37725 82.3256042,25.7426875 82.3256042,25.0813125 L82.3256042,24.5849375 C82.3256042,24.395875 82.322093,24.22675 82.3136663,24.076875 L82.3136663,20 L84.6577058,20 Z M71.5178785,13 C71.8409031,13.275 72.1372432,13.5259375 72.4040896,13.7500625 C72.670936,13.974875 72.9588493,14.21275 73.266425,14.4650625 L69.028482,19.2156875 L75.7431813,19.2156875 C76.3590349,19.2156875 76.9299458,19.323625 77.4559142,19.5401875 C77.9818826,19.75675 78.4355216,20.0461875 78.8154266,20.4085 C79.1961617,20.7710936 79.5014196,21.2025667 79.7142778,21.679 C79.9326706,22.1636875 80.0422181,22.669 80.0422181,23.1976875 C80.0422181,23.6541875 79.887728,24.2729375 79.5808546,25.0525625 C78.8242338,26.5650625 77.758208,27.3213125 76.3827772,27.3213125 L64.5985465,27.3213125 L64.5985465,27.333 C64.0837907,27.2923572 63.5812959,27.1580602 63.1168465,26.937 C62.627114,26.7044381 62.1766741,26.3997774 61.7812098,26.033625 C61.383991,26.3933068 60.9363726,26.6956467 60.4518932,26.9315 C60.0094899,27.1445333 59.4496754,27.2297311 58.2910776,27.2720049 L58.0334661,27.2804375 L55.3474904,27.2804375 C55.0153368,27.2804375 54.7239124,27.3313125 54.4732172,27.4344375 C54.0116357,27.6158451 53.6483885,27.9777044 53.4711386,28.4326875 C53.386169,28.6485625 53.3433332,28.8713125 53.3433332,29.0995625 C53.3433332,29.3126875 53.3840623,29.5230625 53.4648185,29.7320625 C53.5462769,29.9410625 53.6677623,30.1280625 53.8299768,30.2930625 C53.9914891,30.45875 54.2000507,30.59075 54.4549593,30.6890625 C54.6588861,30.7677125 54.890228,30.8151225 55.1486252,30.8309405 L55.3474904,30.836875 L72.4502411,30.836875 L72.4509433,33.105625 L54.6594408,33.105625 C53.2840101,33.105625 52.2179843,32.349375 51.4613635,30.836875 C51.15449,30.05725 51,29.4385 51,28.982 C51,28.4533125 51.1095475,27.948 51.3279402,27.4633125 C51.5407985,26.9868792 51.8460563,26.5554061 52.2267914,26.1928125 C52.6066965,25.8305 53.0603355,25.5410625 53.5863039,25.3245 C54.0371339,25.138875 54.520983,25.0330561 55.0378511,25.0066104 L55.2990367,25 L57.593,25 L57.5938402,25 C58.6226035,24.968375 59.3816985,24.95425 59.58394,24.8518125 C59.7861815,24.7486875 59.9645473,24.617375 60.1183351,24.4558125 C60.2721229,24.29425 60.3936083,24.1010625 60.4827912,23.8769375 C60.5719741,23.652125 60.6162144,23.4025625 60.6162144,23.1261875 L60.6162144,18.731 L62.9356718,18.731 L62.9356718,23.1261875 C62.9356718,23.401875 62.9820189,23.652125 63.0754151,23.8769375 C63.239274,24.2989376 63.5573368,24.6463445 63.9679463,24.8518125 C64.1701878,24.95425 64.380856,25.0209375 64.5992488,25.0525625 L75.6947276,25.0525625 C76.0346058,25.0525625 76.3323502,25.0030625 76.5872588,24.90475 C76.8421674,24.8064375 77.0507289,24.6744375 77.2122413,24.50875 C77.3744558,24.34375 77.4959412,24.15675 77.5773996,23.94775 C77.6581557,23.73875 77.6988849,23.528375 77.6988849,23.31525 C77.6988849,23.087 77.656049,22.86425 77.5710795,22.648375 C77.3938295,22.1933919 77.0305824,21.8315326 76.5690009,21.650125 C76.3183057,21.547 76.0268813,21.496125 75.6947276,21.496125 L69.0039041,21.496125 C68.6724527,21.51125 68.3578548,21.482375 68.0629192,21.40675 C67.7679837,21.3325 67.5081595,21.21425 67.2855534,21.0526875 C67.0673116,20.8959656 66.8870141,20.6940987 66.7574783,20.4614375 C66.6237463,20.2121679 66.5568181,19.933748 66.5629613,19.65225 L66.5629613,19.510625 C66.5629613,19.455625 66.5671747,19.400625 66.5756014,19.345625 C66.6037662,19.1162706 66.6627972,18.8915715 66.7511583,18.677375 C66.9195251,18.2780254 67.1513115,17.9072416 67.4379368,17.57875 C67.5832978,17.409625 67.7370857,17.2343125 67.8993002,17.0528125 C67.9409942,16.9986681 67.9814986,16.9436555 68.0207856,16.8878125 L69.769332,14.9490625 C70.3521809,14.3035 70.9350297,13.6538125 71.5178785,13 Z M89.3630882,13 L89.3630882,24.3951875 C89.3630882,24.670875 89.4094352,24.921125 89.5028314,25.1459375 C89.6666903,25.5679376 89.9847531,25.9153445 90.3953626,26.1208125 C90.5976041,26.22325 90.8075701,26.2899375 91.0266651,26.3215625 L91.0266651,26.33325 L93.236575,26.33325 C93.1077722,25.9998595 93.0021961,25.6583061 92.9205726,25.3109375 C92.8515744,25.022376 92.8150749,24.7272822 92.8117274,24.4309375 L92.8117274,22.19725 C92.8117274,21.6225 92.924786,21.0828125 93.1516055,20.578875 C93.3712425,20.0847403 93.6843152,19.6357103 94.0743324,19.2554375 C94.4674775,18.8740562 94.9309469,18.5691461 95.4401649,18.356875 C95.9676639,18.135521 96.5361627,18.023176 97.1100619,18.026875 C97.7013374,18.026875 98.2575016,18.136875 98.7799589,18.356875 C99.3017139,18.5775625 99.7574595,18.8773125 100.145791,19.2554375 C100.534825,19.6335625 100.842401,20.07425 101.068518,20.578875 C101.296618,21.0890104 101.412653,21.6403873 101.409099,22.19725 L101.409099,24.4309375 C101.409099,24.6990625 101.313346,25.9691138 100.630947,27.0349563 C99.9485471,28.1007987 98.8849725,28.602 97.7040885,28.602 L91.0266651,28.602 C90.1512451,28.602 88.8810186,28.2852273 88.1324609,27.333 C87.3839032,26.3807727 87.0436307,25.3665422 87.0436307,24.3951875 L87.0436307,13 L89.3630882,13 Z M96.9963899,20.3009349 C96.7534192,20.3167474 96.5146619,20.3696849 96.2801179,20.4604349 C96.0490496,20.5487851 95.8370313,20.6789255 95.6551354,20.8440599 C95.4725563,21.0097474 95.326493,21.2125599 95.2176477,21.4531849 C95.1081002,21.6938099 95.0533265,21.9708724 95.0533265,22.2857474 L95.0533265,24.4245599 C95.0540287,24.7318724 95.1081002,25.0054974 95.2176477,25.2461224 C95.326493,25.4867474 95.4725563,25.6888724 95.6544332,25.8545599 C95.8370123,26.0195599 96.0448717,26.1481224 96.2794157,26.2388724 C96.5077423,26.3279156 96.7500599,26.3776886 96.9956877,26.3859974 L96.9844521,26.3859974 C97.2351473,26.4018099 97.478118,26.3722474 97.712662,26.2973099 C97.947206,26.2230599 98.1578742,26.1048099 98.3446667,25.9432474 C98.5300548,25.7816849 98.6803315,25.5747474 98.7940923,25.3231224 C98.9064487,25.0708099 98.9633292,24.7710599 98.9633292,24.4245599 L98.9633292,22.2864349 C98.9633292,21.9392474 98.907151,21.6401849 98.7933901,21.3878724 C98.6922101,21.1527758 98.5411751,20.9414027 98.3502845,20.7677474 C98.1677054,20.6061849 97.9570371,20.4858724 97.7182798,20.4074974 C97.4861744,20.3296801 97.2416128,20.2935788 96.9963899,20.3009349 Z M127.180668,22.3951613 C126.683292,22.3951613 126.298891,22.5456129 126.027466,22.8472258 C125.75604,23.1488387 125.597591,23.7435484 125.597591,24.3155484 C125.597591,24.8428387 125.553886,25.9041159 125.787652,26.1148901 C126.021419,26.326374 126.668371,26.380903 127.361855,26.380903 L128.854695,26.380903 L128.854695,24.5192258 C128.854695,23.7357419 128.707613,23.1857419 128.414161,22.8692258 C128.119999,22.5534194 127.708598,22.3951613 127.180668,22.3951613 Z M189.653614,13.38775 L190.673249,14.274625 L185.306124,20.288875 C185.191881,19.937632 185.158778,19.5665748 185.209217,19.2019375 C185.249946,18.9338125 185.316657,18.68975 185.409351,18.4690625 C185.502748,18.248375 185.615806,18.0414375 185.74923,17.84825 C185.882653,17.65575 186.030823,17.4666875 186.193037,17.2810625 L186.690917,16.708375 L189.653614,13.38775 Z M61.7567652,13.5 C62.1521193,13.87125 62.5306199,14.230125 62.8922671,14.57525 C63.2825226,14.9484929 63.6678435,15.3266494 64.0481335,15.709625 C63.6714006,16.0630165 63.299653,16.4214672 62.9329963,16.784875 C62.5490429,17.1647095 62.1568771,17.536502 61.7567652,17.9 L59.5264907,15.709625 C60.2625238,14.9659671 61.0059843,14.2293901 61.7567652,13.5 Z M57.2344202,13.5 C57.6304765,13.87125 58.0089771,14.230125 58.3706242,14.57525 L58.9522945,15.1387877 L59.5264907,15.709625 C59.1497578,16.0630165 58.7780101,16.4214672 58.4113534,16.784875 C58.0274,17.1647095 57.6352342,17.536502 57.2351224,17.9 L55.0048479,15.709625 C55.7401789,14.9659673 56.4836394,14.2293902 57.2344202,13.5 Z" id="path-1"></path>
    </defs>
    <g id="AmazingFMCG-Desktop" stroke="none" stroke-width="1" fill="none" fill-rule="evenodd">
        <path d="M0.191,0 L0,0 L269,0 L268.809,0 C258.366736,0 248.675602,5.42938315 243.223,14.335 L230.777,34.665 C225.324212,43.5709205 215.63262,49.0005904 205.19,49 L63.81,49 C53.3677357,49 43.6766023,43.5706169 38.224,34.665 L25.778,14.335 C20.3250258,5.42877579 10.6329764,-0.000938488931 0.19,0 L0.191,0 Z" id="Path" fill="#6BB927"></path>
        <mask id="mask-2" fill="white">
            <use xlink:href="#path-1"></use>
        </mask>
        <use id="Shape" fill="#FFFFFF" fill-rule="nonzero" xlink:href="#path-1"></use>
    </g>
</svg>