<svg width="24" height="24" viewBox="0 0 24 24" fill="none" xmlns="http://www.w3.org/2000/svg">
<path d="M4.25557 11.9861C2.47539 10.2059 2.17063 7.50903 3.3413 5.41498L6.37689 8.45057C6.96267 9.03636 7.91242 9.03636 8.49821 8.45057C9.08399 7.86478 9.08399 6.91504 8.49821 6.32925L5.46262 3.29366C7.55667 2.12299 10.2536 2.42775 12.0337 4.20793C13.6591 5.83328 14.0545 8.22281 13.22 10.22L20.5 17.5C21.3284 18.3284 21.3284 19.6716 20.5 20.5C19.6716 21.3284 18.3284 21.3284 17.5 20.5L10.2 13.2C8.21676 13.9978 5.86262 13.5932 4.25557 11.9861Z" fill="white"/>
</svg>
