<svg xmlns="http://www.w3.org/2000/svg" width="561" height="293" viewBox="0 0 561 293">
    <defs>
        <linearGradient id="a" x1="51.389%" x2="46.453%" y1="14.905%" y2="86.83%">
            <stop offset="0%" stop-color="#33568B"/>
            <stop offset="100%" stop-color="#1E3962"/>
        </linearGradient>
        <linearGradient id="b" x1="57.121%" x2="58.272%" y1="20.602%" y2="132.35%">
            <stop offset="0%" stop-color="#33568B"/>
            <stop offset="100%" stop-color="#1E3962"/>
        </linearGradient>
        <linearGradient id="c" x1="50.7%" x2="23.7%" y1="38.903%" y2="102.383%">
            <stop offset="0%" stop-color="#ADCCF9"/>
            <stop offset="100%" stop-color="#88A7D5"/>
        </linearGradient>
        <linearGradient id="d" x1="50%" x2="42.325%" y1="15.046%" y2="62.681%">
            <stop offset="0%" stop-color="#9CBEF0"/>
            <stop offset="100%" stop-color="#88A7D5"/>
        </linearGradient>
        <linearGradient id="e" x1="59.438%" x2="83.197%" y1="18.069%" y2="93.729%">
            <stop offset="0%" stop-color="#9CBEF0"/>
            <stop offset="100%" stop-color="#88A7D5"/>
        </linearGradient>
        <linearGradient id="f" x1="59.898%" x2="22.817%" y1="38.517%" y2="114.994%">
            <stop offset="0%" stop-color="#CCDBF1"/>
            <stop offset="99.938%" stop-color="#ACC3E1"/>
            <stop offset="100%" stop-color="#ACC2E0"/>
        </linearGradient>
        <linearGradient id="g" x1="56.279%" x2="33.586%" y1="38.517%" y2="135.26%">
            <stop offset="0%" stop-color="#CCDBF1"/>
            <stop offset="99.938%" stop-color="#ACC3E1"/>
            <stop offset="100%" stop-color="#ACC2E0"/>
        </linearGradient>
        <linearGradient id="h" x1="62.912%" x2="27.115%" y1="41.733%" y2="63.997%">
            <stop offset="0%" stop-color="#9CBEF0"/>
            <stop offset="100%" stop-color="#88A7D5"/>
        </linearGradient>
        <linearGradient id="i" x1="71.317%" x2="40.178%" y1="36.804%" y2="210.655%">
            <stop offset="0%" stop-color="#9CBEF0"/>
            <stop offset="100%" stop-color="#88A7D5"/>
        </linearGradient>
        <linearGradient id="j" x1="46.753%" x2="19.289%" y1="24.703%" y2="123.103%">
            <stop offset="0%" stop-color="#709BD9"/>
            <stop offset="100%" stop-color="#5077B1"/>
        </linearGradient>
        <linearGradient id="k" x1="47.906%" x2="-2.538%" y1="28.792%" y2="148.083%">
            <stop offset="0%" stop-color="#709BD9"/>
            <stop offset="100%" stop-color="#5077B1"/>
        </linearGradient>
        <linearGradient id="l" x1="50.622%" x2="44.685%" y1="26.945%" y2="28.106%">
            <stop offset="0%" stop-color="#7EA7E3"/>
            <stop offset="100%" stop-color="#6291D8"/>
        </linearGradient>
        <linearGradient id="m" x1="57.464%" x2="68.935%" y1="18.963%" y2="127.708%">
            <stop offset="0%" stop-color="#7EA7E3"/>
            <stop offset="100%" stop-color="#5077B1"/>
        </linearGradient>
        <linearGradient id="n" x1="51.929%" x2="22.1%" y1="38.903%" y2="71.438%">
            <stop offset="0%" stop-color="#9CBEF0"/>
            <stop offset="100%" stop-color="#88A7D5"/>
        </linearGradient>
        <linearGradient id="o" x1="50.692%" x2="11.715%" y1="38.903%" y2="115.458%">
            <stop offset="0%" stop-color="#9CBEF0"/>
            <stop offset="100%" stop-color="#88A7D5"/>
        </linearGradient>
        <linearGradient id="p" x1="51.028%" x2="38.612%" y1="13.479%" y2="50%">
            <stop offset="0%" stop-color="#9CBEEF"/>
            <stop offset="100%" stop-color="#7CA0D3"/>
        </linearGradient>
        <linearGradient id="q" x1="59.789%" x2="62.713%" y1="12.44%" y2="131.058%">
            <stop offset="0%" stop-color="#9CBEEF"/>
            <stop offset="100%" stop-color="#7CA0D3"/>
        </linearGradient>
        <linearGradient id="r" x1="51.445%" x2="14.219%" y1="21.192%" y2="148.083%">
            <stop offset="0%" stop-color="#709BD9"/>
            <stop offset="100%" stop-color="#5077B1"/>
        </linearGradient>
        <linearGradient id="s" x1="43.311%" x2="29.284%" y1="17.335%" y2="28.066%">
            <stop offset="0%" stop-color="#D8D7D7"/>
            <stop offset="100%" stop-color="#C0BFBF"/>
        </linearGradient>
        <linearGradient id="t" x1="94.138%" x2="-46.973%" y1="28.496%" y2="170.665%">
            <stop offset="0%" stop-color="#D8D7D7"/>
            <stop offset="100%" stop-color="#C0BFBF"/>
        </linearGradient>
        <linearGradient id="u" x1="40.733%" x2="67.884%" y1="119.785%" y2="56.467%">
            <stop offset="0%" stop-color="#C12A3C"/>
            <stop offset="100%" stop-color="#EF394E"/>
        </linearGradient>
        <linearGradient id="v" x1="19.197%" x2="55.436%" y1="107.821%" y2="50%">
            <stop offset="0%" stop-color="#C12A3C"/>
            <stop offset="100%" stop-color="#EF394E"/>
        </linearGradient>
    </defs>
    <g fill="none" fill-rule="evenodd">
        <g opacity=".8">
            <path fill="#C3D3EC" d="M61.524 55.743c4.51 7.181 5.36 26.136.298 27.83-2.019.675-6.489-.32-11.134-2.705l4.186 19.664-16.518 1.155 3.826-26.995c-3.432-3.513-5.898-7.94-5.898-13.095 0-14.852 20.73-13.035 25.24-5.854z"/>
            <path fill="#709BD9" d="M28.738 57.18c-.57-.493-.915-1.23-1.217-1.93-.313-.73-.62-1.466-.848-2.232-.455-1.529-.584-3.315.436-4.599.818-1.029 2.117-1.556 3.337-1.736a6.318 6.318 0 0 1 2.461.14c.795.202 1.5.666 2.276.93-.088-1.675.075-3.447.822-4.936.718-1.432 1.963-2.294 3.427-2.602 1.503-.316 3.027-.064 4.437.578.353.161.704.331 1.042.528.282.164.579.365.9.418.36.058.52-.159.732-.434a5.78 5.78 0 0 1 .837-.869c1.346-1.146 3.177-1.706 4.865-1.194.778.236 1.549.675 2.11 1.316.5.57.894 1.505 1.555 1.88.281.16.454-.09.686-.281.349-.288.678-.602 1.032-.883a4.988 4.988 0 0 1 1.637-.886c.871-.267 2.098-.305 2.433.841.125.43.085.903.085 1.346 0 .607-.001 1.215-.011 1.822-.008.462-.027.908-.082 1.364-.03.243-.142.7-.022.934.149.291.728.08.982.072.5-.014 1.008.038 1.484.22.37.141.762.359.942.76.11.246.104.507.079.77-.031.316.04.477.102.79.647-.379 2.919-1.277 3.295-.092.126.394-.064.863-.21 1.214-.255.614-.606 1.184-.967 1.73-.753 1.137-1.678 2.138-2.687 3.008a1.904 1.904 0 0 1 .715 3.142c-.447.466-1.081.607-1.685.621-.22.005-.544-.057-.715-.007-.092.027-.186.114-.314.132-.845.117-1.818-.021-2.661-.152a8.708 8.708 0 0 1-4.17-1.83c-.313-.254-.566-.395-.96-.363-.346.027-.68.146-1.024.18-.913.087-1.769-.304-2.639-.543.028 1.154-.21 2.445-.606 3.514-.324.87-1.115 1.05-1.895 1.178-2.494.413-5.033.325-7.547.504 2.473.382 5.004.434 7.461.915 1.111.217.33 1.013-.1 1.556-.71.896-1.207 1.979-1.526 3.105-1.3-1.474-3.476-2.353-5.307-1.744-2.023.673-3.278 3.57-1.82 5.487.846 1.114 2.259 1.467 3.443 1.888-.831.998-.951 2.395-1.41 3.596-.226.593-.554 1.268-1.135 1.51-.215.089-.473.113-.634.305-.2.238-.233.491-.495.702-1.043.842-2.76.903-3.801-.028-.943-.841-.814-2.286-.144-3.253-1.202-.407-3.375-.886-3.039-2.746-2.543.009-8.98-3.682-5.791-6.93-1.94-.928-3.834-3.393-2.795-5.756.8-1.819 2.89-2.753 4.644-2.97"/>
            <path fill="#C3D3EC" d="M30.308 157.883l25.272 87.39 11.888 65.614h11.93l-11.91-153.004z"/>
            <path fill="#C3D3EC" d="M18.95 157.883c1.763 45.399 1.068 70.16.673 74.285s-2.635 31.749-17.904 80.103h12.41c20.22-46.388 27.279-74.012 29.598-80.103 2.32-6.091 9.169-30.853 19.168-74.285H18.95z"/>
            <path fill="url(#a)" d="M30.214 0c6.573 30.071 17.943 78.072 34.11 144.003h17.45C83.063 76.331 77.58 31.792 68.084 0h-37.87z" transform="translate(-.449 157.883)"/>
            <path fill="url(#b)" d="M19.31 0c1.727 45.399-2.749 90.125-16.613 144.71h18.619C41.573 99.015 56.093 54.51 66.016 0H19.31z" transform="translate(-.449 157.883)"/>
            <g>
                <path fill="#C3D3EC" d="M91.95 149.176l22.007 16.216c5.969 1.617 10.956 3.627 14.96 6.033l.15.143c.878.876 1.687 2.372-1.684 2.19l-1.441-.101c-3.55-.234-6.974-.232-7.463.98-.542 1.343 1.833 2.95.738 4.761-.73 1.208-4.176-1.82-10.34-9.086l-21.793-9.068 4.865-12.068zM21.869 149.792l-14.418-.057-.775 4.492c-4.151 23.907-6.862 37.154-8.132 39.74-.989 2.012-8.304 8.125-13.38 11.618-2.038 1.402-1.194 3.196-.425 3.673C-9 213.133-4.88 208.55.538 206.02c5.936-2.771 5.434 5.054 10.14 2.94l-.437-.951c-1.529-3.267-4.065-8.352-2.922-11.948l.487-1.358c1.4-4.107 6.088-19.078 14.063-44.912z"/>
                <path fill="#ADCCF9" d="M48.424 89.027L54.39 88c22.135 19.188 31.227 56.05 58.36 75.578l-6.53 8.123c-47.07-5.848-58.738-50.811-57.796-82.674z"/>
                <path fill="#CCDBF1" d="M22.417 164.26c20.527.466 36.427.699 47.697.699 2.412 0 3.551-1.13 3.203-2.894-4.024-20.354-16.237-45.36-16.237-74.334l-15.226-2.396c-12.595 20.326-16.95 45.35-19.437 78.925z"/>
                <path fill="#ADCCF9" d="M40.12 99.948c-11.311 7.32-18.822 7.621-22.533.903-5.565-10.077-3.555-15.625 2.393-17.448 5.947-1.824 11.251 1.932 20.727 1.932 6.318 0 6.122 4.871-.586 14.613z"/>
                <path fill="url(#c)" d="M26.921 96.12h47.517C80.571 80.566 76.8 49.535 63.123 3.025l-6.465-.37C45.393 23.04 29.146 62.445 26.92 96.118z" transform="translate(-16.233 82.68)"/>
                <path fill="#ADCCF9" d="M40.703 85.335C11.034 112.567-3.111 148.568-1.731 193.338H9.59c9.837-17.196 21.702-51.864 35.595-104.005l-4.482-3.998z"/>
            </g>
            <g>
                <path fill="#5077B1" d="M174.332 45.998c4.68 7.39 5.55 26.904.291 28.65-2.097.697-6.74-.325-11.563-2.777l4.336 20.242-17.156 1.2 3.991-27.794c-3.563-3.615-6.122-8.172-6.118-13.479.01-15.29 21.54-13.432 26.219-6.042z"/>
                <path fill="#709BD9" d="M153.153 69.037c-2.82-9.378-9.409-15.444-8.77-19.768.426-2.883 1.968-4.765 4.624-5.646 1.006-5.726 5.35-8.436 13.034-8.128 11.525.46 18.836 4.696 16.548 15.302-2.771.194-6.186-.569-10.693 1.462-1.43.645-2.362 2.398-2.796 5.261l-2.09.147c-2.264-3.204-4.35-4.293-6.26-3.269-1.91 1.025-2.208 3.21-.893 6.556l-.48 7.927-2.224.156z"/>
                <path fill="url(#d)" d="M40.787 0l25.98 91.135 18.956 67.172H99.55L79.406 0z" transform="translate(104.974 151.357)"/>
                <path fill="url(#e)" d="M33.839 0c-.601 46.972-2.65 72.592-3.281 76.86-.631 4.267-10.172 31.416-28.622 81.447H16.26c23.488-47.996 36.6-75.145 39.335-81.447C58.329 70.557 66.77 44.937 79.484 0H33.839z" transform="translate(104.974 151.357)"/>
                <g>
                    <path fill="#5077B1" d="M208.161 139.124l20.978 19.054c5.99 2.308 10.925 4.915 14.801 7.822l.136.16c.813.994 1.495 2.627-1.982 2.071l-1.47-.26c-3.64-.624-7.178-.994-7.815.2-.704 1.322 1.574 3.23.248 4.973-.885 1.163-4.117-2.324-9.697-10.46l-21.53-11.682 6.331-11.878zM133.177 144.592l-14.968.464-.994 7.192c-3.254 23.255-5.473 36.195-6.656 38.819-.954 2.114-8.327 8.693-13.47 12.485-2.065 1.522-1.125 3.345-.309 3.81 6.638 3.776 10.75-1.108 16.283-3.917 6.062-3.077 5.824 5.023 10.632 2.67l-.306-.611c-1.677-3.3-4.748-8.71-3.642-12.603l.286-.87c1.064-3.36 5.446-19.172 13.144-47.439z"/>
                    <path fill="url(#f)" d="M67.603 5.107L73.8 4.046c10.668 26.611 29.294 50.791 55.878 72.54l-20.088 24.369-1.582-1.86C82.36 68.71 66.644 37.38 67.603 5.108z" transform="rotate(-2 2283.121 -2562.218)"/>
                    <path fill="#33568B" d="M134.268 159.517l53.529-1.353c-10.327-31.86-17.427-58.34-21.3-79.436l-15.729-1.41c-12.34 21.45-15.129 47.429-16.5 82.199z"/>
                    <path fill="url(#g)" d="M28.66 97.61h49.446c-4.544-42.407-7.028-70.607-7.454-84.6L67.28 1.666 59.562.75C47.84 21.758 30.974 62.908 28.66 97.61z" transform="rotate(-2 2283.121 -2562.218)"/>
                    <path fill="#CCDBF1" d="M150.403 77.33c-24.479 25.674-37.938 61.228-40.377 106.66l26.879-.938c-4.117-38.04 1.981-71.958 18.294-101.755l-4.796-3.967z"/>
                    <path fill="#FFF" fill-opacity=".2" d="M143.408 152.038l17.536-8.897.29 8.274z"/>
                </g>
            </g>
            <g>
                <path fill="#33568B" d="M241.298 81.962c7.885 0 10.753-9.473 15.233-14.672 3.205-3.719 8.675-2.61 10.295-7.817 4.071-13.094-6.826-22.31-21.043-22.31-14.217 0-23.803 8.083-25.873 20.233-2.07 12.15 7.171 24.566 21.388 24.566z"/>
                <path fill="#C3D3EC" d="M262.785 55.95c3.998 7.477 3.523 26.445-1.644 27.782-2.06.533-6.45-.773-10.919-3.475l2.805 19.908h-16.558l5.7-26.662c-3.18-3.744-5.33-8.333-4.971-13.475 1.036-14.816 21.589-11.557 25.587-4.079z"/>
                <path fill="#33568B" d="M263.778 55.991c-3.167.597-9.545 3.63-14.63 7.983-.6-.32-1.29-.502-2.022-.502-2.346 0-4.248 1.86-4.248 4.154 0 .936.317 1.8.851 2.495-1.006 1.664-1.693 3.414-1.918 5.212-3.489 0-16.22-13.246-3.537-25.707 12.683-12.462 31.012 5.328 25.504 6.365z"/>
                <g>
                    <path fill="#C3D3EC" d="M231.291 157.614l25.963 85.173 12.577 72.433h9.861l-13.29-157.606z"/>
                    <path fill="#C3D3EC" d="M222.003 157.614c1.764 46.764-.312 70.886-.706 75.135-.395 4.249-5.8 31.798-18.594 83.898l10.508-3.622c20.22-47.783 27.11-72.617 29.43-78.891 2.32-6.275 8.479-31.782 18.479-76.52h-39.117z"/>
                    <path fill="url(#h)" d="M28.525.424l11.04 60.015h33.717L68.254.424z" transform="translate(199.316 157.19)"/>
                    <path fill="url(#i)" d="M22.316.424c-3.632 15.11-4.11 35.255-1.43 60.435h28.408c8.473-21.506 12.71-41.761 12.71-60.766L22.315.424z" transform="translate(199.316 157.19)"/>
                </g>
                <g>
                    <path fill="#C3D3EC" d="M295.833 148.603l19.544 19.133c5.687 2.434 10.346 5.121 13.978 8.063l.13.163c.746.989 1.34 2.584-1.973 1.933l-1.785-.379c-3.349-.682-6.525-1.086-7.154.006-.723 1.254 1.406 3.176.07 4.818-.89 1.094-3.882-2.387-8.978-10.442l-20.324-12.024 6.492-11.27zM215.369 131.345l-15.108-.057-1.183 6.18c-6.027 31.36-9.674 48.328-10.94 50.908-.989 2.012-8.304 8.125-13.38 11.618-2.038 1.402-1.195 3.196-.425 3.672 6.26 3.876 10.38-.707 15.798-3.236 5.936-2.771 5.435 5.053 10.14 2.94l-.598-1.296c-1.538-3.271-3.864-8.131-2.76-11.603l.454-1.276c1.53-4.525 7.53-23.808 18.002-57.85z"/>
                    <path fill="url(#j)" d="M72.837 7.01l5.965-1.026c9.399 33.337 57.686 56.06 60.65 68.522 1.088 4.57-2.19 6.88-.497 8.273l-7.755 5.696c-1.313-1.537-4.115 1.275-9.967-.692-5.852-1.967-48.396-41.299-48.396-80.772z" transform="translate(173.46 81.271)"/>
                    <path fill="url(#k)" d="M44.717 93.005c6.673 5.823 44.87 1.795 50.585-3.058 7.923-6.727-9.751-36.082-12.246-83.494L65.363 3.319C51.263 23.645 30.7 80.774 44.717 93.005z" transform="translate(173.46 81.271)"/>
                    <path fill="#709BD9" d="M237.196 84.59c-27.931 16.88-44.946 45.602-51.045 86.165-1.283 8.532 3.502 10.392 2.813 14.21l10.15 2.812c0-2.811 7.702-3.971 9.69-11.268 4.535-16.66 15.494-45.967 32.874-87.92l-4.482-3.998z"/>
                    <path fill="#709BD9" d="M239.763 81.93l11.939.21a5.002 5.002 0 0 1 4.912 5.086l-.094 5.367a4.17 4.17 0 0 1-4.243 4.097l-13.595-.238a4.173 4.173 0 0 1-4.099-4.244l.094-5.366a5 5 0 0 1 5.086-4.912z"/>
                </g>
            </g>
            <g>
                <path fill="#B4C5DF" d="M355.446 46.575c4.152 7.767 3.659 27.469-1.708 28.857-2.14.553-6.7-.803-11.341-3.61l2.913 20.679h-17.198l5.92-27.693c-3.302-3.89-5.537-8.656-5.163-13.997 1.076-15.389 22.424-12.003 26.577-4.236z"/>
                <path fill="#5077B1" d="M326.678 29.22c5.937 0 10.75 4.83 10.75 10.787l-.003-.154c8.64-3.004 19.853.506 18.353 7.546-.964 4.521-6.181 6.779-11.314 9.195a4.427 4.427 0 0 0-3.85-2.206c-2.437 0-4.412 1.932-4.412 4.315 0 .859.257 1.66.7 2.332-1.729 1.506-2.947 3.32-3.242 5.673-2.783 0-7.281-8.2-5.796-15.98-.389.043-.785.065-1.186.065-5.936 0-10.749-4.83-10.749-10.786 0-5.958 4.813-10.787 10.75-10.787z"/>
                <path fill="#B4C5DF" d="M321.429 150.975l26.25 90.77 12.347 68.15 11.58.072-11.558-158.992z"/>
                <path fill="#B4C5DF" d="M309.632 150.975c1.831 47.155 1.109 72.874.699 77.158-.41 4.284-2.737 32.977-18.596 83.2l11.07-.038c21.002-48.182 30.153-76.835 32.562-83.162 2.409-6.327 9.523-32.046 19.91-77.158h-45.645z"/>
                <path fill="url(#l)" d="M39.192.306C46.02 31.54 49.6 81.091 66.39 149.572h18.126C85.854 79.283 80.159 33.022 70.297 0L39.192.306z" transform="translate(289.904 150.975)"/>
                <path fill="url(#m)" d="M19.636 0c1.794 47.154-2.855 93.61-17.255 150.306h19.338c21.041-47.462 33.333-91.883 43.64-148.5L19.635 0z" transform="translate(289.904 150.975)"/>
                <g>
                    <path fill="#B4C5DF" d="M293.075 159.485l-5.37 32.844c-3.813 6.455-6.44 12.43-7.88 17.926l-.009.33c0 1.506.597 3.4 3.352.4l1.333-1.49c2.82-3.108 5.693-5.846 7.111-5.204 1.608.728.907 4.145 3.392 4.82 1.657.45 2.084-5.125 1.28-16.724l11.24-26.361-14.45-6.541zM360.874 144.874l9.572-9.06 4.869 3.724c16.72 12.747 26.274 19.58 28.662 20.5 1.914.736 10.602.277 16.164-.546 2.233-.33 2.79 1.406 2.574 2.208-1.753 6.528-7.358 6.02-12.547 7.705-5.684 1.848-.468 6.805-4.922 8.326-1.029-2.99-2.484-8.871-5.779-10.773l-1.142-.596c-3.41-1.84-15.894-9.002-37.451-21.488z"/>
                    <path fill="url(#n)" d="M51.754 8.034l6.08-1.602c24.64 17.85 37.385 55.17 67.227 72.919l-6.022 8.996c-49.233-1.79-65.375-47.259-67.285-80.313z" transform="rotate(5 -621.095 3280.89)"/>
                    <path fill="#CCDBF1" d="M310.075 157.274h54.829c2.505 0 2.033-3.63 1.671-5.462-4.18-21.142-20.497-43.932-20.497-74.027l-15.815-2.488c-13.081 21.111-17.605 47.104-20.188 81.977z"/>
                    <path fill="url(#o)" d="M21.42 98.233h49.355c6.37-16.153 2.452-48.384-11.753-96.693L50.726.62C39.026 21.793 23.73 63.258 21.42 98.233z" transform="translate(279.118 74.142)"/>
                    <path fill="#9CBEEF" d="M329.844 75.062c-29.57 28.44-43.638 65.912-42.204 112.414h11.758c10.218-17.861 22.541-53.87 36.971-108.027l-6.525-4.387z"/>
                </g>
            </g>
            <g>
                <path fill="#B4C5DF" d="M116.243 68.987c3.958 7.102 3.82 25.295-1.111 26.663-1.967.545-6.197-.633-10.526-3.149l3.022 19.04-15.875.277 5.02-25.656c-3.112-3.537-5.251-7.9-4.993-12.837.746-14.222 20.505-11.44 24.463-4.338z"/>
                <path fill="#33568B" d="M117.798 72.18c-.173-.927-.576-1.952-.901-2.826-.42-1.127-1.043-2.138-1.725-3.09a23.541 23.541 0 0 0-4.502-4.732c-3.076-2.43-6.961-3.794-10.75-3.262a10.953 10.953 0 0 0-5.322 2.283c-1.411 1.128-2.76 2.776-4.61 2.925-2.014.162-3.893-1.59-5.529-2.665-1.845-1.212-3.8-2.084-5.936-2.399-3.58-.527-6.912.741-9.32 3.723-2.563 3.172-4.386 7.791-2.595 11.905.333.764.756 1.406 1.355 1.934.55.484 1.385.995 1.618 1.78.248.833-.43 1.927-.686 2.688-.368 1.09-.665 2.233-.532 3.409.22 1.93 1.463 3.756 2.764 5.005 1.324 1.27 2.94 1.984 4.656 2.297 1.147.208 2.316.313 3.476.208.576-.053 1.081-.223 1.638-.36.54-.134.847.006 1.313.296 2.164 1.352 4.475 1.849 6.943 1.599 2.083-.21 4.479-.76 6.155-2.224 1.862-1.626 1.786-3.821 1.3-6.16.476.226 1.782.348.987-.572-.316-.365-.901-.505-1.3-.716-.466-.245-.94-.564-1.305-.971-1.475-1.643-.074-5.064 1.733-5.655 2.684-.879 3.356 2.941 5.3 3.898 1.117.55 2.263-.248 3.079-1.058 1.093-1.084 1.826-2.509 2.455-3.956.518-1.192.999-2.4 1.528-3.586.247-.554 1.107-2.122.65-2.736 1.927-.42 4.094.348 5.778 1.376.696.425 1.229.898 1.61 1.663.08.164.26.652.476.669.4.03.243-.458.199-.69"/>
                <path fill="url(#p)" d="M37.047 2.655l23.985 84.46 19.016 63.247 10.916-.996L72.699 2.656z" transform="translate(49.386 163.891)"/>
                <path fill="url(#q)" d="M30.633 2.655c-.555 43.532-2.447 67.275-3.03 71.23-.582 3.955-8.586 30.111-25.618 76.477h9.923c21.683-44.48 36.283-70.636 38.809-76.477 2.525-5.84 10.317-29.584 22.054-71.23H30.633z" transform="translate(49.386 163.891)"/>
                <g>
                    <path fill="#B4C5DF" d="M61.494 163.433l15.827 6.187-10.55 28.836c1.51 12.366 1.367 18.354-.431 17.966-2.697-.584-2.139-4.278-3.9-4.967-1.554-.607-4.474 2.483-7.317 5.966l-1.343 1.67c-2.78 3.364-3.524 1.371-3.608-.24l-.009-.353c1.232-5.961 3.708-12.502 7.426-19.622l3.905-35.443zm82.524-8.09l18.74 18.345c5.453 2.334 9.92 4.911 13.404 7.732.783.948 1.635 2.764-2.05 1.951-3.685-.813-7.597-1.501-8.29-.299-.692 1.203 1.348 3.046.068 4.62-.853 1.049-3.723-2.289-8.609-10.013l-19.488-11.529 6.225-10.807z"/>
                    <path fill="#709BD9" d="M100.124 99.719l5.72-.985c9.85 24.689 27.045 47.121 51.586 67.298l-18.545 22.609c-24.538-28.73-39.664-58.37-38.761-88.922z"/>
                    <path fill="#CCDBF1" d="M75.187 171.858h50.94c-11.802-28.795-17.703-53.255-17.703-73.382L93.058 96.18c-12.076 19.49-15.487 43.485-17.871 75.679z"/>
                    <path fill="url(#r)" d="M14.416 89.358h45.648c-4.195-39.342-6.488-65.504-6.881-78.486L49.47.224A642.979 642.979 0 0 0 43.986 0h-1.003C32.16 19.49 16.553 57.164 14.416 89.358z" transform="translate(49.756 96.179)"/>
                    <path fill="#709BD9" d="M92.72 96.179c-23.411 23.011-36.974 55.54-40.688 97.586h24.829c-2.573-35.404 4.146-66.654 20.157-93.753L92.72 96.18z"/>
                </g>
            </g>
        </g>
        <path fill="#D4A181" d="M503.86 23.545c4.658 9.512 3.238 33.179-3.262 34.623-2.593.576-8.008-1.246-13.46-4.815l2.627 24.983-20.645-.72 8.27-33.047c-3.8-4.814-6.283-10.639-5.61-17.044 1.937-18.457 27.42-13.492 32.08-3.98z"/>
        <path fill="#030A16" d="M513.457 10.919c-.375-1.525-1.48-2.859-3.016-3.296a4.102 4.102 0 0 0-1.146-.156c-.14.001-.18.04-.24-.06-.046-.074-.041-.25-.058-.336a6.322 6.322 0 0 0-.207-.787c-.293-.878-.812-1.664-1.446-2.333-1.186-1.252-2.817-2.144-4.537-2.355-.941-.115-1.884.006-2.787.283a10.96 10.96 0 0 0-1.366.532c-.134.062-.572.371-.703.345-.145-.028-.425-.402-.54-.497-1.424-1.18-3.216-1.687-5.04-1.737-2.057-.056-4.042-.022-5.802 1.179a11.53 11.53 0 0 0-1.07.83 9.104 9.104 0 0 0-.811.802c-.16.183-.138.246-.349.107-.808-.533-1.757-.802-2.725-.717a6.127 6.127 0 0 0-1.674.413c-.183.071-.61.365-.803.361-.19-.003-.591-.304-.785-.383a6.51 6.51 0 0 0-3.303-.424 8.537 8.537 0 0 0-3.294 1.17c-.478.29-.899.615-1.242 1.059-.149.191-.284.395-.451.571-.098.104-.288.207-.343.34.033-.08-1.235-.623-1.355-.66-.641-.191-1.3-.18-1.94.007-1.205.352-2.26 1.2-3.133 2.076-.448.45-.844.95-1.184 1.487a9.773 9.773 0 0 0-.452.793c-.067.13-.114.296-.2.414-.112.151-.183.152-.377.212a5.963 5.963 0 0 0-2.599 1.62 5.898 5.898 0 0 0-1.412 2.755c-.013.06-.028.311-.064.343-.05.043-.246.017-.32.023a6.672 6.672 0 0 0-.768.108 6.28 6.28 0 0 0-1.358.438c-1.693.77-2.936 2.279-3.58 4.004-.675 1.81-.737 3.908-.07 5.731.108.295.239.581.394.854.096.167.128.168.057.338-.08.188-.22.37-.314.553a8.12 8.12 0 0 0-.674 1.893c-.244 1.075-.386 2.21-.22 3.307.076.51.223 1.01.457 1.47a4.17 4.17 0 0 0 .69.975c.054.057.125.108.17.17.11.154.14.032.072.249-.094.303-.293.598-.419.892-.13.303-.248.61-.358.921-.221.63-.412 1.271-.54 1.926-.248 1.258-.259 2.608.296 3.79.237.505.587.953 1.018 1.308.211.173.44.324.683.45.125.065.285.096.339.222.057.134-.044.393-.07.54-.228 1.28-.367 2.629-.03 3.903a5.387 5.387 0 0 0 2.023 2.94c1.898 1.385 4.52 1.402 6.6.419a6.938 6.938 0 0 0 1.51-.967c1.078 1.57 3.408 1.603 5.076 1.224 2.08-.471 3.783-1.853 4.801-3.711 1.247 1.638 3.998 1.217 4.961-.48.236-.415.383-.877.465-1.347.042-.247.03-.498.063-.743.044-.312.263-.61.393-.909.254-.582.42-1.187.449-1.824.015-.332-.016-.658-.036-.989-.018-.298.074-.572.13-.863-.53.069-1.17-.097-1.662-.268-.483-.168-.927-.582-1.259-.958-.77-.872-1.221-1.995-1.517-3.108-.65-2.442-.248-5.331 2.217-6.573 1.148-.578 4.524-.458 5.855-.106 1.4.37 2.89 3.555 2.958 3.852.043.184.01.408.172.535.357.28.976-.162 1.253-.381.48-.378.83-.891 1.136-1.413a18.007 18.007 0 0 0 1.616-3.616c.31-.968.52-1.97.913-2.91.391-.936.985-1.763 1.88-2.27.974-.55 2.078-.82 3.138-1.15 1.05-.328 2.086-.737 2.917-1.481.183-.164.361-.338.51-.533.119-.154.24-.452.415-.546.272-.146.646.272.871.427 1.11.765 2.023 1.809 2.749 2.94.721 1.125 1.308 2.204 1.772 3.449.344.923.538 2.096 1.173 2.865.284.343 2.47.621 3.191.355.721-.265 1.544-.992 1.8-1.457a2.371 2.371 0 0 0 .251-1.54c-.05-.313-.165-.609-.223-.917-.049-.26-.093-.505-.21-.745a1.81 1.81 0 0 0-1.094-.94 5.316 5.316 0 0 0 1.274-1.616c.325-.641.608-1.425.705-2.138.08-.58.01-1.184-.29-1.695-.313-.535-.89-.897-1.387-1.242a9.332 9.332 0 0 0 2.066-2.108c1.12-1.564 1.848-3.558 1.374-5.485z"/>
        <path fill="#D4A181" d="M445.808 148.446l64.406 107.497 48.286 90.88h10.4l-80.903-198.377z"/>
        <path fill="url(#s)" d="M217.005 184.89l16.53-5.502c-8.38-27.307-18.946-56.708-31.7-88.204C189.084 59.688 175.387 29.294 160.748 0h-46.222c9.325 37.054 23.104 70.723 41.338 101.006s38.615 58.244 61.142 83.885z" transform="translate(331 148.446)"/>
        <path fill="#D4A181" d="M441.575 148.446c-6.079 37.775-17.803 86.038-18.91 87.527-.737.993-27.292 9.877-79.664 26.65l2.246 9.157c62.454-8.996 95.362-15.976 98.724-20.939 5.043-7.444 30.222-66.256 39.975-102.395h-42.37z"/>
        <path fill="url(#t)" d="M30.41 106.263l3.958 14.747c46.711 4.09 74.034-2.056 84.565-12.056C129.464 98.953 142.765 64.76 156.238 0h-49.426c-8.537 53.03-17.9 80.66-18.908 82.886-1.009 2.226-20.173 10.018-57.494 23.377z" transform="translate(331 148.446)"/>
        <path fill="#191847" d="M335.578 260.141l14.13-1.616c-.61 5.229.84 10.353 4.346 15.372-4.354 8.966-6.404 19.88-6.15 32.743a2.166 2.166 0 0 1-2.374 2.2l-3.967-.383-5.165-28.34-3.141-17.817 2.321-2.159z"/>
        <g>
            <path fill="#D4A181" d="M521.617 143.176l21.587 26.523c6.754 3.866 12.183 7.886 16.287 12.06.874 1.341 1.701 3.806-2.983 2.174-4.685-1.633-9.686-3.144-10.78-1.713-1.094 1.43 1.282 4.12-.638 5.932-1.28 1.208-4.502-3.53-9.668-14.215l-23.635-17.905 9.83-12.856zM419.514 130.364c-9.784 32.168-15.727 49.834-17.83 53-1.54 2.322-11.624 8.711-18.508 12.224-2.763 1.41-1.978 3.745-1.086 4.449 7.253 5.726 13.106.727 20.272-1.55 7.851-2.493 6.043 7.048 12.254 5.175-1.319-4.217-4.637-12.168-2.038-16.803 1.154-2.06 9.482-20.13 24.982-54.208l-18.046-2.287z"/>
            <path fill="url(#u)" d="M88.46 10.9l7.387-1.923c15.686 30.635 64.026 64.363 74.934 81.778l-6.37 12.483c-47.366-3.135-73.7-52.924-75.951-92.338z" transform="rotate(16 103.254 1432.212)"/>
            <path fill="#424750" d="M435.217 151.282l66.525 8.168c-10.88-38.804-14.736-71.107-11.568-96.908l-18.685-5.454c-18.839 23.048-28.09 53.307-36.272 94.194z"/>
            <path fill="url(#v)" d="M48.614 117.11l57.914.495c-3.678-59.403-5.775-97.488-6.292-114.254L86.113.96C71.873 26.13 51.426 75.53 48.614 117.11z" transform="rotate(7 -176.437 3178.843)"/>
            <path fill="#EF394E" d="M470.564 57.764c-34.197 25.745-57.03 65.27-68.497 118.573l18.395 1.932c20.264-24.995 38.634-63.295 55.11-114.902l-5.008-5.603z"/>
        </g>
    </g>
</svg>
