<?xml version="1.0" encoding="UTF-8"?>
<svg width="17px" height="18px" viewBox="0 0 17 18" version="1.1" xmlns="http://www.w3.org/2000/svg" xmlns:xlink="http://www.w3.org/1999/xlink">
    <!-- Generator: Sketch 50.2 (55047) - http://www.bohemiancoding.com/sketch -->
    <title>User</title>
    <desc>Created with Sketch.</desc>
    <defs></defs>
    <g id="Page-1" stroke="none" stroke-width="1" fill="none" fill-rule="evenodd">
        <g id="1" transform="translate(-417.000000, -560.000000)" fill="#404040" fill-rule="nonzero">
            <g id="Group-4">
                <g id="Group-2" transform="translate(81.000000, 204.000000)">
                    <g id="Group-6" transform="translate(47.000000, 356.000000)">
                        <path d="M299.695833,9.50769231 C301.230556,8.58461538 302.222222,6.76153846 302.222222,5.07692308 C302.222222,2.67692308 300.215278,0 297.5,0 C294.784722,0 292.777778,2.67692308 292.777778,5.07692308 C292.777778,6.76153846 293.769444,8.58461538 295.304167,9.50769231 C291.668056,10.4538462 289,13.7076923 289,17.5384615 C289,17.7923077 289.2125,18 289.472222,18 L305.527778,18 C305.7875,18 306,17.7923077 306,17.5384615 C306,13.7076923 303.331944,10.4538462 299.695833,9.50769231 Z M293.722222,5.07692308 C293.722222,2.7 295.729167,0.923076923 297.5,0.923076923 C299.270833,0.923076923 301.277778,2.7 301.277778,5.07692308 C301.277778,7.45384615 299.270833,9.23076923 297.5,9.23076923 C295.729167,9.23076923 293.722222,7.45384615 293.722222,5.07692308 Z M289.968056,17.0769231 C290.204167,13.2230769 293.509722,10.1538462 297.5,10.1538462 C301.490278,10.1538462 304.795833,13.2230769 305.031944,17.0769231 L289.968056,17.0769231 Z" id="User"></path>
                    </g>
                </g>
            </g>
        </g>
    </g>
</svg>