<svg xmlns="http://www.w3.org/2000/svg" width="149" height="151" viewBox="0 0 149 151">
    <g fill="none" fill-rule="evenodd">
        <path fill="#FFC061" d="M143.772 145.793H96.719v-36.448H143.772v36.448zm-36.597-44.259c0-7.177 5.864-13.017 13.07-13.017 7.208 0 13.07 5.84 13.07 13.017v2.604h-26.14v-2.604zm31.369 2.604v-2.604c0-10.046-8.208-18.224-18.298-18.224-10.09 0-18.299 8.178-18.299 18.224v2.604H91.491V151H149v-46.862h-10.456z"/>
        <path fill="#FFC061" d="M120.246 130.172c-2.884 0-5.228-2.335-5.228-5.206 0-2.872 2.344-5.207 5.228-5.207 2.883 0 5.228 2.335 5.228 5.207 0 2.871-2.345 5.206-5.228 5.206m0-15.62c-5.767 0-10.457 4.67-10.457 10.414 0 4.84 3.346 8.88 7.843 10.044v2.973a2.608 2.608 0 0 0 2.614 2.603 2.608 2.608 0 0 0 2.614-2.603v-2.973c4.496-1.164 7.842-5.205 7.842-10.044 0-5.744-4.69-10.414-10.456-10.414"/>
        <path fill="#949494" d="M71.886 26.034c8.953 0 15.415 2.161 19.203 6.42 4.423 4.976 3.699 11.354 3.693 11.406l-.023 14.843.862.775c.939.844 1.456 1.974 1.456 3.184v9.23c0 1.885-1.241 3.53-3.087 4.097a2.607 2.607 0 0 0-1.728 3.257 2.615 2.615 0 0 0 3.268 1.721c4.052-1.247 6.773-4.892 6.773-9.075v-9.23a9.466 9.466 0 0 0-2.316-6.167v-12.15c.136-1.354.617-8.977-4.922-15.267-4.818-5.478-12.616-8.25-23.179-8.25-10.563 0-18.361 2.772-23.179 8.247-5.539 6.29-5.058 13.918-4.922 15.267v12.15a9.466 9.466 0 0 0-2.316 6.168v9.229a9.461 9.461 0 0 0 3.5 7.344c2.118 8.261 6.473 14.515 8.083 16.634v7.534a5.804 5.804 0 0 1-3.038 5.098l-20.669 11.228c-.661.36-1.312.776-1.966 1.242C13.792 108.803 5.23 91.178 5.23 71.595c0-36.607 29.901-66.388 66.657-66.388s66.658 29.78 66.658 66.388a2.608 2.608 0 0 0 2.614 2.603 2.608 2.608 0 0 0 2.614-2.603C143.772 32.119 111.525 0 71.886 0 32.246 0 0 32.119 0 71.595c0 20.853 9.003 39.648 23.335 52.743l-.067.06 2.329 1.955c.146.123.305.224.452.346a72.256 72.256 0 0 0 3.858 2.958c.416.3.831.599 1.252.888a73.622 73.622 0 0 0 4.303 2.736l.957.55a72.49 72.49 0 0 0 4.917 2.553c.123.058.245.11.368.167a71.464 71.464 0 0 0 17.384 5.48l.483.086a71.64 71.64 0 0 0 5.743.76c.236.021.473.034.709.055 1.937.156 3.887.258 5.863.258a2.608 2.608 0 0 0 2.614-2.604 2.608 2.608 0 0 0-2.614-2.603c-1.657 0-3.31-.08-4.954-.203-.285-.021-.57-.04-.852-.065a67.017 67.017 0 0 1-4.948-.61c-.068-.01-.136-.026-.201-.036a66.998 66.998 0 0 1-10.203-2.536c-.089-.028-.178-.06-.267-.09a67.13 67.13 0 0 1-9.413-4.02c-.175-.092-.353-.178-.525-.269a67.395 67.395 0 0 1-5.071-3.01 66.92 66.92 0 0 1-3.511-2.436c-.118-.089-.23-.182-.348-.271.084-.047.168-.094.254-.14l20.669-11.23a11.006 11.006 0 0 0 5.761-9.668v-9.38l-.609-.724c-.055-.066-5.688-6.858-7.84-16.18l-.237-1.032-.892-.575c-1.257-.81-2.01-2.164-2.01-3.624v-9.23c0-1.21.518-2.337 1.456-3.183l.863-.776V44.194l-.024-.342c-.007-.062-.779-6.323 3.65-11.35 3.785-4.288 10.26-6.468 19.252-6.468"/>
    </g>
</svg>
