<svg xmlns="http://www.w3.org/2000/svg" xmlns:xlink="http://www.w3.org/1999/xlink" width="23" height="34" viewBox="0 0 23 34">
    <defs>
        <linearGradient id="sx1jni1teb" x1="50%" x2="50%" y1="6.504%" y2="95.159%">
            <stop offset="0%" stop-color="#F8E5F6"/>
            <stop offset="100%" stop-color="#E7B2E0"/>
        </linearGradient>
        <linearGradient id="hmn7k7983d" x1="50%" x2="50%" y1="0%" y2="100%">
            <stop offset="0%" stop-color="#DF88D2"/>
            <stop offset="100%" stop-color="#AF4199"/>
        </linearGradient>
        <path id="1xc12mzj8a" d="M2.984.07C1.366.07.059 1.484.059 3.229v14.188c0 1.749 1.31 3.159 2.925 3.159h10.723c1.618 0 2.925-1.415 2.925-3.16V3.23c0-1.75-1.31-3.159-2.925-3.159H2.984z"/>
    </defs>
    <g fill="none" fill-rule="evenodd">
        <g>
            <g>
                <g transform="translate(-1327 -138) translate(1328 139) translate(1.04 5.161)">
                    <mask id="uruke8dr7c" fill="#fff">
                        <use xlink:href="#1xc12mzj8a"/>
                    </mask>
                    <path fill="url(#sx1jni1teb)" d="M2.984.07C1.366.07.059 1.484.059 3.229v14.188c0 1.749 1.31 3.159 2.925 3.159h10.723c1.618 0 2.925-1.415 2.925-3.16V3.23c0-1.75-1.31-3.159-2.925-3.159H2.984z" mask="url(#uruke8dr7c)"/>
                </g>
                <g>
                    <path fill="url(#hmn7k7983d)" d="M3.867 29.995c.154.827.974 1.497 1.83 1.497h7.26c.856 0 1.676-.674 1.828-1.497l.759-4.09H3.109l.758 4.09z" transform="translate(-1327 -138) translate(1328 139)"/>
                    <path fill="url(#hmn7k7983d)" d="M3.73 5.06c.153.826.974 1.497 1.83 1.497h7.259c.857 0 1.676-.674 1.829-1.497l.759-4.09H2.97l.759 4.09z" transform="translate(-1327 -138) translate(1328 139) matrix(1 0 0 -1 0 7.527)"/>
                    <path fill="#C979B8" d="M19.248 15.746h-1.113v-4.571h1.113c.53 0 .96.42.96.94v2.69c0 .52-.43.941-.96.941" transform="translate(-1327 -138) translate(1328 139)"/>
                    <path fill="#A6358A" stroke="#A6358A" d="M19.69 14.806c0 .238-.199.432-.442.432h-.595v-3.555h.595c.243 0 .441.194.441.432v2.69zm-2.074 8.048c0 1.402-1.162 2.543-2.59 2.543H3.626c-1.428 0-2.59-1.14-2.59-2.543V9.147c0-1.403 1.162-2.544 2.59-2.544h11.398c1.43 0 2.591 1.141 2.591 2.544v13.707zm-3.34 7.05c-.109.585-.713 1.08-1.32 1.08h-7.26c-.606 0-1.21-.494-1.319-1.08l-.647-3.491h11.193l-.647 3.49zm-9.9-27.808c.11-.585.714-1.08 1.32-1.08h7.26c.607 0 1.21.495 1.32 1.08l.647 3.491H3.73l.647-3.49zm14.872 8.57h-.595v-1.52c0-1.63-1.124-3.007-2.652-3.427l-.706-3.804C15.096.84 14.07 0 12.956 0h-7.26c-1.112 0-2.14.841-2.338 1.915l-.706 3.804C1.124 6.14 0 7.516 0 9.147v13.707c0 1.63 1.124 3.008 2.652 3.427l.705 3.805C3.557 31.159 4.584 32 5.697 32h7.26c1.112 0 2.139-.84 2.338-1.914l.706-3.805c1.527-.419 2.652-1.796 2.652-3.427v-6.6h.595c.815 0 1.477-.65 1.477-1.448v-2.69c0-.8-.662-1.45-1.477-1.45h0z" transform="translate(-1327 -138) translate(1328 139)"/>
                </g>
            </g>
        </g>
    </g>
</svg>
