<svg xmlns="http://www.w3.org/2000/svg" width="19.534" height="20.722" viewBox="0 0 19.534 20.722">
  <g id="Setting" transform="translate(-2.4 -1.528)">
    <path id="Path_33946" d="M20.807,7.624l-.622-1.08a1.913,1.913,0,0,0-2.609-.7h0a1.9,1.9,0,0,1-2.609-.677,1.832,1.832,0,0,1-.256-.915h0A1.913,1.913,0,0,0,12.8,2.278H11.543a1.9,1.9,0,0,0-1.9,1.913h0A1.913,1.913,0,0,1,7.727,6.077a1.831,1.831,0,0,1-.915-.256h0a1.913,1.913,0,0,0-2.609.7l-.668,1.1a1.913,1.913,0,0,0,.7,2.609h0a1.913,1.913,0,0,1,0,3.314h0a1.9,1.9,0,0,0-.7,2.6h0l.632,1.089a1.913,1.913,0,0,0,2.609.741h0a1.895,1.895,0,0,1,2.6.7,1.831,1.831,0,0,1,.256.915h0A1.913,1.913,0,0,0,11.543,21.5H12.8a1.913,1.913,0,0,0,1.913-1.9h0a1.9,1.9,0,0,1,1.913-1.913,1.949,1.949,0,0,1,.915.256h0a1.913,1.913,0,0,0,2.609-.7h0l.659-1.1a1.9,1.9,0,0,0-.7-2.609h0a1.9,1.9,0,0,1-.7-2.609,1.877,1.877,0,0,1,.7-.7h0a1.913,1.913,0,0,0,.7-2.6h0Z" fill="none" stroke="#aeaeae" stroke-linecap="round" stroke-linejoin="round" stroke-width="1.5" fill-rule="evenodd"/>
    <circle id="Ellipse_737" cx="2.636" cy="2.636" r="2.636" transform="translate(9.539 9.253)" fill="none" stroke="#aeaeae" stroke-linecap="round" stroke-linejoin="round" stroke-width="1.5"/>
  </g>
</svg>
